<svg width="48" height="48" viewBox="0 0 48 48" fill="none" xmlns="http://www.w3.org/2000/svg">
<path d="M2.66797 23.9998C2.66797 18.3419 4.91558 12.9157 8.91636 8.91489C12.9171 4.91412 18.3434 2.6665 24.0013 2.6665C29.6593 2.6665 35.0855 4.91412 39.0862 8.91489C43.087 12.9157 45.3346 18.3419 45.3346 23.9998V37.5732C45.3346 39.8345 45.3346 40.9598 44.9986 41.8638C44.7315 42.5802 44.3134 43.2307 43.7728 43.7713C43.2322 44.3119 42.5816 44.73 41.8653 44.9972C40.9613 45.3332 39.8333 45.3332 37.5746 45.3332H24.0013C18.3434 45.3332 12.9171 43.0856 8.91636 39.0848C4.91558 35.084 2.66797 29.6578 2.66797 23.9998Z" stroke="#DB1222" stroke-width="4"/>
<path d="M16 21.333H32M24 31.9997H32" stroke="#DB1222" stroke-width="4" stroke-linecap="round" stroke-linejoin="round"/>
</svg>
