<svg width="65" height="64" viewBox="0 0 65 64" fill="none" xmlns="http://www.w3.org/2000/svg">
<path fill-rule="evenodd" clip-rule="evenodd" d="M13.0714 39.856C14.2024 42.6863 15.9363 45.2506 18.1658 47.3637C21.1349 50.1779 24.8559 52.0714 28.8786 52.8151C32.9014 53.5588 37.0534 53.1209 40.8324 51.5543C44.6115 49.9876 47.8556 47.3595 50.1722 43.9878C52.4889 40.6161 53.7788 36.6453 53.886 32.5558C53.9932 28.4663 52.9131 24.4334 50.7762 20.9449C48.6394 17.4565 45.5375 14.662 41.8457 12.8996C38.1539 11.1371 34.0305 10.4823 29.9744 11.0142L30.2457 13.0829L31.0075 15.9261C33.9814 15.6081 36.988 16.1211 39.6916 17.4117C42.5113 18.7579 44.8805 20.8922 46.5126 23.5566C48.1446 26.2211 48.9696 29.3013 48.8878 32.4248C48.8059 35.5482 47.8206 38.5811 46.0512 41.1563C44.2818 43.7315 41.804 45.7389 38.9177 46.9354C36.0313 48.132 32.8601 48.4664 29.7876 47.8984C26.7151 47.3304 23.8731 45.8842 21.6054 43.7348C20.0479 42.2586 18.8072 40.4943 17.9457 38.5499L13.0714 39.856Z" fill="#DB1222"/>
<path d="M16.4916 10.8441C19.0052 8.91534 21.8402 7.45161 24.8626 6.51901C25.3047 6.38259 25.5257 6.31439 25.7118 6.41723C25.8979 6.52007 25.9593 6.7494 26.0822 7.20807L32.4664 31.0342C32.5884 31.4896 32.6495 31.7172 32.5459 31.8966C32.4423 32.076 32.2147 32.137 31.7593 32.259L7.93316 38.6432C7.4745 38.7661 7.24516 38.8275 7.06306 38.7178C6.88095 38.608 6.82949 38.3825 6.72659 37.9314C6.02306 34.8477 5.87319 31.6607 6.28673 28.5195C6.74382 25.0475 7.88029 21.6996 9.63125 18.6668C11.3822 15.6341 13.7134 12.9759 16.4916 10.8441Z" stroke="#DB1222" stroke-width="5"/>
</svg>
