<svg width="62" height="60" viewBox="0 0 62 60" fill="none" xmlns="http://www.w3.org/2000/svg">
<path d="M52.2617 30.924L51.7127 36.039L56.1827 36.519L56.7347 31.407L52.2617 30.924ZM34.1507 54.75H27.6227V59.25H34.1507V54.75ZM10.0607 36.039L9.51172 30.924L5.03872 31.404L5.58772 36.519L10.0607 36.039ZM23.1317 27.897L28.5017 18.273L24.5717 16.08L19.2017 25.707L23.1317 27.897ZM33.2717 18.273L38.6417 27.897L42.5717 25.707L37.2017 16.08L33.2717 18.273ZM38.6417 27.897C39.1277 28.767 39.5717 29.577 40.0067 30.192C40.4537 30.825 41.0567 31.527 41.9897 31.938L43.8047 27.819C43.9727 27.891 43.9427 27.969 43.6877 27.606C43.2869 26.9904 42.9145 26.3567 42.5717 25.707L38.6417 27.897ZM45.7097 26.142C44.9357 26.916 44.4737 27.372 44.1107 27.663C43.7657 27.942 43.7597 27.861 43.9397 27.837L44.5547 32.295C45.5627 32.154 46.3397 31.647 46.9427 31.161C47.5277 30.687 48.1787 30.033 48.8867 29.331L45.7097 26.142ZM41.9897 31.938C42.7967 32.292 43.6847 32.415 44.5547 32.295L43.9397 27.837C43.8939 27.8414 43.8477 27.8353 43.8047 27.819L41.9897 31.938ZM12.8897 29.328C13.5947 30.033 14.2457 30.687 14.8307 31.158C15.4337 31.65 16.2107 32.154 17.2187 32.295L17.8337 27.837C18.0137 27.861 18.0077 27.942 17.6627 27.663C17.1067 27.1808 16.5731 26.6733 16.0637 26.142L12.8897 29.328ZM19.2017 25.707C18.858 26.3568 18.4846 26.9905 18.0827 27.606C17.8307 27.966 17.8007 27.891 17.9687 27.816L19.7807 31.938C20.7107 31.527 21.3227 30.828 21.7667 30.192C22.1987 29.574 22.6457 28.767 23.1317 27.897L19.2017 25.707ZM17.2187 32.295C18.0887 32.415 18.9767 32.295 19.7807 31.938L17.9687 27.816C17.9257 27.8323 17.8795 27.8414 17.8337 27.837L17.2187 32.295ZM27.6227 54.75C23.3087 54.75 20.2877 54.747 17.9837 54.45C15.7397 54.165 14.4737 53.631 13.5227 52.782L10.5227 56.136C12.4127 57.828 14.6927 58.566 17.4107 58.914C20.0687 59.253 23.4287 59.25 27.6227 59.25V54.75ZM5.58772 36.519C6.03172 40.653 6.38572 44.7 6.98572 47.982C7.28872 49.638 7.67272 51.198 8.20072 52.551C8.72572 53.895 9.45172 55.176 10.5227 56.136L13.5227 52.782C13.1747 52.47 12.7787 51.9 12.3917 50.913C12.0117 49.937 11.6857 48.69 11.4137 47.172C10.8497 44.106 10.5197 40.332 10.0607 36.039L5.58772 36.519ZM51.7127 36.039C51.2507 40.332 50.9207 44.106 50.3627 47.169C50.0867 48.689 49.7597 49.937 49.3817 50.913C48.9947 51.9 48.5987 52.473 48.2507 52.782L51.2507 56.136C52.3217 55.176 53.0477 53.895 53.5727 52.551C54.1007 51.198 54.4847 49.638 54.7877 47.982C55.3877 44.7 55.7417 40.65 56.1857 36.519L51.7127 36.039ZM34.1507 59.25C38.3447 59.25 41.7047 59.253 44.3627 58.914C47.0837 58.566 49.3607 57.828 51.2507 56.136L48.2507 52.782C47.2997 53.631 46.0337 54.162 43.7897 54.45C41.4857 54.747 38.4647 54.75 34.1507 54.75V59.25ZM27.1367 9C27.1367 6.93 28.8167 5.25 30.8867 5.25V0.75C28.6987 0.75 26.6003 1.61919 25.0531 3.16637C23.5059 4.71354 22.6367 6.81196 22.6367 9H27.1367ZM30.8867 5.25C32.9567 5.25 34.6367 6.93 34.6367 9H39.1367C39.1367 6.81196 38.2675 4.71354 36.7204 3.16637C35.1732 1.61919 33.0748 0.75 30.8867 0.75V5.25ZM57.1367 21C57.1367 21.5967 56.8997 22.169 56.4777 22.591C56.0558 23.0129 55.4835 23.25 54.8867 23.25V27.75C56.6769 27.75 58.3938 27.0388 59.6597 25.773C60.9256 24.5071 61.6367 22.7902 61.6367 21H57.1367ZM52.6367 21C52.6367 20.4033 52.8738 19.831 53.2957 19.409C53.7177 18.9871 54.29 18.75 54.8867 18.75V14.25C53.0965 14.25 51.3796 14.9612 50.1137 16.227C48.8479 17.4929 48.1367 19.2098 48.1367 21H52.6367ZM54.8867 18.75C55.4835 18.75 56.0558 18.9871 56.4777 19.409C56.8997 19.831 57.1367 20.4033 57.1367 21H61.6367C61.6367 19.2098 60.9256 17.4929 59.6597 16.227C58.3938 14.9612 56.6769 14.25 54.8867 14.25V18.75ZM6.88672 23.25C6.28998 23.25 5.71769 23.0129 5.29573 22.591C4.87377 22.169 4.63672 21.5967 4.63672 21H0.136719C0.136719 22.7902 0.847877 24.5071 2.11375 25.773C3.37962 27.0388 5.09651 27.75 6.88672 27.75V23.25ZM4.63672 21C4.63672 20.4033 4.87377 19.831 5.29573 19.409C5.71769 18.9871 6.28998 18.75 6.88672 18.75V14.25C5.09651 14.25 3.37962 14.9612 2.11375 16.227C0.847877 17.4929 0.136719 19.2098 0.136719 21H4.63672ZM6.88672 18.75C7.48346 18.75 8.05575 18.9871 8.47771 19.409C8.89967 19.831 9.13672 20.4033 9.13672 21H13.6367C13.6367 19.2098 12.9256 17.4929 11.6597 16.227C10.3938 14.9612 8.67693 14.25 6.88672 14.25V18.75ZM54.8867 23.25H54.8597L54.8087 27.75H54.8867V23.25ZM56.7347 31.407C56.8817 30.057 57.0077 28.878 57.0767 27.894C57.1606 26.9978 57.1566 26.0955 57.0647 25.2L52.6037 25.8C52.6487 26.13 52.6517 26.67 52.5887 27.576C52.5287 28.458 52.4117 29.547 52.2617 30.924L56.7347 31.407ZM54.8597 23.25C54.5409 23.2462 54.2265 23.1748 53.9374 23.0403C53.6483 22.9058 53.391 22.7114 53.1827 22.47L49.7777 25.41C50.9957 26.82 52.7957 27.726 54.8087 27.75L54.8597 23.25ZM53.1827 22.47C52.828 22.0627 52.6338 21.5401 52.6367 21H48.1367C48.1367 22.683 48.7577 24.228 49.7777 25.41L53.1827 22.47ZM48.8867 29.331C50.9177 27.306 51.9647 26.286 52.6607 25.854L50.2997 22.026C49.0397 22.806 47.5277 24.33 45.7097 26.142L48.8867 29.331ZM9.13672 21C9.1396 21.5401 8.94548 22.0627 8.59072 22.47L11.9957 25.41C13.0157 24.228 13.6367 22.683 13.6367 21H9.13672ZM16.0637 26.142C14.2457 24.33 12.7337 22.803 11.4737 22.026L9.11272 25.854C9.80872 26.286 10.8527 27.306 12.8867 29.331L16.0637 26.142ZM8.59072 22.47C8.38242 22.7114 8.12519 22.9058 7.83607 23.0403C7.54695 23.1748 7.23256 23.2462 6.91372 23.25L6.96472 27.75C7.92123 27.7387 8.86442 27.5243 9.73177 27.1208C10.5991 26.7174 11.3708 26.1343 11.9957 25.41L8.59072 22.47ZM6.91372 23.25H6.88672V27.75H6.96472L6.91372 23.25ZM9.51172 30.924C9.38377 29.8099 9.27475 28.6938 9.18472 27.576C9.12117 26.9859 9.11615 26.391 9.16972 25.8L4.70872 25.2C4.61686 26.0955 4.61285 26.9978 4.69672 27.894C4.76572 28.878 4.89172 30.054 5.03872 31.404L9.51172 30.924ZM34.6367 9C34.6367 10.455 33.8087 11.721 32.5877 12.345L34.6307 16.353C35.987 15.6623 37.1257 14.6099 37.921 13.3121C38.7162 12.0144 39.137 10.522 39.1367 9H34.6367ZM32.5877 12.345C32.0777 12.603 31.5047 12.75 30.8867 12.75V17.25C32.1894 17.2511 33.4737 16.9427 34.6337 16.35L32.5877 12.345ZM37.2017 16.08C36.5837 14.97 36.0287 13.971 35.5187 13.155L31.7027 15.54C32.1407 16.242 32.6327 17.133 33.2717 18.273L37.2017 16.08ZM30.8867 12.75C30.2687 12.75 29.6927 12.6 29.1857 12.345L27.1427 16.353C28.2677 16.926 29.5427 17.25 30.8867 17.25V12.75ZM29.1857 12.345C28.5687 12.0309 28.0506 11.5522 27.689 10.9618C27.3273 10.3714 27.1362 9.69237 27.1367 9H22.6367C22.637 10.5215 23.058 12.0133 23.8533 13.3104C24.6485 14.6076 25.7869 15.6595 27.1427 16.35L29.1857 12.345ZM28.5017 18.273C29.1377 17.127 29.6327 16.242 30.0707 15.543L26.2547 13.155C25.7447 13.971 25.1897 14.97 24.5717 16.08L28.5017 18.273Z" fill="#DB1222"/>
</svg>
