<svg width="67" height="63" viewBox="0 0 67 63" fill="none" xmlns="http://www.w3.org/2000/svg">
<path d="M56.2874 23.0821L57.0254 21.3841C58.3229 18.3802 60.6992 15.9718 63.6854 14.6341L65.9624 13.6171C66.2386 13.49 66.4726 13.2864 66.6367 13.0304C66.8007 12.7743 66.8879 12.4766 66.8879 12.1726C66.8879 11.8685 66.8007 11.5708 66.6367 11.3148C66.4726 11.0588 66.2386 10.8551 65.9624 10.7281L63.8114 9.77107C60.7502 8.39521 58.3332 5.89771 57.0584 2.79307L56.2994 0.96007C56.1879 0.676131 55.9935 0.432363 55.7414 0.260545C55.4894 0.0887256 55.1914 -0.00317383 54.8864 -0.00317383C54.5813 -0.00317383 54.2834 0.0887256 54.0313 0.260545C53.7793 0.432363 53.5848 0.676131 53.4734 0.96007L52.7144 2.79007C51.4409 5.8953 49.025 8.39387 45.9644 9.77107L43.8104 10.7311C43.535 10.8585 43.3018 11.0621 43.1384 11.3178C42.9749 11.5735 42.8881 11.8706 42.8881 12.1741C42.8881 12.4775 42.9749 12.7747 43.1384 13.0303C43.3018 13.286 43.535 13.4896 43.8104 13.6171L46.0904 14.6311C49.0759 15.9702 51.4512 18.3796 52.7474 21.3841L53.4854 23.0821C54.0254 24.3241 55.7444 24.3241 56.2874 23.0821ZM12.8864 15.0001C12.4206 15.0001 11.9613 15.1085 11.5447 15.3168C11.1282 15.5251 10.7658 15.8275 10.4864 16.2001L1.48636 28.2001C1.06944 28.7562 0.858553 29.4398 0.889742 30.1342C0.920931 30.8286 1.19226 31.4906 1.65736 32.0071L28.6574 62.0071C28.9387 62.3194 29.2825 62.569 29.6665 62.74C30.0504 62.9109 30.4661 62.9992 30.8864 62.9992C31.3067 62.9992 31.7223 62.9109 32.1063 62.74C32.4903 62.569 32.8341 62.3194 33.1154 62.0071L60.1154 32.0071L55.6574 27.9931L30.8864 55.5151L7.76536 29.8261L14.3864 21.0001H39.8864V15.0001H12.8864Z" fill="#DB1222"/>
</svg>
