<svg width="86" height="86" viewBox="0 0 86 86" fill="none" xmlns="http://www.w3.org/2000/svg">
<rect width="86" height="86" rx="8" fill="#DB1222"/>
<path d="M46.34 35H55C56.0609 35 57.0783 35.4214 57.8284 36.1716C58.5786 36.9217 59 37.9391 59 39V47.66M23 47H27M59 47H63M63 63L23 23M35 35H31C29.9391 35 28.9217 35.4214 28.1716 36.1716C27.4214 36.9217 27 37.9391 27 39V55C27 56.0609 27.4214 57.0783 28.1716 57.8284C28.9217 58.5786 29.9391 59 31 59H55C56.0608 58.9998 57.078 58.5782 57.828 57.828M37 45V49M38.34 27H43V31.66" stroke="white" stroke-width="4" stroke-linecap="round" stroke-linejoin="round"/>
</svg>
