<svg width="65" height="65" viewBox="0 0 65 65" fill="none" xmlns="http://www.w3.org/2000/svg">
<path fill-rule="evenodd" clip-rule="evenodd" d="M20.1484 54.5V40.5H10.1484C7.49627 40.5 4.95273 39.4464 3.07737 37.5711C1.20201 35.6957 0.148438 33.1522 0.148438 30.5L0.148438 10.5C0.148438 7.84784 1.20201 5.3043 3.07737 3.42893C4.95273 1.55357 7.49627 0.5 10.1484 0.5L38.1484 0.5C39.4617 0.5 40.762 0.758658 41.9753 1.2612C43.1885 1.76375 44.2909 2.50035 45.2195 3.42893C46.1481 4.35752 46.8847 5.45991 47.3872 6.67317C47.8898 7.88642 48.1484 9.18678 48.1484 10.5V20.5H54.1484C56.8006 20.5 59.3441 21.5536 61.2195 23.4289C63.0949 25.3043 64.1484 27.8478 64.1484 30.5V54.5C64.1484 57.1522 63.0949 59.6957 61.2195 61.5711C59.3441 63.4464 56.8006 64.5 54.1484 64.5H30.1484C27.4963 64.5 24.9527 63.4464 23.0774 61.5711C21.202 59.6957 20.1484 57.1522 20.1484 54.5ZM4.14844 10.5C4.14844 8.9087 4.78058 7.38258 5.9058 6.25736C7.03102 5.13214 8.55714 4.5 10.1484 4.5H12.1484V12.5H4.14844V10.5ZM4.14844 16.5H12.1484V24.5H4.14844V16.5ZM4.14844 28.5H12.1484V36.5H10.1484C8.55714 36.5 7.03102 35.8679 5.9058 34.7426C4.78058 33.6174 4.14844 32.0913 4.14844 30.5V28.5ZM16.1484 36.5V4.5H32.1484V20.5H30.1484C27.4963 20.5 24.9527 21.5536 23.0774 23.4289C21.202 25.3043 20.1484 27.8478 20.1484 30.5V36.5H16.1484ZM44.1484 20.5V16.5H36.1484V20.5H44.1484ZM44.1484 10.5V12.5H36.1484V4.5H38.1484C39.7397 4.5 41.2659 5.13214 42.3911 6.25736C43.5163 7.38258 44.1484 8.9087 44.1484 10.5ZM30.1484 24.5C28.5571 24.5 27.031 25.1321 25.9058 26.2574C24.7806 27.3826 24.1484 28.9087 24.1484 30.5V54.5C24.1484 56.456 25.0844 58.192 26.5324 59.3L48.7324 37.1C49.1075 36.7251 49.6161 36.5144 50.1464 36.5144C50.6768 36.5144 51.1854 36.7251 51.5604 37.1L60.1604 45.7V30.54C60.1604 28.9487 59.5283 27.4226 58.4031 26.2974C57.2779 25.1721 55.7517 24.54 54.1604 24.54H30.1604L30.1484 24.5ZM60.1484 51.34L50.1484 41.34L30.9884 60.5H54.1484C55.7397 60.5 57.2659 59.8679 58.3911 58.7426C59.5163 57.6174 60.1484 56.0913 60.1484 54.5V51.328V51.34Z" fill="#DB1222"/>
</svg>
