<svg width="64" height="64" viewBox="0 0 64 64" fill="none" xmlns="http://www.w3.org/2000/svg">
<path d="M60 12V8H54V4H50V8H48C45.794 8 44 9.796 44 12V16C44 18.206 45.794 20 48 20H56V24H44V28H50V32H54V28H56C58.206 28 60 26.206 60 24V20C60 17.796 58.206 16 56 16H48V12H60ZM48 40V44H53.172L46 51.172L41.416 46.586C41.0415 46.2114 40.5337 46.0006 40.004 46H40C39.4703 46.0006 38.9625 46.2114 38.588 46.586L28 57.172L30.828 60L40.002 50.828L44.586 55.414C44.9611 55.7889 45.4697 55.9996 46 55.9996C46.5303 55.9996 47.0389 55.7889 47.414 55.414L56 46.828V52H60V40H48ZM8 60H4V50C4 42.28 10.28 36 18 36H30C33.978 36 37.78 37.7 40.434 40.666L37.454 43.334C36.516 42.2851 35.3673 41.446 34.0828 40.8715C32.7983 40.297 31.4071 40 30 40H18C12.486 40 8 44.486 8 50V60ZM24 32C27.713 32 31.274 30.525 33.8995 27.8995C36.525 25.274 38 21.713 38 18C38 14.287 36.525 10.726 33.8995 8.1005C31.274 5.475 27.713 4 24 4C20.287 4 16.726 5.475 14.1005 8.1005C11.475 10.726 10 14.287 10 18C10 21.713 11.475 25.274 14.1005 27.8995C16.726 30.525 20.287 32 24 32ZM24 8C26.6522 8 29.1957 9.05357 31.0711 10.9289C32.9464 12.8043 34 15.3478 34 18C34 20.6522 32.9464 23.1957 31.0711 25.0711C29.1957 26.9464 26.6522 28 24 28C21.3478 28 18.8043 26.9464 16.9289 25.0711C15.0536 23.1957 14 20.6522 14 18C14 15.3478 15.0536 12.8043 16.9289 10.9289C18.8043 9.05357 21.3478 8 24 8Z" fill="#DB1222"/>
</svg>
