<svg width="56" height="55" viewBox="0 0 56 55" fill="none" xmlns="http://www.w3.org/2000/svg">
<path d="M50.7246 26C50.7246 21.2533 49.317 16.6131 46.6799 12.6663C44.0427 8.71955 40.2944 5.64341 35.909 3.8269C31.5236 2.0104 26.698 1.53512 22.0425 2.46116C17.3869 3.38721 13.1105 5.67299 9.75406 9.02945C6.3976 12.3859 4.11182 16.6623 3.18577 21.3178C2.25973 25.9734 2.73501 30.799 4.55151 35.1844C6.36801 39.5698 9.44416 43.3181 13.3909 45.9553C17.3377 48.5924 21.9779 50 26.7246 50M4.32462 18H49.1246M4.32462 34H25.3913" stroke="#DB1222" stroke-width="4" stroke-linecap="round" stroke-linejoin="round"/>
<path d="M25.3917 2C20.8993 9.19897 18.5176 17.5143 18.5176 26C18.5176 34.4857 20.8993 42.801 25.3917 50M28.0584 2C32.369 8.90684 34.74 16.8471 34.9224 24.9867M48.5917 47.8667L53.3917 52.6667M34.725 42C34.725 44.1217 35.5679 46.1566 37.0682 47.6569C38.5685 49.1571 40.6033 50 42.725 50C44.8468 50 46.8816 49.1571 48.3819 47.6569C49.8822 46.1566 50.725 44.1217 50.725 42C50.725 39.8783 49.8822 37.8434 48.3819 36.3431C46.8816 34.8429 44.8468 34 42.725 34C40.6033 34 38.5685 34.8429 37.0682 36.3431C35.5679 37.8434 34.725 39.8783 34.725 42Z" stroke="#DB1222" stroke-width="4" stroke-linecap="round" stroke-linejoin="round"/>
</svg>
