<svg width="67" height="67" viewBox="0 0 67 67" fill="none" xmlns="http://www.w3.org/2000/svg">
<path d="M21.125 46.9375C21.9534 46.9375 22.625 46.2659 22.625 45.4375C22.625 44.6091 21.9534 43.9375 21.125 43.9375C20.2966 43.9375 19.625 44.6091 19.625 45.4375C19.625 46.2659 20.2966 46.9375 21.125 46.9375Z" stroke="#DB1222" stroke-width="6" stroke-linecap="round" stroke-linejoin="round"/>
<path d="M51.125 3.4375H63.125V18.4375H54.125V27.4375H45.125V33.4375L38.225 40.3375C39.3898 44.1776 39.2381 48.2967 37.7939 52.0407C36.3496 55.7846 33.6957 58.9386 30.2538 61.0016C26.8119 63.0646 22.7793 63.9183 18.7966 63.4271C14.8139 62.9359 11.1096 61.1279 8.2721 58.2904C5.43459 55.4529 3.62662 51.7486 3.1354 47.7659C2.64418 43.7832 3.49787 39.7506 5.56087 36.3087C7.62387 32.8667 10.7779 30.2129 14.5218 28.7686C18.2658 27.3244 22.3849 27.1727 26.225 28.3375L51.125 3.4375Z" stroke="#DB1222" stroke-width="6" stroke-linecap="round" stroke-linejoin="round"/>
</svg>
