<svg width="86" height="86" viewBox="0 0 86 86" fill="none" xmlns="http://www.w3.org/2000/svg">
<rect width="86" height="86" rx="8" fill="#DB1222"/>
<path d="M62.98 43.68C63 43.46 63 43.22 63 43C63 31.96 54.04 23 43 23C31.96 23 23 31.96 23 43C23 53.34 30.86 61.86 40.92 62.9C39.044 61.4273 37.4687 59.6076 36.28 57.54C33.5073 56.2541 31.1603 54.2019 29.516 51.6256C27.8717 49.0493 26.9987 46.0563 27 43C27 39.3 28.26 35.9 30.38 33.2L41.7 44.52C42.82 43.72 44.04 43.06 45.34 42.52L33.2 30.38C35.9936 28.1833 39.4462 26.9925 43 27C51.48 27 58.4 33.58 58.96 41.9C60.38 42.34 61.74 42.94 62.98 43.68ZM53 45C46.64 45 41.2 48.74 39 54C41.2 59.26 46.64 63 53 63C59.36 63 64.8 59.26 67 54C64.8 48.74 59.36 45 53 45ZM53 59C51.6739 59 50.4021 58.4732 49.4645 57.5355C48.5268 56.5979 48 55.3261 48 54C48 52.6739 48.5268 51.4021 49.4645 50.4645C50.4021 49.5268 51.6739 49 53 49C54.3261 49 55.5979 49.5268 56.5355 50.4645C57.4732 51.4021 58 52.6739 58 54C58 55.3261 57.4732 56.5979 56.5355 57.5355C55.5979 58.4732 54.3261 59 53 59ZM56 54C56 55.66 54.66 57 53 57C51.34 57 50 55.66 50 54C50 52.34 51.34 51 53 51C54.66 51 56 52.34 56 54Z" fill="white"/>
</svg>
