<svg width="45" height="50" viewBox="0 0 45 50" fill="none" xmlns="http://www.w3.org/2000/svg">
<path d="M33.7625 0.319946H18.6692C17.2425 0.319946 16.0558 0.319947 15.0825 0.399947C14.0692 0.479947 13.1198 0.66128 12.2212 1.11995C10.841 1.82307 9.71894 2.94514 9.01582 4.32528C8.55715 5.22395 8.37582 6.17328 8.29582 7.18661C8.21582 8.15995 8.21582 9.34661 8.21582 10.7733V37.6533H2.21582C1.68539 37.6533 1.17668 37.864 0.801607 38.2391C0.426534 38.6141 0.21582 39.1229 0.21582 39.6533C0.21582 44.1413 1.74115 46.7999 3.68249 48.2533C4.76515 49.0639 6.17315 49.6506 7.54649 49.6533H34.6105C36.4958 49.6533 38.4825 49.7333 40.2105 48.8533C41.5902 48.1509 42.7123 47.0298 43.4158 45.6506C43.8745 44.7493 44.0558 43.8 44.1358 42.7866C44.2158 41.8133 44.2158 40.6266 44.2158 39.2V10.7733C44.2158 9.34661 44.2158 8.15995 44.1358 7.18661C44.0558 6.17328 43.8745 5.22395 43.4158 4.32528C42.7134 2.94554 41.5923 1.82352 40.2132 1.11995C39.3118 0.66128 38.3625 0.479947 37.3492 0.399947C36.3758 0.319947 35.1892 0.319946 33.7625 0.319946ZM36.6745 45.6186C36.2188 45.5239 35.7893 45.331 35.4158 45.0533C34.6905 44.5093 33.5492 43.1653 33.5492 39.6533C33.5492 39.1229 33.3384 38.6141 32.9634 38.2391C32.5883 37.864 32.0796 37.6533 31.5492 37.6533H12.2158V10.8533C12.2158 9.32795 12.2158 8.30128 12.2825 7.51195C12.3438 6.74661 12.4558 6.38128 12.5785 6.14128C12.8982 5.51305 13.4089 5.00237 14.0372 4.68261C14.2772 4.55995 14.6425 4.44795 15.4078 4.38661C16.1972 4.32261 17.2212 4.31995 18.7492 4.31995H33.6825C35.2078 4.31995 36.2345 4.31995 37.0212 4.38661C37.7892 4.44795 38.1545 4.55995 38.3945 4.68261C39.0238 5.00261 39.5332 5.51195 39.8532 6.14128C39.9758 6.38128 40.0878 6.74661 40.1492 7.51195C40.2132 8.30128 40.2158 9.32528 40.2158 10.8533V39.12C40.2158 40.6453 40.2158 41.672 40.1492 42.4586C40.0878 43.2266 39.9758 43.592 39.8532 43.832C39.5334 44.4602 39.0227 44.9709 38.3945 45.2906C38.0158 45.4826 37.6052 45.576 36.6745 45.6186ZM7.58115 45.6533H7.55449L7.53315 45.648C7.00777 45.5731 6.50925 45.3687 6.08249 45.0533C5.51449 44.6266 4.69315 43.712 4.36249 41.6533H29.6612C29.8478 43.264 30.2612 44.5813 30.8265 45.6533H7.58115Z" fill="#DB1222"/>
</svg>
