<svg width="54" height="56" viewBox="0 0 54 56" fill="none" xmlns="http://www.w3.org/2000/svg">
<path fill-rule="evenodd" clip-rule="evenodd" d="M8.26125 14.6327L24.0863 7.03894C24.9959 6.60362 25.9915 6.37766 27 6.37766C28.0085 6.37766 29.0041 6.60362 29.9138 7.03894L45.7388 14.6327C46.3031 14.9052 46.7793 15.3311 47.1129 15.8617C47.4465 16.3922 47.624 17.006 47.625 17.6327V19.5002C47.6248 24.8797 46.271 30.1727 43.6884 34.8917C41.1057 39.6107 37.3772 43.604 32.8462 46.5039L29.1488 48.8702C28.5078 49.2821 27.7619 49.501 27 49.501C26.2381 49.501 25.4922 49.2821 24.8512 48.8702L21.1537 46.5077C16.6222 43.6074 12.8934 39.6135 10.3107 34.8938C7.72807 30.1741 6.3746 24.8803 6.375 19.5002V17.6327C6.375 16.3539 7.11 15.1877 8.26125 14.6327ZM21.6488 1.96894L5.8275 9.56269C4.30758 10.2938 3.0248 11.4389 2.12661 12.8665C1.22841 14.294 0.751262 15.9461 0.75 17.6327V19.5002C0.749686 25.8238 2.34053 32.0457 5.37602 37.5931C8.41151 43.1405 12.794 47.8349 18.12 51.2439L21.8175 53.6064C23.364 54.5983 25.1627 55.1255 27 55.1255C28.8373 55.1255 30.636 54.5983 32.1825 53.6064L35.88 51.2439C41.206 47.8349 45.5885 43.1405 48.624 37.5931C51.6595 32.0457 53.2503 25.8238 53.25 19.5002V17.6327C53.25 14.1902 51.2775 11.0514 48.1725 9.56269L32.3475 1.96894C30.6783 1.16911 28.8509 0.753906 27 0.753906C25.1491 0.753906 23.318 1.16911 21.6488 1.96894ZM28.7625 34.3877C28.4862 34.6452 28.2645 34.9557 28.1108 35.3007C27.9571 35.6457 27.8744 36.0181 27.8678 36.3957C27.8611 36.7734 27.9306 37.1485 28.072 37.4987C28.2135 37.8489 28.424 38.167 28.6911 38.4341C28.9582 38.7012 29.2763 38.9117 29.6265 39.0532C29.9767 39.1946 30.3518 39.2641 30.7295 39.2574C31.1071 39.2507 31.4795 39.1681 31.8245 39.0144C32.1695 38.8606 32.48 38.639 32.7375 38.3627C34.8937 36.2102 36.93 33.1202 38.4225 30.1314C39.87 27.2364 41.0625 23.9327 41.0625 21.3752C41.0625 20.6293 40.7662 19.9139 40.2387 19.3864C39.7113 18.859 38.9959 18.5627 38.25 18.5627C37.5041 18.5627 36.7887 18.859 36.2613 19.3864C35.7338 19.9139 35.4375 20.6293 35.4375 21.3752C35.4375 22.5677 34.755 24.8889 33.39 27.6189C32.07 30.2552 30.3563 32.7902 28.7625 34.3877Z" fill="#DB1222"/>
</svg>
