<svg width="54" height="54" viewBox="0 0 54 54" fill="none" xmlns="http://www.w3.org/2000/svg">
<path d="M21.6654 5.66683C18.8364 5.66683 16.1233 6.79064 14.1229 8.79102C12.1225 10.7914 10.9987 13.5045 10.9987 16.3335C10.9987 19.1625 12.1225 21.8756 14.1229 23.876C16.1233 25.8764 18.8364 27.0002 21.6654 27.0002C24.4943 27.0002 27.2074 25.8764 29.2078 23.876C31.2082 21.8756 32.332 19.1625 32.332 16.3335C32.332 13.5045 31.2082 10.7914 29.2078 8.79102C27.2074 6.79064 24.4943 5.66683 21.6654 5.66683ZM5.66536 16.3335C5.66536 12.09 7.35107 8.02037 10.3517 5.01979C13.3522 2.01921 17.4219 0.333496 21.6654 0.333496C25.9088 0.333496 29.9785 2.01921 32.9791 5.01979C35.9797 8.02037 37.6654 12.09 37.6654 16.3335C37.6654 20.577 35.9797 24.6466 32.9791 27.6472C29.9785 30.6478 25.9088 32.3335 21.6654 32.3335C17.4219 32.3335 13.3522 30.6478 10.3517 27.6472C7.35107 24.6466 5.66536 20.577 5.66536 16.3335ZM39.8734 5.01883C40.121 4.77089 40.4151 4.5742 40.7389 4.44C41.0626 4.30581 41.4096 4.23673 41.76 4.23673C42.1105 4.23673 42.4575 4.30581 42.7812 4.44C43.1049 4.5742 43.399 4.77089 43.6467 5.01883C45.1327 6.5046 46.3115 8.26855 47.1158 10.2099C47.92 12.1513 48.3339 14.2321 48.3339 16.3335C48.3339 18.4349 47.92 20.5157 47.1158 22.4571C46.3115 24.3984 45.1327 26.1624 43.6467 27.6482C43.3989 27.8959 43.1048 28.0925 42.7811 28.2265C42.4574 28.3606 42.1104 28.4296 41.76 28.4296C41.4096 28.4296 41.0627 28.3606 40.739 28.2265C40.4153 28.0925 40.1211 27.8959 39.8734 27.6482C39.6256 27.4004 39.4291 27.1063 39.295 26.7826C39.1609 26.4588 39.0919 26.1119 39.0919 25.7615C39.0919 25.4111 39.1609 25.0642 39.295 24.7404C39.4291 24.4167 39.6256 24.1226 39.8734 23.8748C41.8731 21.8745 42.9964 19.1619 42.9964 16.3335C42.9964 13.5051 41.8731 10.7925 39.8734 8.79216C39.6254 8.5445 39.4287 8.2504 39.2945 7.92667C39.1603 7.60294 39.0913 7.25594 39.0913 6.9055C39.0913 6.55505 39.1603 6.20805 39.2945 5.88432C39.4287 5.56059 39.6254 5.26649 39.8734 5.01883ZM41.7454 39.6855C41.9173 39.0001 42.3542 38.4109 42.9602 38.0474C43.5662 37.6839 44.2917 37.5758 44.9774 37.7468C48.5187 38.6322 50.7614 40.8935 52.0494 43.4748C53.2974 45.9682 53.6654 48.7548 53.6654 51.0002C53.6654 51.7074 53.3844 52.3857 52.8843 52.8858C52.3842 53.3859 51.7059 53.6668 50.9987 53.6668C50.2915 53.6668 49.6132 53.3859 49.1131 52.8858C48.613 52.3857 48.332 51.7074 48.332 51.0002C48.332 49.2482 48.0334 47.3655 47.2814 45.8588C46.5694 44.4375 45.476 43.3682 43.684 42.9202C42.9986 42.7483 42.4094 42.3113 42.0459 41.7053C41.6824 41.0993 41.5743 40.3711 41.7454 39.6855ZM12.332 43.0002C8.97203 43.0002 5.66536 46.2348 5.66536 51.0002C5.66536 51.7074 5.38441 52.3857 4.88432 52.8858C4.38422 53.3859 3.70594 53.6668 2.9987 53.6668C2.29145 53.6668 1.61318 53.3859 1.11308 52.8858C0.612983 52.3857 0.332031 51.7074 0.332031 51.0002C0.332031 43.9815 5.38003 37.6668 12.332 37.6668H30.9987C37.9507 37.6668 42.9987 43.9815 42.9987 51.0002C42.9987 51.7074 42.7177 52.3857 42.2176 52.8858C41.7176 53.3859 41.0393 53.6668 40.332 53.6668C39.6248 53.6668 38.9465 53.3859 38.4464 52.8858C37.9463 52.3857 37.6654 51.7074 37.6654 51.0002C37.6654 46.2348 34.3587 43.0002 30.9987 43.0002H12.332Z" fill="#DB1222"/>
</svg>
