<svg width="60" height="56" viewBox="0 0 60 56" fill="none" xmlns="http://www.w3.org/2000/svg">
<path d="M29.8867 53.5C44.7982 53.5 56.8867 41.017 56.8867 32.5C56.8867 23.983 44.7982 11.5 29.8867 11.5C14.9752 11.5 2.88672 23.992 2.88672 32.5C2.88672 41.008 14.9752 53.5 29.8867 53.5Z" stroke="#DB1222" stroke-width="5" stroke-linejoin="round"/>
<path d="M29.8867 41.5C32.2737 41.5 34.5629 40.5518 36.2507 38.864C37.9385 37.1761 38.8867 34.8869 38.8867 32.5C38.8867 30.1131 37.9385 27.8239 36.2507 26.136C34.5629 24.4482 32.2737 23.5 29.8867 23.5C27.4998 23.5 25.2106 24.4482 23.5228 26.136C21.8349 27.8239 20.8867 30.1131 20.8867 32.5C20.8867 34.8869 21.8349 37.1761 23.5228 38.864C25.2106 40.5518 27.4998 41.5 29.8867 41.5Z" stroke="#DB1222" stroke-width="5" stroke-linejoin="round"/>
<path d="M13.7812 8.899L17.6722 14.329M47.3228 9.565L43.4302 14.995M29.8988 2.5V11.5" stroke="#DB1222" stroke-width="5" stroke-linecap="round"/>
</svg>
