<svg width="55" height="54" viewBox="0 0 55 54" fill="none" xmlns="http://www.w3.org/2000/svg">
<path d="M45.8867 1.39813e-08C48.1824 -0.000127865 50.3913 0.876975 52.0615 2.45185C53.7317 4.02673 54.737 6.18032 54.8717 8.472L54.8867 9V45C54.8868 47.2956 54.0097 49.5045 52.4349 51.1748C50.86 52.845 48.7064 53.8503 46.4147 53.985L45.8867 54H9.88672C7.59109 54.0001 5.38217 53.123 3.71194 51.5481C2.0417 49.9733 1.0364 47.8197 0.901719 45.528L0.886719 45V9C0.886591 6.70437 1.76369 4.49546 3.33857 2.82522C4.91344 1.15498 7.06704 0.149677 9.35872 0.0150004L9.88672 1.39813e-08H45.8867ZM48.8867 18H6.88672V45C6.88682 45.7348 7.15659 46.444 7.64486 46.9931C8.13314 47.5422 8.80597 47.893 9.53572 47.979L9.88672 48H45.8867C46.6215 47.9999 47.3307 47.7301 47.8798 47.2419C48.4289 46.7536 48.7797 46.0808 48.8657 45.351L48.8867 45V18ZM29.7257 27.63L30.0077 27.879L36.0077 33.879C36.5458 34.4189 36.8581 35.1433 36.8814 35.9052C36.9047 36.667 36.6371 37.4091 36.133 37.9808C35.6289 38.5525 34.9261 38.9109 34.1673 38.9832C33.4085 39.0555 32.6507 38.8362 32.0477 38.37L31.7657 38.121L27.8867 34.245L24.0077 38.121C23.4911 38.6375 22.8038 38.9478 22.0748 38.9937C21.3457 39.0395 20.6249 38.8178 20.0477 38.37L19.7657 38.121C19.2492 37.6044 18.9389 36.9171 18.8931 36.188C18.8472 35.459 19.069 34.7382 19.5167 34.161L19.7657 33.879L25.7657 27.879C26.2823 27.3625 26.9696 27.0522 27.6987 27.0063C28.4278 26.9605 29.1485 27.1822 29.7257 27.63Z" fill="#DB1222"/>
</svg>
