<svg width="61" height="60" viewBox="0 0 61 60" fill="none" xmlns="http://www.w3.org/2000/svg">
<path d="M33.8867 9C40.5167 9 45.8867 14.37 45.8867 21C45.8867 25.5 43.4867 29.31 39.8867 31.38V27.72C41.7167 26.07 42.8867 23.67 42.8867 21C42.8867 16.02 38.8667 12 33.8867 12C28.9067 12 24.8867 16.02 24.8867 21C24.8867 23.67 26.0567 26.07 27.8867 27.72V31.38C24.2867 29.31 21.8867 25.5 21.8867 21C21.8867 14.37 27.2567 9 33.8867 9ZM54.8867 55.5C54.7967 57.96 52.8467 59.91 50.3867 60H33.8867C32.7467 60 31.6667 59.55 30.8867 58.71L18.8867 46.11L21.1067 43.8C21.6767 43.17 22.4867 42.84 23.3867 42.84H23.9867L30.8867 48V21C30.8867 19.35 32.2367 18 33.8867 18C35.5367 18 36.8867 19.35 36.8867 21V34.41L40.5167 34.8L52.3367 41.37C53.9267 42.09 54.8867 43.68 54.8867 45.42V55.5ZM54.8867 0H6.88672C3.58672 0 0.886719 2.7 0.886719 6V30C0.886719 31.5913 1.51886 33.1174 2.64408 34.2426C3.7693 35.3679 5.29542 36 6.88672 36H18.8867V30H6.88672V6H54.8867V30H48.8867V36H54.8867V35.88L55.0067 36C58.2767 36 60.8867 33.27 60.8867 30V6C60.8867 4.4087 60.2546 2.88258 59.1294 1.75736C58.0041 0.632141 56.478 0 54.8867 0Z" fill="#DB1222"/>
</svg>
