<svg width="69" height="59" viewBox="0 0 69 59" fill="none" xmlns="http://www.w3.org/2000/svg">
<path d="M44.3321 26.1685C44.3321 26.1685 39.4871 39.8215 37.1861 42.205C36.0752 43.3251 34.568 43.9627 32.9905 43.9797C31.4131 43.9967 29.8924 43.3918 28.7577 42.2959C27.6229 41.2 26.9654 39.7013 26.9275 38.1243C26.8896 36.5472 27.4743 35.0186 28.5551 33.8695C30.8561 31.4845 44.3321 26.1685 44.3321 26.1685Z" stroke="#DB1222" stroke-width="5" stroke-linejoin="round"/>
<path d="M57.1617 56.275C60.0907 53.3527 62.4134 49.8805 63.9965 46.0579C65.5797 42.2352 66.3919 38.1375 66.3867 34C66.3867 16.603 52.2837 2.5 34.8867 2.5C17.4897 2.5 3.38672 16.603 3.38672 34C3.38672 42.6985 6.91172 50.5735 12.6117 56.275M34.8867 4V10M57.1542 14.713L52.4922 18.4885M62.6697 38.8495L56.8242 37.4995M7.10222 38.8495L12.9492 37.4995M12.6192 14.713L17.2812 18.4885" stroke="#DB1222" stroke-width="5" stroke-linecap="round" stroke-linejoin="round"/>
</svg>
