<svg width="56" height="58" viewBox="0 0 56 58" fill="none" xmlns="http://www.w3.org/2000/svg">
<path d="M4.04945 27.5356V48.2909H12.8203L13.2631 48.3431C21.4058 50.2455 26.8014 51.6172 29.4906 52.4669C33.0626 53.595 34.3941 53.8705 36.8169 54.0329C38.629 54.1576 40.6871 53.4587 41.625 52.5017C42.1431 51.9739 42.531 50.8893 42.6844 49.2073C42.7159 48.8545 42.8416 48.5167 43.0484 48.2294C43.2552 47.9421 43.5354 47.7159 43.8596 47.5746C44.5804 47.2614 45.1796 46.751 45.6804 46.0086C46.1435 45.33 46.4446 44.0656 46.4996 42.2357C46.5087 41.8992 46.6037 41.5706 46.7754 41.2812C46.9472 40.9919 47.19 40.7514 47.4809 40.5827C49.1655 39.6054 49.9992 38.5034 50.1729 37.21C50.3639 35.7803 49.9008 34.1708 48.6879 32.338C48.4033 31.9082 48.2974 31.3841 48.3925 30.8772C48.4876 30.3702 48.7764 29.9205 49.1974 29.6236C50.3581 28.8058 50.995 27.669 51.1542 26.0566C51.4089 23.4872 49.7734 21.5877 46.0712 21.2078C42.7738 20.8798 39.4443 21.1579 36.2467 22.0285C35.8839 22.1235 35.5017 22.1127 35.1448 21.9974C34.788 21.8821 34.4714 21.6671 34.2324 21.3776C33.9934 21.0882 33.8419 20.7364 33.7957 20.3637C33.7494 19.9909 33.8104 19.6127 33.9715 19.2735C35.4188 16.2053 36.2235 13.6736 36.4117 11.7132C36.6577 9.11187 36.0585 7.22686 34.6575 5.67246C33.5952 4.49506 31.896 3.82226 31.2592 3.96146C30.4198 4.14126 29.8727 4.62846 29.1606 6.33366C28.7409 7.34286 28.5382 8.20126 28.1909 10.2052C27.858 12.1076 27.6756 12.966 27.2964 14.0912C26.153 17.5016 23.3481 21.0367 19.5822 23.4756C16.9407 25.179 14.0807 26.5155 11.0806 27.4486C10.8928 27.5055 10.6978 27.5348 10.5016 27.5356H4.04945ZM3.92788 52.2436C2.9929 52.2697 2.15345 52.0609 1.45005 51.5679C0.55271 50.9386 0.13009 49.9468 0.121406 48.8042L0.13009 27.5675C0.0316721 26.4365 0.364557 25.3983 1.1519 24.6269C1.89004 23.9019 2.85396 23.5597 3.87288 23.5829H10.1977C12.7562 22.7663 15.1955 21.6137 17.4517 20.1551C20.4853 18.1889 22.72 15.3701 23.5739 12.8297C23.8663 11.9539 24.0226 11.2289 24.3178 9.52367C24.7173 7.23556 24.9662 6.17126 25.5394 4.80246C26.7262 1.95466 28.2835 0.562654 30.4313 0.0957534C32.5444 -0.362447 35.6214 0.858454 37.5667 3.01606C39.7232 5.40566 40.6755 8.39557 40.3224 12.0902C40.1699 13.6755 39.7319 15.458 39.0082 17.4378C41.4796 17.0767 43.9859 17.0221 46.4706 17.2754C52.2802 17.8699 55.5425 21.6602 55.0677 26.451C54.8593 28.5158 54.1125 30.2703 52.8417 31.6478C53.9099 33.7097 54.3354 35.7484 54.0691 37.7378C53.7622 40.0288 52.4886 41.937 50.3697 43.4189C50.2047 45.4286 49.7445 47.0323 48.9282 48.2329C48.283 49.2013 47.4442 50.0248 46.4648 50.6515C46.1522 52.6351 45.4951 54.1866 44.4212 55.277C42.641 57.0924 39.4598 58.1741 36.5535 57.9769C33.7949 57.7913 32.1623 57.4549 28.3124 56.2369C25.7738 55.4336 20.5171 54.0996 12.5945 52.2436H3.92788ZM8.85168 26.6337C8.85092 26.3742 8.90127 26.1172 8.99985 25.8773C9.09843 25.6373 9.2433 25.4193 9.42615 25.2355C9.60901 25.0518 9.82626 24.906 10.0654 24.8065C10.3046 24.7071 10.5611 24.6559 10.82 24.6559C11.0785 24.6566 11.3343 24.7084 11.5729 24.8082C11.8114 24.908 12.028 25.0539 12.2102 25.2376C12.3924 25.4212 12.5368 25.639 12.635 25.8786C12.7332 26.1181 12.7834 26.3747 12.7826 26.6337V48.8999C12.783 49.1589 12.7325 49.4154 12.6339 49.6548C12.5353 49.8942 12.3907 50.1118 12.2082 50.2952C12.0256 50.4786 11.8089 50.6241 11.5702 50.7236C11.3315 50.8231 11.0756 50.8744 10.8172 50.8748C10.5587 50.8744 10.3028 50.8231 10.0641 50.7236C9.82545 50.6241 9.60867 50.4786 9.42616 50.2952C9.24365 50.1118 9.09898 49.8942 9.00041 49.6548C8.90184 49.4154 8.8513 49.1589 8.85168 48.8999V26.6337Z" fill="#DB1222"/>
</svg>
