<svg width="32" height="32" viewBox="0 0 32 32" fill="none" xmlns="http://www.w3.org/2000/svg">
<g clip-path="url(#clip0_4314_28081)">
<path d="M10.0625 18.3125C10.6148 18.3125 11.0625 18.7602 11.0625 19.3125V24.5625C11.0625 25.1148 10.6148 25.5625 10.0625 25.5625H8.43748C7.8852 25.5625 7.43748 25.1148 7.43748 24.5625V19.3125C7.43748 18.7602 7.8852 18.3125 8.43748 18.3125H10.0625ZM15.4999 11.0625C16.0522 11.0625 16.5 11.5102 16.5 12.0625V24.5625C16.5 25.1148 16.0522 25.5625 15.5 25.5625H13.875C13.3227 25.5625 12.875 25.1148 12.875 24.5625V12.0625C12.875 11.5102 13.3227 11.0625 13.875 11.0625H15.4999ZM30.0937 27.375C30.5942 27.375 30.9999 27.7807 30.9999 28.2812C30.9999 28.7818 30.5942 29.1875 30.0937 29.1875H3C2.44772 29.1875 2 28.7398 2 28.1875V8.34375C2 7.84324 2.40574 7.4375 2.90625 7.4375C3.40675 7.4375 3.81249 7.84324 3.81249 8.34375V26.375C3.81249 26.9273 4.26021 27.375 4.81249 27.375H30.0937ZM20.9374 18.3125C21.4897 18.3125 21.9374 18.7602 21.9374 19.3125V24.5625C21.9374 25.1148 21.4897 25.5625 20.9374 25.5625H19.3124C18.7602 25.5625 18.3124 25.1148 18.3124 24.5625V19.3125C18.3124 18.7602 18.7602 18.3125 19.3124 18.3125H20.9374ZM26.3749 7.5C26.9272 7.5 27.3749 7.94772 27.3749 8.5V24.5625C27.3749 25.1148 26.9272 25.5625 26.3749 25.5625H24.7499C24.1976 25.5625 23.7499 25.1148 23.7499 24.5625V8.5C23.7499 7.94771 24.1976 7.5 24.7499 7.5H26.3749Z" fill="#DB1222"/>
</g>
<path fill-rule="evenodd" clip-rule="evenodd" d="M18.4091 7.42781C18.0861 7.42781 17.8182 7.16876 17.8182 6.85638V5.98476C16.5048 7.22667 13.121 9.92229 6.77084 11.9695C6.71163 11.9898 6.64928 12.0001 6.58648 12C6.44688 11.999 6.31215 11.9502 6.20618 11.8623C6.10021 11.7744 6.02985 11.6531 6.00757 11.5198C5.98529 11.3865 6.01254 11.2499 6.08447 11.1342C6.1564 11.0185 6.26838 10.9311 6.40055 10.8876C12.5435 8.90514 15.8155 6.26895 17.0122 5.14286H16.0455C15.7225 5.14286 15.4546 4.88381 15.4546 4.57143C15.4546 4.25905 15.7225 4 16.0455 4H18.4091C18.7321 4 19 4.25905 19 4.57143V6.85714C19 7.16952 18.7321 7.42781 18.4091 7.42781ZM6.58648 12H6.58964H6.58176H6.58648Z" fill="#DB1222"/>
<defs>
<clipPath id="clip0_4314_28081">
<rect width="28.9999" height="21.75" fill="white" transform="translate(2 7.4375)"/>
</clipPath>
</defs>
</svg>
