<svg width="159" height="132" viewBox="0 0 159 132" fill="none" xmlns="http://www.w3.org/2000/svg">
<path d="M115.073 156.562H51.9266C34.7569 156.562 20.875 142.681 20.875 125.511V62.7816C20.875 45.4031 34.9656 31.3125 52.3441 31.3125H114.708C132.034 31.3125 146.125 45.4031 146.125 62.7816V125.563C146.125 142.681 132.243 156.562 115.073 156.562Z" fill="url(#paint0_radial_3572_9572)"/>
<path d="M20.875 62.625C20.875 45.3316 34.8941 31.3125 52.1875 31.3125H62.625V156.562H52.1875C34.8941 156.562 20.875 142.543 20.875 125.25V62.625Z" fill="url(#paint1_linear_3572_9572)"/>
<path d="M20.875 125.25H146.125C146.125 142.543 132.106 156.562 114.812 156.562H52.1875C34.8941 156.562 20.875 142.543 20.875 125.25Z" fill="url(#paint2_linear_3572_9572)"/>
<path d="M104.375 31.3125H114.812C132.106 31.3125 146.125 45.3316 146.125 62.625V125.25C146.125 142.543 132.106 156.562 114.812 156.562H104.375V31.3125Z" fill="url(#paint3_radial_3572_9572)"/>
<path d="M18.2656 20.6138V68.1047" stroke="url(#paint4_linear_3572_9572)" stroke-miterlimit="10"/>
<path d="M20.875 62.625V120.031C15.1344 120.031 10.4375 115.339 10.4375 109.603V73.0531C10.4375 67.3177 15.1344 62.625 20.875 62.625Z" fill="url(#paint5_linear_3572_9572)"/>
<path d="M118.74 96.5469H48.2598C36.0501 96.5469 26.0938 86.5843 26.0938 74.3672C26.0938 62.1501 36.0501 52.1875 48.2598 52.1875H118.74C130.95 52.1875 140.906 62.1501 140.906 74.3672C140.906 86.5321 130.898 96.5469 118.74 96.5469Z" fill="url(#paint6_linear_3572_9572)"/>
<path d="M96.694 135.688H70.306C66.0735 135.688 62.625 132.173 62.625 127.859C62.625 123.546 66.0735 120.031 70.306 120.031H96.694C100.926 120.031 104.375 123.546 104.375 127.859C104.375 132.173 100.926 135.688 96.694 135.688Z" fill="url(#paint7_linear_3572_9572)"/>
<path d="M18.2656 26.0938C22.589 26.0938 26.0938 22.589 26.0938 18.2656C26.0938 13.9423 22.589 10.4375 18.2656 10.4375C13.9423 10.4375 10.4375 13.9423 10.4375 18.2656C10.4375 22.589 13.9423 26.0938 18.2656 26.0938Z" fill="url(#paint8_radial_3572_9572)"/>
<path d="M148.734 20.875V68.3134" stroke="url(#paint9_linear_3572_9572)" stroke-miterlimit="10"/>
<path d="M148.734 26.6156C153.202 26.6156 156.823 22.994 156.823 18.5266C156.823 14.0591 153.202 10.4375 148.734 10.4375C144.267 10.4375 140.645 14.0591 140.645 18.5266C140.645 22.994 144.267 26.6156 148.734 26.6156Z" fill="url(#paint10_radial_3572_9572)"/>
<path d="M49.5781 62.625H46.9688C41.2043 62.625 36.5312 67.298 36.5312 73.0625V83.5C36.5312 89.2645 41.2043 93.9375 46.9688 93.9375H49.5781C55.3426 93.9375 60.0156 89.2645 60.0156 83.5V73.0625C60.0156 67.298 55.3426 62.625 49.5781 62.625Z" fill="url(#paint11_radial_3572_9572)"/>
<path d="M109.594 62.625H106.984C101.22 62.625 96.5469 67.298 96.5469 73.0625V83.5C96.5469 89.2645 101.22 93.9375 106.984 93.9375H109.594C115.358 93.9375 120.031 89.2645 120.031 83.5V73.0625C120.031 67.298 115.358 62.625 109.594 62.625Z" fill="url(#paint12_radial_3572_9572)"/>
<path d="M101.766 15.6562H65.2344C60.911 15.6562 57.4062 19.161 57.4062 23.4844C57.4062 27.8077 60.911 31.3125 65.2344 31.3125H101.766C106.089 31.3125 109.594 27.8077 109.594 23.4844C109.594 19.161 106.089 15.6562 101.766 15.6562Z" fill="url(#paint13_linear_3572_9572)"/>
<path d="M101.766 15.6562H65.2344C60.911 15.6562 57.4062 19.161 57.4062 23.4844C57.4062 27.8077 60.911 31.3125 65.2344 31.3125H101.766C106.089 31.3125 109.594 27.8077 109.594 23.4844C109.594 19.161 106.089 15.6562 101.766 15.6562Z" fill="url(#paint14_radial_3572_9572)"/>
<path d="M146.125 119.719V62.2603C151.866 62.2603 156.562 66.9571 156.562 72.6978V109.281C156.562 115.022 151.866 119.719 146.125 119.719Z" fill="url(#paint15_linear_3572_9572)"/>
<path d="M60.0156 69.1484C60.0156 65.5456 57.095 62.625 53.4922 62.625C49.8894 62.625 46.9688 65.5456 46.9688 69.1484V82.1953C46.9688 85.7981 49.8894 88.7188 53.4922 88.7188C57.095 88.7188 60.0156 85.7981 60.0156 82.1953V69.1484Z" fill="url(#paint16_linear_3572_9572)"/>
<path d="M60.0156 69.1484C60.0156 65.5456 57.095 62.625 53.4922 62.625C49.8894 62.625 46.9688 65.5456 46.9688 69.1484V82.1953C46.9688 85.7981 49.8894 88.7188 53.4922 88.7188C57.095 88.7188 60.0156 85.7981 60.0156 82.1953V69.1484Z" fill="url(#paint17_radial_3572_9572)"/>
<path d="M120.031 69.1484C120.031 65.5456 117.111 62.625 113.508 62.625C109.905 62.625 106.984 65.5456 106.984 69.1484V82.1953C106.984 85.7981 109.905 88.7188 113.508 88.7188C117.111 88.7188 120.031 85.7981 120.031 82.1953V69.1484Z" fill="url(#paint18_linear_3572_9572)"/>
<path d="M120.031 69.1484C120.031 65.5456 117.111 62.625 113.508 62.625C109.905 62.625 106.984 65.5456 106.984 69.1484V82.1953C106.984 85.7981 109.905 88.7188 113.508 88.7188C117.111 88.7188 120.031 85.7981 120.031 82.1953V69.1484Z" fill="url(#paint19_radial_3572_9572)"/>
<path d="M18.918 26.0938V57.4062" stroke="url(#paint20_linear_3572_9572)" stroke-width="0.25"/>
<path d="M149.387 26.0938V57.4062" stroke="url(#paint21_linear_3572_9572)" stroke-width="0.25"/>
<path d="M151.344 78.2812C154.226 78.2812 156.562 74.7765 156.562 70.4531C156.562 66.1298 154.226 62.625 151.344 62.625C148.462 62.625 146.125 66.1298 146.125 70.4531C146.125 74.7765 148.462 78.2812 151.344 78.2812Z" fill="url(#paint22_radial_3572_9572)"/>
<path d="M151.344 109.594C154.226 109.594 156.562 99.0794 156.562 86.1094C156.562 73.1393 154.226 62.625 151.344 62.625C148.462 62.625 146.125 73.1393 146.125 86.1094C146.125 99.0794 148.462 109.594 151.344 109.594Z" fill="url(#paint23_radial_3572_9572)"/>
<path fill-rule="evenodd" clip-rule="evenodd" d="M103.204 15.7881C106.374 16.3769 108.873 18.8759 109.462 22.0459C108.93 24.3643 106.854 26.0937 104.375 26.0937C101.493 26.0937 99.1562 23.7572 99.1562 20.875C99.1562 18.3953 100.886 16.3196 103.204 15.7881Z" fill="url(#paint24_radial_3572_9572)"/>
<defs>
<radialGradient id="paint0_radial_3572_9572" cx="0" cy="0" r="1" gradientUnits="userSpaceOnUse" gradientTransform="translate(130.469 60.0156) rotate(141.911) scale(122.668)">
<stop stop-color="#EEEBF0"/>
<stop offset="0.493469" stop-color="#D1BEE3"/>
<stop offset="1" stop-color="#D0BCE2"/>
</radialGradient>
<linearGradient id="paint1_linear_3572_9572" x1="62.625" y1="93.9375" x2="20.875" y2="93.9375" gradientUnits="userSpaceOnUse">
<stop stop-color="#D5B2C0" stop-opacity="0"/>
<stop offset="1" stop-color="#B4878D"/>
</linearGradient>
<linearGradient id="paint2_linear_3572_9572" x1="83.5" y1="140.906" x2="83.5" y2="161.781" gradientUnits="userSpaceOnUse">
<stop stop-color="#B17EDB" stop-opacity="0"/>
<stop offset="1" stop-color="#A56BD6"/>
</linearGradient>
<radialGradient id="paint3_radial_3572_9572" cx="0" cy="0" r="1" gradientUnits="userSpaceOnUse" gradientTransform="translate(130.469 70.4531) rotate(-5.71059) scale(26.2239 100.233)">
<stop stop-color="#F0EAF6"/>
<stop offset="1" stop-color="#E7E0EF" stop-opacity="0"/>
</radialGradient>
<linearGradient id="paint4_linear_3572_9572" x1="-nan" y1="-nan" x2="-nan" y2="-nan" gradientUnits="userSpaceOnUse">
<stop stop-color="#EA248A"/>
<stop offset="1" stop-color="#DF2232"/>
</linearGradient>
<linearGradient id="paint5_linear_3572_9572" x1="15.6562" y1="62.625" x2="15.6562" y2="120.031" gradientUnits="userSpaceOnUse">
<stop stop-color="#E93273"/>
<stop offset="1" stop-color="#D21844"/>
</linearGradient>
<linearGradient id="paint6_linear_3572_9572" x1="83.4906" y1="92.375" x2="83.4906" y2="59.4457" gradientUnits="userSpaceOnUse">
<stop offset="0.00558659" stop-color="#443E75"/>
<stop offset="1" stop-color="#2F1A3B"/>
</linearGradient>
<linearGradient id="paint7_linear_3572_9572" x1="83.4906" y1="134.048" x2="83.4906" y2="119.454" gradientUnits="userSpaceOnUse">
<stop offset="0.00558659" stop-color="#39325E"/>
<stop offset="1" stop-color="#2B1831"/>
</linearGradient>
<radialGradient id="paint8_radial_3572_9572" cx="0" cy="0" r="1" gradientUnits="userSpaceOnUse" gradientTransform="translate(20.875 15.6563) rotate(104.036) scale(10.7587)">
<stop stop-color="#FF6C82"/>
<stop offset="0.441384" stop-color="#FF2455"/>
<stop offset="1" stop-color="#D9206C"/>
</radialGradient>
<linearGradient id="paint9_linear_3572_9572" x1="-nan" y1="-nan" x2="-nan" y2="-nan" gradientUnits="userSpaceOnUse">
<stop stop-color="#EA248A"/>
<stop offset="1" stop-color="#DF2232"/>
</linearGradient>
<radialGradient id="paint10_radial_3572_9572" cx="0" cy="0" r="1" gradientUnits="userSpaceOnUse" gradientTransform="translate(151.431 15.8302) rotate(104.036) scale(11.1173 11.1173)">
<stop stop-color="#FF6C82"/>
<stop offset="0.441384" stop-color="#FF2455"/>
<stop offset="1" stop-color="#D9206C"/>
</radialGradient>
<radialGradient id="paint11_radial_3572_9572" cx="0" cy="0" r="1" gradientUnits="userSpaceOnUse" gradientTransform="translate(49.5781 78.2812) rotate(168.69) scale(13.3053 18.2088)">
<stop stop-color="#322649"/>
<stop offset="1" stop-color="#342950" stop-opacity="0"/>
</radialGradient>
<radialGradient id="paint12_radial_3572_9572" cx="0" cy="0" r="1" gradientUnits="userSpaceOnUse" gradientTransform="translate(109.594 78.2812) rotate(168.69) scale(13.3053 18.2088)">
<stop stop-color="#322649"/>
<stop offset="1" stop-color="#342950" stop-opacity="0"/>
</radialGradient>
<linearGradient id="paint13_linear_3572_9572" x1="83.5" y1="15.6563" x2="75.6719" y2="33.9219" gradientUnits="userSpaceOnUse">
<stop stop-color="#FFCE2B"/>
<stop offset="1" stop-color="#D9862D"/>
</linearGradient>
<radialGradient id="paint14_radial_3572_9572" cx="0" cy="0" r="1" gradientUnits="userSpaceOnUse" gradientTransform="translate(83.5 20.875) rotate(90) scale(15.6562 52.1875)">
<stop offset="0.430882" stop-color="#CA7E29" stop-opacity="0"/>
<stop offset="1" stop-color="#673F13"/>
</radialGradient>
<linearGradient id="paint15_linear_3572_9572" x1="151.344" y1="62.2603" x2="151.344" y2="119.719" gradientUnits="userSpaceOnUse">
<stop stop-color="#FF30AA"/>
<stop offset="1" stop-color="#FF2353"/>
</linearGradient>
<linearGradient id="paint16_linear_3572_9572" x1="60.0156" y1="73.0625" x2="46.9688" y2="73.0625" gradientUnits="userSpaceOnUse">
<stop stop-color="#29B6FE"/>
<stop offset="1" stop-color="#1769A8"/>
</linearGradient>
<radialGradient id="paint17_radial_3572_9572" cx="0" cy="0" r="1" gradientUnits="userSpaceOnUse" gradientTransform="translate(57.4062 70.4531) rotate(90) scale(13.0469 5.96988)">
<stop stop-color="#54C8FF"/>
<stop offset="1" stop-color="#54C8FF" stop-opacity="0"/>
</radialGradient>
<linearGradient id="paint18_linear_3572_9572" x1="120.031" y1="73.0625" x2="106.984" y2="73.0625" gradientUnits="userSpaceOnUse">
<stop stop-color="#29B6FE"/>
<stop offset="1" stop-color="#1769A8"/>
</linearGradient>
<radialGradient id="paint19_radial_3572_9572" cx="0" cy="0" r="1" gradientUnits="userSpaceOnUse" gradientTransform="translate(117.422 70.4531) rotate(90) scale(13.0469 5.96988)">
<stop stop-color="#54C8FF"/>
<stop offset="1" stop-color="#54C8FF" stop-opacity="0"/>
</radialGradient>
<linearGradient id="paint20_linear_3572_9572" x1="-nan" y1="-nan" x2="-nan" y2="-nan" gradientUnits="userSpaceOnUse">
<stop stop-color="#FF96CB"/>
<stop offset="1" stop-color="#FF6DB7" stop-opacity="0"/>
</linearGradient>
<linearGradient id="paint21_linear_3572_9572" x1="-nan" y1="-nan" x2="-nan" y2="-nan" gradientUnits="userSpaceOnUse">
<stop stop-color="#FF96CB"/>
<stop offset="1" stop-color="#FF6DB7" stop-opacity="0"/>
</linearGradient>
<radialGradient id="paint22_radial_3572_9572" cx="0" cy="0" r="1" gradientUnits="userSpaceOnUse" gradientTransform="translate(151.344 70.4531) rotate(90) scale(7.82812 5.21875)">
<stop stop-color="#FF72C1"/>
<stop offset="1" stop-color="#FF6EBF" stop-opacity="0"/>
</radialGradient>
<radialGradient id="paint23_radial_3572_9572" cx="0" cy="0" r="1" gradientUnits="userSpaceOnUse" gradientTransform="translate(151.344 86.1094) rotate(90) scale(23.4844 2.91958)">
<stop stop-color="#FF4B9C"/>
<stop offset="1" stop-color="#FF73C1" stop-opacity="0"/>
</radialGradient>
<radialGradient id="paint24_radial_3572_9572" cx="0" cy="0" r="1" gradientUnits="userSpaceOnUse" gradientTransform="translate(104.375 20.875) rotate(90) scale(5.21875 5.21875)">
<stop stop-color="#FFEA60"/>
<stop offset="1" stop-color="#FFEF66" stop-opacity="0"/>
</radialGradient>
</defs>
</svg>
