<svg width="32" height="32" viewBox="0 0 32 32" fill="none" xmlns="http://www.w3.org/2000/svg">
<path d="M16.0001 2.66675C16.5005 2.66675 16.9939 2.69386 17.4801 2.74808C17.6541 2.76734 17.8227 2.82069 17.9761 2.90509C18.1295 2.98949 18.2648 3.10328 18.3743 3.23997C18.4837 3.37666 18.5652 3.53357 18.614 3.70173C18.6628 3.8699 18.678 4.04604 18.6587 4.22008C18.6395 4.39413 18.5861 4.56267 18.5017 4.7161C18.4173 4.86953 18.3035 5.00483 18.1669 5.11428C18.0302 5.22373 17.8733 5.30518 17.7051 5.35399C17.5369 5.4028 17.3608 5.41801 17.1867 5.39875C14.9895 5.15294 12.7701 5.596 10.8356 6.66665C8.90118 7.73729 7.34722 9.38261 6.3887 11.375C5.43019 13.3674 5.11448 15.6084 5.48527 17.7881C5.85606 19.9678 6.895 21.9784 8.4584 23.5418C10.0218 25.1052 12.0324 26.1441 14.2121 26.5149C16.3917 26.8857 18.6327 26.57 20.6252 25.6115C22.6176 24.6529 24.2629 23.099 25.3335 21.1645C26.4042 19.23 26.8472 17.0107 26.6014 14.8134C26.5822 14.6394 26.5974 14.4632 26.6462 14.2951C26.695 14.1269 26.7764 13.97 26.8859 13.8333C27.1069 13.5573 27.4286 13.3803 27.7801 13.3414C28.1316 13.3025 28.4841 13.4048 28.7602 13.6259C28.8969 13.7353 29.0107 13.8706 29.0951 14.0241C29.1795 14.1775 29.2328 14.346 29.2521 14.5201C29.3054 15.0063 29.3325 15.4996 29.3334 16.0001C29.3334 23.3641 23.3641 29.3334 16.0001 29.3334C8.63608 29.3334 2.66675 23.3641 2.66675 16.0001C2.66675 8.63608 8.63608 2.66675 16.0001 2.66675ZM15.9574 10.5027C16.0453 10.845 15.9937 11.2082 15.8139 11.5125C15.6342 11.8168 15.341 12.0372 14.9987 12.1254C14.0586 12.3717 13.2401 12.9516 12.6961 13.757C12.1521 14.5624 11.9198 15.5382 12.0423 16.5023C12.1649 17.4665 12.6341 18.3531 13.3624 18.9967C14.0906 19.6403 15.0282 19.9969 16.0001 20.0001C16.8872 20.0005 17.7492 19.7059 18.4506 19.1629C19.152 18.6198 19.653 17.859 19.8747 17.0001C19.9693 16.6646 20.1914 16.3794 20.4936 16.2056C20.7958 16.0319 21.154 15.9834 21.4916 16.0706C21.8291 16.1578 22.119 16.3736 22.2993 16.672C22.4796 16.9703 22.5359 17.3274 22.4561 17.6667C22.0471 19.2347 21.0812 20.6 19.739 21.5078C18.3967 22.4155 16.7699 22.8036 15.1624 22.5994C13.555 22.3953 12.0768 21.6129 11.0041 20.3984C9.93138 19.1839 9.33751 17.6205 9.33342 16.0001C9.33319 14.5219 9.82422 13.0856 10.7293 11.917C11.6344 10.7483 12.9022 9.91362 14.3334 9.54408C14.503 9.50037 14.6795 9.4905 14.8529 9.51502C15.0263 9.53955 15.1932 9.59799 15.344 9.68702C15.4948 9.77604 15.6266 9.8939 15.7318 10.0339C15.8371 10.1738 15.9137 10.3332 15.9574 10.5027ZM24.6721 2.83608C24.9155 2.93699 25.1235 3.10773 25.2699 3.32676C25.4163 3.54579 25.4946 3.80329 25.4947 4.06675V6.50675H27.9334C28.1971 6.5068 28.4548 6.58503 28.674 6.73155C28.8932 6.87806 29.0641 7.08628 29.165 7.32988C29.2659 7.57348 29.2923 7.84152 29.2409 8.10012C29.1894 8.35873 29.0625 8.59628 28.8761 8.78275L24.1601 13.4934C23.9101 13.7435 23.571 13.884 23.2174 13.8841H20.0001L17.5627 16.3227C17.3126 16.5729 16.9732 16.7135 16.6194 16.7135C16.2656 16.7135 15.9263 16.5729 15.6761 16.3227C15.4259 16.0726 15.2853 15.7332 15.2853 15.3794C15.2853 15.0256 15.4259 14.6863 15.6761 14.4361L18.1147 12.0001V8.78141C18.1148 8.42782 18.2553 8.08874 18.5054 7.83875L23.2187 3.12408C23.4052 2.9375 23.6428 2.81043 23.9015 2.75892C24.1602 2.70742 24.4284 2.73381 24.6721 2.83475M22.8281 7.28408L20.7814 9.33342V11.2187H22.6667L24.7147 9.17208H24.1614C23.8078 9.17208 23.4687 9.03161 23.2186 8.78156C22.9686 8.53151 22.8281 8.19237 22.8281 7.83875V7.28408Z" fill="white"/>
</svg>
