<svg width="50" height="50" viewBox="0 0 50 50" fill="none" xmlns="http://www.w3.org/2000/svg">
<g clip-path="url(#clip0_899_797)">
<path d="M0.0976562 14.997C0.162954 14.8995 0.262529 14.8611 0.288555 14.7941C1.00748 12.9443 2.66331 11.7743 4.69074 11.8162C6.83787 11.8606 8.98791 11.7815 11.1342 11.8427C12.4469 11.8802 13.6724 11.6423 14.9066 11.2232C19.664 9.60776 24.4363 8.03615 29.2031 6.44823C29.4496 6.3661 29.6047 6.25017 29.7091 5.96011C30.3488 4.18248 32.0376 3.05562 33.9024 3.0101C36.3428 2.95054 38.4041 5.13003 38.3938 7.5398C38.3562 16.3597 38.3917 25.1799 38.3696 33.9998C38.3643 36.1227 36.9052 37.8721 34.7497 38.3038C32.5533 38.7438 30.3526 37.3917 29.6837 35.3677C29.6331 35.2144 29.4646 35.0402 29.3127 34.989C26.4931 34.0386 23.6677 33.1052 20.8431 32.1698C20.8158 32.1608 20.7817 32.172 20.7031 32.1765C20.7031 32.8361 20.7026 33.4985 20.7032 34.1608C20.7051 36.0856 19.1044 38.0198 17.1381 38.28C16.2766 38.3939 15.3995 38.3887 14.45 38.4421C14.5008 39.0032 14.5761 39.5838 14.6015 40.1665C14.6625 41.5627 15.0993 42.9449 14.571 44.3598C14.0011 45.8863 12.2999 47.1202 10.6726 47.1955C9.36746 47.2559 8.25442 46.8517 7.31754 46.0234C6.645 45.4288 6.1508 44.6652 6.05258 43.7151C5.8629 41.8803 5.66293 40.0464 5.46731 38.2122C5.27169 36.3779 5.0768 34.5435 4.88035 32.7093C4.7847 31.8162 4.67281 30.9247 4.59502 30.0301C4.55965 29.6233 4.29556 29.5401 3.98029 29.5046C2.22189 29.3065 1.03945 28.3649 0.377148 26.7387C0.330572 26.6243 0.234107 26.5303 0.129248 26.4507C0.0976563 22.664 0.0976563 18.8534 0.0976562 14.997ZM21.3183 12.3045C19.3017 12.9687 17.2872 13.6397 15.2662 14.2903C14.9303 14.3984 14.8349 14.5679 14.836 14.9121C14.8483 18.768 14.8475 22.6239 14.8372 26.4798C14.8363 26.8158 14.9136 26.9712 15.2658 27.0871C19.2538 28.399 23.2334 29.7365 27.2154 31.0665C27.9611 31.3156 28.7079 31.5617 29.4611 31.8115C29.4611 24.3657 29.4611 16.9887 29.4611 9.57484C26.7436 10.4805 24.0651 11.3731 21.3183 12.3045ZM10.3997 14.8535C8.54582 14.8535 6.69078 14.8918 4.83843 14.8378C3.87281 14.8097 3.08167 15.4176 3.10514 16.5384C3.16504 19.3994 3.12125 22.2624 3.13242 25.1246C3.13331 25.3533 3.19025 25.609 3.30327 25.8047C3.63027 26.3711 4.17732 26.5695 4.80274 26.5707C6.99817 26.5748 9.19362 26.5725 11.3891 26.5714C11.515 26.5714 11.6409 26.5601 11.7857 26.5532C11.7857 22.6457 11.7857 18.7702 11.7857 14.8535C11.3363 14.8535 10.9166 14.8535 10.3997 14.8535ZM32.5195 11.1914C32.5195 18.6759 32.5195 26.1603 32.5195 33.6448C32.5195 33.7749 32.5146 33.9054 32.521 34.0352C32.5621 34.8725 33.5503 35.5945 34.339 35.2695C34.975 35.0075 35.3512 34.4894 35.3513 33.6973C35.3517 25.1227 35.3516 16.5481 35.3516 7.97355C35.3516 7.79458 35.3557 7.61548 35.3506 7.43665C35.3319 6.77895 34.698 5.9863 33.8618 6.05456C33.1264 6.11459 32.5216 6.70902 32.5201 7.48171C32.5178 8.68573 32.5195 9.88975 32.5195 11.1914ZM10.9351 33.2869C10.8708 32.6818 10.8049 32.0768 10.7426 31.4714C10.6793 30.8556 10.6196 30.2395 10.56 29.6395C9.53345 29.6395 8.58461 29.6395 7.59893 29.6395C7.68017 30.4808 7.75647 31.2793 7.83463 32.0776C7.89401 32.6841 7.95051 33.2909 8.01757 33.8966C8.14095 35.0111 8.27544 36.1244 8.39698 37.239C8.47525 37.957 8.53338 38.677 8.60998 39.3952C8.73061 40.5261 8.87899 41.6545 8.97635 42.7873C9.02757 43.3833 9.31403 43.7816 9.82346 44.0332C10.315 44.2759 10.8161 44.2148 11.2317 43.8853C11.6662 43.5408 11.8775 43.0626 11.8089 42.4834C11.7071 41.6242 11.6089 40.7644 11.526 39.9033C11.4461 39.0718 11.3938 38.2376 11.3181 37.4056C11.1959 36.0625 11.0645 34.7202 10.9351 33.2869ZM17.3742 34.7993C17.4746 34.5372 17.6519 34.2779 17.6616 34.0124C17.6968 33.0555 17.6754 32.0966 17.6754 31.1161C16.3468 30.6741 15.0324 30.2368 13.6395 29.7734C13.8188 31.6796 13.9908 33.5081 14.1652 35.3614C14.8301 35.3614 15.4305 35.3419 16.029 35.3673C16.5484 35.3894 16.962 35.1891 17.3742 34.7993Z" fill="#DB1222"/>
<path d="M50.0978 28.7727C50.0401 28.831 49.9555 28.8235 49.9286 28.8593C49.4044 29.5562 48.715 29.7715 47.9703 29.4044C45.9574 28.4119 43.9528 27.4024 41.9494 26.3907C41.4836 26.1555 41.1291 25.4099 41.2174 24.9252C41.3516 24.1897 41.7718 23.7044 42.4434 23.6585C42.8299 23.6321 43.2691 23.681 43.6132 23.8453C45.4809 24.7373 47.332 25.6647 49.1741 26.6087C49.5016 26.7765 49.7595 27.0802 50.0737 27.2884C50.0978 27.7462 50.0978 28.2367 50.0978 28.7727Z" fill="#DB1222"/>
<path d="M50.0977 11.0971C50.0881 11.1294 50.0786 11.1163 50.069 11.1031C49.474 11.8857 48.5447 12.1428 47.7288 12.5688C46.3666 13.2799 44.9864 13.957 43.6073 14.6352C42.5675 15.1466 41.5807 14.739 41.2662 13.6874C41.0796 13.0637 41.3724 12.3494 42.0149 12.0225C44.03 10.9972 46.0536 9.98861 48.0806 8.98699C48.6595 8.70096 49.4161 8.93208 49.8482 9.48182C49.9162 9.56842 49.983 9.656 50.0741 9.71044C50.0977 10.1357 50.0977 10.5936 50.0977 11.0971Z" fill="#DB1222"/>
<path d="M50.0977 19.9836C50.0507 20.0305 49.9782 20.0125 49.9605 20.0359C49.4711 20.6822 48.7941 20.7366 48.0497 20.7232C46.277 20.6911 44.5032 20.7061 42.7299 20.7155C41.7841 20.7206 41.2498 20.0578 41.2171 19.204C41.1865 18.4028 41.896 17.6921 42.7123 17.6884C44.6645 17.6796 46.6168 17.6793 48.5691 17.6892C49.2093 17.6924 49.6894 18.0177 50.0741 18.4995C50.0977 18.9572 50.0977 19.4476 50.0977 19.9836Z" fill="#DB1222"/>
</g>
<defs>
<clipPath id="clip0_899_797">
<rect width="50" height="50" fill="white" transform="translate(0 0.00976562)"/>
</clipPath>
</defs>
</svg>
