<svg width="42" height="43" viewBox="0 0 42 43" fill="none" xmlns="http://www.w3.org/2000/svg">
<g clip-path="url(#clip0_899_762)">
<path d="M6.72205 3.1977C7.10209 3.1422 7.44696 3.04655 7.79192 3.04623C16.6501 3.03801 25.5085 3.01246 34.3664 3.05925C36.5361 3.07071 38.1771 4.17069 39.2536 6.07491C39.7723 6.99247 39.9516 7.98524 39.9502 9.02514C39.9469 11.5404 39.9443 14.0557 39.9525 16.571C39.9546 17.1986 39.6827 17.6528 39.1193 17.8799C38.6075 18.0862 38.0519 18.0753 37.651 17.6549C37.4378 17.4313 37.2844 17.0726 37.2601 16.7627C37.2037 16.0432 37.2422 15.3162 37.2422 14.5582C26.4758 14.5582 15.7272 14.5582 4.92181 14.5582C4.92181 14.6973 4.92181 14.842 4.92181 14.9866C4.92181 21.6303 4.91969 28.2739 4.92341 34.9176C4.92426 36.4403 6.03365 37.8411 7.51585 37.9873C7.76987 38.0124 8.02357 38.0634 8.27746 38.0637C13.103 38.0683 17.9285 38.067 22.7541 38.0672C23.61 38.0672 24.1969 38.6157 24.199 39.4158C24.201 40.1693 23.5573 40.7734 22.7442 40.7736C17.7546 40.7746 12.7649 40.7942 7.7755 40.7613C6.36034 40.752 5.11258 40.2116 4.06066 39.2255C3.15351 38.375 2.58542 37.3502 2.3264 36.1476C2.25856 35.8326 2.21952 35.5049 2.21932 35.183C2.21369 26.3247 2.18688 17.4664 2.23491 8.60843C2.24658 6.45673 3.33046 4.80785 5.23322 3.76124C5.68395 3.51331 6.2006 3.38519 6.72205 3.1977ZM7.35934 5.82997C6.52143 6.00142 5.84337 6.45111 5.4422 7.18583C5.17501 7.67517 4.98816 8.25538 4.94397 8.80917C4.86525 9.79564 4.92184 10.7929 4.92184 11.7833C15.7249 11.7833 26.4742 11.7833 37.1605 11.7833C37.1605 10.5938 37.2241 9.43405 37.144 8.28432C37.0491 6.92044 35.6767 5.75141 34.1955 5.75023C25.4595 5.74323 16.7235 5.74629 7.98743 5.75012C7.80182 5.7502 7.61622 5.80006 7.35934 5.82997Z" fill="#DB1222"/>
<path d="M24.9381 34.2804C24.9104 34.0439 24.9065 33.8374 24.8514 33.6457C24.6803 33.0506 24.9341 32.5468 25.1722 32.0397C25.8805 30.5314 26.5982 29.0275 27.3041 27.5181C28.2707 25.451 29.2287 23.3798 30.193 21.3115C30.464 20.7302 30.7222 20.1413 31.0247 19.5764C31.5846 18.5307 33.0737 17.8815 34.2258 18.1953C34.764 18.3419 35.2897 18.5517 35.7996 18.7806C36.6462 19.1605 37.4699 19.5911 38.3133 19.9785C39.6499 20.5923 40.3282 22.5111 39.7129 23.8384C39.0359 25.2986 38.3707 26.7642 37.6917 28.2235C36.6664 30.4271 35.6328 32.6269 34.6047 34.8291C34.3611 35.3509 34.0886 35.8631 33.8948 36.4032C33.6364 37.1234 33.0128 37.406 32.434 37.7601C31.0047 38.6345 29.5829 39.5212 28.1492 40.3883C27.6504 40.69 27.1467 40.9249 26.5228 40.6288C25.8244 40.2973 25.7735 39.6718 25.6775 39.0503C25.5525 38.241 25.4422 37.4296 25.3202 36.6199C25.2242 35.9826 25.1211 35.3464 25.0188 34.7101C24.9975 34.5782 24.9656 34.4481 24.9381 34.2804ZM28.587 31.1775C28.3533 31.6764 28.1257 32.1784 27.8841 32.6735C27.6769 33.0982 27.5403 33.5142 27.6358 34.0108C27.8342 35.0418 27.9807 36.0829 28.158 37.1786C29.0513 36.6278 29.8789 36.0801 30.7434 35.5986C31.2392 35.3224 31.5694 34.9624 31.8014 34.4497C32.5652 32.7621 33.3592 31.0882 34.1394 29.4081C34.4659 28.7051 34.787 27.9996 35.1227 27.269C33.817 26.662 32.5339 26.0656 31.2543 25.4709C30.354 27.4046 29.4878 29.265 28.587 31.1775ZM36.9079 23.4904C36.9662 23.3412 37.0162 23.1882 37.0844 23.0436C37.3022 22.5815 37.2951 22.5081 36.846 22.2901C35.8676 21.8151 34.8803 21.3582 33.8958 20.8956C33.6289 20.7702 33.4283 20.8305 33.2978 21.1086C33.0093 21.7236 32.7147 22.3357 32.4027 22.9909C33.706 23.6003 34.9814 24.1967 36.268 24.7983C36.4802 24.3605 36.678 23.9525 36.9079 23.4904Z" fill="#DB1222"/>
<path d="M17.5548 27.6491C15.2033 27.6491 12.8929 27.6419 10.5825 27.6532C9.83975 27.6568 9.32902 27.0223 9.27625 26.5948C9.16285 25.6764 9.48315 25.2227 10.1907 24.9769C10.3144 24.934 10.4594 24.9434 10.5946 24.9434C14.6685 24.9418 18.7425 24.949 22.8165 24.9369C23.7591 24.9341 24.1595 25.6451 24.193 26.2718C24.2324 27.0069 23.5748 27.6454 22.8045 27.6475C21.0682 27.6524 19.332 27.6491 17.5548 27.6491Z" fill="#DB1222"/>
<path d="M10.0363 20.5227C9.35643 20.2184 9.20262 19.677 9.27126 19.0315C9.32341 18.5411 9.60238 18.2157 10.053 18.0399C10.1741 17.9927 10.3133 17.9724 10.4442 17.9723C14.6132 17.9689 18.7823 17.9687 22.9514 17.9704C23.6367 17.9707 24.2024 18.5759 24.1992 19.2926C24.1962 19.9898 23.633 20.5929 22.9688 20.5933C18.7861 20.5956 14.6033 20.595 10.4206 20.5919C10.303 20.5919 10.1854 20.554 10.0363 20.5227Z" fill="#DB1222"/>
<path d="M18.3749 34.6218C15.7509 34.6218 13.1676 34.6054 10.5849 34.6334C9.94632 34.6404 9.21491 34.0106 9.25381 33.4049C9.31256 32.4899 9.77159 31.9163 10.5974 31.9157C13.4811 31.9134 16.3648 31.9136 19.2486 31.9156C19.9661 31.9161 20.5505 32.3669 20.6674 32.9978C20.7938 33.6801 20.4712 34.3404 19.7865 34.5433C19.3594 34.6699 18.8747 34.6023 18.3749 34.6218Z" fill="#DB1222"/>
<path d="M11.0725 8.57312C11.1459 9.67225 10.3076 10.2971 9.25905 10.073C8.77186 9.96889 8.4686 9.55127 8.38094 9.06703C8.28895 8.55887 8.39196 8.06984 8.83642 7.72238C9.53177 7.17878 10.8167 7.42765 11.0725 8.57312Z" fill="#DB1222"/>
<path d="M15.2383 8.07948C15.6305 8.7093 15.4016 9.62248 14.7347 9.99592C14.2255 10.2811 13.3607 10.074 12.9474 9.54421C12.5935 9.09045 12.6418 8.34044 13.0525 7.91187C13.7142 7.22148 14.7816 7.28982 15.2383 8.07948Z" fill="#DB1222"/>
<path d="M17.4492 7.86184C18.0003 7.20989 19.4253 7.32917 19.6938 8.24068C19.9101 8.97507 19.7993 9.74042 18.9809 10.0166C18.255 10.2616 17.4961 10.1077 17.2149 9.29223C17.0491 8.81167 17.0611 8.3083 17.4492 7.86184Z" fill="#DB1222"/>
</g>
<defs>
<clipPath id="clip0_899_762">
<rect width="42" height="42" fill="white" transform="translate(0 0.824951)"/>
</clipPath>
</defs>
</svg>
