<svg width="42" height="42" viewBox="0 0 42 42" fill="none" xmlns="http://www.w3.org/2000/svg">
<g clip-path="url(#clip0_899_1317)">
<path d="M0.0820312 27.6107C0.137148 27.5273 0.222914 27.4931 0.242908 27.4359C0.766519 25.9382 1.80203 25.0183 3.34768 24.6722C3.49108 24.6401 3.64074 24.6217 3.78755 24.6213C5.16828 24.6176 6.54924 24.6345 7.92972 24.6153C9.79675 24.5894 11.4056 25.9765 11.8086 27.7312C11.8624 27.9653 11.8898 28.2106 11.8909 28.4509C11.8979 30.0504 11.8951 31.6499 11.8943 33.2493C11.8938 34.0334 11.2104 34.6759 10.4216 34.7179C9.64969 34.7591 9.07718 34.4995 8.73781 33.7992C8.6592 33.637 8.61986 33.44 8.61856 33.2586C8.60886 31.9053 8.61748 30.5518 8.60936 29.1985C8.60792 28.9582 8.57939 28.7123 8.52115 28.4795C8.40192 28.0031 7.97867 27.9231 7.59634 27.9119C6.53094 27.8806 5.46368 27.8843 4.39784 27.9067C3.70054 27.9214 3.37284 28.2369 3.37027 28.9346C3.3583 32.188 3.36907 35.4415 3.37313 38.695C3.37316 38.7188 3.3929 38.7426 3.41308 38.7882C7.30841 38.7882 11.2121 38.7882 15.1758 38.7882C15.1758 38.6136 15.1758 38.442 15.1758 38.2703C15.1758 31.2436 15.1867 24.2168 15.1682 17.1901C15.1635 15.3872 16.5001 13.7077 18.2833 13.3032C18.5307 13.247 18.79 13.222 19.0441 13.2205C20.3701 13.2125 21.6964 13.2322 23.0222 13.2131C24.8905 13.1862 26.4981 14.5735 26.9023 16.3275C26.9562 16.5616 26.9846 16.8071 26.9848 17.0473C26.9893 22.4336 26.9884 27.8198 26.9882 33.2061C26.9881 34.0473 26.3209 34.678 25.4765 34.7179C24.7161 34.7539 24.1632 34.482 23.8338 33.8006C23.7499 33.6271 23.7124 33.4145 23.7121 33.2199C23.7057 28.0797 23.7082 22.9395 23.7033 17.7993C23.7031 17.5592 23.6698 17.3144 23.6154 17.0802C23.5304 16.7139 23.202 16.5094 22.6526 16.5022C21.6138 16.4886 20.5716 16.4493 19.5367 16.5137C18.7112 16.565 18.5395 16.6846 18.4672 17.6118C18.4153 18.2776 18.457 18.9508 18.457 19.6206C18.457 25.8408 18.457 32.061 18.457 38.2811C18.457 38.4419 18.457 38.6026 18.457 38.7867C22.3992 38.7867 26.3029 38.7867 30.2695 38.7867C30.2695 38.617 30.2695 38.4457 30.2695 38.2745C30.2695 26.8595 30.2765 15.4444 30.2614 4.02941C30.2593 2.47226 31.3987 0.814804 32.9139 0.327034C33.0368 0.28749 33.1467 0.207773 33.2426 0.119242C35.1658 0.0917616 37.1089 0.0917616 39.0705 0.11925C39.1164 0.176679 39.1385 0.22376 39.172 0.23409C40.5609 0.662768 41.477 1.56762 41.9276 2.94946C41.942 2.99338 42.0289 3.01361 42.082 3.04489C42.082 13.2732 42.082 23.5014 42.0616 33.7407C41.6442 34.3263 41.1955 34.7612 40.402 34.7209C39.4178 34.6709 38.8008 34.0865 38.8008 33.0882C38.8008 23.6418 38.8008 14.1954 38.8008 4.74897C38.8008 4.63961 38.8057 4.52995 38.7996 4.42093C38.7601 3.7191 38.4758 3.39772 37.7799 3.38054C36.7142 3.35423 35.6469 3.35462 34.5814 3.3836C34.1974 3.39404 33.7744 3.46751 33.6471 3.93926C33.5847 4.17047 33.5547 4.4175 33.5546 4.65739C33.5502 15.881 33.5508 27.1045 33.5508 38.3281C33.5508 38.4746 33.5508 38.6212 33.5508 38.8105C33.7393 38.8105 33.8857 38.8105 34.0322 38.8105C36.1511 38.8105 38.2703 38.8276 40.3889 38.8007C41.0716 38.792 41.5516 39.0499 41.9108 39.6024C41.9446 39.6543 42.0239 39.6767 42.082 39.7129C42.082 40.1795 42.082 40.646 42.0616 41.1236C41.7457 41.4258 41.4498 41.7166 41.1573 42.0107C41.1475 42.0205 41.1714 42.064 41.1797 42.0918C27.8069 42.0918 14.4341 42.0918 1.05026 42.0713C0.748044 41.7555 0.457368 41.4597 0.163355 41.1672C0.153431 41.1573 0.109898 41.1813 0.0820316 41.1894C0.0820317 36.676 0.0820317 32.1626 0.0820312 27.6107Z" fill="#DB1222"/>
<path d="M6.36004 0.0917969C6.42187 0.14485 6.43047 0.223944 6.471 0.247057C7.10096 0.606349 7.34242 1.142 7.30963 1.86342C7.27157 2.70091 7.30618 2.68748 8.06031 2.9639C9.76076 3.5872 10.903 5.23148 10.6499 7.1654C10.568 7.79141 10.1141 8.1952 9.51735 8.36272C8.65861 8.60378 7.73425 8.18494 7.46728 7.39472C7.42904 7.28154 7.39381 7.16284 7.38568 7.04473C7.33755 6.34527 7.05722 6.02808 6.36348 6.00715C5.85132 5.9917 5.33316 6.02491 4.82429 6.08898C4.21737 6.1654 3.84795 6.72053 3.85539 7.46096C3.86104 8.02253 4.29289 8.55931 4.84851 8.61498C5.45462 8.67572 6.0665 8.6977 6.67608 8.70126C8.40434 8.71136 9.72217 9.46143 10.5777 10.9414C11.5617 12.6436 11.5424 14.3722 10.5044 16.0608C9.87048 17.0922 8.90186 17.6578 7.76263 17.9709C7.62092 18.0098 7.47776 18.0435 7.30076 18.0884C7.30076 18.3691 7.30077 18.6541 7.30076 18.9391C7.30072 19.7859 6.80485 20.5194 6.11322 20.5898C5.09258 20.6937 4.48822 20.5419 4.08656 19.5371C3.9134 19.104 3.94657 18.5884 3.88175 18.0766C2.9593 18.0562 2.15462 17.6837 1.42387 17.0906C0.903768 16.6686 0.571395 16.138 0.324478 15.5343C0.270117 15.4014 0.199881 15.275 0.109486 15.1655C0.0820173 14.5823 0.0820173 13.979 0.102536 13.3647C0.179379 13.2801 0.238846 13.2087 0.291532 13.1326C0.741681 12.4826 1.52875 12.1556 2.24359 12.4202C2.8218 12.6343 3.29559 12.9443 3.3663 13.9246C3.39525 14.3261 3.59063 14.6646 4.0104 14.6814C4.95382 14.7192 5.90201 14.7333 6.84396 14.6805C7.55177 14.6408 7.89547 14.1022 7.93519 13.4606C7.97638 12.795 7.44399 12.1325 6.83509 12.0759C6.17471 12.0145 5.50888 11.9967 4.84512 11.99C3.6314 11.9779 2.6044 11.4874 1.77587 10.6617C0.514736 9.40482 0.226854 7.81769 0.60419 6.13745C0.931823 4.67852 1.83506 3.59673 3.25184 3.08218C3.84946 2.86514 3.97175 2.57588 3.95203 2.00954C3.92681 1.28489 4.13907 0.626475 4.84943 0.24682C4.88969 0.225303 4.89844 0.14483 4.92186 0.0917969C5.38846 0.0917969 5.85506 0.0917969 6.36004 0.0917969Z" fill="#DB1222"/>
</g>
<defs>
<clipPath id="clip0_899_1317">
<rect width="42" height="42" fill="white" transform="translate(0 0.00976562)"/>
</clipPath>
</defs>
</svg>
