<svg width="50" height="50" viewBox="0 0 50 50" fill="none" xmlns="http://www.w3.org/2000/svg">
<g clip-path="url(#clip0_899_976)">
<path d="M43.8477 0.107422C44.6635 0.107422 45.4794 0.107422 46.3152 0.138731C46.3824 0.211278 46.4229 0.271725 46.4779 0.290978C48.5068 1.00157 49.5051 2.99629 49.0313 5.10904C48.8531 5.90353 48.3781 6.50445 47.8687 7.10924C46.9407 8.21109 46.0622 9.35444 45.1514 10.471C44.218 11.6154 43.2653 12.7442 42.3326 13.8892C42.0636 14.2196 41.8769 14.5568 41.8782 15.0459C41.9011 23.3929 41.8836 31.74 41.903 40.087C41.9074 41.9663 40.1999 43.8554 38.1093 43.8568C34.5622 43.859 31.0151 43.8574 27.4681 43.8574C27.2783 43.8574 27.0886 43.8574 26.8929 43.8574C26.8929 44.9943 26.8929 46.0725 26.8929 47.1777C27.7258 47.1777 28.5224 47.2016 29.317 47.1703C29.9623 47.1448 30.3874 47.4328 30.6657 47.9763C30.936 48.5043 30.8927 49.0196 30.5394 49.5011C30.3891 49.7058 30.2321 49.9055 30.0782 50.1074C24.3795 50.1074 18.6809 50.1074 12.9691 50.0835C12.9115 50.0144 12.8729 49.9608 12.8217 49.9253C12.2046 49.4974 11.9813 48.888 12.1775 48.2225C12.3492 47.6402 12.884 47.1192 13.6488 47.1671C14.4211 47.2155 15.1989 47.1777 15.9772 47.1777C15.9772 46.0391 15.9772 44.9607 15.9772 43.8574C15.745 43.8574 15.5511 43.8574 15.3571 43.8574C12.005 43.8574 8.65287 43.8606 5.30076 43.8532C4.90049 43.8523 4.49556 43.8219 4.10099 43.756C2.47247 43.4843 1.08182 41.8951 1.07949 40.2639C1.06801 32.2253 1.0836 24.1867 1.06763 16.1481C1.0637 14.1676 2.82541 12.4092 4.80647 12.4103C12.5522 12.4146 20.2978 12.4091 28.0435 12.4204C28.4457 12.421 28.747 12.2935 29.0377 12.0416C29.6443 11.5158 30.2575 10.9972 30.8811 10.4918C32.0133 9.57434 33.1625 8.67783 34.2907 7.75563C35.4704 6.79136 36.6287 5.80088 37.8058 4.83335C39.006 3.84682 40.2019 2.85386 41.4303 1.90323C42.1694 1.33122 42.9682 0.836372 43.7358 0.30069C43.7911 0.262089 43.8112 0.173023 43.8477 0.107422ZM21.3379 35.6543C27.1715 35.6543 33.005 35.6543 38.838 35.6543C38.838 29.8171 38.838 24.0534 38.838 18.2121C38.359 18.7877 37.9357 19.3079 37.4999 19.8176C36.5662 20.9097 35.6552 22.0234 34.678 23.0753C34.0569 23.744 33.2123 24.1046 32.3328 24.3158C31.7326 24.46 31.1085 24.5048 30.5155 24.591C30.5323 24.7789 30.5719 24.9698 30.5629 25.1583C30.4827 26.8326 30.0413 28.3526 28.8533 29.6237C27.9414 30.5994 26.8503 31.2354 25.5665 31.4305C24.4035 31.6073 23.211 31.61 22.0301 31.6435C20.7973 31.6784 19.6678 31.9998 18.6434 32.6878C17.9258 33.1697 17.2536 33.1267 16.6852 32.5643C16.0956 31.9809 16.0532 31.3231 16.5514 30.5711C17.2332 29.5422 17.5729 28.413 17.5831 27.1749C17.59 26.3347 17.6465 25.4949 17.6746 24.6547C17.7322 22.9254 18.3822 21.4801 19.6781 20.3141C21.1093 19.0263 22.805 18.5975 24.5647 18.6661C24.8252 17.5858 25.0832 16.5154 25.3411 15.4459C25.3662 15.4522 25.3504 15.4448 25.3347 15.4448C18.5658 15.4427 11.7969 15.4423 5.02801 15.437C4.58016 15.4367 4.27924 15.6804 4.12335 16.041C4.00808 16.3077 4.00865 16.6373 4.00835 16.9389C4.00247 22.9919 4.00395 29.0448 4.00395 35.0978C4.00395 35.2706 4.00395 35.4433 4.00395 35.6543C9.79155 35.6543 15.5159 35.6543 21.3379 35.6543ZM30.2247 40.8301C32.7797 40.8301 35.3348 40.8311 37.8899 40.8292C38.4013 40.8288 38.8265 40.516 38.8578 40.0756C38.8897 39.6275 38.8649 39.1752 38.8649 38.7175C27.2174 38.7175 15.6252 38.7175 4.00401 38.7175C4.00401 38.9955 3.99428 39.2383 4.00572 39.4801C4.05155 40.4482 4.38859 40.8458 5.37366 40.843C13.6247 40.8203 21.8759 40.8301 30.2247 40.8301ZM44.1914 6.84035C44.558 6.37724 44.9316 5.91953 45.2888 5.4493C45.5672 5.08274 45.9071 4.7325 46.0688 4.31637C46.2278 3.90724 46.0517 3.47234 45.6245 3.24474C45.1788 3.00729 44.7643 3.1102 44.382 3.42944C43.7058 3.99408 43.0192 4.54624 42.3384 5.10528C41.1987 6.04101 40.0616 6.9798 38.9206 7.91393C38.1163 8.57248 37.3061 9.22391 36.5008 9.88132C35.5611 10.6485 34.6239 11.4187 33.7382 12.1444C34.8593 13.2711 35.9636 14.381 37.0849 15.5079C37.1381 15.4459 37.2227 15.3521 37.302 15.254C37.9247 14.4834 38.5437 13.7097 39.1693 12.9415C39.8471 12.1092 40.5304 11.2815 41.212 10.4525C42.1885 9.265 43.1657 8.07813 44.1914 6.84035ZM20.6055 27.107C20.6055 27.6307 20.6055 28.1544 20.6055 28.7188C20.8481 28.6899 21.1279 28.6374 21.4094 28.6264C22.4602 28.5854 23.5153 28.6031 24.5618 28.5157C26.581 28.3471 27.6234 26.7165 27.5073 25.0209C27.4022 23.4847 26.5559 22.3367 24.8977 21.8278C23.1735 21.2987 21.0017 22.4736 20.8017 24.2194C20.6957 25.145 20.6684 26.0796 20.6055 27.107ZM32.9102 15.7813C32.3663 15.2304 31.8223 14.6795 31.298 14.1485C30.4874 14.7965 29.7281 15.3849 28.99 15.9988C28.2144 16.6438 27.7183 17.4558 27.7413 18.4932C27.7638 19.513 28.2332 20.3072 29.0562 20.9183C30.2111 21.7758 31.6746 21.6796 32.5995 20.8326C33.5245 19.9854 34.2742 18.9468 35.1235 17.9657C34.3693 17.2216 33.6641 16.5258 32.9102 15.7813ZM22.4115 43.8574C21.2989 43.8574 20.1864 43.8574 19.0832 43.8574C19.0832 45.0044 19.0832 46.0806 19.0832 47.1512C20.6754 47.1512 22.2272 47.1512 23.7963 47.1512C23.7963 46.0484 23.7963 44.9724 23.7963 43.8574C23.3466 43.8574 22.9277 43.8574 22.4115 43.8574Z" fill="#DB1222"/>
</g>
<defs>
<clipPath id="clip0_899_976">
<rect width="50" height="50" fill="white" transform="translate(0 0.00976562)"/>
</clipPath>
</defs>
</svg>
