<svg width="42" height="42" viewBox="0 0 42 42" fill="none" xmlns="http://www.w3.org/2000/svg">
<g clip-path="url(#clip0_899_1503)">
<path d="M0.0820312 39.5488C0.0820314 27.2695 0.0820314 14.9902 0.108591 2.69288C0.175128 2.62346 0.230683 2.57794 0.252776 2.51973C0.664957 1.4336 1.40559 0.678815 2.49648 0.267725C2.55334 0.246296 2.58279 0.15211 2.625 0.0917969C14.9043 0.0917969 27.1836 0.0917969 39.474 0.114808C39.5482 0.184967 39.6047 0.249697 39.6756 0.276627C40.7384 0.680379 41.4835 1.39887 41.8841 2.47064C41.9102 2.54028 42.0143 2.58073 42.082 2.63477C42.082 14.9141 42.082 27.1934 42.0555 39.4907C41.9889 39.5601 41.9334 39.6056 41.9113 39.6638C41.4984 40.7493 40.7589 41.5052 39.6675 41.9159C39.6107 41.9373 39.5813 42.0315 39.5391 42.0918C27.2597 42.0918 14.9804 42.0918 2.68312 42.0652C2.61373 41.9987 2.56823 41.9433 2.51005 41.9211C1.42504 41.5077 0.668699 40.7685 0.25786 39.6773C0.236464 39.6205 0.142311 39.591 0.0820312 39.5488ZM39.6211 33.7656C39.6211 26.6498 39.6211 19.534 39.6211 12.4209C27.2313 12.4209 14.9057 12.4209 2.54297 12.4209C2.54297 12.6052 2.54297 12.7664 2.54297 12.9276C2.54297 21.2535 2.54297 29.5793 2.54298 37.9052C2.54298 37.9873 2.53503 38.0702 2.54448 38.1512C2.61193 38.7285 2.71481 39.3009 3.36958 39.5018C3.6606 39.5912 3.97919 39.6256 4.2853 39.6258C15.4822 39.6318 26.679 39.6309 37.8759 39.6308C37.9716 39.6308 38.0689 39.6419 38.1627 39.6287C38.7194 39.5504 39.2844 39.4645 39.4819 38.8201C39.5634 38.5542 39.6124 38.2677 39.6151 37.99C39.6283 36.6093 39.6211 35.2285 39.6211 33.7656ZM16.8574 9.93555C24.438 9.93555 32.0185 9.93555 39.6202 9.93555C39.6202 7.90423 39.6396 5.93646 39.6076 3.96953C39.5988 3.42856 39.4387 2.87567 38.81 2.69258C38.5172 2.6073 38.2026 2.55848 37.8979 2.5583C26.6876 2.55169 15.4772 2.55274 4.2669 2.55275C4.18487 2.55275 4.10143 2.54302 4.02105 2.55454C3.46802 2.63381 2.89266 2.69679 2.69425 3.34796C2.60939 3.62646 2.55165 3.92503 2.54949 4.21499C2.53639 5.9648 2.54297 7.71475 2.54297 9.46466C2.54297 9.61011 2.54297 9.75557 2.54297 9.93555C7.32096 9.93555 12.0482 9.93555 16.8574 9.93555Z" fill="#DB1222"/>
<path d="M24.6913 24.7832C19.3472 24.7832 14.044 24.7833 8.74089 24.7831C7.97214 24.7831 7.547 24.3557 7.54692 23.5832C7.54666 21.0546 7.54633 18.526 7.54715 15.9975C7.54738 15.3036 7.98896 14.8579 8.67777 14.8578C16.9742 14.8573 25.2706 14.8573 33.567 14.8578C34.2566 14.8579 34.6986 15.3029 34.6988 15.996C34.6996 18.5519 34.6998 21.1078 34.6987 23.6637C34.6984 24.3276 34.2482 24.7824 33.5891 24.7827C30.6369 24.784 27.6846 24.7832 24.6913 24.7832ZM17.5136 22.3223C22.4148 22.3223 27.316 22.3223 32.2131 22.3223C32.2131 20.6229 32.2131 18.9884 32.2131 17.3508C24.8016 17.3508 17.4153 17.3508 10.0329 17.3508C10.0329 19.0178 10.0329 20.6523 10.0329 22.3223C12.5158 22.3223 14.9737 22.3223 17.5136 22.3223Z" fill="#DB1222"/>
<path d="M21.2918 37.1698C17.0858 37.1698 12.9171 37.17 8.74832 37.1698C7.97422 37.1697 7.54721 36.7458 7.54712 35.977C7.5468 33.4621 7.54678 30.9472 7.54713 28.4323C7.54724 27.6627 7.9721 27.2442 8.7528 27.2442C12.8805 27.244 17.0083 27.2439 21.136 27.2443C21.8817 27.2443 22.3123 27.6748 22.3124 28.4202C22.3129 30.9624 22.3131 33.5047 22.3122 36.0469C22.312 36.6612 21.9539 37.0675 21.2918 37.1698ZM13.9864 29.705C12.667 29.705 11.3476 29.705 10.0331 29.705C10.0331 31.4044 10.0331 33.0389 10.0331 34.6765C13.3158 34.6765 16.5732 34.6765 19.8265 34.6765C19.8265 33.0095 19.8265 31.375 19.8265 29.705C17.8906 29.705 15.9795 29.705 13.9864 29.705Z" fill="#DB1222"/>
<path d="M34.6992 33.5606C34.6992 34.4351 34.7021 35.2687 34.6982 36.1022C34.6954 36.7058 34.2289 37.1685 33.6199 37.169C31.0236 37.1712 28.4274 37.1716 25.8312 37.1687C25.2532 37.168 24.7757 36.6955 24.7749 36.1211C24.7717 33.5112 24.7716 30.9013 24.775 28.2914C24.7757 27.7168 25.2533 27.2461 25.8327 27.2455C28.4289 27.2426 31.0251 27.2429 33.6214 27.2452C34.2463 27.2457 34.6981 27.7139 34.6987 28.3545C34.7002 30.0762 34.6992 31.7979 34.6992 33.5606ZM27.2344 34.3257C27.2427 34.4436 27.2509 34.5616 27.2591 34.6781C28.9307 34.6781 30.5726 34.6781 32.2035 34.6781C32.2035 33.005 32.2035 31.363 32.2035 29.7292C30.5364 29.7292 28.9042 29.7292 27.2344 29.7292C27.2344 31.2507 27.2344 32.7484 27.2344 34.3257Z" fill="#DB1222"/>
<path d="M7.95971 5.25637C8.39795 4.88271 8.88406 4.93568 9.32197 5.09966C9.85428 5.29898 10.0386 5.74976 10.0192 6.32783C10.0015 6.85264 9.77062 7.21814 9.32007 7.39357C8.55428 7.69175 7.53877 7.36256 7.53711 6.3151C7.53645 5.89606 7.62734 5.55048 7.95971 5.25637Z" fill="#DC1221"/>
<path d="M13.4112 7.47426C12.8637 7.31806 12.5044 6.93483 12.4672 6.5309C12.4103 5.91157 12.5082 5.34555 13.1526 5.09403C13.9186 4.79504 14.9448 5.12406 14.9323 6.16707C14.9207 7.14088 14.5523 7.47474 13.4112 7.47426Z" fill="#DC1221"/>
<path d="M18.2622 5.01489C18.6647 5.04366 19.0384 4.93558 19.382 5.21661C19.774 5.53722 20.0259 6.17546 19.832 6.69588C19.6816 7.09969 19.244 7.49838 18.6941 7.49154C18.1167 7.48435 17.6746 7.31122 17.4716 6.78064C17.2959 6.32145 17.2799 5.81808 17.6441 5.41608C17.7981 5.24611 18.0302 5.14696 18.2622 5.01489Z" fill="#DC1221"/>
</g>
<defs>
<clipPath id="clip0_899_1503">
<rect width="42" height="42" fill="white" transform="translate(0 0.00976562)"/>
</clipPath>
</defs>
</svg>
