<svg width="43" height="42" viewBox="0 0 43 42" fill="none" xmlns="http://www.w3.org/2000/svg">
<g clip-path="url(#clip0_899_1549)">
<path d="M0.582031 34.5351C0.582031 33.1389 0.582031 31.7426 0.601424 30.3359C1.21495 29.3878 2.19462 29.7934 3.04297 29.6669C3.04297 29.4634 3.04297 29.2879 3.04297 29.1124C3.04297 22.3337 3.03786 15.555 3.0537 8.77641C3.05484 8.28965 3.14057 7.77854 3.30534 7.32142C3.76073 6.05804 5.18488 5.07899 6.48292 5.08045C15.6532 5.09073 24.8236 5.08206 33.9939 5.09665C34.4808 5.09742 34.9966 5.17833 35.4487 5.35246C36.7063 5.83682 37.6861 7.2138 37.6616 8.50989C37.6525 8.99707 37.6602 9.48457 37.6602 10.0078C37.9519 10.0078 38.1949 10.0036 38.4378 10.0087C38.8595 10.0176 39.298 9.96163 39.6996 10.0576C40.9674 10.3606 41.8928 11.0973 42.3628 12.35C42.3939 12.4327 42.5071 12.4845 42.582 12.5508C42.582 19.8532 42.582 27.1557 42.5555 34.4766C42.464 34.609 42.3835 34.7171 42.3364 34.8381C41.8518 36.0849 40.4332 37.0873 39.1116 37.0858C27.3989 37.0725 15.6862 37.0783 3.97346 37.0762C3.79865 37.0761 3.61795 37.0704 3.44998 37.0279C2.18049 36.7064 1.26856 35.9695 0.794707 34.7245C0.76475 34.6458 0.654779 34.5975 0.582031 34.5351ZM25.5921 12.3352C25.9633 11.0955 27.4138 10.0083 28.6995 10.0079C30.7092 10.0073 32.7189 10.0078 34.7286 10.0078C34.8741 10.0078 35.0196 10.0078 35.2373 10.0078C35.1897 9.44316 35.2166 8.9156 35.086 8.43046C34.925 7.83233 34.5822 7.55646 33.5759 7.55488C24.7578 7.54101 15.9397 7.54552 7.12159 7.55305C6.84585 7.55328 6.55903 7.61201 6.29664 7.70058C5.57626 7.94373 5.51166 8.58117 5.51068 9.19235C5.49989 15.8777 5.50392 22.5631 5.50392 29.2484C5.50392 29.3916 5.50392 29.5347 5.50392 29.6688C12.1553 29.6688 18.7388 29.6688 25.3555 29.6688C25.3555 29.4812 25.3555 29.3197 25.3555 29.1583C25.3555 23.8811 25.3521 18.6039 25.3641 13.3267C25.3648 13.0144 25.4897 12.7025 25.5921 12.3352ZM38.1872 12.4687C35.2617 12.4687 32.3362 12.4598 29.4109 12.4761C28.8097 12.4795 28.1941 12.5711 27.9647 13.2694C27.8742 13.5452 27.8231 13.8471 27.8225 14.1373C27.8136 18.3204 27.8164 22.5036 27.8164 26.6867C27.8164 28.8056 27.7851 30.9252 27.8286 33.0432C27.8533 34.2428 28.2643 34.5829 29.3007 34.5992C32.4167 34.6484 35.5342 34.6287 38.6509 34.606C39.2061 34.602 39.7764 34.4635 39.974 33.8158C40.059 33.5374 40.1145 33.2377 40.1151 32.9476C40.1237 28.5457 40.1211 24.1438 40.1211 19.742C40.1211 17.8418 40.1347 15.9414 40.1131 14.0415C40.1062 13.4386 40.0005 12.8209 39.3029 12.6066C38.9745 12.5057 38.6133 12.5114 38.1872 12.4687ZM6.11914 32.1562C5.10082 32.1562 4.08251 32.1562 3.00507 32.1562C3.04961 32.707 3.03468 33.2029 3.14123 33.6713C3.28123 34.2867 3.63111 34.6081 4.68145 34.6102C11.4855 34.6237 18.2896 34.6172 25.0937 34.6172C25.2157 34.6172 25.3376 34.6172 25.3804 34.6172C25.3804 33.7885 25.3804 32.9848 25.3804 32.1562C18.9312 32.1562 12.5662 32.1562 6.11914 32.1562Z" fill="#DB1222"/>
<path d="M35.4085 29.6955C36.1455 29.8213 36.5204 30.2882 36.4327 31.2266C36.3958 31.6211 35.8353 32.2019 35.2944 32.1703C34.4097 32.1185 33.5197 32.1574 32.6319 32.1559C31.9655 32.1547 31.5594 31.7032 31.496 31.0526C31.415 30.2213 32.022 29.6116 32.8733 29.6808C33.701 29.7481 34.5385 29.6954 35.4085 29.6955Z" fill="#DB1222"/>
<path d="M33.8242 17.3906C33.1705 17.3552 32.7639 16.9106 32.7322 16.3039C32.7041 15.7635 32.8071 15.2568 33.3341 15.0654C33.6957 14.934 34.1657 14.9241 34.5344 15.0352C34.9665 15.1655 35.1665 15.5571 35.216 16.0605C35.2931 16.8459 34.6656 17.5331 33.8242 17.3906Z" fill="#DC1221"/>
</g>
<defs>
<clipPath id="clip0_899_1549">
<rect width="42" height="42" fill="white" transform="translate(0.5)"/>
</clipPath>
</defs>
</svg>
