<svg width="32" height="32" viewBox="0 0 32 32" fill="none" xmlns="http://www.w3.org/2000/svg">
<g clip-path="url(#clip0_899_1211)">
<path d="M23.375 32.0625C22.3112 32.0625 21.2474 32.0625 20.173 32.0404C19.7481 31.9084 19.3331 31.8008 18.9195 31.688C16.8177 31.1149 15.0969 29.9486 13.7152 28.2837C13.5479 28.0821 13.3973 28.121 13.2368 28.1344C12.7198 28.1774 12.2049 28.3047 11.6899 28.3016C10.5125 28.2944 9.33408 28.2517 8.15894 28.1781C7.56459 28.1408 6.96914 28.0375 6.38694 27.9071C5.08979 27.6166 3.8401 27.1888 2.69069 26.5012C1.56833 25.8298 0.626901 24.9993 0.183878 23.7165C0.170156 23.6768 0.104138 23.6551 0.0625 23.625C0.0624998 17.3529 0.0624998 11.0807 0.0828781 4.79769C0.131587 4.73671 0.168427 4.68955 0.186946 4.63605C0.394836 4.0355 0.727983 3.51055 1.16595 3.05544C2.11115 2.07321 3.28642 1.46099 4.5486 1.00175C5.70629 0.580523 6.90045 0.308278 8.12749 0.182635C8.17196 0.178082 8.20932 0.104116 8.25 0.0625C9.70964 0.0625 11.1693 0.0625 12.6393 0.0855903C12.6918 0.134592 12.731 0.17537 12.7763 0.184215C13.6468 0.353872 14.529 0.476667 15.3867 0.695563C17.0978 1.13226 18.6644 1.86392 19.8616 3.21488C20.4426 3.87055 20.8215 4.62619 20.8159 5.54142C20.8046 7.39399 20.8125 9.24668 20.8125 11.0993C20.8125 11.209 20.8125 11.3187 20.8125 11.3783C21.7382 11.4416 22.6237 11.4747 23.5024 11.5702C24.3548 11.6629 25.1681 11.9336 25.9466 12.291C27.3365 12.929 28.5896 13.7635 29.554 14.9694C29.9879 15.5119 30.4037 16.0771 30.7572 16.6738C31.3711 17.7101 31.7712 18.834 31.9429 20.0332C31.948 20.0688 32.0211 20.0946 32.0625 20.125C32.0625 21.1888 32.0625 22.2526 32.0402 23.3269C31.9911 23.3894 31.9482 23.439 31.9401 23.4937C31.8148 24.3442 31.5702 25.1616 31.2128 25.9399C30.5746 27.3299 29.7444 28.5898 28.5329 29.5498C27.941 30.0188 27.3212 30.4641 26.6692 30.8431C25.681 31.4177 24.605 31.7803 23.467 31.9429C23.4313 31.948 23.4054 32.0211 23.375 32.0625ZM29.753 19.2148C29.4191 18.1435 28.8933 17.1686 28.1589 16.3282C27.3421 15.3935 26.3778 14.6461 25.2354 14.1104C24.1193 13.5871 22.9474 13.3719 21.7448 13.3338C21.1249 13.3142 20.4892 13.4355 19.8777 13.5706C17.8069 14.0283 16.1691 15.1724 14.9237 16.8672C14.0498 18.0564 13.507 19.4071 13.3908 20.8772C13.2909 22.1415 13.3962 23.3941 13.8599 24.6155C14.476 26.2382 15.463 27.5589 16.8559 28.5626C18.3867 29.6657 20.1023 30.2062 22.01 30.1336C22.9745 30.0968 23.8947 29.9245 24.7902 29.5692C25.6795 29.2163 26.4997 28.7513 27.2168 28.1207C28.1858 27.2686 28.9532 26.2613 29.4646 25.0687C29.8456 24.1803 30.0837 23.2585 30.1259 22.2888C30.1707 21.2591 30.0855 20.245 29.753 19.2148ZM17.5633 7.59304C17.9157 7.2566 18.3246 6.96126 18.6062 6.5734C18.9642 6.08014 18.9922 5.50913 18.6912 4.94019C18.378 4.34835 17.8707 3.96399 17.3316 3.61213C16.5943 3.13097 15.7825 2.8072 14.9412 2.5688C13.7562 2.23302 12.5482 2.01673 11.3115 2.00102C10.823 1.99481 10.3337 1.984 9.84598 2.00407C9.24126 2.02895 8.6321 2.04541 8.03497 2.13379C6.89989 2.30178 5.77685 2.55869 4.72463 3.02063C3.84733 3.40578 2.99368 3.85038 2.38016 4.64345C1.92171 5.23608 1.8796 6.00204 2.28031 6.58163C2.68179 7.16233 3.21713 7.56355 3.8079 7.89457C5.28901 8.72446 6.91049 9.11996 8.5816 9.30217C9.32917 9.38368 10.0889 9.35304 10.843 9.37529C11.7589 9.4023 12.6618 9.29809 13.56 9.12648C14.9714 8.8568 16.3289 8.4488 17.5633 7.59304ZM16.6262 10.2795C15.9277 10.4953 15.2403 10.7641 14.5279 10.9133C13.6457 11.0982 12.7457 11.2602 11.848 11.296C10.1823 11.3624 8.51382 11.3486 6.86491 11.0054C5.72027 10.7671 4.59941 10.463 3.54737 9.94976C2.99533 9.68045 2.46979 9.35682 1.9375 9.06063C1.9375 9.76183 1.92981 10.4806 1.93975 11.1992C1.94893 11.8629 2.22674 12.4191 2.70906 12.8587C3.45769 13.5411 4.35026 13.9794 5.29851 14.3135C7.08784 14.9439 8.93248 15.2074 10.8244 15.1209C11.6535 15.0829 12.4817 15.0128 13.3079 14.9323C13.7538 14.8888 14.1734 14.7789 14.4781 14.3806C14.6688 14.1311 14.9277 13.9264 15.1795 13.7322C16.3107 12.8602 17.5403 12.1725 18.9305 11.7936C18.9305 10.887 18.9305 9.99204 18.9305 9.06908C18.8467 9.11932 18.7744 9.16813 18.6975 9.20786C18.0216 9.5569 17.3449 9.90433 16.6262 10.2795ZM1.9375 16.2803C1.9375 16.4676 1.93287 16.6551 1.93833 16.8423C1.95809 17.5192 2.25154 18.0783 2.7442 18.5158C3.35826 19.061 4.07403 19.4423 4.83508 19.7597C6.24033 20.3458 7.71413 20.6082 9.21375 20.7402C9.87385 20.7983 10.5435 20.742 11.2084 20.7545C11.4282 20.7586 11.4715 20.6595 11.5056 20.4697C11.6105 19.8859 11.7055 19.2964 11.8708 18.7285C12.042 18.1404 12.2909 17.5749 12.5032 17.0062C8.79241 17.2386 5.17354 16.9466 1.9375 14.7841C1.9375 15.2636 1.9375 15.7408 1.9375 16.2803ZM4.40199 25.19C4.54885 25.2537 4.69519 25.3186 4.84265 25.3808C6.33251 26.0098 7.8991 26.2893 9.50309 26.3691C10.2086 26.4042 10.9175 26.3821 11.6246 26.3714C11.8942 26.3673 12.1632 26.3224 12.4527 26.2941C11.8782 25.1399 11.5796 23.938 11.4365 22.6806C8.04861 22.7881 4.82401 22.3425 1.93757 20.4066C1.93757 21.1193 1.91909 21.8335 1.94301 22.5463C1.96487 23.1977 2.26566 23.7535 2.76089 24.1477C3.25439 24.5406 3.81966 24.8433 4.40199 25.19Z" fill="white"/>
<path d="M20.8125 26.4673C20.7616 26.3761 20.7232 26.2793 20.6578 26.2551C19.6689 25.8886 18.8287 24.7115 18.9441 23.6463C19.5709 23.6463 20.2008 23.6463 20.8548 23.6463C20.8778 23.9919 21.0122 24.2977 21.3742 24.4357C21.7181 24.5666 22.056 24.5469 22.3493 24.303C22.6563 24.0476 22.6937 23.6846 22.6027 23.3449C22.5129 23.0091 22.2653 22.7833 21.8785 22.7468C21.2139 22.6841 20.5669 22.5812 20.0181 22.1318C19.373 21.6036 18.9926 20.9604 18.9332 20.1178C18.8681 19.195 19.1408 18.4081 19.8205 17.7829C20.0398 17.5812 20.2986 17.3938 20.5733 17.2899C20.7956 17.2058 20.818 17.0988 20.8153 16.9084C20.8076 16.3474 20.8126 15.7862 20.8126 15.2063C21.4327 15.2063 22.0413 15.2063 22.6736 15.2063C22.6736 15.8502 22.6736 16.5015 22.6736 17.147C23.8484 17.6793 24.5656 18.5061 24.5745 19.8561C23.9235 19.8561 23.2933 19.8561 22.6402 19.8561C22.6195 19.5028 22.4848 19.2 22.1193 19.062C21.8312 18.9532 21.5483 18.9542 21.2714 19.1189C20.9586 19.3049 20.7994 19.6838 20.8757 20.1041C20.932 20.4141 21.2415 20.6943 21.5662 20.7519C21.9905 20.8272 22.4254 20.8762 22.8327 21.0078C23.794 21.3186 24.5511 22.4468 24.5755 23.4205C24.5983 24.3354 24.344 25.107 23.6741 25.7215C23.4472 25.9296 23.1752 26.1105 22.8922 26.2274C22.7124 26.3017 22.6854 26.3809 22.6862 26.5362C22.6895 27.1175 22.6876 27.6988 22.6876 28.2963C22.0622 28.2963 21.4537 28.2963 20.8126 28.2963C20.8126 27.6958 20.8126 27.0956 20.8125 26.4673Z" fill="white"/>
</g>
<defs>
<clipPath id="clip0_899_1211">
<rect width="32" height="32" fill="white"/>
</clipPath>
</defs>
</svg>
