<svg width="36" height="37" viewBox="0 0 36 37" fill="none" xmlns="http://www.w3.org/2000/svg">
<path d="M28.02 2.95898H7.98C6.46031 2.95898 5.00286 3.56268 3.92828 4.63726C2.85369 5.71185 2.25 7.16929 2.25 8.68898V22.999C2.25 24.5187 2.85369 25.9761 3.92828 27.0507C5.00286 28.1253 6.46031 28.729 7.98 28.729H13.71L18 33.019L22.29 28.729H28.02C29.5397 28.729 30.9971 28.1253 32.0717 27.0507C33.1463 25.9761 33.75 24.5187 33.75 22.999V8.68898C33.75 7.16929 33.1463 5.71185 32.0717 4.63726C30.9971 3.56268 29.5397 2.95898 28.02 2.95898Z" stroke="#020202" stroke-width="2.25" stroke-miterlimit="10"/>
<path d="M17.9998 18.7391V17.0291C17.9992 16.6528 18.0731 16.2801 18.2173 15.9326C18.3614 15.585 18.573 15.2695 18.8398 15.0041L20.0248 13.8191C20.5608 13.2812 20.8627 12.5534 20.8648 11.7941V11.5391C20.8608 10.7818 20.5572 10.057 20.0203 9.52292C19.4835 8.98886 18.757 8.68908 17.9998 8.68909C17.2425 8.68908 16.5161 8.98886 15.9792 9.52292C15.4423 10.057 15.1387 10.7818 15.1348 11.5391" stroke="#020202" stroke-width="2.25" stroke-miterlimit="10"/>
<path d="M16.5747 21.5739H19.4247" stroke="#020202" stroke-width="2.25" stroke-miterlimit="10"/>
</svg>
