<svg width="50" height="50" viewBox="0 0 50 50" fill="none" xmlns="http://www.w3.org/2000/svg">
<g clip-path="url(#clip0_899_841)">
<path d="M8.00251 2.83451C8.45494 2.76844 8.8655 2.65458 9.27617 2.65419C19.8216 2.64441 30.3673 2.61399 40.9125 2.66969C43.4954 2.68334 45.449 3.99283 46.7306 6.25977C47.3481 7.35209 47.5615 8.53396 47.5598 9.77194C47.5559 12.7663 47.5528 15.7608 47.5626 18.7551C47.5651 19.5023 47.2414 20.0429 46.5706 20.3133C45.9614 20.5589 45.3 20.546 44.8227 20.0455C44.5689 19.7793 44.3863 19.3523 44.3574 18.9833C44.2902 18.1267 44.336 17.2613 44.336 16.359C31.5188 16.359 18.7229 16.359 5.85937 16.359C5.85937 16.5246 5.85937 16.6967 5.85937 16.8689C5.85937 24.778 5.85684 32.6872 5.86127 40.5963C5.86229 42.4091 7.18299 44.0767 8.94752 44.2507C9.24992 44.2806 9.55194 44.3413 9.85418 44.3416C15.5989 44.3471 21.3436 44.3455 27.0882 44.3458C28.1072 44.3458 28.8059 44.9988 28.8084 45.9513C28.8108 46.8483 28.0445 47.5675 27.0764 47.5677C21.1365 47.5689 15.1963 47.5922 9.25662 47.5531C7.5719 47.542 6.08647 46.8987 4.83418 45.7247C3.75425 44.7123 3.07795 43.4923 2.76959 42.0606C2.68883 41.6856 2.64236 41.2954 2.64211 40.9122C2.63542 30.3667 2.6035 19.821 2.66068 9.27586C2.67457 6.71431 3.9649 4.75135 6.23009 3.50539C6.76668 3.21024 7.38173 3.05772 8.00251 2.83451ZM8.76119 5.96816C7.76368 6.17228 6.95647 6.70762 6.47888 7.58228C6.16079 8.16483 5.93836 8.85556 5.88575 9.51484C5.79203 10.6892 5.8594 11.8764 5.8594 13.0555C18.7202 13.0555 31.517 13.0555 44.2388 13.0555C44.2388 11.6394 44.3144 10.2587 44.2192 8.89002C44.1061 7.26635 42.4723 5.87465 40.709 5.87324C30.309 5.86491 19.909 5.86855 9.50892 5.8731C9.28795 5.8732 9.067 5.93256 8.76119 5.96816Z" fill="#DB1222"/>
<path d="M29.6882 39.8377C29.6552 39.5562 29.6506 39.3104 29.585 39.0821C29.3813 38.3736 29.6834 37.7739 29.9669 37.1702C30.8101 35.3746 31.6645 33.5843 32.5048 31.7874C33.6556 29.3265 34.7961 26.8608 35.944 24.3986C36.2667 23.7065 36.574 23.0054 36.9341 22.3329C37.6006 21.0881 39.3735 20.3152 40.745 20.6888C41.3857 20.8633 42.0115 21.1131 42.6185 21.3856C43.6264 21.8379 44.607 22.3505 45.611 22.8116C47.2022 23.5424 48.0097 25.8267 47.2772 27.4068C46.4713 29.1451 45.6794 30.8899 44.8711 32.6271C43.6505 35.2505 42.42 37.8692 41.1961 40.491C40.9061 41.1122 40.5817 41.7219 40.351 42.3649C40.0433 43.2223 39.301 43.5587 38.6119 43.9803C36.9103 45.0212 35.2177 46.0768 33.5109 47.109C32.9171 47.4682 32.3175 47.7479 31.5747 47.3953C30.7432 47.0007 30.6827 46.256 30.5684 45.5161C30.4196 44.5528 30.2883 43.5868 30.143 42.6228C30.0287 41.8642 29.9061 41.1068 29.7842 40.3493C29.7589 40.1923 29.7209 40.0374 29.6882 39.8377ZM34.0321 36.1438C33.7539 36.7378 33.4829 37.3353 33.1953 37.9247C32.9486 38.4303 32.7861 38.9256 32.8998 39.5167C33.1359 40.7442 33.3103 41.9836 33.5215 43.288C34.5848 42.6322 35.5701 41.9802 36.5993 41.407C37.1895 41.0782 37.5826 40.6496 37.8588 40.0393C38.768 38.0302 39.7133 36.0375 40.6422 34.0373C41.0308 33.2005 41.4131 32.3606 41.8127 31.4908C40.2582 30.7683 38.7308 30.0583 37.2075 29.3502C36.1357 31.6523 35.1045 33.867 34.0321 36.1438ZM43.9379 26.9925C44.0073 26.8149 44.0669 26.6327 44.148 26.4606C44.4074 25.9104 44.3988 25.8231 43.8643 25.5636C42.6994 24.9981 41.5241 24.4542 40.3521 23.9035C40.0344 23.7542 39.7955 23.826 39.6402 24.157C39.2968 24.8892 38.9461 25.6179 38.5746 26.3979C40.1261 27.1234 41.6445 27.8333 43.1762 28.5495C43.4288 28.0283 43.6643 27.5426 43.9379 26.9925Z" fill="#DB1222"/>
<path d="M20.8986 31.9433C18.0992 31.9433 15.3487 31.9348 12.5983 31.9482C11.714 31.9525 11.106 31.1971 11.0432 30.6882C10.9082 29.5949 11.2895 29.0547 12.1318 28.7622C12.2791 28.711 12.4517 28.7222 12.6126 28.7222C17.4626 28.7203 22.3126 28.7289 27.1625 28.7145C28.2847 28.7112 28.7613 29.5576 28.8013 30.3037C28.8481 31.1788 28.0653 31.9389 27.1482 31.9414C25.0813 31.9472 23.0143 31.9433 20.8986 31.9433Z" fill="#DB1222"/>
<path d="M11.948 23.4594C11.1387 23.0971 10.9556 22.4525 11.0373 21.6841C11.0994 21.1003 11.4315 20.713 11.968 20.5037C12.1121 20.4474 12.2778 20.4234 12.4336 20.4232C17.3968 20.4192 22.3599 20.4189 27.3231 20.4209C28.1389 20.4213 28.8124 21.1417 28.8087 21.995C28.805 22.825 28.1346 23.543 27.3439 23.5434C22.3645 23.5462 17.385 23.5454 12.4056 23.5418C12.2656 23.5417 12.1256 23.4966 11.948 23.4594Z" fill="#DB1222"/>
<path d="M21.8602 40.2333C18.7364 40.2333 15.6611 40.2137 12.5864 40.2471C11.8262 40.2554 10.9555 39.5056 11.0018 38.7846C11.0717 37.6953 11.6182 37.0125 12.6013 37.0117C16.0343 37.009 19.4673 37.0093 22.9003 37.0116C23.7545 37.0122 24.4502 37.5488 24.5894 38.3C24.7398 39.1121 24.3558 39.8982 23.5407 40.1398C23.0322 40.2905 22.4552 40.21 21.8602 40.2333Z" fill="#DB1222"/>
<path d="M13.1817 9.23377C13.269 10.5423 12.271 11.2861 11.0228 11.0193C10.4428 10.8954 10.0817 10.3982 9.97739 9.82176C9.86788 9.2168 9.99051 8.63462 10.5196 8.22098C11.3474 7.57383 12.8771 7.87011 13.1817 9.23377Z" fill="#DB1222"/>
<path d="M18.1408 8.6461C18.6078 9.39589 18.3352 10.483 17.5414 10.9276C16.9351 11.2671 15.9056 11.0205 15.4136 10.3898C14.9922 9.84965 15.0497 8.95677 15.5387 8.44657C16.3264 7.62468 17.5972 7.70604 18.1408 8.6461Z" fill="#DB1222"/>
<path d="M20.7729 8.38692C21.4289 7.6108 23.1254 7.7528 23.445 8.83793C23.7025 9.71221 23.5707 10.6233 22.5963 10.9521C21.7321 11.2438 20.8287 11.0606 20.4939 10.0898C20.2966 9.51768 20.3108 8.91843 20.7729 8.38692Z" fill="#DB1222"/>
</g>
<defs>
<clipPath id="clip0_899_841">
<rect width="50" height="50" fill="white" transform="translate(0 0.00976562)"/>
</clipPath>
</defs>
</svg>
