<svg width="32" height="32" viewBox="0 0 32 32" fill="none" xmlns="http://www.w3.org/2000/svg">
<g clip-path="url(#clip0_899_1166)">
<path d="M15.2658 15.7969C18.4708 19.0017 21.6558 22.1954 24.8538 25.3759C25.4198 25.9388 25.2689 26.6892 24.6832 27.1376C23.8039 27.8106 22.8714 28.3823 21.8709 28.8422C20.7906 29.3389 19.6602 29.6722 18.485 29.8861C17.3046 30.101 16.1178 30.111 14.9377 30.0457C13.5757 29.9704 12.25 29.6494 10.9745 29.1401C9.99981 28.7509 9.07505 28.2734 8.20364 27.6895C7.26156 27.0583 6.4038 26.3246 5.64873 25.4831C4.6585 24.3796 3.85229 23.1481 3.24779 21.7894C2.77624 20.7295 2.45757 19.6275 2.24095 18.4861C2.01127 17.2759 2.00782 16.0558 2.08134 14.8459C2.17084 13.373 2.54794 11.9475 3.13684 10.5843C3.63488 9.43135 4.25752 8.35326 5.03966 7.37165C5.47621 6.82375 6.16235 6.68503 6.74611 7.2713C9.57569 10.113 12.4146 12.9455 15.2658 15.7969ZM10.8769 26.8461C11.3131 27.0229 11.7428 27.2186 12.1868 27.3728C13.5352 27.8411 14.9226 28.0824 16.3533 27.996C16.9949 27.9573 17.6389 27.9075 18.273 27.8069C19.8314 27.5596 21.251 26.9505 22.6252 26.0498C17.1027 20.5248 11.6004 15.0201 6.03135 9.44854C5.67548 10.1607 5.35147 10.7804 5.0533 11.4122C4.5184 12.5457 4.22181 13.7556 4.14145 14.9938C4.05707 16.2938 4.10143 17.5985 4.4318 18.8806C4.7835 20.2455 5.31851 21.5289 6.10902 22.6892C6.80247 23.7071 7.60426 24.6362 8.59861 25.391C9.30816 25.9296 10.035 26.4304 10.8769 26.8461Z" fill="white"/>
<path d="M21.5157 20.9843C20.1234 19.5917 18.7465 18.2149 17.3702 16.8376C16.9192 16.3862 16.9206 15.7372 17.3741 15.2836C20.0464 12.6104 22.7213 9.93996 25.3897 7.26301C25.95 6.70089 26.6546 6.81951 27.0966 7.38081C27.8038 8.27872 28.4001 9.24984 28.8652 10.292C29.3447 11.3664 29.6771 12.4868 29.8872 13.6518C30.1002 14.8323 30.1114 16.0184 30.0461 17.1979C29.9634 18.6935 29.5908 20.1401 28.9987 21.5238C28.5618 22.5447 28.0181 23.5069 27.3596 24.3977C27.1143 24.7296 26.887 25.1049 26.4011 25.1982C25.9947 25.2763 25.6886 25.1521 25.4208 24.8857C24.1212 23.5936 22.8273 22.2958 21.5157 20.9843ZM22.3751 18.9062C23.6012 20.1327 24.8273 21.3593 26.1077 22.6401C26.4441 21.9716 26.768 21.3629 27.0605 20.7395C27.6055 19.5777 27.9091 18.3399 27.9838 17.0693C28.047 15.9942 28.0445 14.9113 27.8207 13.8376C27.5225 12.4074 27.0408 11.0599 26.2558 9.8225C26.1072 9.58828 26.0055 9.58072 25.8146 9.77248C23.7728 11.8234 21.725 13.8684 19.6798 15.9158C19.6317 15.9639 19.5932 16.0216 19.5456 16.0807C20.4879 17.0217 21.4159 17.9483 22.3751 18.9062Z" fill="white"/>
<path d="M15.9377 2.06254C17.6563 2.00881 19.289 2.28851 20.8701 2.87402C22.2184 3.37333 23.4726 4.04185 24.6032 4.93885C24.8719 5.15204 25.1088 5.35624 25.1944 5.71412C25.2903 6.11492 25.1614 6.42839 24.8934 6.69747C23.343 8.25446 21.7876 9.80647 20.2338 11.3601C19.0997 12.4941 17.9496 13.6127 16.841 14.771C16.4957 15.1318 15.6332 15.1295 15.2895 14.7757C13.8601 13.3045 12.3972 11.8657 10.9466 10.4151C9.72252 9.19112 8.50401 7.96157 7.27171 6.74599C6.70705 6.189 6.80941 5.47651 7.37213 5.0384C8.72454 3.98548 10.21 3.1785 11.8526 2.67277C12.7526 2.39567 13.6638 2.17271 14.6095 2.12511C15.0417 2.10336 15.4741 2.08334 15.9377 2.06254ZM16.1856 12.4719C18.3189 10.3412 20.4521 8.21055 22.5899 6.07532C18.5432 3.25974 12.8899 3.64296 9.55082 6.084C10.185 6.71752 10.8176 7.34895 11.4497 7.98091C12.9217 9.45274 14.3923 10.926 15.8692 12.3929C15.935 12.4583 16.0569 12.4671 16.1856 12.4719Z" fill="white"/>
</g>
<defs>
<clipPath id="clip0_899_1166">
<rect width="32" height="32" fill="white"/>
</clipPath>
</defs>
</svg>
