<svg width="42" height="42" viewBox="0 0 42 42" fill="none" xmlns="http://www.w3.org/2000/svg">
<g clip-path="url(#clip0_899_1570)">
<path d="M0.0820312 29.541C0.0820317 20.5977 0.0820317 11.6545 0.108532 2.69316C0.175012 2.62369 0.230538 2.5782 0.252669 2.52001C0.665565 1.43441 1.40578 0.679 2.49662 0.267651C2.55344 0.246225 2.58284 0.152084 2.625 0.0917969C14.9042 0.0917969 27.1834 0.0917969 39.4737 0.114749C39.5229 0.174742 39.5545 0.229322 39.6001 0.246262C40.7648 0.679223 41.576 1.45004 41.9348 2.66265C41.9436 2.6926 42.0312 2.69927 42.082 2.7168C42.082 11.6327 42.082 20.5486 42.0576 29.478C41.9672 29.6052 41.8836 29.7122 41.8379 29.8336C41.3668 31.0853 39.9243 32.1009 38.622 32.092C35.1782 32.0684 31.7341 32.084 28.2901 32.084C28.1351 32.084 27.98 32.084 27.7697 32.084C28.3306 33.7683 28.8665 35.3776 29.4088 37.0059C30.7699 37.0059 32.1218 37.0049 33.4736 37.0074C33.6073 37.0077 33.7514 37.0013 33.8728 37.0462C34.4402 37.2556 34.7635 37.935 34.6085 38.6232C34.5238 38.9994 34.0506 39.4813 33.4382 39.4798C25.1973 39.4604 16.9563 39.4668 8.7154 39.4667C7.97552 39.4667 7.54776 39.0338 7.54688 38.2857C7.5459 37.4492 7.94374 37.0063 8.69831 37.006C10.0499 37.0055 11.4016 37.0059 12.7572 37.0059C13.3019 35.3656 13.8389 33.7488 14.3918 32.084C14.1483 32.084 13.9857 32.084 13.823 32.084C10.3517 32.084 6.88038 32.0842 3.40907 32.0831C3.2732 32.083 3.1308 32.0939 3.00248 32.0591C1.73655 31.7153 0.771386 31.0188 0.301101 29.7415C0.27072 29.6589 0.156989 29.6071 0.0820312 29.541ZM29.5305 12.6843C30.4779 13.6311 31.4288 14.5746 32.3715 15.5262C32.9568 16.117 32.9555 16.873 32.3789 17.4637C32.0734 17.7767 31.776 18.1002 31.447 18.3868C31.178 18.6212 31.072 18.8261 31.3068 19.1553C31.4316 19.3302 31.4691 19.5674 31.547 19.7793C32.2289 19.7793 32.8845 19.7774 33.5401 19.7799C34.1467 19.7821 34.6149 20.2437 34.6164 20.845C34.6192 21.9795 34.6172 23.114 34.6172 24.2485C34.6172 24.3922 34.6172 24.5358 34.6172 24.677C36.3152 24.677 37.9494 24.677 39.6053 24.677C39.6113 24.5614 39.6204 24.4686 39.6204 24.3759C39.6211 17.6235 39.6236 10.8712 39.6127 4.11893C39.6122 3.81941 39.5463 3.49143 39.4122 3.22667C39.1379 2.68526 38.6049 2.5597 38.0478 2.5555C36.8587 2.54654 35.6694 2.55273 34.4803 2.55273C24.4065 2.55273 14.3327 2.55063 4.2589 2.56147C3.90598 2.56185 3.51909 2.62195 3.20784 2.77548C2.6495 3.05088 2.54521 3.61351 2.54495 4.18161C2.54188 10.8792 2.54286 17.5769 2.54383 24.2745C2.54385 24.4064 2.55662 24.5383 2.56332 24.6678C4.24017 24.6678 5.88407 24.6678 7.5469 24.6678C7.5469 23.3778 7.54556 22.1211 7.54746 20.8643C7.54841 20.236 8.01034 19.7812 8.64553 19.7797C9.30065 19.7781 9.95577 19.7793 10.6063 19.7793C10.7577 19.4183 10.9004 19.0779 11.0536 18.7123C10.6347 18.3006 10.2114 17.8935 9.79815 17.4765C9.20363 16.8765 9.20561 16.1162 9.80764 15.5103C10.9059 14.4049 12.007 13.3023 13.1136 12.2053C13.6862 11.6377 14.4847 11.5515 15.108 12.2042C15.5131 12.6284 15.9245 13.0467 16.3146 13.4486C16.7066 13.2826 17.0463 13.1387 17.3906 12.9929C17.3906 12.32 17.3886 11.6644 17.3912 11.0087C17.3937 10.4036 17.8567 9.93711 18.4602 9.93635C20.2098 9.93415 21.9593 9.93402 23.7089 9.93643C24.3098 9.93725 24.7707 10.4065 24.7729 11.0136C24.7753 11.682 24.7734 12.3504 24.7734 12.9982C25.0649 13.1184 25.3339 13.2064 25.5792 13.3384C25.7526 13.4316 25.8549 13.4209 25.991 13.2775C26.3578 12.891 26.7389 12.5179 27.1195 12.1447C27.5025 11.7691 28.0964 11.5815 28.5868 11.9019C28.9108 12.1137 29.1901 12.3938 29.5305 12.6843ZM29.9824 24.7012C30.7004 24.7012 31.4184 24.7012 32.1316 24.7012C32.1316 23.8499 32.1316 23.0631 32.1316 22.2402C31.5911 22.2402 31.0732 22.2153 30.5588 22.247C29.9995 22.2814 29.5767 21.9546 29.3652 21.4067C29.066 20.6316 28.7412 19.8659 28.4063 19.1054C28.1806 18.5927 28.2658 17.9698 28.6674 17.568C29.0054 17.23 29.3519 16.9006 29.6584 16.6025C29.0843 16.0204 28.5335 15.4619 27.9654 14.8857C27.6412 15.2165 27.3105 15.5618 26.9709 15.8984C26.5815 16.2844 25.9615 16.3705 25.4675 16.1553C24.6937 15.8183 23.9138 15.4948 23.1294 15.1834C22.5675 14.9604 22.3132 14.6201 22.3126 14.0183C22.3121 13.4898 22.3125 12.9614 22.3125 12.4279C21.467 12.4279 20.6706 12.4279 19.8516 12.4279C19.8516 12.9772 19.8519 13.4953 19.8515 14.0134C19.8509 14.6186 19.6008 14.9599 19.0423 15.1822C18.2577 15.4945 17.4762 15.8155 16.7023 16.1531C16.2026 16.371 15.5878 16.2919 15.1982 15.9022C14.8528 15.5567 14.5208 15.1978 14.19 14.8523C13.596 15.4408 13.0429 15.9887 12.49 16.5365C12.5069 16.5605 12.5196 16.5853 12.5383 16.6042C12.8561 16.9241 13.1759 17.2421 13.4927 17.563C13.8983 17.9738 13.9874 18.5849 13.7604 19.0995C13.4251 19.8599 13.1023 20.6265 12.7984 21.3999C12.5659 21.9919 12.2453 22.2397 11.6159 22.2401C11.0885 22.2405 10.5611 22.2402 10.0296 22.2402C10.0296 23.0856 10.0296 23.8722 10.0296 24.6778C11.6978 24.6778 13.3442 24.6778 14.9936 24.6778C14.604 21.7029 15.5391 19.6411 17.8181 18.2099C20.0194 16.8273 22.415 16.8936 24.5694 18.3515C26.7555 19.8309 27.5592 22.0272 27.1521 24.7012C28.0803 24.7012 28.9903 24.7012 29.9824 24.7012ZM18.7441 27.1621C13.3509 27.1621 7.95765 27.1621 2.50489 27.1621C2.54958 27.7141 2.52923 28.2127 2.64311 28.6785C2.78386 29.2541 3.19903 29.6203 4.18477 29.6206C14.5749 29.6245 24.965 29.623 35.3551 29.623C36.2574 29.623 37.1597 29.6268 38.062 29.6218C38.7795 29.6178 39.4002 29.2824 39.5076 28.7591C39.6118 28.2517 39.6098 27.7225 39.658 27.1621C32.6555 27.1621 25.7408 27.1621 18.7441 27.1621ZM16.5626 33.7494C16.2012 34.8184 15.8398 35.8874 15.4689 36.9843C19.2448 36.9843 22.9408 36.9843 26.6922 36.9843C26.141 35.3286 25.6016 33.7087 25.0638 32.0934C22.3955 32.0934 19.7609 32.0934 17.1027 32.0934C16.925 32.6243 16.7478 33.154 16.5626 33.7494ZM20.2207 24.7012C21.2734 24.7012 22.3261 24.7012 23.3788 24.7012C24.693 24.7012 24.6747 24.7009 24.6959 23.3771C24.7281 21.3693 22.8174 19.4517 20.43 19.8873C18.4186 20.2542 17.0675 22.1383 17.5449 24.3459C17.6086 24.6406 17.7327 24.7116 18.0061 24.706C18.7167 24.6915 19.4278 24.7012 20.2207 24.7012Z" fill="#DB1222"/>
<path d="M30.1037 10.502C28.9858 8.26153 30.065 5.55089 32.627 5.0571C34.7627 4.64546 36.6258 5.76766 37.0393 7.98063C37.4454 10.1537 36.2698 11.9305 34.118 12.3556C32.6421 12.6471 31.2818 12.2458 30.2717 10.7645C30.2186 10.6866 30.1643 10.6096 30.1037 10.502ZM32.2382 8.81099C32.2437 9.3252 32.5639 9.63826 32.9866 9.80264C33.4253 9.97324 33.88 9.87806 34.2219 9.53639C34.5648 9.19379 34.6405 8.74667 34.4869 8.29826C34.2938 7.73475 33.6793 7.42324 33.0792 7.56504C32.7088 7.65257 32.126 8.15858 32.2382 8.81099Z" fill="#DB1222"/>
</g>
<defs>
<clipPath id="clip0_899_1570">
<rect width="42" height="42" fill="white" transform="translate(0 0.00976562)"/>
</clipPath>
</defs>
</svg>
