<svg width="51" height="51" viewBox="0 0 51 51" fill="none" xmlns="http://www.w3.org/2000/svg">
<g clip-path="url(#clip0_899_741)">
<path d="M0.662598 23.8916C0.662598 20.6669 0.662598 17.4422 0.694682 14.1959C0.762802 14.1418 0.819282 14.1159 0.83194 14.076C1.45625 12.1101 3.3498 10.9707 5.3609 10.9946C7.6717 11.0221 9.98307 11.001 12.2942 11.001C12.4688 11.001 12.6433 11.001 12.8696 11.001C12.8696 9.91491 12.8391 8.87676 12.8823 7.84169C12.9045 7.30773 12.9983 6.75993 13.163 6.25181C13.714 4.55107 15.4925 3.28634 17.2597 3.28621C22.8096 3.28581 28.36 3.32256 33.9094 3.26861C36.2201 3.24614 38.6016 5.39998 38.4639 7.83029C38.4124 8.7388 38.4543 9.65267 38.457 10.5641C38.4575 10.7032 38.4768 10.8422 38.4889 11.001C41.0562 11.001 43.5778 10.9973 46.0995 11.0022C48.0299 11.0059 49.7542 12.0632 50.4729 13.9682C50.4982 14.0351 50.5977 14.074 50.6626 14.1259C50.6626 17.3506 50.6626 20.5753 50.6276 23.8253C50.1198 24.7279 49.7346 25.6711 49.1421 26.4581C48.7773 26.9426 48.7067 27.3816 48.7071 27.9155C48.7111 33.0096 48.6991 38.1037 48.7142 43.1977C48.7209 45.4935 46.7368 47.4255 44.4915 47.4258C31.9922 47.4277 19.493 47.4274 6.9938 47.4228C6.69121 47.4227 6.38581 47.3801 6.08653 47.3292C4.08754 46.9887 2.60651 45.1514 2.61128 43.2095C2.62424 37.9364 2.61788 32.6633 2.6076 27.3902C2.6072 27.1858 2.5425 26.9344 2.41431 26.7852C1.70749 25.9621 1.1224 25.079 0.845361 24.0146C0.8315 23.9613 0.725628 23.932 0.662598 23.8916ZM7.35205 14.0283C6.65237 14.0284 5.9517 14.0068 5.25347 14.0387C4.9636 14.052 4.66129 14.1411 4.39539 14.2628C3.70082 14.5809 3.61123 15.2502 3.6026 15.8898C3.57497 17.9398 3.57077 19.9907 3.60749 22.0403C3.61669 22.5539 3.75459 23.0861 3.9358 23.5715C4.32493 24.6138 5.17627 25.2591 6.06612 25.8525C7.75105 26.976 9.62174 27.6827 11.5651 28.1712C13.173 28.5753 14.8125 28.8574 16.4432 29.1658C17.2911 29.3261 18.1485 29.4404 19.0051 29.5483C19.5103 29.612 20.0221 29.6226 20.5845 29.6608C20.5845 29.1867 20.6129 28.7653 20.5787 28.349C20.4999 27.3887 21.2774 26.8394 22.0817 26.8307C24.4734 26.8049 26.8658 26.8027 29.2575 26.8321C30.0443 26.8418 30.8277 27.3748 30.7464 28.363C30.7123 28.7781 30.7407 29.1984 30.7407 29.6811C31.8397 29.5686 32.8824 29.5149 33.9058 29.3451C35.6061 29.0631 37.3077 28.7643 38.9839 28.3675C41.3693 27.8027 43.6694 27.0055 45.6956 25.5523C46.9159 24.6772 47.7069 23.5711 47.7264 22.0349C47.7524 19.9849 47.7542 17.934 47.7245 15.8842C47.7078 14.725 47.2284 14.0245 45.8686 14.0251C33.0623 14.0306 20.256 14.0283 7.35205 14.0283ZM5.54541 37.0263C5.54542 38.8973 5.54275 40.7683 5.54644 42.6393C5.54875 43.8117 6.26058 44.407 7.06552 44.4063C19.4628 44.3964 31.8602 44.3997 44.2575 44.3966C44.4146 44.3966 44.5856 44.3871 44.7263 44.3267C45.4789 44.0038 45.7721 43.5763 45.7748 42.5731C45.7865 38.2617 45.7801 33.9503 45.7785 29.6389C45.7785 29.4878 45.7601 29.3368 45.7481 29.1527C40.9593 31.502 35.8593 32.2851 30.6804 32.7183C30.2122 34.9618 28.4508 36.379 26.484 36.5704C25.2644 36.6891 24.0335 36.6348 22.9321 35.9529C21.7013 35.1909 20.9294 34.101 20.6391 32.712C18.0033 32.5011 15.4344 32.1745 12.8909 31.6254C10.3622 31.0796 7.92037 30.2948 5.54541 29.1427C5.54541 31.7892 5.54541 34.3589 5.54541 37.0263ZM35.43 7.82689C35.4016 6.95002 34.7367 6.31483 33.8293 6.31447C28.3794 6.31234 22.9295 6.31508 17.4797 6.31112C16.874 6.31068 16.4137 6.58256 16.1159 7.07375C15.9583 7.33369 15.8692 7.6718 15.8596 7.97808C15.8283 8.97513 15.8479 9.97378 15.8479 10.9592C22.4172 10.9592 28.9621 10.9592 35.5259 10.9592C35.5259 10.2834 35.5361 9.64911 35.5219 9.01535C35.5137 8.64757 35.4661 8.28067 35.43 7.82689ZM25.1257 29.8486C24.5963 29.8486 24.0669 29.8486 23.4618 29.8486C23.5228 30.6993 23.4519 31.5057 23.6611 32.2312C24.027 33.5002 25.0501 33.7336 26.3535 33.4884C26.9068 33.3843 27.3243 33.0492 27.5592 32.4975C27.9221 31.6447 27.7805 30.7657 27.8079 29.8486C26.9081 29.8486 26.0657 29.8486 25.1257 29.8486Z" fill="#DB1222"/>
</g>
<defs>
<clipPath id="clip0_899_741">
<rect width="50" height="50" fill="white" transform="translate(0.564941 0.258789)"/>
</clipPath>
</defs>
</svg>
