<svg width="50" height="50" viewBox="0 0 50 50" fill="none" xmlns="http://www.w3.org/2000/svg">
<g clip-path="url(#clip0_899_1062)">
<path d="M50.0977 26.5265C50.0323 26.624 49.928 26.6636 49.9073 26.7294C49.6389 27.5844 49.2214 28.379 48.5839 28.9854C47.6304 29.8924 46.5014 30.562 45.1331 30.5683C40.6441 30.5892 36.155 30.58 31.666 30.5735C30.5452 30.5719 29.5811 30.0995 28.7141 29.4447C27.6253 28.6224 27.0164 27.4783 26.6989 26.1703C26.6576 26.0005 26.6618 25.8172 26.6617 25.6402C26.66 18.7927 26.6552 11.9453 26.6651 5.09792C26.6668 3.9457 27.1686 2.96388 27.8664 2.07957C28.5682 1.19016 29.4788 0.604016 30.5676 0.291219C30.6224 0.275462 30.664 0.213415 30.6879 0.140175C35.7769 0.107429 40.8896 0.107429 46.0239 0.140054C46.0782 0.20829 46.1046 0.264324 46.1445 0.276582C48.05 0.862832 49.3217 2.08641 49.9146 4.00214C49.9302 4.0526 50.0347 4.07555 50.0977 4.11134C50.0977 11.5678 50.0977 19.0243 50.0977 26.5265ZM30.5665 12.3633C30.5665 16.4624 30.5491 20.5615 30.576 24.6604C30.5853 26.0878 31.1951 26.6432 32.497 26.656C36.4167 26.6945 40.3374 26.6948 44.2571 26.6561C45.5939 26.6429 46.1696 26.066 46.1765 24.762C46.2096 18.4834 46.2095 12.2045 46.1766 5.9259C46.1697 4.61678 45.5959 4.04159 44.2612 4.02798C40.3414 3.98802 36.421 4.0073 32.5009 4.02093C31.936 4.02289 31.3171 4.10381 31.0052 4.63266C30.7652 5.0396 30.5955 5.5509 30.5856 6.01983C30.5416 8.10097 30.5665 10.1836 30.5665 12.3633Z" fill="#DB1222"/>
<path d="M0.0976562 27.2039C0.17154 27.074 0.282094 27.0017 0.313771 26.9039C0.74108 25.5845 1.56797 24.5774 2.74899 23.8815C3.47844 23.4516 4.26357 23.1487 5.14367 23.1504C9.48828 23.1588 13.8329 23.1456 18.1775 23.1601C19.2887 23.1638 20.251 23.6323 21.1133 24.3014C22.1801 25.1293 22.7876 26.249 23.0946 27.5446C23.1349 27.7145 23.1425 27.8953 23.1425 28.0711C23.1449 33.7663 23.1538 39.4615 23.1367 45.1567C23.1333 46.2826 22.6471 47.255 21.9527 48.1253C21.2419 49.0162 20.3222 49.5907 19.2404 49.923C19.1854 49.9399 19.1438 50.0005 19.1183 50.0741C14.1581 50.1073 9.17561 50.1073 4.17289 50.0753C4.05792 49.994 3.96084 49.9485 3.86878 49.8946C3.13128 49.4622 2.32056 49.1154 1.67905 48.5699C1.05674 48.0406 0.63632 47.292 0.375843 46.4844C0.330001 46.3423 0.192713 46.2297 0.0976568 46.1034C0.0976565 39.8188 0.0976565 33.5342 0.0976562 27.2039ZM4.0039 32.6757C4.00391 36.5143 3.98573 40.353 4.01336 44.1913C4.02363 45.6192 4.63267 46.1737 5.93393 46.1871C9.7233 46.2263 13.5136 46.226 17.303 46.1875C18.6353 46.174 19.2178 45.5956 19.2259 44.2458C19.2566 39.1712 19.2557 34.0963 19.2265 29.0217C19.2187 27.6741 18.637 27.0834 17.2597 27.0716C13.5027 27.0393 9.74528 27.0565 5.98807 27.0679C5.67566 27.0688 5.35025 27.1357 5.05388 27.2384C4.21455 27.529 4.02933 28.2489 4.0113 29.0161C3.98342 30.2028 4.00392 31.3907 4.0039 32.6757Z" fill="#DB1222"/>
<path d="M19.0949 0.107422C19.21 0.175017 19.2677 0.278217 19.3502 0.304902C20.7357 0.752955 21.8131 1.62409 22.5002 2.87467C22.8568 3.52353 23.1011 4.31996 23.1164 5.05554C23.1822 8.22651 23.152 11.3996 23.1408 14.5719C23.1365 15.7728 22.6507 16.7959 21.8998 17.7141C21.0759 18.7215 19.9969 19.2891 18.7562 19.5873C18.5866 19.6281 18.4059 19.6365 18.2303 19.6366C13.8541 19.6392 9.4779 19.6443 5.10173 19.6348C3.96522 19.6324 2.99042 19.1502 2.11399 18.4729C1.20204 17.7682 0.612028 16.8325 0.28146 15.7302C0.264994 15.6753 0.203353 15.6339 0.130226 15.6105C0.0977045 11.8241 0.0977045 8.0135 0.130227 4.18136C0.219593 4.05048 0.271644 3.93829 0.334051 3.83218C0.759681 3.10851 1.09943 2.31004 1.63956 1.6849C2.17111 1.06969 2.90228 0.627557 3.71837 0.38535C3.86104 0.343005 3.9746 0.20256 4.10161 0.107422C9.08412 0.107422 14.0666 0.107422 19.0949 0.107422ZM4.00395 12.1679C4.00396 12.6883 3.98582 13.2095 4.00747 13.7289C4.06583 15.1292 4.62148 15.7106 5.9884 15.7218C9.74464 15.7525 13.5015 15.7531 17.2577 15.7215C18.6386 15.7099 19.206 15.1169 19.2266 13.7742C19.2665 11.1729 19.2674 8.57013 19.2263 5.96888C19.2049 4.61674 18.6341 4.04101 17.3029 4.02736C13.5143 3.98852 9.72499 4.00707 5.93602 4.02095C5.37114 4.02302 4.75252 4.10439 4.44132 4.63395C4.20195 5.04126 4.03337 5.55223 4.02299 6.0213C3.97843 8.03679 4.00396 10.0538 4.00395 12.1679Z" fill="#DB1222"/>
<path d="M30.7098 50.1074C30.6123 50.042 30.5732 49.9388 30.507 49.9165C28.4514 49.2262 27.2091 47.804 26.7107 45.7118C26.6702 45.5416 26.6625 45.3604 26.6622 45.1843C26.6589 43.281 26.6521 41.3776 26.6633 39.4743C26.6698 38.3539 27.1403 37.3901 27.8009 36.5272C28.616 35.4625 29.7162 34.8209 31.0284 34.5473C31.1836 34.5149 31.3431 34.4852 31.5007 34.4851C36.0394 34.4818 40.5783 34.4673 45.1169 34.4929C46.2701 34.4994 47.2778 34.9789 48.1665 35.7191C49.0263 36.4352 49.6056 37.3224 49.9143 38.3937C49.9301 38.4485 49.9928 38.4898 50.0656 38.5118C50.0977 40.9949 50.0977 43.5034 50.0656 46.0323C49.9881 46.1321 49.9251 46.2064 49.9001 46.2917C49.6493 47.1505 49.1852 47.9014 48.5774 48.5285C47.965 49.1602 47.1913 49.5939 46.3508 49.8898C46.2519 49.9247 46.1788 50.0331 46.0938 50.1074C40.981 50.1074 35.8683 50.1074 30.7098 50.1074ZM46.1914 41.8555C46.1914 41.3677 46.2083 40.8792 46.1882 40.3923C46.1305 38.9961 45.5749 38.4097 44.2074 38.3992C40.3216 38.3693 36.4352 38.3692 32.5494 38.3993C31.1842 38.4098 30.6105 38.9925 30.5735 40.3935C30.5401 41.6609 30.5542 42.93 30.5748 44.1979C30.5802 44.526 30.6478 44.8669 30.7576 45.1768C31.0464 45.9918 31.7549 46.1708 32.502 46.1932C33.5417 46.2245 34.583 46.2012 35.6236 46.2012C38.4691 46.2012 41.3145 46.2083 44.1599 46.1974C45.2043 46.1934 46.0619 45.7887 46.1181 44.6695C46.1635 43.7651 46.1685 42.8587 46.1914 41.8555Z" fill="#DB1222"/>
</g>
<defs>
<clipPath id="clip0_899_1062">
<rect width="50" height="50" fill="white" transform="translate(0 0.00976562)"/>
</clipPath>
</defs>
</svg>
