<svg width="42" height="42" viewBox="0 0 42 42" fill="none" xmlns="http://www.w3.org/2000/svg">
<g clip-path="url(#clip0_899_1435)">
<path d="M13.7313 28.7874C14.0911 29.8641 14.1613 30.9281 13.8612 31.9995C13.6547 32.7369 13.2703 33.3789 12.7337 33.9304C13.7203 34.4678 14.507 35.2072 15.1765 36.1596C15.8366 35.2202 16.618 34.4744 17.6242 33.9278C16.4741 32.7888 16.1685 31.3643 16.3427 29.8349C16.4569 28.8316 16.9515 27.973 17.6587 27.2329C19.6164 25.1843 22.7581 25.6563 24.2441 26.9699C26.2602 28.7521 26.4047 32.0275 24.6443 33.8445C25.4395 34.568 26.2375 35.2942 26.9904 35.9792C27.7283 35.3064 28.5326 34.573 29.3358 33.8407C27.5716 31.9694 27.7416 28.9881 29.4053 27.2789C31.3137 25.3183 34.2056 25.4411 35.9524 26.8919C38.1268 28.6976 38.2301 31.9896 36.3653 33.9359C37.62 34.6046 38.5563 35.6014 39.1998 36.8438C39.6636 37.739 39.9797 38.7018 39.9507 39.7404C39.9408 40.0955 39.9502 40.4512 39.9489 40.8066C39.9463 41.5029 39.5167 41.9274 38.8104 41.9274C26.9866 41.9278 15.1627 41.9279 3.33882 41.9273C2.61146 41.9273 2.21612 41.5295 2.2145 40.8079C2.21229 39.8209 2.19359 38.8423 2.53173 37.8814C3.13866 36.1564 4.21226 34.8412 5.79702 33.9244C5.16391 33.2534 4.73497 32.4756 4.58151 31.5557C4.33668 30.0879 4.57993 28.7355 5.54678 27.566C6.50051 26.4123 7.75287 25.8028 9.233 25.7987C10.4239 25.7955 11.5344 26.1463 12.4359 27.0013C12.9734 27.511 13.4292 28.0715 13.7313 28.7874ZM8.40137 35.5224C8.26974 35.5456 8.13587 35.5603 8.00682 35.5936C6.82836 35.8973 5.94661 36.6292 5.29043 37.6113C4.90043 38.195 4.62265 38.8585 4.60948 39.6086C7.72949 39.6086 10.826 39.6086 13.924 39.6086C13.7721 37.3837 11.539 34.9971 8.40137 35.5224ZM25.6759 39.1028C25.1793 36.9435 23.155 35.1427 20.464 35.4529C18.314 35.7008 16.56 37.6096 16.4269 39.5983C19.5323 39.5983 22.6368 39.5983 25.7814 39.5983C25.7404 39.4295 25.7092 39.3011 25.6759 39.1028ZM29.083 37.4158C28.575 38.0514 28.3177 38.784 28.2103 39.6029C31.3458 39.6029 34.4487 39.6029 37.5679 39.6029C37.4702 38.4813 36.9856 37.5487 36.2305 36.8077C35.2564 35.852 34.0696 35.3499 32.6516 35.4378C31.1559 35.5304 29.9936 36.17 29.083 37.4158ZM6.89558 30.1241C6.89363 30.3286 6.88853 30.5331 6.89022 30.7376C6.90263 32.238 8.38437 33.3027 9.90352 32.9312C10.8513 32.6995 11.7214 31.612 11.6643 30.4814C11.5895 29.0002 10.2039 27.9014 8.66047 28.2934C7.72245 28.5316 7.19032 29.1645 6.89558 30.1241ZM20.0302 28.4237C19.9787 28.4674 19.9337 28.5244 19.8748 28.5527C18.8819 29.0302 18.5117 30.291 18.7762 31.2838C19.063 32.3603 20.1618 33.1153 21.3115 32.9931C22.263 32.892 22.9334 32.4094 23.2849 31.5539C23.6528 30.6584 23.5558 29.7724 22.8943 29.0237C22.1203 28.1476 21.1485 28.0515 20.0302 28.4237ZM31.3826 32.4978C32.2314 33.1174 33.1583 33.2034 34.0617 32.7154C34.9194 32.2522 35.3244 31.4697 35.2778 30.4661C35.234 29.5239 34.7798 28.8322 33.9569 28.4489C33.0361 28.0201 32.1146 28.1217 31.3151 28.7887C30.2529 29.6747 30.1838 31.4994 31.3826 32.4978Z" fill="#DB1222"/>
<path d="M31.4181 18.4668C31.4181 19.6012 31.4196 20.6945 31.4175 21.7878C31.4162 22.461 30.9818 22.8953 30.3082 22.896C28.5316 22.8976 26.7549 22.8977 24.9783 22.8959C24.2784 22.8951 23.8713 22.4896 23.8713 21.801C23.8711 18.2204 23.8791 14.6397 23.8616 11.0592C23.8593 10.5959 23.7687 10.1216 23.645 9.67281C23.375 8.69331 22.1723 7.89119 21.1847 7.85655C19.9998 7.81499 18.6739 8.73391 18.4439 9.90437C18.369 10.2853 18.3007 10.6754 18.2995 11.0615C18.2886 14.6148 18.2933 18.1681 18.2929 21.7214C18.2928 22.481 17.8807 22.8961 17.1266 22.8963C15.391 22.8969 13.6553 22.8969 11.9197 22.8963C11.1247 22.8961 10.7462 22.5237 10.7462 21.7444C10.7462 17.8494 10.7464 13.9545 10.7461 10.0595C10.746 8.74661 11.0904 7.51475 11.609 6.32059C12.1028 5.18335 12.7939 4.16573 13.6637 3.30376C14.9176 2.0612 16.3917 1.16611 18.1097 0.642391C19.453 0.232893 20.812 0.174159 22.1684 0.277106C24.0931 0.423187 25.8365 1.14558 27.3742 2.32616C29.155 3.69335 30.4022 5.44509 31.0152 7.60676C31.2328 8.37419 31.3874 9.18596 31.4003 9.98025C31.446 12.7948 31.4181 15.6105 31.4181 18.4668ZM17.6383 6.77556C18.9368 5.63592 20.4472 5.29662 22.125 5.58597C24.3672 5.97264 26.1866 8.09019 26.1705 10.3719C26.1583 12.0944 26.1681 13.817 26.1681 15.5395C26.1681 15.6846 26.1681 15.8296 26.1681 15.9717C27.1831 15.9717 28.1438 15.9717 29.1212 15.9717C29.1212 15.7877 29.1232 15.6379 29.1209 15.4881C29.094 13.7024 29.0783 11.9163 29.0315 10.1311C29.0185 9.63655 28.9677 9.12962 28.8395 8.65392C28.3754 6.93198 27.4659 5.49917 26.0635 4.36179C24.5997 3.1746 22.9221 2.61391 21.0777 2.58618C20.1194 2.57177 19.1659 2.76474 18.2506 3.12087C16.7482 3.70546 15.5493 4.65704 14.5921 5.94314C13.4755 7.44337 13.0859 9.16551 13.0494 10.9861C13.0187 12.5166 13.0426 14.0482 13.044 15.5794C13.0441 15.7113 13.0567 15.8432 13.0634 15.9721C14.0573 15.9721 15.0179 15.9721 15.9962 15.9721C15.9962 14.1892 16.0255 12.4393 15.9874 10.6909C15.9538 9.14714 16.501 7.87614 17.6383 6.77556ZM13.0431 18.7657C13.0431 19.3719 13.0431 19.9781 13.0431 20.5766C14.0599 20.5766 15.0083 20.5766 15.9689 20.5766C15.9689 19.8135 15.9689 19.0737 15.9689 18.3191C14.9932 18.3191 14.045 18.3191 13.0686 18.3191C13.0595 18.4508 13.0513 18.5687 13.0431 18.7657ZM27.2764 20.5997C27.8833 20.5997 28.4902 20.5997 29.087 20.5997C29.087 19.7991 29.087 19.0591 29.087 18.3257C28.1044 18.3257 27.1562 18.3257 26.1951 18.3257C26.1951 19.0885 26.1951 19.8281 26.1951 20.5997C26.546 20.5997 26.8704 20.5997 27.2764 20.5997Z" fill="#DB1222"/>
</g>
<defs>
<clipPath id="clip0_899_1435">
<rect width="42" height="42" fill="white" transform="translate(0 0.00976562)"/>
</clipPath>
</defs>
</svg>
