<svg width="58" height="58" viewBox="0 0 58 58" fill="none" xmlns="http://www.w3.org/2000/svg">
<g clip-path="url(#clip0_899_728)">
<path d="M41.6516 35.8886C42.4125 37.1856 43.1602 38.4422 43.8872 39.7107C44.8581 41.4048 45.8269 43.1004 46.7711 44.8094C47.8632 46.786 46.808 49.3543 44.4881 49.9316C42.9395 50.3169 41.3943 49.8936 40.403 48.2216C38.6719 45.3018 36.9728 42.3631 35.2668 39.4285C34.7802 38.5914 34.3113 37.7439 33.8449 36.8954C33.7384 36.7016 33.6814 36.605 33.396 36.6773C31.8466 37.0696 30.2579 37.1218 28.6745 37.0302C27.5645 36.9661 26.4558 36.7911 25.3896 36.4502C25.151 36.3739 24.9907 36.3773 24.8637 36.5694C24.2894 37.4389 23.559 38.1573 22.7461 38.7991C22.7069 38.8301 22.6896 38.8888 22.6336 38.982C24.3406 39.6266 25.8462 40.5936 27.1394 41.8344C28.4276 43.0704 29.4408 44.5405 30.1175 46.2046C30.9085 48.1494 31.1975 50.1886 31.1349 52.2843C31.107 53.2162 30.6773 53.6709 29.765 53.6709C21.509 53.6709 13.2529 53.6599 4.99705 53.6885C4.19809 53.6913 3.65142 53.2091 3.66051 52.338C3.67939 50.53 3.70317 48.7439 4.33271 47.01C5.18619 44.6594 6.53087 42.6814 8.48064 41.0982C9.51319 40.2598 10.6268 39.5883 11.8521 39.0887C11.9537 39.0472 12.0666 39.0214 12.1153 38.9034C9.76023 37.128 8.42342 34.7064 7.95153 31.8575C7.44269 28.7855 7.99295 25.8674 9.8026 23.2648C10.6278 22.078 11.6383 21.0701 12.8954 20.3357C13.0795 20.2281 13.1682 20.1229 13.1688 19.9103C13.1742 17.9656 13.5795 16.0966 14.2767 14.2896C14.993 12.4329 16.0406 10.7843 17.3259 9.25907C18.2504 8.16196 19.3349 7.26864 20.4958 6.47383C22.2416 5.27849 24.1746 4.48232 26.2472 4.00896C27.9512 3.61977 29.6752 3.60244 31.3935 3.701C33.1689 3.80284 34.8855 4.26705 36.5139 4.9918C38.4188 5.83961 40.1601 6.94091 41.6354 8.43716C43.9419 10.7765 45.4612 13.5375 46.2036 16.743C46.6139 18.5147 46.6705 20.3195 46.4943 22.0888C46.1698 25.348 44.9731 28.3015 42.8586 30.8556C42.1311 31.7343 41.3847 32.5836 40.4606 33.2568C40.1681 33.47 40.3558 33.644 40.4612 33.8121C40.8784 34.477 41.2824 35.1487 41.6516 35.8886Z" fill="#DB1222"/>
<path d="M50.1004 34.5904C50.918 34.5905 51.6799 34.5862 52.4416 34.5916C53.2878 34.5976 53.6742 35.0004 53.671 35.8594C53.6681 36.6474 53.2559 37.043 52.4177 37.0441C50.0579 37.0472 47.6982 37.0465 45.3384 37.0445C44.6228 37.0439 44.0678 36.4951 44.0753 35.8058C44.0828 35.1161 44.635 34.5919 45.3622 34.591C46.923 34.5892 48.4838 34.5904 50.1004 34.5904Z" fill="#DB1222"/>
<path d="M53.4246 33.1048C53.043 33.4053 52.65 33.4853 52.208 33.4815C50.332 33.4653 48.4557 33.476 46.5795 33.4739C45.8134 33.4731 45.3067 32.9897 45.3023 32.2648C45.2977 31.5028 45.7972 31.021 46.6 31.0203C48.4947 31.0187 50.3903 31.0537 52.2839 31.0076C53.5029 30.9779 54.0505 31.9212 53.4246 33.1048Z" fill="#DB1222"/>
<path d="M49.0966 40.6159C48.5775 40.6158 48.1116 40.6455 47.6511 40.6087C46.9521 40.5527 46.5041 40.1473 46.5027 39.3586C46.5014 38.617 47.0744 38.1691 47.6585 38.1651C49.2898 38.1541 50.9219 38.1355 52.5525 38.1733C53.2602 38.1897 53.7013 38.6326 53.6966 39.4211C53.6922 40.1408 53.209 40.5916 52.5447 40.608C51.4145 40.6359 50.2832 40.6158 49.0966 40.6159Z" fill="#DB1222"/>
<path d="M48.1335 27.6879C48.3719 27.476 48.6149 27.4435 48.882 27.4455C50.0501 27.4542 51.2184 27.4472 52.3865 27.4499C53.2814 27.452 53.6739 27.8412 53.671 28.7145C53.6683 29.5213 53.2551 29.9017 52.3722 29.9034C51.2782 29.9056 50.1831 29.8743 49.0906 29.9151C48.4315 29.9397 48.0112 29.707 47.7448 29.1058C47.49 28.5307 47.7607 28.1229 48.1335 27.6879Z" fill="#DB1222"/>
<path d="M37.7428 15.1477C38.7384 16.7119 39.2756 18.3583 39.2922 20.2C39.3123 22.4175 38.6875 24.3833 37.3223 26.1211C35.9271 27.8972 34.1337 29.0496 31.9331 29.5694C30.3602 29.941 28.8005 29.8626 27.2493 29.4491C27.0519 29.3965 26.8962 29.3264 26.8846 29.0516C26.7884 26.7599 26.041 24.6975 24.6591 22.8657C23.6473 21.5244 22.408 20.4716 20.83 19.8504C20.4519 19.7016 20.4304 19.4978 20.4962 19.0818C20.702 17.7797 21.0842 16.5549 21.7885 15.4458C23.2858 13.0877 25.3816 11.559 28.1502 11.0549C30.507 10.6258 32.7458 11.022 34.7928 12.2795C35.9691 13.0021 36.9722 13.9335 37.7428 15.1477Z" fill="white"/>
<path d="M42.5136 13.8401C43.2921 15.4119 43.7737 17.0189 43.9757 18.7294C44.3896 22.2359 43.536 25.4225 41.6098 28.3288C40.6433 29.7872 39.3982 31.0098 37.9555 32.0143C37.3887 32.409 37.2083 33.2326 37.5465 33.8104C38.524 35.4805 39.4837 37.1611 40.4528 38.8361C41.4763 40.6052 42.5033 42.3722 43.5272 44.141C43.8651 44.7249 44.2089 45.3057 44.5297 45.8989C44.7933 46.3866 44.6125 47.0745 44.1685 47.3792C43.7478 47.6679 43.1592 47.6001 42.7698 47.1694C42.1378 46.4703 41.7896 45.588 41.3128 44.7903C39.9553 42.5189 38.6468 40.2181 37.3207 37.928C36.6617 36.7899 36.0186 35.6424 35.344 34.5137C35.026 33.9817 34.5243 33.812 33.928 33.9716C32.4887 34.3569 31.0293 34.6334 29.5356 34.58C28.5137 34.5435 27.4986 34.3998 26.4976 34.1582C26.1839 34.0825 26.208 33.9944 26.301 33.7531C26.4448 33.38 26.6108 32.9939 26.6411 32.6035C26.6899 31.9743 26.996 31.9477 27.5077 32.0408C30.4826 32.582 33.2921 32.1821 35.942 30.6406C37.9778 29.4564 39.4874 27.7967 40.5573 25.7494C41.2505 24.4228 41.597 22.975 41.7584 21.4584C42.0039 19.1504 41.5684 16.9885 40.5489 14.9651C38.8226 11.539 36.0036 9.4139 32.2639 8.62548C29.7538 8.09629 27.2865 8.37208 24.9196 9.46538C22.2258 10.7097 20.2543 12.6586 19.0047 15.3338C18.5331 16.3434 18.1807 17.4011 18.0735 18.5243C18.0391 18.8844 17.9293 19.1464 17.4668 19.0898C17.1228 19.0476 16.7761 19.1045 16.426 19.1764C15.8036 19.3043 15.6376 19.1418 15.7414 18.5265C15.9322 17.3941 16.191 16.2773 16.6162 15.2034C17.2702 13.5513 18.2004 12.0828 19.4022 10.7704C21.5615 8.4127 24.2096 6.95965 27.3398 6.3576C29.9322 5.85899 32.4608 6.13636 34.9149 7.04637C36.4481 7.61493 37.805 8.49802 39.076 9.5409C40.5241 10.7291 41.5623 12.2183 42.5136 13.8401Z" fill="white"/>
<path d="M24.97 43.3229C26.4066 44.5524 27.3824 46.05 27.9986 47.7836C28.3489 48.7693 28.6047 49.7766 28.572 50.8404C28.5631 51.1306 28.4797 51.2287 28.1879 51.2213C27.5005 51.2039 26.8122 51.2068 26.1246 51.22C25.8602 51.2251 25.7563 51.1353 25.7722 50.8683C25.7888 50.5904 25.7866 50.3102 25.7724 50.0321C25.7369 49.3365 25.1079 48.7782 24.4473 48.8656C23.849 48.9448 23.2651 49.3133 23.3042 50.0731C23.3628 51.2138 23.3161 51.2162 22.1502 51.2162C18.7853 51.2162 15.4203 51.2058 12.0555 51.2278C11.5776 51.2309 11.4515 51.0894 11.4829 50.6351C11.5165 50.1484 11.5523 49.6516 11.1472 49.2415C10.7418 48.8311 10.2979 48.7848 9.78716 48.9547C9.24186 49.1362 9.0148 49.4952 9.02899 50.082C9.05642 51.2156 9.03427 51.2162 7.91385 51.2162C7.48627 51.2162 7.05692 51.1921 6.63162 51.2233C6.24822 51.2514 6.10287 51.1383 6.13078 50.7349C6.23684 49.2018 6.61361 47.742 7.33652 46.3888C8.2158 44.743 9.41715 43.3807 10.9979 42.3565C11.2789 42.1745 11.4008 42.2037 11.5716 42.4357C12.8056 44.1117 14.4485 45.0517 16.5249 45.3154C18.9265 45.6203 20.8961 44.8003 22.5962 43.1753C22.794 42.9862 22.9944 42.775 23.1139 42.5345C23.3379 42.0838 23.5584 42.1935 23.871 42.4345C24.2339 42.7143 24.6254 42.9566 24.97 43.3229Z" fill="white"/>
<path d="M23.6383 31.1314C24.3426 31.1361 24.3765 31.1436 24.2093 31.8903C23.6535 34.3708 22.3736 36.3457 20.0432 37.4918C17.7564 38.6164 15.5721 38.2943 13.5517 36.8072C11.7614 35.4894 10.8814 33.6095 10.3951 31.5038C10.3067 31.121 10.5383 31.1284 10.8019 31.1293C12.196 31.1339 13.5949 31.0597 14.983 31.151C16.4514 31.2476 17.4216 30.5724 18.1914 29.4418C18.42 29.1062 18.7614 28.8717 18.978 28.518C19.1537 28.231 19.2359 28.5276 19.276 28.6345C19.4343 29.0571 19.5099 29.5198 19.7197 29.9123C20.1659 30.7473 20.952 31.0751 21.8565 31.1254C22.4309 31.1573 23.0086 31.1314 23.6383 31.1314Z" fill="white"/>
<path d="M24.1855 27.6085C24.3642 28.6766 24.3642 28.6792 23.2869 28.6753C22.8421 28.6737 22.3139 28.8028 21.9762 28.6079C21.6426 28.4155 21.6671 27.8328 21.5431 27.4196C21.339 26.74 21.1642 26.0516 20.97 25.3689C20.6888 24.3802 19.4602 24.1436 18.8757 24.8104C17.8322 26.0008 16.7853 27.1889 15.7734 28.406C15.6047 28.6089 15.4677 28.6795 15.2326 28.6788C13.7458 28.6742 12.2589 28.6693 10.7722 28.6814C10.4108 28.6844 10.3576 28.5836 10.4197 28.2239C10.7208 26.4793 11.4616 24.9333 12.6777 23.6818C13.9574 22.365 15.5279 21.594 17.4455 21.6158C20.87 21.6548 23.3846 24.471 24.1855 27.6085Z" fill="white"/>
<path d="M17.1924 42.8467C15.7234 42.8486 14.646 42.194 13.7192 41.1038C15.4757 40.6021 17.1917 40.5036 18.9432 40.6991C19.509 40.7622 20.0662 40.8514 20.6212 40.9614C20.9364 41.0239 21.0782 41.1561 20.7607 41.4539C19.7687 42.384 18.6358 42.9339 17.1924 42.8467Z" fill="white"/>
</g>
<defs>
<clipPath id="clip0_899_728">
<rect width="57.13" height="57.13" fill="white"/>
</clipPath>
</defs>
</svg>
