<svg width="42" height="42" viewBox="0 0 42 42" fill="none" xmlns="http://www.w3.org/2000/svg">
<g clip-path="url(#clip0_899_1284)">
<path d="M36.668 42.0918C33.7405 42.0918 30.813 42.0918 27.8748 42.0725C27.264 41.4793 26.6639 40.9053 26.0039 40.274C26.0039 40.4999 25.988 40.6467 26.007 40.7889C26.0584 41.1759 25.9351 41.5019 25.6902 41.7919C25.6048 41.8931 25.5166 41.9919 25.4297 42.0918C22.5569 42.0918 19.6841 42.0918 16.8005 42.0719C16.1924 41.6608 16.1329 41.0821 16.1496 40.4275C16.1845 39.0627 16.1602 37.6963 16.1602 36.3306C16.1602 36.185 16.1602 36.0395 16.1602 35.8574C15.951 35.8574 15.7902 35.8574 15.6295 35.8574C12.0376 35.8574 8.4457 35.8614 4.85383 35.8548C3.88096 35.853 3.0178 35.4889 2.24143 34.9334C1.27178 34.2395 0.601853 33.3157 0.246817 32.1694C0.226233 32.103 0.138509 32.0573 0.0820313 32.002C0.0820311 25.5745 0.0820311 19.147 0.108366 12.7042C0.171427 12.6355 0.225881 12.587 0.242237 12.528C0.516791 11.5371 1.0581 10.7113 1.82708 10.0428C2.70222 9.28203 3.70882 8.79269 4.89085 8.79069C9.88016 8.78222 14.8695 8.78711 19.8588 8.78711C20.0154 8.78711 20.1719 8.78711 20.3438 8.78711C20.3438 6.6946 20.3422 4.67191 20.3467 2.64923C20.3471 2.4915 20.3751 2.32997 20.4154 2.17683C20.6419 1.3167 21.1643 0.706406 21.9745 0.334892C22.0757 0.28848 22.1459 0.17448 22.2305 0.0917969C22.8611 0.0917969 23.4917 0.0917969 24.1351 0.115657C24.1995 0.180032 24.2466 0.229428 24.3037 0.259734C25.2388 0.755726 26.1829 1.23543 27.1098 1.74629C29.1077 2.8475 31.094 3.96993 33.0909 5.07316C34.6063 5.91041 36.14 6.71514 37.6456 7.56948C38.1009 7.82786 38.5499 8.14936 38.8979 8.53555C40.0407 9.80367 39.6544 11.9916 38.1696 12.8273C36.6616 13.6761 35.1493 14.5174 33.6326 15.3504C31.5624 16.4873 29.484 17.6093 27.4181 18.7538C27.2897 18.8249 27.169 19.0343 27.1642 19.1833C27.1389 19.9615 27.1524 20.7409 27.1523 21.5199C27.1523 22.0844 27.1523 22.6489 27.1523 23.2134C27.396 22.9737 27.5602 22.7162 27.7332 22.4649C28.1814 21.8137 28.5512 21.0823 29.1031 20.5351C29.9386 19.7067 30.9862 19.3935 32.2068 19.5998C34.268 19.9481 35.4978 22.165 34.8715 24.023C34.7794 24.2963 34.6842 24.5684 34.5821 24.8653C35.9948 24.8653 37.3747 24.8647 38.7545 24.8662C38.8904 24.8663 39.0328 24.8552 39.1611 24.89C40.4272 25.2337 41.3921 25.9306 41.8629 27.2076C41.8933 27.2902 42.007 27.342 42.082 27.4082C42.082 30.4724 42.082 33.5366 42.0515 36.6253C41.9922 36.6777 41.9456 36.7012 41.9373 36.7343C41.5798 38.1607 40.8759 39.3687 39.7692 40.3564C38.9171 41.1168 37.9357 41.6013 36.8598 41.9318C36.7864 41.9544 36.7315 42.0371 36.668 42.0918ZM34.8223 27.3262C33.9199 27.3262 33.0171 27.308 32.1155 27.3331C31.5857 27.3478 31.2182 27.112 31.0197 26.6673C30.832 26.2465 30.8106 25.7979 31.1046 25.3776C31.505 24.8053 31.889 24.2214 32.2716 23.6369C32.4896 23.3039 32.6077 22.9446 32.3619 22.5766C31.943 21.9498 31.1934 21.8634 30.6734 22.6613C29.5383 24.4032 28.3753 26.127 27.25 27.8752C26.953 28.3366 26.6022 28.6119 26.027 28.567C26.027 31.4432 26.027 34.2934 26.027 37.1414C26.5709 37.1969 26.7065 37.2612 27.1028 37.6558C27.6841 38.2344 28.254 38.8252 28.8514 39.3867C28.9909 39.5178 29.2217 39.6212 29.4099 39.6202C31.4148 39.61 33.4197 39.5847 35.4243 39.5453C36.4504 39.5252 37.317 39.0868 38.0766 38.4249C39.1697 37.4722 39.5894 36.2114 39.6127 34.8158C39.6456 32.834 39.6299 30.8511 39.6115 28.869C39.6088 28.5711 39.5287 28.2498 39.3971 27.9823C39.1318 27.4425 38.5972 27.3406 38.0623 27.3315C37.0099 27.3135 35.957 27.3262 34.8223 27.3262ZM22.7339 11.4192C22.3492 11.3622 21.9644 11.2546 21.5799 11.2557C16.0504 11.2719 10.5209 11.296 4.99153 11.3384C4.27078 11.3439 3.69209 11.7337 3.22252 12.267C2.68371 12.8789 2.56901 13.6416 2.55115 14.4086C2.52127 15.6926 2.54232 16.9778 2.54416 18.2624C2.54433 18.3793 2.56071 18.4962 2.5709 18.6309C4.23339 18.6309 5.85898 18.613 7.48385 18.6397C8.13099 18.6503 8.59658 18.5282 9.09299 17.9949C10.6039 16.3714 12.5367 15.8122 14.7261 16.1685C16.2325 16.4136 17.4737 17.1235 18.4329 18.3167C18.6009 18.5256 18.7892 18.6423 19.0887 18.6393C20.8242 18.622 22.5599 18.6312 24.2956 18.6301C24.4147 18.63 24.5338 18.619 24.6403 18.6138C24.6626 18.5616 24.6822 18.5375 24.6818 18.5137C24.6591 16.961 24.654 15.4076 24.6042 13.8557C24.5655 12.6483 23.9039 11.8706 22.7339 11.4192ZM7.45333 21.2858C7.47498 20.9814 7.23886 21.0979 7.11079 21.0971C5.70269 21.0887 4.29452 21.0913 2.88638 21.0931C2.78175 21.0932 2.67715 21.1102 2.54296 21.1219C2.54296 21.3071 2.54296 21.4686 2.54296 21.6302C2.54296 24.3645 2.53929 27.0987 2.54675 29.833C2.54793 30.2651 2.55228 30.7071 2.642 31.126C2.71851 31.4832 2.87783 31.8401 3.07391 32.1508C3.67503 33.1034 4.63487 33.385 5.68175 33.3903C9.01747 33.407 12.3533 33.3965 15.6891 33.3965C15.8346 33.3965 15.9801 33.3965 16.1398 33.3965C16.1398 31.6059 16.1398 29.866 16.1398 28.0948C15.1397 28.4776 14.1466 28.6502 13.0906 28.5701C11.6119 28.4578 10.3455 27.8836 9.30107 26.8857C7.7291 25.3837 7.12076 23.509 7.45333 21.2858ZM26.3639 4.28215C25.4285 3.77822 24.4895 3.28109 23.5596 2.76733C23.1376 2.5342 22.8123 2.68958 22.8093 3.18467C22.7985 4.97526 22.8012 6.76598 22.8149 8.55654C22.8157 8.661 22.9427 8.83574 23.038 8.85708C23.8775 9.04501 24.6419 9.38522 25.2936 9.94636C26.3918 10.892 27.0687 12.0724 27.1451 13.5392C27.1859 14.3231 27.1523 15.1109 27.1523 15.9663C27.5221 15.7645 27.8245 15.5993 28.127 15.4342C30.4369 14.1727 32.7474 12.9123 35.0562 11.6489C35.5863 11.3588 36.1111 11.0592 36.6376 10.7625C37.1084 10.4971 37.1313 10.2559 36.6737 9.98519C35.9691 9.56842 35.2476 9.18003 34.5295 8.7865C33.6112 8.28329 32.6861 7.79245 31.7694 7.28645C29.9825 6.30012 28.1993 5.30696 26.3639 4.28215ZM23.08 27.3262C21.5989 27.3262 20.1178 27.3262 18.6438 27.3262C18.6438 31.4606 18.6438 35.5254 18.6438 39.6028C20.2821 39.6028 21.8976 39.6028 23.527 39.6028C23.527 35.51 23.527 31.4452 23.527 27.3519C23.3954 27.3427 23.2773 27.3344 23.08 27.3262ZM17.3083 21.8196C17.1972 20.961 16.8027 20.2232 16.1938 19.6439C15.3798 18.8695 14.3814 18.5262 13.2363 18.6254C12.3175 18.7051 11.5513 19.1135 10.9387 19.7476C10.1569 20.5568 9.82024 21.5601 9.92044 22.7055C10.0008 23.624 10.4099 24.3895 11.0441 25.0025C11.8773 25.8078 12.9165 26.1477 14.0821 26.0108C14.9792 25.9055 15.7154 25.4862 16.335 24.8306C17.1205 23.9993 17.3996 23.0117 17.3083 21.8196ZM24.6914 24.0821C24.6914 23.092 24.6914 22.102 24.6914 21.127C23.0128 21.127 21.3989 21.127 19.7856 21.127C19.9445 22.4168 19.8849 23.6506 19.3862 24.8379C21.1777 24.8379 22.919 24.8379 24.6914 24.8379C24.6914 24.5949 24.6914 24.3788 24.6914 24.0821Z" fill="#DB1222"/>
<path d="M22.0063 14.0154C22.3931 14.5868 22.4802 15.1429 22.0829 15.7186C21.8115 16.1118 21.152 16.332 20.6375 16.1527C20.2269 16.0096 19.8351 15.5308 19.8348 15.0602C19.8344 14.4735 19.987 14.0058 20.5403 13.7905C21.0337 13.5985 21.5423 13.6438 22.0063 14.0154Z" fill="#DC1221"/>
</g>
<defs>
<clipPath id="clip0_899_1284">
<rect width="42" height="42" fill="white" transform="translate(0 0.00976562)"/>
</clipPath>
</defs>
</svg>
