<svg width="42" height="42" viewBox="0 0 42 42" fill="none" xmlns="http://www.w3.org/2000/svg">
<g clip-path="url(#clip0_899_1344)">
<path d="M39.5182 24.4342C39.1636 24.8012 38.7512 24.7734 38.3671 24.6278C37.9641 24.475 37.8077 24.1403 37.8094 23.688C37.8223 20.2705 37.8164 16.8529 37.8164 13.4353C37.8164 13.273 37.8164 13.1107 37.8164 12.9186C36.5019 12.9186 35.2133 12.9186 33.8967 12.9186C33.8905 13.0466 33.8797 13.1657 33.8797 13.2849C33.8787 16.4701 33.8788 19.6553 33.8791 22.8405C33.8791 23.0407 33.8546 23.217 34.1048 23.3445C35.3332 23.9705 36.3617 24.8409 37.2598 25.8924C38.184 26.9747 38.8215 28.1992 39.2959 29.5251C39.8324 31.0244 39.9015 32.5894 39.7618 34.1377C39.5878 36.0663 38.8457 37.82 37.6878 39.3831C37.4763 39.6687 37.2011 39.8041 36.8154 39.8032C31.7027 39.7908 26.5898 39.7763 21.4774 39.8158C20.7466 39.8215 20.2991 39.5741 19.9411 39.0017C19.0633 37.5984 18.3945 36.1177 18.2071 34.4515C18.1877 34.279 18.1348 34.1104 18.0861 33.8887C17.9452 33.8887 17.785 33.8887 17.6248 33.8887C12.8812 33.8887 8.13762 33.8888 3.394 33.8885C2.68439 33.8885 2.37905 33.5817 2.37902 32.8689C2.37881 27.9202 2.39176 22.9715 2.36353 18.0229C2.35977 17.3634 2.88654 16.9166 3.44528 16.9131C5.35905 16.9011 7.273 16.9012 9.18677 16.913C9.74621 16.9165 10.2737 17.3636 10.2693 18.0222C10.2398 22.4786 10.2539 26.9352 10.2539 31.3917C10.2539 31.5524 10.2539 31.713 10.2539 31.8965C10.9155 31.8965 11.5382 31.8965 12.2227 31.8965C12.2227 31.7248 12.2227 31.5534 12.2227 31.382C12.2227 25.4764 12.2226 19.5708 12.2228 13.6652C12.2228 12.9544 12.5312 12.643 13.2367 12.6428C15.1915 12.6422 17.1464 12.6421 19.1013 12.6429C19.7744 12.6431 20.0974 12.9674 20.0975 13.642C20.0979 17.0049 20.098 20.3678 20.0974 23.7307C20.0972 24.3777 19.7682 24.701 19.1152 24.7012C18.4643 24.7013 18.1294 24.3749 18.1292 23.7345C18.1285 20.9048 18.1289 18.075 18.1289 15.2452C18.1289 15.0823 18.1289 14.9194 18.1289 14.7252C16.8181 14.7252 15.5295 14.7252 14.2161 14.7252C14.2161 20.4384 14.2161 26.1466 14.2161 31.8874C15.4895 31.8874 16.7674 31.8874 18.0962 31.8874C18.1844 31.4385 18.2785 30.9583 18.3731 30.4782C18.6662 28.9911 19.301 27.6483 20.2121 26.4552C20.7164 25.7949 21.3598 25.2418 21.9229 24.6242C22.0171 24.5209 22.0599 24.3352 22.0605 24.1873C22.0692 22.1232 22.092 20.0584 22.0504 17.995C22.0383 17.3958 22.5566 16.9165 23.1175 16.913C25.0449 16.9009 26.9726 16.9001 28.9 16.9138C29.4368 16.9176 29.9812 17.3739 29.957 18.0049C29.9058 19.3411 29.9414 20.6806 29.9414 22.0452C30.5897 22.1623 31.2178 22.2758 31.9102 22.401C31.9102 22.2327 31.9102 22.077 31.9102 21.9212C31.9102 18.5857 31.9099 15.2501 31.9103 11.9145C31.9104 11.2437 32.2356 10.9202 32.9094 10.9201C34.8779 10.9196 36.8465 10.9194 38.815 10.9202C39.4608 10.9205 39.7848 11.2489 39.7849 11.9027C39.7854 15.8398 39.7893 19.7768 39.7747 23.7138C39.7738 23.9467 39.6223 24.179 39.5182 24.4342ZM37.3168 35.7118C37.7455 34.3648 37.862 32.9914 37.6532 31.5933C37.2717 29.0377 35.9712 27.0488 33.8563 25.6051C31.8425 24.2304 29.6151 23.8091 27.2204 24.2875C24.511 24.8288 22.5308 26.373 21.1966 28.75C20.2409 30.4528 19.9887 32.3019 20.2598 34.2288C20.4307 35.4433 20.849 36.5592 21.5254 37.5859C21.6524 37.7787 21.7717 37.8306 21.9788 37.8294C23.1812 37.8228 24.3836 37.8262 25.586 37.8262C29.0156 37.8262 32.4452 37.8292 35.8748 37.8175C36.0534 37.8169 36.3242 37.7408 36.3942 37.6132C36.7222 37.0156 36.9949 36.3877 37.3168 35.7118ZM4.81058 31.9199C5.96393 31.9199 7.11727 31.9199 8.26244 31.9199C8.26244 27.5662 8.26244 23.2829 8.26244 18.9874C6.95197 18.9874 5.66438 18.9874 4.3636 18.9874C4.3636 23.2991 4.3636 27.5824 4.3636 31.8942C4.49456 31.9034 4.61297 31.9116 4.81058 31.9199ZM27.9727 20.4766C27.9727 19.9775 27.9727 19.4784 27.9727 18.9826C26.6304 18.9826 25.3521 18.9826 24.0546 18.9826C24.0546 20.3901 24.0546 21.7741 24.0546 23.0621C25.3485 22.6936 26.6499 22.323 27.9727 21.9463C27.9727 21.5145 27.9727 21.0365 27.9727 20.4766Z" fill="#DB1222"/>
<path d="M3.11632 11.3463C3.77854 9.22676 5.69155 8.54309 7.56549 9.13473C7.90011 9.24037 8.20988 9.47354 8.48476 9.7033C8.68524 9.87088 8.80139 9.9275 9.06575 9.79808C10.2472 9.21966 11.4447 8.67321 12.6445 8.1333C12.8902 8.02271 12.8939 7.85294 12.8789 7.64646C12.8069 6.65906 13.1932 5.84976 13.8955 5.19534C14.9045 4.25507 16.1228 4.11162 17.363 4.54089C18.5058 4.93642 19.1844 5.82842 19.4375 7.02258C19.4403 7.0358 19.443 7.05075 19.4397 7.06332C19.1891 8.01831 19.8746 8.2634 20.5413 8.55441C21.4885 8.96779 22.4184 9.42054 23.3621 9.84215C23.4544 9.88341 23.636 9.8698 23.7011 9.80558C24.8142 8.70814 26.8637 8.63419 28.0565 9.60334C29.5746 8.5914 31.0956 7.57761 32.6142 6.56533C32.3355 4.77606 33.0996 3.14545 34.4497 2.64024C36.1524 2.00312 37.83 2.48402 38.7416 4.00932C39.3403 5.01128 39.3333 6.87981 38.2592 7.9901C37.2204 9.06387 35.2163 9.3817 33.7862 8.30438C32.2661 9.31804 30.7452 10.3322 29.2211 11.3486C29.4377 12.6081 29.2592 13.751 28.2878 14.6641C27.3409 15.5543 26.1894 15.7373 25.0076 15.3989C23.7667 15.0435 23.0063 14.1394 22.7273 12.8607C22.7244 12.8475 22.7217 12.8326 22.7249 12.82C22.9725 11.8505 22.2799 11.5923 21.5989 11.3008C20.8961 11 20.2087 10.6635 19.514 10.3438C19.2113 10.2044 18.9073 10.0679 18.611 9.93329C17.1824 11.341 15.0059 11.2175 13.7167 9.92813C13.0408 10.2382 12.3478 10.5513 11.659 10.8733C10.9768 11.1923 10.2987 11.5202 9.63942 11.8343C9.59719 12.2723 9.58925 12.6947 9.51093 13.1037C9.26474 14.3893 7.84273 15.5313 6.50383 15.5305C5.16867 15.5297 4.15399 15.059 3.44852 13.9199C2.95318 13.1201 2.95964 12.2625 3.11632 11.3463ZM24.7731 12.1272C24.6209 12.9534 25.5139 13.7447 26.4357 13.3982C27.0605 13.1633 27.3618 12.5757 27.2304 11.9253C27.1338 11.4472 26.4452 10.8637 25.9804 10.9423C25.3833 11.0433 24.8951 11.3174 24.7731 12.1272ZM5.64683 13.2951C6.09471 13.5447 6.5466 13.5489 6.98814 13.291C7.47288 13.008 7.69617 12.3224 7.48786 11.8044C7.24117 11.191 6.65097 10.8598 6.0559 11.0027C5.56939 11.1195 5.22389 11.4282 5.10823 11.8966C4.97679 12.4289 5.13112 12.9152 5.64683 13.2951ZM15.4863 6.57781C15.3953 6.65883 15.2962 6.73242 15.2149 6.82213C14.8462 7.22893 14.8195 7.95149 15.1515 8.39056C15.4888 8.83658 16.1484 9.01438 16.6396 8.79168C17.3128 8.48645 17.601 7.74523 17.2938 7.10901C16.9641 6.42621 16.2343 6.19832 15.4863 6.57781ZM34.6212 5.98453C34.8444 6.56666 35.2228 6.9251 35.8902 6.90395C36.4139 6.88735 36.8262 6.60499 37.0281 6.09175C37.1992 5.65688 37.0636 5.10633 36.6997 4.75855C36.3531 4.42732 35.7766 4.32628 35.3506 4.52347C34.7522 4.80046 34.555 5.2894 34.6212 5.98453Z" fill="#DB1222"/>
<path d="M27.0952 31.8548C27.3914 31.6727 27.6659 31.5108 27.9727 31.3298C27.9727 30.7558 27.9693 30.1418 27.9737 29.528C27.9777 28.9743 28.3512 28.6389 28.9531 28.6387C29.5573 28.6384 29.9357 28.972 29.9402 29.5201C29.9452 30.1341 29.9413 30.7482 29.9413 31.3579C30.8861 31.7749 31.5816 32.3988 31.8398 33.4233C32.3384 35.402 30.9254 37.1734 29.1373 37.1705C27.4998 37.1679 26.5136 36.5229 26.0922 35.0091C25.8138 34.0092 25.9604 33.0251 26.7266 32.2235C26.8398 32.105 26.9577 31.991 27.0952 31.8548ZM29.2581 35.1007C29.395 34.9915 29.5468 34.8963 29.6657 34.77C29.9436 34.4749 29.9353 34.1225 29.7654 33.7905C29.5674 33.4032 29.1308 33.2048 28.7307 33.326C28.3798 33.4323 28.1293 33.6765 28.056 34.059C27.9472 34.6265 28.4547 35.269 29.2581 35.1007Z" fill="#DB1222"/>
<path d="M25.1644 28.8463C24.5712 29.4519 24.0588 29.4574 23.4879 28.863C23.25 28.6152 22.9932 28.3546 22.8546 28.05C22.6681 27.6401 22.9235 27.087 23.3114 26.8604C23.6652 26.6536 24.2249 26.7391 24.5368 27.0483C24.6822 27.1923 24.8264 27.3376 24.9711 27.4823C25.4091 27.9203 25.4608 28.2522 25.1644 28.8463Z" fill="#DB1222"/>
<path d="M34.8503 28.4457C34.535 28.7193 34.2727 29.0347 33.9369 29.2052C33.5032 29.4255 32.9797 29.2132 32.7403 28.8286C32.4594 28.3773 32.5051 27.9179 32.8841 27.5459C33.1342 27.3003 33.3684 27.0145 33.6664 26.8479C34.0745 26.6198 34.5345 26.7583 34.8383 27.0969C35.1942 27.4936 35.2026 27.8393 34.8503 28.4457Z" fill="#DB1222"/>
<path d="M28.0678 25.1617C28.6433 24.5525 29.2816 24.5033 29.7268 25.0329C29.8457 25.1743 29.9099 25.3887 29.9326 25.5776C29.9664 25.8605 29.9443 26.1506 29.9407 26.4375C29.9339 26.9909 29.5622 27.326 28.9596 27.3262C28.3553 27.3264 27.9692 26.9923 27.977 26.4428C27.9829 26.0257 28.0277 25.609 28.0678 25.1617Z" fill="#DB1222"/>
<path d="M21.215 32.0148C21.9026 31.9389 22.5891 31.6753 23.1619 32.2401C23.4857 32.5594 23.4468 32.968 23.3057 33.3375C23.167 33.7003 22.8757 33.9178 22.4485 33.8912C22.217 33.8767 21.9826 33.8721 21.752 33.8921C21.2956 33.9318 20.9979 33.7154 20.8117 33.3282C20.6417 32.9743 20.7522 32.4615 21.0377 32.1705C21.0855 32.1217 21.1353 32.0751 21.215 32.0148Z" fill="#DB1222"/>
<path d="M35.8475 31.9199C36.1042 31.9247 36.3313 31.892 36.5383 31.9422C36.9769 32.0486 37.2382 32.5966 37.1584 33.1691C37.1048 33.5539 36.6925 33.8842 36.257 33.8882C35.9978 33.8905 35.7385 33.8896 35.4793 33.8884C34.8584 33.8854 34.5336 33.539 34.5352 32.8828C34.5366 32.2627 34.8701 31.9233 35.4813 31.92C35.5905 31.9194 35.6996 31.9199 35.8475 31.9199Z" fill="#DB1222"/>
</g>
<defs>
<clipPath id="clip0_899_1344">
<rect width="42" height="42" fill="white" transform="translate(0 0.00976562)"/>
</clipPath>
</defs>
</svg>
