<svg width="42" height="42" viewBox="0 0 42 42" fill="none" xmlns="http://www.w3.org/2000/svg">
<g clip-path="url(#clip0_899_681)">
<path d="M42.0821 16.9518C41.9827 17.0786 41.8546 17.1495 41.7885 17.2581C41.374 17.9394 40.7315 18.1953 39.9811 18.2156C39.1645 18.2377 38.3468 18.2206 37.5079 18.2206C37.7303 21.2708 37.0804 24.0989 35.6472 26.834C36.4066 26.834 37.1081 26.8346 37.8096 26.8339C39.2987 26.8323 40.2683 27.6391 40.6594 28.9826C40.6927 29.0971 40.6863 29.2253 40.6865 29.3471C40.6882 30.7279 40.6574 32.1096 40.6961 33.4893C40.7339 34.8327 39.8746 35.9374 38.5769 36.2652C38.4067 36.3082 38.2299 36.4042 38.1024 36.5247C37.271 37.3105 36.4552 38.1128 35.6282 38.9034C35.2232 39.2906 34.6265 39.3588 34.3167 39.0244C34.1744 38.8708 34.0654 38.6286 34.0552 38.421C34.0226 37.7537 34.0431 37.0838 34.0431 36.3501C33.8794 36.3501 33.7359 36.3501 33.5923 36.3501C32.5123 36.3501 31.4318 36.3688 30.3523 36.3447C29.3289 36.3219 28.4412 35.9695 27.888 35.0575C27.6638 34.688 27.547 34.2534 27.4044 33.9048C26.3095 34.1371 25.1728 34.3818 24.0344 34.6185C23.4741 34.7349 22.9406 34.3464 22.8931 33.8008C22.8538 33.3496 23.2724 32.9689 23.7946 32.8978C24.9937 32.7347 26.1726 32.474 27.2883 31.9898C27.3838 31.9483 27.4689 31.7666 27.472 31.6478C27.4893 30.9646 27.516 30.2786 27.4728 29.5977C27.3936 28.3475 28.3703 27.1386 29.5973 26.9257C30.0735 26.843 30.5669 26.8462 31.053 26.8375C31.8047 26.8241 32.5571 26.8453 33.3085 26.824C33.4505 26.8199 33.6468 26.723 33.7201 26.607C34.5786 25.2481 35.2217 23.7902 35.5074 22.2053C35.6812 21.2404 35.7554 20.2558 35.8381 19.2771C35.866 18.9473 35.7821 18.6081 35.7441 18.2206C35.5942 18.2206 35.4487 18.2206 35.3032 18.2206C33.6626 18.2206 32.0218 18.236 30.3814 18.2149C29.3848 18.2021 28.5953 17.6399 28.343 16.7365C28.2677 16.4671 28.2261 16.1795 28.2243 15.8998C28.2137 14.191 28.1995 12.4817 28.2261 10.7731C28.2431 9.68351 28.6568 8.94708 29.6786 8.59736C29.8591 8.53556 30.06 8.53307 30.3519 8.48752C26.873 5.98747 23.1251 5.33065 19.0313 6.1618C19.0313 7.02639 19.0438 7.85861 19.0276 8.69027C19.0129 9.44722 18.5899 10.2631 17.7148 10.4667C17.5846 10.497 17.4471 10.5077 17.313 10.5079C15.7271 10.5107 14.1403 10.5397 12.5558 10.492C12.061 10.4771 11.7727 10.6865 11.5203 11.0191C10.3714 12.5328 9.51018 14.1983 9.0588 16.0465C8.86219 16.8515 8.79421 17.6902 8.70143 18.5174C8.64131 19.0535 8.64201 19.5964 8.61066 20.2339C9.86821 19.5318 11.0266 18.9589 12.1023 18.259C12.8512 17.7717 13.235 16.9387 13.5298 16.1066C13.708 15.6038 13.8461 15.0808 13.9395 14.5557C14.0527 13.9193 14.5679 13.7228 15.0256 13.4609C15.9921 12.9078 16.9581 12.3526 17.9434 11.8346C18.515 11.5341 19.0062 11.6385 19.4082 12.3972C19.9475 13.415 20.5173 14.4167 21.086 15.447C22.3338 14.8881 23.5735 14.8162 24.7755 15.4044C25.6745 15.8442 26.3492 16.5612 26.7105 17.5077C27.4362 19.4086 26.696 21.4893 24.9741 22.4343C25.6322 23.6276 26.2791 24.8274 26.9531 26.0118C27.3106 26.6401 27.1869 27.1058 26.5568 27.4608C25.4113 28.1064 24.2617 28.747 23.0887 29.34C22.8495 29.461 22.4894 29.4145 22.2028 29.3568C21.2589 29.1668 20.3325 28.8478 19.3816 28.7477C18.5401 28.6591 17.7706 29.0786 17.0504 29.5132C16.8551 29.6311 16.6579 29.7458 16.4223 29.8852C16.7193 30.4141 17.0241 30.9398 17.312 31.4746C17.5491 31.9151 17.9437 32.3486 17.5951 32.8851C17.4585 33.0953 17.2175 33.2574 16.9927 33.3869C16.2131 33.836 15.4198 34.2612 14.5179 34.7581C14.9485 35.1558 15.3334 35.5118 15.7189 35.8672C16.5115 36.5978 16.8959 37.5004 16.8125 38.5767C16.7209 39.7584 16.1595 40.6655 15.1217 41.2507C14.6387 41.5231 14.2232 41.2609 13.8629 40.9765C12.8164 40.1502 11.7312 39.3595 10.7733 38.4383C9.95049 37.6471 9.21812 36.7403 8.5617 35.8034C7.77155 34.6756 7.10396 33.4619 6.36744 32.2595C5.78228 32.5782 5.16505 32.9338 4.53063 33.2556C3.41298 33.8224 2.19896 33.3906 1.61399 32.2809C1.1445 31.3903 0.623953 30.5266 0.104073 29.678C0.0820838 29.1838 0.0820838 28.6625 0.102677 28.1307C0.690727 26.9269 2.01667 26.7143 2.93714 25.9935C2.73646 25.6133 2.5645 25.2635 2.37099 24.9261C2.00101 24.2809 2.13616 23.817 2.7747 23.471C4.07534 22.7664 5.36855 22.0481 6.66248 21.3311C6.8663 21.2182 7.01967 21.0796 6.97909 20.7947C6.92576 20.4204 6.88325 20.0381 6.89813 19.6617C6.92693 18.9333 6.98267 18.2049 7.05658 17.4796C7.2311 15.7669 7.71047 14.1408 8.51137 12.6152C8.87648 11.9197 9.2664 11.2372 9.66659 10.5097C9.12065 10.5097 8.5925 10.5103 8.06436 10.5096C7.07281 10.5082 6.31719 9.75855 6.31675 8.77317C6.31583 6.72265 6.34064 4.67172 6.30593 2.62179C6.28943 1.64732 7.10495 0.82994 8.094 0.829997C11.1151 0.830172 14.1362 0.828895 17.1573 0.830656C18.2553 0.831296 19.0292 1.61069 19.0311 2.71083C19.0322 3.27023 19.0313 3.82964 19.0313 4.37887C19.5483 4.31439 20.0406 4.25031 20.5335 4.19198C22.162 3.99929 23.7891 4.05901 25.388 4.38848C26.8313 4.68589 28.218 5.17895 29.5158 5.90649C30.566 6.4952 31.574 7.13515 32.447 7.97082C32.7877 8.29705 33.1449 8.48917 33.6623 8.47362C35.11 8.43008 36.56 8.44928 38.0089 8.46212C38.7964 8.4691 39.5852 8.491 40.3704 8.54812C41.0108 8.59471 41.4996 8.924 41.8284 9.4873C41.8793 9.57437 41.9959 9.62302 42.0821 9.68944C42.0821 12.0974 42.0821 14.5054 42.0821 16.9518ZM16.7754 19.8602C16.2347 18.8829 15.6941 17.9055 15.1395 16.903C15.0748 16.9827 15.0396 17.0096 15.0262 17.0449C14.4896 18.462 13.5719 19.5297 12.2181 20.2428C10.7962 20.9917 9.40225 21.7936 7.9955 22.5712C6.84232 23.2087 5.69295 23.8533 4.53113 24.4746C4.25588 24.6218 4.2309 24.7575 4.37501 25.0122C5.27292 26.5992 6.16241 28.191 7.05174 29.7828C7.5233 30.6268 7.98892 31.4742 8.45738 32.3203C9.77239 31.58 11.0594 30.8538 12.348 30.1305C13.5185 29.4735 14.6881 28.8148 15.8636 28.1667C16.3928 27.8749 16.912 27.5401 17.477 27.3431C18.4922 26.9891 19.5519 26.976 20.6119 27.1565C20.6683 27.1661 20.7295 27.1479 20.8431 27.1378C19.4821 24.7006 18.1452 22.3064 16.7754 19.8602ZM33.2637 34.627C33.8102 34.627 34.3566 34.6259 34.9031 34.6273C35.4223 34.6286 35.7494 34.9496 35.7643 35.4773C35.7711 35.7166 35.7655 35.9562 35.7655 36.1957C35.7981 36.2145 35.8308 36.2333 35.8634 36.252C36.2784 35.8508 36.6945 35.4506 37.1082 35.048C37.3422 34.8202 37.58 34.6538 37.9381 34.6103C38.6659 34.5221 38.989 34.0625 38.9736 33.4193C38.9437 32.1769 38.9492 30.9329 38.9716 29.6901C38.9824 29.0879 38.571 28.5668 37.9084 28.563C35.3265 28.5481 32.7444 28.5517 30.1625 28.5614C29.6423 28.5634 29.2044 29.0484 29.2037 29.5682C29.2021 30.8114 29.2371 32.0558 29.192 33.2973C29.1588 34.211 29.6343 34.6321 30.5177 34.6279C31.4057 34.6236 32.2937 34.627 33.2637 34.627ZM30.433 16.4978C33.507 16.4979 36.581 16.4981 39.655 16.4979C40.3048 16.4979 40.4399 16.3662 40.4408 15.7173C40.4429 14.3238 40.4419 12.9302 40.4407 11.5367C40.4406 11.4208 40.4297 11.305 40.4201 11.1163C39.444 11.875 38.5031 12.562 37.6127 13.3093C36.3453 14.3731 34.6333 14.5069 33.3571 13.7569C32.506 13.2568 31.7583 12.5808 30.9642 11.9837C30.6469 11.7451 30.3292 11.5071 29.9431 11.2174C29.9431 12.8874 29.931 14.4542 29.9614 16.0202C29.9645 16.1817 30.221 16.3383 30.433 16.4978ZM17.2195 17.0415C18.0871 18.5872 18.9591 20.1304 19.8209 21.6793C20.7075 23.2728 21.5836 24.8722 22.4657 26.4682C22.6434 26.7898 22.8271 27.1081 23.0054 27.4233C23.7352 27.0142 24.4129 26.6342 25.0927 26.2531C22.7728 22.0775 20.4693 17.9314 18.144 13.7462C17.4714 14.1094 16.8217 14.4521 16.1856 14.8184C16.1327 14.8489 16.1282 15.062 16.1752 15.1513C16.5011 15.7701 16.8465 16.3786 17.2195 17.0415ZM8.03903 6.44785C8.03903 6.80938 8.03903 7.17091 8.03903 7.61892C8.19509 7.4934 8.27968 7.43518 8.35282 7.36502C9.09942 6.64881 9.8442 5.93069 10.5894 5.21302C11.1297 4.69267 11.6055 4.69949 12.1355 5.20901C12.6349 5.689 13.1515 6.15099 13.6646 6.62457C14.0853 6.26501 14.5122 5.89482 14.945 5.53168C15.5006 5.06551 15.8901 4.92923 16.489 5.45943C16.7423 5.68358 17.0082 5.8934 17.2757 6.11592C17.2757 4.90827 17.2757 3.74012 17.2757 2.57777C14.1868 2.57777 11.1308 2.57777 8.03903 2.57777C8.03903 3.85718 8.03903 5.11176 8.03903 6.44785ZM15.0067 38.8949C15.2183 38.223 15.0595 37.649 14.5549 37.1625C14.3286 36.9444 14.1278 36.6961 13.8841 36.5004C12.7246 35.5694 12.2054 34.3826 12.3829 32.896C12.4108 32.6623 12.3868 32.4223 12.3868 32.1228C11.3208 32.7183 10.3312 33.2712 9.32004 33.8361C10.7546 36.0815 12.5332 37.9223 14.7034 39.3973C14.8116 39.228 14.8982 39.0923 15.0067 38.8949ZM33.5094 11.7398C33.6464 11.8489 33.782 11.9598 33.9207 12.0668C34.5822 12.577 35.5185 12.6272 36.1869 12.173C36.5081 11.9548 36.8144 11.7142 37.1206 11.475C37.6409 11.0685 38.1557 10.6551 38.716 10.2104C36.2935 10.2104 33.9443 10.2104 31.5188 10.2104C32.2098 10.7377 32.8387 11.2176 33.5094 11.7398ZM2.21327 28.4351C1.92208 28.566 1.65951 28.7614 1.83929 29.1028C2.26979 29.9201 2.73307 30.7213 3.21585 31.509C3.29585 31.6395 3.59564 31.7787 3.70116 31.7265C4.31941 31.4207 4.9101 31.0592 5.55415 30.6913C4.9568 29.6176 4.38218 28.5847 3.80638 27.5497C3.25305 27.8549 2.75876 28.1275 2.21327 28.4351ZM24.2187 17.0774C23.4823 16.6713 22.7427 16.5732 21.956 17.0225C22.6958 18.3489 23.4119 19.6329 24.1316 20.9233C24.9027 20.4214 25.2954 19.7318 25.2575 18.8433C25.2263 18.1131 24.813 17.5652 24.2187 17.0774ZM12.5038 8.78709C12.7708 8.78709 13.0377 8.78709 13.4112 8.78709C12.6895 8.10529 12.0469 7.49813 11.3943 6.88163C10.7354 7.50394 10.0969 8.10704 9.37684 8.78709C10.4871 8.78709 11.4553 8.78709 12.5038 8.78709ZM15.4147 31.6421C15.2447 31.3549 15.0748 31.0678 14.8465 30.6821C14.5818 30.9176 14.1949 31.0951 14.1429 31.3429C14.0369 31.8484 14.1112 32.3918 14.1112 32.9901C14.6587 32.6824 15.1501 32.4063 15.6484 32.1262C15.5646 31.964 15.4966 31.8326 15.4147 31.6421ZM15.1418 7.96698C15.6713 8.73424 16.3914 8.97766 17.2923 8.73097C17.2923 8.66702 17.327 8.54975 17.2871 8.51252C16.797 8.05565 16.296 7.61049 15.7792 7.14556C15.4931 7.37413 15.2152 7.59619 14.9257 7.82759C15.0079 7.87532 15.054 7.90202 15.1418 7.96698Z" fill="#DB1222"/>
<path d="M20.2082 32.919C20.6207 33.0818 20.8665 33.309 20.8451 33.7741C20.8291 34.121 20.7015 34.3577 20.4053 34.5175C20.0578 34.7048 19.7271 34.6613 19.4359 34.4119C19.1331 34.1525 19.0142 33.8258 19.1971 33.4429C19.359 33.1043 19.6062 32.8797 20.013 32.9043C20.0673 32.9076 20.1219 32.9078 20.2082 32.919Z" fill="#DB1222"/>
<path d="M35.505 32.412C34.9428 32.4004 34.6467 32.1261 34.6143 31.6568C34.5707 31.0264 34.8182 30.8114 35.356 30.7C35.8262 30.6026 36.2675 30.998 36.3317 31.4997C36.382 31.893 36.0102 32.3208 35.505 32.412Z" fill="#DB1222"/>
<path d="M32.5848 30.6902C33.4202 30.7173 33.5769 31.3218 33.4589 31.8416C33.3754 32.2096 33.0248 32.4159 32.5852 32.4141C32.1843 32.4124 31.9507 32.18 31.843 31.8385C31.7038 31.3968 31.8651 31.0148 32.2193 30.8291C32.3251 30.7737 32.4404 30.7363 32.5848 30.6902Z" fill="#DB1222"/>
<path d="M14.4214 3.8069C14.7524 4.47198 14.415 5.02784 13.8756 5.14093C13.495 5.22074 12.9519 4.92542 12.8818 4.54873C12.7812 4.0076 13.07 3.5037 13.5252 3.46029C13.8603 3.42834 14.2062 3.41112 14.4214 3.8069Z" fill="#DC1222"/>
</g>
<defs>
<clipPath id="clip0_899_681">
<rect width="42" height="42" fill="white" transform="translate(0 0.00976562)"/>
</clipPath>
</defs>
</svg>
