<svg width="42" height="43" viewBox="0 0 42 43" fill="none" xmlns="http://www.w3.org/2000/svg">
<g clip-path="url(#clip0_899_1256)">
<path d="M18.5391 0.906982C19.7712 0.906982 21.0034 0.906982 22.2741 0.945427C22.3126 3.68376 22.3126 6.38365 22.3126 9.08808C23.1311 9.08808 23.8903 9.08808 24.699 9.08808C24.699 7.34052 24.699 5.61423 24.699 3.89502C27.2126 3.89502 29.6765 3.89502 32.1748 3.89502C32.1748 6.38413 32.1748 8.83846 32.1748 11.342C33.8261 11.342 35.443 11.342 37.0942 11.342C37.0942 12.315 37.0942 13.2388 37.0942 14.196C38.7803 14.196 40.4312 14.196 42.082 14.196C42.082 17.6157 42.082 21.0354 42.0491 24.4806C41.9838 24.575 41.9363 24.6408 41.9213 24.7133C41.712 25.7222 41.5699 26.75 41.2883 27.7381C40.6632 29.9324 39.6817 31.9699 38.3731 33.8436C37.2382 35.4687 35.9056 36.9198 34.3734 38.171C32.9579 39.3268 31.4166 40.2901 29.7399 41.0457C27.8181 41.9117 25.8303 42.5027 23.7379 42.7496C23.6677 42.7579 23.6077 42.8526 23.543 42.907C21.9006 42.907 20.2583 42.907 18.5877 42.8735C18.5308 42.8128 18.506 42.7682 18.4731 42.761C17.3104 42.5078 16.1396 42.2878 14.9854 42.0008C13.3875 41.6036 11.903 40.907 10.5001 40.064C8.7062 38.9862 7.02959 37.7428 5.66205 36.1352C4.9835 35.3375 4.30068 34.5378 3.69322 33.6866C2.80217 32.438 2.09772 31.0797 1.53479 29.6485C0.909166 28.058 0.449723 26.4266 0.239441 24.7274C0.23071 24.6569 0.136447 24.5969 0.0820313 24.532C0.0820312 22.8076 0.0820312 21.0832 0.115264 19.332C0.18069 19.2362 0.227407 19.1703 0.242892 19.0978C0.463392 18.0651 0.622193 17.0153 0.90868 16.0015C1.54528 13.7487 2.57907 11.6794 3.93267 9.76508C5.05491 8.17795 6.37205 6.76962 7.8776 5.55698C9.54542 4.21362 11.3769 3.11424 13.3819 2.33537C14.9851 1.71257 16.6357 1.26094 18.3505 1.0642C18.4185 1.0564 18.4764 0.961368 18.5391 0.906982ZM19.7702 12.7605C19.7702 9.66328 19.7702 6.56607 19.7702 3.46553C14.7823 3.78771 10.4126 6.3067 7.61386 9.3265C4.35526 12.8425 2.66371 17 2.57905 21.7803C2.53286 24.3885 3.0777 26.9082 4.15102 29.2937C5.19575 31.6157 6.62708 33.6658 8.5334 35.3751C8.85311 34.9774 9.14576 34.6083 9.44365 34.2436C10.091 33.4509 10.7461 32.6645 11.3888 31.8681C12.2419 30.8109 13.0817 29.743 13.9357 28.6866C14.6891 27.7547 15.4597 26.8366 16.2129 25.9044C17.3119 24.5441 18.4094 23.1825 19.4874 21.8057C19.6398 21.6112 19.7566 21.3283 19.7583 21.0854C19.7771 18.3379 19.7702 15.5902 19.7702 12.7605ZM22.3125 29.3308C22.3125 33.0023 22.3125 36.6738 22.3125 40.3491C32.5579 39.5893 39.2149 30.9086 39.502 23.1632C33.7833 23.1632 28.0652 23.1632 22.3125 23.1632C22.3125 25.2088 22.3125 27.2288 22.3125 29.3308ZM14.8052 31.6735C14.5584 31.9751 14.3096 32.2751 14.0653 32.5787C12.9519 33.9628 11.8465 35.3535 10.7204 36.7272C10.5347 36.9537 10.5629 37.103 10.7767 37.2185C11.9215 37.837 13.0425 38.5131 14.2311 39.0337C15.9729 39.7967 17.8221 40.202 19.7403 40.3421C19.7403 35.4494 19.7403 30.556 19.7403 25.5967C19.3975 26.0254 19.1001 26.4012 18.7986 26.7737C18.1379 27.59 17.476 28.4051 16.8131 29.2196C16.1584 30.024 15.5019 30.827 14.8052 31.6735ZM27.2344 19.8126C27.2344 20.0932 27.2344 20.3737 27.2344 20.6536C28.0557 20.6536 28.8146 20.6536 29.5894 20.6536C29.5894 15.9009 29.5894 11.1711 29.5894 6.43327C28.7965 6.43327 28.028 6.43327 27.2344 6.43327C27.2344 10.886 27.2344 15.3086 27.2344 19.8126ZM22.3125 14.8933C22.3125 16.8142 22.3125 18.735 22.3125 20.6514C23.1371 20.6514 23.8966 20.6514 24.659 20.6514C24.659 17.6421 24.659 14.6582 24.659 11.6782C23.8668 11.6782 23.1072 11.6782 22.3125 11.6782C22.3125 12.7391 22.3125 13.7752 22.3125 14.8933ZM34.4637 20.661C34.4875 20.5327 34.5318 20.4045 34.5321 20.2762C34.5365 18.2705 34.5355 16.2649 34.5342 14.2593C34.5341 14.1407 34.5208 14.0221 34.5133 13.8977C33.7182 13.8977 32.9502 13.8977 32.1884 13.8977C32.1884 16.1702 32.1884 18.4127 32.1884 20.6734C32.9424 20.6734 33.6644 20.6734 34.4637 20.661ZM38.9988 16.739C38.3647 16.739 37.7306 16.739 37.0995 16.739C37.0995 18.0809 37.0995 19.3571 37.0995 20.6506C37.943 20.6506 38.7649 20.6506 39.5922 20.6506C39.5922 19.3387 39.5922 18.0529 39.5922 16.739C39.4019 16.739 39.2404 16.739 38.9988 16.739Z" fill="#DB1222"/>
</g>
<defs>
<clipPath id="clip0_899_1256">
<rect width="42" height="42" fill="white" transform="translate(0 0.824951)"/>
</clipPath>
</defs>
</svg>
