<svg width="58" height="58" viewBox="0 0 58 58" fill="none" xmlns="http://www.w3.org/2000/svg">
<g clip-path="url(#clip0_899_661)">
<path d="M57.2417 23.0452C57.1064 23.2177 56.9323 23.3141 56.8424 23.4619C56.2785 24.3886 55.4045 24.7367 54.3839 24.7643C53.273 24.7943 52.1608 24.7711 51.0197 24.7711C51.3222 28.9201 50.4382 32.767 48.4887 36.4873C49.5216 36.4873 50.4759 36.4882 51.4301 36.4872C53.4557 36.4851 54.7745 37.5825 55.3064 39.41C55.3517 39.5658 55.3431 39.74 55.3433 39.9057C55.3456 41.784 55.3037 43.6634 55.3564 45.5402C55.4078 47.3675 54.239 48.8701 52.4737 49.316C52.2422 49.3745 52.0017 49.5051 51.8284 49.669C50.6974 50.7379 49.5878 51.8293 48.4629 52.9046C47.9119 53.4313 47.1003 53.5241 46.6789 53.0692C46.4854 52.8603 46.3371 52.5308 46.3233 52.2485C46.2789 51.3407 46.3067 50.4295 46.3067 49.4316C46.084 49.4316 45.8888 49.4316 45.6936 49.4316C44.2245 49.4315 42.7547 49.4569 41.2863 49.4242C39.8944 49.3931 38.6868 48.9138 37.9343 47.6733C37.6294 47.1707 37.4705 46.5796 37.2765 46.1053C35.7872 46.4213 34.241 46.7542 32.6925 47.0761C31.9304 47.2345 31.2047 46.7061 31.1401 45.9639C31.0866 45.3501 31.6561 44.8322 32.3664 44.7356C33.9974 44.5138 35.601 44.1591 37.1186 43.5005C37.2485 43.4441 37.3643 43.1968 37.3684 43.0352C37.392 42.106 37.4283 41.1728 37.3696 40.2467C37.2618 38.5461 38.5903 36.9017 40.2594 36.6121C40.9071 36.4997 41.5783 36.504 42.2395 36.4922C43.262 36.4739 44.2855 36.5027 45.3075 36.4737C45.5007 36.4682 45.7677 36.3363 45.8674 36.1786C47.0351 34.3301 47.91 32.347 48.2985 30.1912C48.535 28.8787 48.6359 27.5395 48.7484 26.2081C48.7863 25.7596 48.6722 25.2982 48.6205 24.7711C48.4167 24.7711 48.2187 24.7711 48.0207 24.7711C45.7891 24.7711 43.5572 24.792 41.326 24.7633C39.9704 24.7459 38.8965 23.9811 38.5532 22.7523C38.4508 22.3859 38.3942 21.9946 38.3918 21.6143C38.3774 19.2898 38.358 16.9648 38.3942 14.6407C38.4174 13.1586 38.9801 12.1569 40.3699 11.6812C40.6155 11.5971 40.8887 11.5937 41.2858 11.5318C36.5537 8.13111 31.4556 7.23768 25.8871 8.36825C25.8871 9.54429 25.9041 10.6763 25.8821 11.8076C25.862 12.8372 25.2867 13.947 24.0963 14.224C23.9192 14.2652 23.7322 14.2797 23.5498 14.28C21.3926 14.2838 19.2341 14.3233 17.0789 14.2584C16.4058 14.2381 16.0137 14.523 15.6704 14.9753C14.1075 17.0343 12.9361 19.2997 12.3221 21.8137C12.0547 22.9087 11.9622 24.0496 11.836 25.1748C11.7542 25.904 11.7552 26.6425 11.7126 27.5097C13.4231 26.5546 14.9988 25.7754 16.4621 24.8233C17.4808 24.1605 18.0027 23.0274 18.4038 21.8955C18.6461 21.2116 18.834 20.5002 18.9611 19.786C19.1151 18.9202 19.8158 18.653 20.4384 18.2967C21.753 17.5445 23.0671 16.7892 24.4074 16.0846C25.1848 15.6758 25.853 15.8178 26.3998 16.8498C27.1333 18.2344 27.9085 19.5969 28.682 20.9983C30.3793 20.2381 32.0655 20.1403 33.7006 20.9403C34.9234 21.5387 35.8412 22.5139 36.3327 23.8014C37.3198 26.3871 36.3129 29.2173 33.9707 30.5027C34.8659 32.1259 35.7458 33.7579 36.6626 35.3689C37.149 36.2236 36.9806 36.8571 36.1236 37.34C34.5654 38.2181 33.0017 39.0894 31.4062 39.8961C31.0808 40.0607 30.5909 39.9975 30.201 39.919C28.9172 39.6605 27.657 39.2265 26.3635 39.0904C25.219 38.9699 24.1722 39.5405 23.1926 40.1318C22.9269 40.2921 22.6587 40.4481 22.3382 40.6377C22.7423 41.3571 23.1569 42.0722 23.5484 42.7996C23.871 43.3988 24.4077 43.9885 23.9335 44.7184C23.7477 45.0043 23.42 45.2248 23.1142 45.4009C22.0537 46.0118 20.9746 46.5901 19.7479 47.2661C20.3335 47.807 20.8571 48.2913 21.3815 48.7747C22.4595 49.7684 22.9824 50.9962 22.869 52.4602C22.7444 54.0677 21.9808 55.3015 20.5691 56.0975C19.9121 56.468 19.347 56.1114 18.8569 55.7245C17.4333 54.6006 15.9573 53.525 14.6542 52.272C13.535 51.1958 12.5388 49.9623 11.646 48.6878C10.5712 47.1538 9.66308 45.5029 8.66124 43.8674C7.86529 44.3009 7.0257 44.7846 6.16275 45.2223C4.64247 45.9933 2.99111 45.4059 2.19542 43.8965C1.55681 42.6851 0.848733 41.5102 0.141572 40.3559C0.111662 39.6837 0.111662 38.9746 0.139674 38.2512C0.939562 36.6138 2.74316 36.3246 3.99521 35.3441C3.72224 34.827 3.48833 34.3512 3.22512 33.8922C2.72186 33.0145 2.90569 32.3835 3.77426 31.9129C5.54344 30.9545 7.30252 29.9774 9.06257 29.0022C9.33981 28.8485 9.54843 28.66 9.49323 28.2725C9.42069 27.7633 9.36287 27.2433 9.38311 26.7313C9.42228 25.7405 9.4981 24.7498 9.59864 23.7631C9.83603 21.4334 10.4881 19.2216 11.5775 17.1464C12.0741 16.2003 12.6045 15.272 13.1489 14.2824C12.4063 14.2824 11.6879 14.2832 10.9695 14.2823C9.62071 14.2804 8.59289 13.2607 8.59229 11.9203C8.59104 9.13113 8.62479 6.34138 8.57758 3.55298C8.55513 2.22748 9.66443 1.11565 11.0098 1.11573C15.1192 1.11596 19.2286 1.11423 23.338 1.11662C24.8316 1.11749 25.8842 2.17765 25.8869 3.6741C25.8883 4.43503 25.8871 5.19596 25.8871 5.94304C26.5903 5.85532 27.2599 5.76817 27.9305 5.68883C30.1456 5.42672 32.3589 5.50796 34.5338 5.95611C36.497 6.36065 38.3832 7.03134 40.1485 8.02096C41.577 8.82175 42.9482 9.69224 44.1356 10.8289C44.5991 11.2727 45.085 11.534 45.7887 11.5129C47.7579 11.4536 49.7302 11.4798 51.7011 11.4972C52.7724 11.5067 53.8454 11.5365 54.9134 11.6142C55.7844 11.6776 56.4494 12.1255 56.8967 12.8917C56.9658 13.0102 57.1244 13.0763 57.2417 13.1667C57.2417 16.4421 57.2417 19.7175 57.2417 23.0452ZM22.8185 27.0013C22.0831 25.6719 21.3477 24.3425 20.5934 22.9788C20.5054 23.0872 20.4574 23.1239 20.4392 23.1719C19.7094 25.0995 18.461 26.5517 16.6195 27.5217C14.6854 28.5405 12.7893 29.6312 10.8758 30.6889C9.30719 31.556 7.74378 32.4329 6.16343 33.278C5.78902 33.4783 5.75504 33.6628 5.95107 34.0093C7.17244 36.168 8.38235 38.3331 9.59205 40.4984C10.2335 41.6465 10.8668 42.7991 11.5041 43.95C13.2928 42.9431 15.0434 41.9553 16.7962 40.9715C18.3884 40.0778 19.9794 39.1817 21.5783 38.3001C22.2982 37.9032 23.0044 37.4479 23.7729 37.1799C25.1537 36.6984 26.5953 36.6805 28.0371 36.926C28.1139 36.9391 28.197 36.9144 28.3515 36.9006C26.5003 33.5854 24.6818 30.3288 22.8185 27.0013ZM45.2466 47.0876C45.9899 47.0876 46.7332 47.0861 47.4765 47.0881C48.1828 47.0899 48.6277 47.5266 48.648 48.2443C48.6572 48.5698 48.6496 48.8957 48.6496 49.2215C48.694 49.247 48.7384 49.2726 48.7828 49.2981C49.3473 48.7524 49.9133 48.208 50.4759 47.6603C50.7943 47.3505 51.1178 47.1241 51.6049 47.065C52.5949 46.945 53.0343 46.3199 53.0133 45.445C52.9728 43.7549 52.9802 42.0629 53.0106 40.3724C53.0254 39.5532 52.4657 38.8444 51.5644 38.8392C48.0524 38.8189 44.5402 38.8238 41.0282 38.837C40.3205 38.8397 39.725 39.4995 39.724 40.2065C39.7218 41.8975 39.7695 43.5902 39.7081 45.279C39.6629 46.5218 40.3097 47.0947 41.5114 47.0889C42.7193 47.0831 43.9271 47.0876 45.2466 47.0876ZM41.3962 22.4277C45.5775 22.4278 49.7589 22.428 53.9402 22.4278C54.8242 22.4278 55.0079 22.2487 55.0092 21.366C55.0119 19.4704 55.0106 17.5749 55.009 15.6794C55.0088 15.5218 54.994 15.3643 54.9809 15.1075C53.6533 16.1396 52.3733 17.074 51.1623 18.0905C49.4382 19.5376 47.1096 19.7196 45.3736 18.6994C44.2159 18.0191 43.1989 17.0996 42.1187 16.2874C41.6871 15.9629 41.255 15.6391 40.7298 15.245C40.7298 17.5167 40.7133 19.6479 40.7546 21.778C40.7589 21.9977 41.1078 22.2107 41.3962 22.4277ZM23.4226 23.1672C24.6027 25.2698 25.7889 27.3689 26.9612 29.4758C28.1672 31.6433 29.3589 33.8188 30.5587 35.9898C30.8004 36.4273 31.0503 36.8602 31.2928 37.2889C32.2855 36.7324 33.2073 36.2156 34.132 35.6972C30.9764 30.0173 27.8431 24.3777 24.6802 18.6848C23.7652 19.1789 22.8815 19.645 22.0163 20.1433C21.9443 20.1848 21.9382 20.4747 22.0021 20.5961C22.4454 21.4378 22.9153 22.2655 23.4226 23.1672ZM10.935 8.75734C10.935 9.24911 10.935 9.74088 10.935 10.3503C11.1473 10.1795 11.2623 10.1004 11.3618 10.0049C12.3774 9.03069 13.3905 8.05389 14.4041 7.07768C15.1391 6.36989 15.7862 6.37916 16.5072 7.07222C17.1865 7.72512 17.8892 8.35354 18.5871 8.99772C19.1594 8.50863 19.7401 8.00509 20.3288 7.51113C21.0845 6.87703 21.6143 6.69165 22.429 7.41286C22.7735 7.71776 23.1352 8.00316 23.4991 8.30584C23.4991 6.66315 23.4991 5.07418 23.4991 3.49312C19.2974 3.49312 15.1405 3.49312 10.935 3.49312C10.935 5.23342 10.935 6.93995 10.935 8.75734ZM20.4128 52.8931C20.7006 51.9791 20.4845 51.1983 19.7981 50.5366C19.4903 50.2399 19.2171 49.9021 18.8857 49.6359C17.3085 48.3696 16.6023 46.7552 16.8437 44.7332C16.8816 44.4152 16.849 44.0887 16.849 43.6814C15.399 44.4914 14.0529 45.2435 12.6775 46.0119C14.6288 49.0662 17.0482 51.5701 20.0001 53.5765C20.1473 53.3461 20.2652 53.1616 20.4128 52.8931ZM45.5807 15.9557C45.7671 16.1041 45.9516 16.2549 46.1402 16.4004C47.04 17.0945 48.3136 17.1627 49.2229 16.5449C49.6597 16.2481 50.0764 15.9208 50.4929 15.5954C51.2006 15.0426 51.9009 14.4802 52.663 13.8753C49.3678 13.8753 46.1723 13.8753 42.873 13.8753C43.813 14.5926 44.6685 15.2454 45.5807 15.9557ZM3.01058 38.6652C2.6145 38.8433 2.25733 39.1091 2.50188 39.5734C3.08746 40.6852 3.71763 41.775 4.37433 42.8464C4.48314 43.024 4.89093 43.2133 5.03447 43.1423C5.87543 42.7264 6.67892 42.2347 7.55498 41.7343C6.74244 40.2737 5.96081 38.8688 5.17759 37.4609C4.42493 37.876 3.75258 38.2469 3.01058 38.6652ZM32.9432 23.2161C31.9415 22.6637 30.9356 22.5302 29.8654 23.1414C30.8717 24.9456 31.8457 26.6921 32.8247 28.4475C33.8735 27.7646 34.4078 26.8267 34.3562 25.6181C34.3138 24.6249 33.7516 23.8796 32.9432 23.2161ZM17.0082 11.9393C17.3713 11.9393 17.7344 11.9393 18.2424 11.9393C17.2608 11.0119 16.3866 10.186 15.499 9.34738C14.6027 10.1939 13.7342 11.0142 12.7547 11.9393C14.2649 11.9393 15.582 11.9393 17.0082 11.9393ZM20.9677 43.0275C20.7365 42.6369 20.5053 42.2463 20.1948 41.7217C19.8347 42.042 19.3085 42.2835 19.2378 42.6206C19.0935 43.3082 19.1946 44.0473 19.1946 44.8611C19.9394 44.4426 20.6077 44.067 21.2856 43.6861C21.1715 43.4654 21.079 43.2866 20.9677 43.0275ZM20.5965 10.8237C21.3167 11.8674 22.2963 12.1985 23.5217 11.8629C23.5217 11.7759 23.5688 11.6164 23.5145 11.5658C22.8479 10.9443 22.1664 10.3388 21.4634 9.70639C21.0744 10.0173 20.6964 10.3194 20.3025 10.6341C20.4144 10.699 20.477 10.7354 20.5965 10.8237Z" fill="#DB1222"/>
<path d="M27.488 44.7643C28.0491 44.9858 28.3834 45.2948 28.3543 45.9275C28.3326 46.3994 28.159 46.7214 27.7561 46.9386C27.2833 47.1935 26.8335 47.1344 26.4374 46.795C26.0256 46.4422 25.8638 45.9978 26.1127 45.477C26.3328 45.0164 26.6691 44.711 27.2224 44.7444C27.2964 44.7488 27.3706 44.7491 27.488 44.7643Z" fill="#DB1222"/>
<path d="M48.2951 44.0747C47.5304 44.059 47.1277 43.6858 47.0836 43.0475C47.0243 42.19 47.361 41.8976 48.0925 41.7461C48.732 41.6136 49.3324 42.1515 49.4196 42.8338C49.4881 43.3688 48.9824 43.9508 48.2951 44.0747Z" fill="#DB1222"/>
<path d="M44.3228 41.7326C45.4592 41.7695 45.6723 42.5917 45.5119 43.2988C45.3983 43.7994 44.9214 44.08 44.3233 44.0776C43.778 44.0753 43.4602 43.7592 43.3138 43.2946C43.1245 42.6938 43.3439 42.1742 43.8256 41.9216C43.9696 41.8462 44.1265 41.7953 44.3228 41.7326Z" fill="#DB1222"/>
<path d="M19.6166 5.16494C20.0668 6.0696 19.6078 6.8257 18.8742 6.97953C18.3564 7.0881 17.6176 6.68639 17.5223 6.174C17.3855 5.43793 17.7783 4.7525 18.3975 4.69346C18.8532 4.65001 19.3238 4.62658 19.6166 5.16494Z" fill="#DC1222"/>
</g>
<defs>
<clipPath id="clip0_899_661">
<rect width="57.13" height="57.13" fill="white"/>
</clipPath>
</defs>
</svg>
