<svg width="42" height="42" viewBox="0 0 42 42" fill="none" xmlns="http://www.w3.org/2000/svg">
<g clip-path="url(#clip0_899_1398)">
<path d="M0.0820312 20.9662C0.136322 20.8799 0.226255 20.8405 0.239649 20.7831C0.516371 19.5985 1.09364 18.5563 1.95225 17.7275C3.17794 16.5443 4.64685 15.8286 6.40579 15.8397C7.96406 15.8496 9.52337 15.8723 11.0803 15.8247C11.6022 15.8087 12.1298 15.6292 12.6349 15.4639C16.4276 14.2228 20.2147 12.9647 24.0052 11.7167C24.8352 11.4434 25.337 11.5683 25.7716 12.1226C26.1995 12.6684 26.1392 13.8717 25.18 14.1941C22.4982 15.0957 19.8137 15.9894 17.1282 16.8796C15.9206 17.2799 14.7099 17.6708 13.4958 18.0503C13.2733 18.1198 13.2021 18.2219 13.2027 18.4494C13.2096 21.0876 13.2096 23.7259 13.2027 26.3641C13.2021 26.5942 13.2834 26.6874 13.5006 26.7587C17.1682 27.9616 20.8325 29.1745 24.4977 30.3847C26.343 30.9941 28.1886 31.6025 30.0344 32.2103C30.0705 32.2222 30.1109 32.2209 30.1875 32.2305C30.1875 32.0568 30.1875 31.8962 30.1875 31.7357C30.1875 27.7715 30.1856 23.8074 30.1913 19.8432C30.1918 19.548 30.2229 19.248 30.2817 18.9588C30.3859 18.4468 31.1158 17.931 31.6296 17.9783C32.3611 18.0456 32.8939 18.5817 32.8941 19.2577C32.8949 23.7003 32.8953 28.1429 32.8939 32.5855C32.8936 33.7292 31.8781 34.7848 30.7551 34.9715C29.7823 35.1333 28.9612 34.7191 28.1099 34.441C23.8421 33.0467 19.5862 31.6156 15.3244 30.2028C14.6418 29.9766 13.9502 29.7776 13.207 29.5488C13.207 29.7085 13.207 29.851 13.207 29.9935C13.207 32.7411 13.1657 35.4895 13.2224 38.2359C13.2569 39.9104 11.9939 41.4417 10.6189 41.9133C10.5345 41.9423 10.4582 41.995 10.3981 42.0642C9.67797 42.0918 8.93798 42.0918 8.17833 42.0638C7.73942 41.8085 7.28621 41.6266 6.90752 41.3447C5.93003 40.617 5.33414 39.6575 5.33296 38.3983C5.33011 35.3528 5.33098 32.3073 5.33426 29.2618C5.33449 29.0482 5.33518 28.8749 5.06708 28.8031C2.55194 28.1289 0.949371 26.5286 0.24014 24.0253C0.223599 23.9669 0.136317 23.9285 0.0820316 23.8808C0.0820315 22.9221 0.0820315 21.9634 0.0820312 20.9662ZM9.71801 18.4668C8.60288 18.4941 7.48462 18.4807 6.37398 18.5663C5.84016 18.6074 5.25855 18.7304 4.80645 18.9984C3.46473 19.7936 2.74205 20.9647 2.77451 22.5954C2.80404 24.0791 3.96256 25.5962 5.25581 26.0036C5.86285 26.1948 6.51492 26.2987 7.15177 26.3275C8.27921 26.3785 9.4106 26.3418 10.5553 26.3418C10.5553 23.6983 10.5553 21.0988 10.5553 18.4668C10.2855 18.4668 10.0422 18.4668 9.71801 18.4668ZM10.582 34.4219C10.582 32.611 10.582 30.8002 10.582 28.9905C9.6777 28.9905 8.83645 28.9905 7.95703 28.9905C7.95703 29.1744 7.95703 29.3351 7.95703 29.4958C7.95703 32.1741 7.95426 34.8525 7.96079 37.5308C7.96155 37.8395 7.9894 38.1529 8.04764 38.4558C8.1842 39.166 9.07181 39.6004 9.74102 39.3137C10.4059 39.0288 10.563 38.4528 10.5757 37.8244C10.5982 36.718 10.582 35.6108 10.582 34.4219Z" fill="#DB1222"/>
<path d="M42.082 8.17451C41.8725 8.38149 41.6466 8.53358 41.4562 8.72155C40.5421 9.62395 39.6791 10.5841 38.7111 11.4235C38.2584 11.8161 38.3404 12.1752 38.418 12.615C38.6559 13.9621 38.9078 15.307 39.1184 16.6583C39.1904 17.1207 38.984 17.5186 38.6073 17.819C38.1627 18.1733 37.694 18.2435 37.1826 17.9801C36.2969 17.5241 35.4097 17.0708 34.5246 16.6135C34.0709 16.3791 33.6143 16.1492 33.1711 15.896C32.9736 15.7831 32.8217 15.7881 32.6209 15.8941C31.336 16.572 30.0342 17.2185 28.7574 17.9113C28.1724 18.2287 27.6364 18.2039 27.1503 17.7967C26.7232 17.439 26.6053 16.9738 26.7234 16.388C27.0123 14.9548 27.2326 13.5076 27.4681 12.064C27.4872 11.947 27.4531 11.7736 27.3748 11.6957C26.2826 10.6103 25.1862 9.52884 24.0734 8.46462C23.6095 8.02091 23.6381 7.50739 23.79 6.97252C23.9419 6.43738 24.3908 6.24635 24.8815 6.16693C26.1281 5.96518 27.373 5.70614 28.6286 5.62404C29.4143 5.57267 29.7317 5.18445 30.0191 4.56481C30.5406 3.44019 31.1189 2.34196 31.6648 1.22847C31.9216 0.704527 32.3424 0.497278 32.9084 0.498418C33.4611 0.49953 33.8696 0.714211 34.1196 1.21542C34.7455 2.47005 35.3942 3.714 35.9873 4.98394C36.1561 5.34537 36.3659 5.53161 36.7393 5.58029C37.7925 5.7176 38.8489 5.83627 39.8968 6.00706C40.4822 6.10248 41.1182 6.05398 41.6196 6.46835C41.7704 6.59295 41.9033 6.73918 42.0632 6.84692C42.082 7.25761 42.082 7.69688 42.082 8.17451ZM33.6266 6.30131C33.3911 5.84179 33.1556 5.38227 32.8971 4.87795C32.8177 5.0227 32.7693 5.10158 32.7297 5.18466C32.4236 5.82674 32.1292 6.47467 31.8107 7.11052C31.5958 7.5395 31.3131 7.92977 30.8104 8.0409C30.4187 8.12747 30.0142 8.15488 29.6161 8.21357C29.0825 8.29224 28.5496 8.37573 27.9549 8.46655C28.1069 8.62569 28.1962 8.72702 28.2936 8.81993C28.8343 9.33578 29.3931 9.83416 29.91 10.3727C30.0836 10.5536 30.2421 10.8319 30.2503 11.0711C30.2669 11.5514 30.1905 12.0375 30.1245 12.5173C30.0463 13.0864 29.9386 13.6514 29.8333 14.2801C30.4823 13.9311 31.0642 13.5985 31.6644 13.3031C32.0083 13.1338 32.3722 12.9797 32.7445 12.8987C33.3834 12.7597 33.8691 13.1847 34.3923 13.4451C34.8908 13.6932 35.379 13.9618 35.9621 14.269C35.8138 13.4347 35.68 12.7139 35.5587 11.9909C35.4449 11.3124 35.47 10.6818 36.052 10.172C36.6516 9.64685 37.2117 9.07646 37.8524 8.46543C37.0593 8.34557 36.3519 8.19829 35.6374 8.14147C34.8431 8.07831 34.2433 7.79416 33.939 7.0189C33.8513 6.79556 33.741 6.58113 33.6266 6.30131Z" fill="#DB1222"/>
</g>
<defs>
<clipPath id="clip0_899_1398">
<rect width="42" height="42" fill="white" transform="translate(0 0.00976562)"/>
</clipPath>
</defs>
</svg>
