<svg width="58" height="58" viewBox="0 0 58 58" fill="none" xmlns="http://www.w3.org/2000/svg">
<g clip-path="url(#clip0_899_715)">
<path d="M27.1144 0.111572C28.121 0.111572 29.1275 0.111572 30.1593 0.149034C30.276 0.237977 30.3621 0.305075 30.4597 0.338559C31.6157 0.735179 32.5088 1.47771 33.195 2.46695C33.8044 3.34533 34.0932 4.33575 34.0393 5.46752C34.7884 5.46752 35.4914 5.4394 36.1912 5.47426C37.1852 5.52378 37.988 5.94943 38.6312 6.73327C39.1811 7.40357 39.3878 8.16814 39.4223 9.03814C41.2075 9.03814 42.9531 9.06522 44.6973 9.02889C45.9178 9.00347 47.0192 9.28869 47.977 10.0483C49.2622 11.0676 50.0922 12.3598 50.0938 14.041C50.1057 26.7974 50.1008 39.5539 50.0962 52.3103C50.0961 52.5632 50.0527 52.8198 50.0003 53.0684C49.5821 55.0507 48.3497 56.3122 46.4925 57.0222C46.414 57.0522 46.3678 57.1665 46.3065 57.2416C34.588 57.2416 22.8696 57.2416 11.1243 57.2035C10.9562 57.0902 10.8223 56.9932 10.6726 56.9433C8.90791 56.3553 7.23347 54.2636 7.23829 52.1608C7.26742 39.4672 7.2519 26.7734 7.25748 14.0797C7.25763 13.7346 7.29978 13.3837 7.36936 13.0452C7.80237 10.9383 10.0671 8.94468 12.3737 9.02791C13.8772 9.08216 15.3842 9.03814 16.8896 9.03813C17.2366 9.03813 17.5836 9.03813 17.922 9.03813C17.9434 8.91277 17.9606 8.85915 17.9605 8.80556C17.9565 6.93841 19.6036 5.3808 21.4316 5.46308C22.0536 5.49107 22.678 5.46751 23.292 5.46751C23.3178 5.04463 23.2928 4.70211 23.3656 4.38181C23.8181 2.39046 25.0163 1.04485 26.9301 0.330393C27.0079 0.301348 27.0537 0.186464 27.1144 0.111572ZM19.7024 15.7389C18.4846 15.0654 17.9761 13.9744 17.9226 12.6088C16.2823 12.6088 14.6843 12.5748 13.0884 12.6185C11.5282 12.6612 10.8359 13.2988 10.8335 14.904C10.8151 27.0637 10.8216 39.2235 10.8321 51.3832C10.8324 51.758 10.9084 52.1524 11.0398 52.5037C11.4036 53.4755 12.2554 53.6644 13.1512 53.6652C23.5074 53.6742 33.8637 53.6795 44.2199 53.662C45.828 53.6593 46.5183 52.964 46.5205 51.3658C46.5372 39.2246 46.5316 27.0835 46.5208 14.9423C46.5205 14.5492 46.4442 14.1365 46.3097 13.767C45.9728 12.8411 45.1585 12.6361 44.3037 12.6177C42.8169 12.5857 41.329 12.6078 39.8416 12.6106C39.699 12.6109 39.5565 12.6356 39.4188 12.6486C39.4061 12.741 39.3922 12.7956 39.392 12.8502C39.386 14.6483 37.7997 16.2033 35.9617 16.1906C31.165 16.1574 26.3678 16.1928 21.571 16.1625C20.9678 16.1587 20.366 15.9251 19.7024 15.7389ZM34.0878 9.03813C29.9177 9.03813 25.7476 9.03813 21.5805 9.03813C21.5805 10.2698 21.5805 11.4265 21.5805 12.5616C26.349 12.5616 31.0721 12.5616 35.7824 12.5616C35.7824 11.3707 35.7824 10.2272 35.7824 9.03813C35.2317 9.03813 34.7154 9.03813 34.0878 9.03813ZM27.1183 4.7849C27.0703 4.98963 27.0224 5.19436 26.9646 5.44124C28.1313 5.44124 29.2195 5.44124 30.3051 5.44124C30.3751 4.73244 29.9289 4.08814 29.2143 3.83674C28.4468 3.56672 27.6386 3.90636 27.1183 4.7849Z" fill="#DB1222"/>
<path d="M21.1689 32.8293C22.3409 34.0006 23.4646 35.1644 24.6343 36.2799C25.3876 36.9982 25.3331 38.8816 24.0643 39.2819C23.3589 39.5045 22.6505 39.5155 22.0535 38.9565C21.948 38.8577 21.8424 38.7591 21.6538 38.5829C21.6497 39.5315 22.1194 40.1042 22.7176 40.597C23.3363 41.1066 24.1082 41.1389 24.849 41.162C26.1858 41.2036 27.5248 41.171 28.8629 41.1747C29.804 41.1774 30.4607 41.888 30.4618 42.8945C30.4631 44.0145 29.8469 44.7405 28.8787 44.7431C27.1132 44.7477 25.3458 44.7938 23.5827 44.7281C22.2709 44.6792 21.1165 44.1206 20.1166 43.268C18.9699 42.2903 18.3086 41.0275 18.0039 39.5708C17.9376 39.2536 17.9591 38.9181 17.9355 38.5092C17.7433 38.6846 17.5897 38.8071 17.4569 38.9491C16.9674 39.4726 16.1466 39.5271 15.4494 39.2801C14.7215 39.0222 14.3899 38.4525 14.3803 37.652C14.3728 37.0289 14.5783 36.5612 15.0162 36.1345C16.1341 35.045 17.2281 33.931 18.3329 32.8281C19.1365 32.0258 20.318 32.0156 21.1689 32.8293Z" fill="#DB1222"/>
<path d="M23.4025 21.1152C25.2609 22.8822 25.5593 25.0073 24.7295 27.2527C24.1053 28.9415 22.2591 30.4175 20.1319 30.4799C18.3412 30.5323 16.8449 30.0077 15.6645 28.6583C14.8854 27.7676 14.4361 26.7376 14.3877 25.5323C14.3347 24.2118 14.5383 22.9867 15.3825 21.9092C16.4085 20.5997 17.6813 19.8143 19.3849 19.7404C20.9035 19.6745 22.2513 20.0251 23.4025 21.1152ZM20.7367 26.5132C20.8422 26.4092 20.955 26.3115 21.0521 26.2002C21.5273 25.6554 21.567 24.6909 21.143 24.1047C20.6927 23.4821 19.7519 23.2283 19.072 23.546C18.1867 23.9598 17.8131 24.9567 18.1934 25.8046C18.566 26.6356 19.6441 27.1275 20.7367 26.5132Z" fill="#DB1222"/>
<path d="M32.2482 42.1134C32.552 40.4228 33.3896 39.1178 34.8515 38.3238C35.5327 37.9538 36.3365 37.7279 37.1097 37.627C38.4544 37.4515 39.7354 37.7324 40.8324 38.6053C42.1115 39.6232 42.8805 40.8958 42.9696 42.5748C43.0634 44.3417 42.5274 45.8196 41.2025 47.0046C40.2844 47.8258 39.2312 48.2785 37.9845 48.3234C36.7006 48.3697 35.5137 48.1563 34.4618 47.3629C33.0802 46.321 32.258 44.9921 32.2475 43.2232C32.2454 42.8703 32.2474 42.5174 32.2482 42.1134ZM38.0312 44.6273C38.8203 44.3221 39.3098 43.8105 39.2808 42.9018C39.2578 42.1828 38.8841 41.6347 38.1756 41.357C37.5784 41.1229 36.8366 41.3041 36.3637 41.7997C35.9122 42.2729 35.7741 43.0621 36.0424 43.6359C36.4217 44.4472 37.0854 44.7178 38.0312 44.6273Z" fill="#DB1222"/>
<path d="M40.1977 26.9191C39.9007 27.2021 39.6317 27.4571 39.2422 27.8265C39.7628 28.3005 40.2385 28.7351 40.716 29.1677C41.4842 29.8637 41.395 31.7658 40.1019 32.1513C39.3925 32.3628 38.6776 32.3732 38.0992 31.7901C37.6552 31.3425 37.2281 30.8782 36.6702 30.2918C36.1851 30.8322 35.7551 31.3128 35.3235 31.7918C34.6506 32.5385 32.8045 32.4773 32.3522 31.227C32.1673 30.716 32.1456 29.6389 32.7007 29.1632C33.1787 28.7536 33.6197 28.3007 34.1937 27.7563C33.6793 27.2902 33.2147 26.8965 32.7817 26.4707C32.0602 25.7611 32.0454 24.4549 32.73 23.7868C33.4216 23.1118 34.6916 23.1487 35.4162 23.8697C35.8355 24.2869 36.2477 24.7112 36.7221 25.1922C37.1719 24.7279 37.5775 24.2988 37.9944 23.8811C38.7395 23.1344 40.0469 23.1071 40.7192 23.8143C41.3104 24.4361 41.4268 25.8761 40.6216 26.4988C40.4757 26.6117 40.3569 26.7595 40.1977 26.9191Z" fill="#DB1222"/>
</g>
<defs>
<clipPath id="clip0_899_715">
<rect width="57.13" height="57.13" fill="white"/>
</clipPath>
</defs>
</svg>
