<svg width="58" height="58" viewBox="0 0 58 58" fill="none" xmlns="http://www.w3.org/2000/svg">
<g clip-path="url(#clip0_899_701)">
<path d="M49.096 57.2416C48.3126 57.2416 47.5292 57.2416 46.7296 57.21C46.226 56.8658 45.6683 56.6251 45.263 56.2286C42.9778 53.9927 40.7374 51.7112 38.4631 49.4639C37.8104 48.8189 37.9774 47.7352 38.4718 47.2872C38.6891 47.0903 38.9482 46.9397 39.1883 46.7681C39.1253 46.7317 39.0623 46.6953 38.9992 46.659C38.7479 46.3978 38.4966 46.1366 38.2335 45.863C38.1145 45.9749 38.0024 46.0991 37.8724 46.1999C35.499 48.0407 32.7826 49.0309 29.8185 49.3012C28.2762 49.4419 26.7187 49.3335 25.2013 48.9699C21.8389 48.1642 19.0146 46.4776 16.8279 43.7727C16.6003 43.4912 16.3318 43.3956 15.9644 43.397C12.3396 43.4109 8.71473 43.4057 5.08987 43.4045C4.90466 43.4045 4.71222 43.4224 4.53537 43.3805C2.61677 42.9251 1.33907 41.2788 1.33902 39.2741C1.33871 27.6188 1.33397 15.9635 1.34412 4.30825C1.34564 2.55832 2.05575 1.20209 3.70705 0.433135C3.83294 0.374513 3.91464 0.22099 4.01688 0.11158C20.4218 0.11158 36.8267 0.11158 53.2524 0.145175C53.375 0.253592 53.4674 0.349184 53.5799 0.400124C55.326 1.19055 56.0148 2.61124 56.0146 4.45121C56.0137 15.9025 56.0156 27.3538 56.0094 38.8051C56.0091 39.2995 55.9827 39.802 55.8932 40.2868C55.5753 42.0078 53.9972 43.398 52.2305 43.4025C48.5497 43.4119 44.869 43.4053 41.1882 43.4057C41.0396 43.4057 40.8847 43.3839 40.7435 43.4175C40.3777 43.5047 40.2812 43.8709 40.5209 44.1536C40.676 44.3364 40.802 44.5439 41.0545 44.9007C41.3459 44.5145 41.4884 44.2682 41.6843 44.0765C42.3598 43.4153 43.2611 43.4293 43.9207 44.0889C46.1291 46.2972 48.3469 48.4963 50.5366 50.7229C50.8999 51.0923 51.2476 51.544 51.4191 52.0233C52.1684 54.1173 51.2965 56.243 49.2188 57.0318C49.1598 57.0542 49.1362 57.1696 49.096 57.2416ZM53.2245 36.3199C53.2245 29.2819 53.2245 22.2438 53.2245 15.2071C36.8194 15.2071 20.501 15.2071 4.12837 15.2071C4.12837 15.456 4.12837 15.6744 4.12837 15.8928C4.12837 21.7502 4.12836 27.6076 4.12837 33.465C4.12837 35.3616 4.12337 37.2583 4.13074 39.155C4.13398 39.9899 4.59508 40.6561 5.56718 40.6361C8.42959 40.5775 11.294 40.6152 14.1576 40.6152C14.3553 40.6151 14.5529 40.6152 14.7704 40.6152C11.2363 32.3276 14.9997 25.1356 19.6193 21.8469C24.6013 18.3002 31.3725 17.6073 36.9374 21.4895C43.7609 26.2497 45.1978 32.8945 42.4802 40.6152C42.6669 40.6152 42.8704 40.6152 43.0739 40.6152C45.9561 40.6152 48.8383 40.615 51.7205 40.6153C52.7668 40.6154 53.2195 40.1648 53.2237 39.1092C53.2273 38.2166 53.2245 37.3241 53.2245 36.3199ZM30.1884 46.4186C30.8481 46.2819 31.5266 46.2035 32.1642 45.998C34.413 45.2732 36.3479 44.0697 37.923 42.268C39.656 40.2857 40.6673 37.9863 40.9254 35.4077C41.1921 32.7423 40.67 30.1935 39.2696 27.8592C37.7432 25.3146 35.6011 23.5423 32.8227 22.4854C31.022 21.8005 29.166 21.6253 27.2899 21.7802C25.3576 21.9397 23.5509 22.609 21.928 23.6755C21.1222 24.2051 20.334 24.8037 19.6704 25.4979C18.4761 26.7471 17.5658 28.2008 16.9453 29.8323C16.1546 31.9117 15.9637 34.0538 16.3421 36.2217C16.7077 38.3169 17.5491 40.2214 18.9309 41.879C19.9789 43.1362 21.167 44.1975 22.601 44.9991C24.0942 45.8338 25.6948 46.3308 27.3773 46.5009C28.2687 46.591 29.1831 46.4547 30.1884 46.4186ZM29.5134 12.3856C37.4075 12.3856 45.3015 12.3856 53.2235 12.3856C53.2235 9.58431 53.2331 6.87064 53.2158 4.15714C53.2121 3.57447 52.8014 3.01591 52.3588 2.92585C51.9662 2.84595 51.5601 2.79508 51.16 2.79491C36.171 2.78853 21.1821 2.78953 6.19319 2.78954C6.06302 2.78954 5.93258 2.78434 5.80271 2.79071C4.59215 2.85011 4.12887 3.33647 4.12865 4.54754C4.12821 6.94651 4.12852 9.34548 4.12852 11.7445C4.12852 11.9424 4.12852 12.1403 4.12852 12.3856C12.5987 12.3856 21.0002 12.3856 29.5134 12.3856ZM48.0921 52.2768C47.3738 51.5529 46.6555 50.829 45.9791 50.1473C45.4888 50.6233 45.0276 51.0712 44.5513 51.5337C45.4181 52.397 46.2828 53.2673 47.1585 54.1264C47.6038 54.5633 48.2768 54.5909 48.6349 54.1795C48.9719 53.7923 49.0896 53.3167 48.5412 52.7287C48.4145 52.5928 48.2795 52.4645 48.0921 52.2768ZM42.1792 49.1538C42.2859 49.2505 42.3926 49.3471 42.458 49.4064C42.9277 48.9385 43.3693 48.4986 43.784 48.0855C43.4643 47.755 43.1183 47.3973 42.7851 47.0528C42.352 47.4743 41.8896 47.9242 41.3944 48.4061C41.6384 48.6374 41.8809 48.8674 42.1792 49.1538Z" fill="#DB1222"/>
<path d="M25.6415 36.1194C24.663 37.3104 23.6921 38.4563 22.771 39.6409C22.3178 40.2236 21.7904 40.5318 21.0622 40.3841C20.4769 40.2653 20.1034 39.84 20.0608 39.2814C20.0306 38.8864 20.1342 38.3871 20.3696 38.0823C21.399 36.7492 22.4986 35.4702 23.5724 34.1713C23.9227 33.7476 24.2503 33.3026 24.6269 32.9038C25.1961 32.3013 25.6996 32.2247 26.453 32.5864C27.5075 33.0927 28.5564 33.6105 29.6145 34.1266C30.4757 33.114 31.3277 32.1122 32.1162 31.185C31.6852 30.9624 31.126 30.8429 30.849 30.4972C30.1582 29.6353 30.6884 28.4191 31.8011 28.2479C32.8868 28.0808 33.985 27.9753 35.0816 27.9041C36.4623 27.8144 36.6847 28.5342 36.8205 29.5825C36.9356 30.4708 37.0415 31.3604 37.1477 32.2499C37.2262 32.9072 37.0498 33.7325 36.2408 33.9875C35.6994 34.1581 34.6639 34.0098 34.4594 33.2042C34.4392 33.1246 34.3681 33.0579 34.3019 32.9565C33.2337 34.2403 32.1831 35.5108 31.1232 36.7734C30.648 37.3395 29.8673 37.4277 29.0628 37.0254C28.2588 36.6234 27.4333 36.257 26.6613 35.8005C26.1604 35.5043 25.8924 35.6238 25.6415 36.1194Z" fill="#DB1222"/>
<path d="M42.178 8.92656C39.2611 8.92656 36.3999 8.92735 33.5388 8.926C32.793 8.92565 32.1491 8.30212 32.1492 7.58754C32.1492 6.87299 32.7933 6.24926 33.5388 6.24911C38.5923 6.24813 43.6458 6.24797 48.6992 6.24922C49.5502 6.24943 49.9909 6.72067 49.9887 7.61634C49.9867 8.46177 49.5337 8.92522 48.6993 8.92594C46.5442 8.92778 44.389 8.92656 42.178 8.92656Z" fill="#DB1222"/>
<path d="M14.2106 8.39956C13.8195 8.90052 13.0832 9.12004 12.4493 8.89709C11.9396 8.71778 11.6741 8.29227 11.6115 7.77478C11.5212 7.02827 11.8428 6.62317 12.4155 6.28995C12.797 6.06793 13.8865 6.2991 14.1549 6.66053C14.4955 7.11919 14.6529 7.66364 14.2106 8.39956Z" fill="#DC1221"/>
<path d="M10.1533 7.87208C9.93484 8.60335 9.563 8.9157 8.95396 8.92654C8.10341 8.94169 7.62438 8.69467 7.41228 8.13155C7.20093 7.5704 7.38439 6.85442 7.86445 6.48301C8.35249 6.10544 8.92254 6.15614 9.43462 6.35927C10.0696 6.61116 10.2327 7.1787 10.1533 7.87208Z" fill="#DB1222"/>
<path d="M16.3227 8.56687C15.6087 7.7859 15.821 7.06362 16.404 6.52693C16.8646 6.10292 17.9033 6.1244 18.3297 6.55745C18.8803 7.1166 18.8913 8.01362 18.3546 8.59143C17.9021 9.07862 16.9487 9.08107 16.3227 8.56687Z" fill="#DB1222"/>
</g>
<defs>
<clipPath id="clip0_899_701">
<rect width="57.13" height="57.13" fill="white"/>
</clipPath>
</defs>
</svg>
