<svg width="32" height="32" viewBox="0 0 32 32" fill="none" xmlns="http://www.w3.org/2000/svg">
<g clip-path="url(#clip0_899_1179)">
<path d="M14.1082 3.36028C14.5667 2.965 14.9979 2.57142 15.4551 2.21071C15.7616 1.96888 16.4666 2.01923 16.7936 2.3092C17.6558 3.07387 18.5592 3.79184 19.44 4.53585C20.0576 5.05759 20.6604 5.59686 21.2779 6.11871C22.01 6.73743 22.7534 7.34292 23.4871 7.95979C23.9492 8.34831 24.3994 8.75094 24.8607 9.14048C25.4842 9.66706 26.1164 10.1834 26.7389 10.7111C27.3477 11.2271 27.9472 11.7542 28.5546 12.272C28.8956 12.5627 29.2377 12.853 29.5912 13.1282C30.281 13.6651 30.2884 14.5182 29.6284 14.9638C29.2581 15.2138 28.725 15.1495 28.3669 14.8393C27.96 14.4868 27.5436 14.1453 27.0624 13.7411C27.0624 13.9196 27.0624 14.0251 27.0624 14.1305C27.0624 18.4625 27.0559 22.7945 27.0669 27.1265C27.0697 28.216 26.5693 29.0101 25.7157 29.6116C25.2703 29.9256 24.7608 30.066 24.2059 30.0655C18.8117 30.0605 13.4175 30.0572 8.02341 30.0669C6.91341 30.0688 6.10473 29.5746 5.49974 28.6835C5.19594 28.236 5.05971 27.7422 5.0602 27.1997C5.06413 22.8573 5.0624 18.5149 5.0624 14.1725C5.0624 14.0594 5.0624 13.9463 5.0624 13.7517C4.73036 14.0255 4.45522 14.2721 4.15932 14.4906C3.87031 14.7041 3.57776 14.9273 3.25443 15.0758C2.90516 15.2362 2.56221 15.0592 2.31335 14.8255C2.06775 14.5948 1.93319 14.2588 2.01822 13.91C2.09798 13.5829 2.29184 13.3282 2.57876 13.1135C3.06935 12.7464 3.51472 12.3193 3.98412 11.9233C4.60794 11.3971 5.23892 10.8793 5.86239 10.3527C6.32361 9.96312 6.77456 9.56137 7.23582 9.17183C7.85934 8.64526 8.49155 8.12896 9.11411 7.60127C9.72293 7.08523 10.3209 6.55642 10.9299 6.04056C11.5526 5.51306 12.1845 4.99646 12.8092 4.47132C13.2396 4.10953 13.6646 3.7413 14.1082 3.36028ZM21.9072 9.37567C21.4352 8.96654 20.9679 8.55168 20.4899 8.14962C19.7641 7.53919 19.0282 6.94081 18.3015 6.33141C17.6127 5.75373 16.9348 5.16282 16.2382 4.59486C16.1649 4.53515 15.9572 4.54046 15.8803 4.60163C15.4244 4.96423 14.9912 5.35514 14.5456 5.73102C13.7812 6.37602 13.012 7.01543 12.2473 7.66017C11.8015 8.03602 11.363 8.42058 10.9169 8.79603C10.3004 9.31493 9.67969 9.82894 9.06078 10.345C8.56723 10.7566 8.07243 11.1667 7.58061 11.5803C7.25958 11.8503 7.04098 12.1153 7.04424 12.617C7.07483 17.3243 7.05768 22.0319 7.07325 26.7394C7.07426 27.0458 7.17582 27.3834 7.32899 27.6499C7.53475 28.008 7.94734 28.0543 8.32699 28.0584C9.38918 28.0701 10.4516 28.0625 11.5139 28.0625C15.5965 28.0625 19.6791 28.0657 23.7617 28.0584C24.2645 28.0575 24.7512 27.9579 24.9422 27.3938C25.012 27.1874 25.0571 26.9614 25.0575 26.7443C25.0644 23.0887 25.0624 19.4331 25.0624 15.7775C25.0624 14.6006 25.0608 13.4237 25.0643 12.2469C25.0648 12.0944 25.0262 12.0093 24.8881 11.9025C24.4113 11.5336 23.969 11.1204 23.5092 10.7292C22.9881 10.286 22.4623 9.84828 21.9072 9.37567Z" fill="white"/>
<path d="M20.4545 16.2019C19.6505 17.1094 18.8638 18.0022 18.0745 18.8926C17.7064 19.3079 17.3312 19.7169 16.9629 20.132C16.1663 21.0299 15.3732 21.9309 14.5763 22.8284C14.2009 23.2512 13.8208 23.6697 13.4415 24.0889C13.2204 24.3332 12.9866 24.5667 12.7766 24.82C12.4954 25.1592 11.6251 25.1364 11.322 24.805C10.97 24.4201 10.9477 23.7411 11.298 23.3544C12.1807 22.3802 13.053 21.3966 13.9276 20.4151C14.583 19.6795 15.2349 18.9408 15.8895 18.2045C16.7353 17.2531 17.5831 16.3033 18.4285 15.3515C18.7211 15.0221 19.0254 14.7012 19.2949 14.3536C19.6048 13.954 20.4802 14.0014 20.799 14.3097C21.1293 14.6292 21.1733 15.5097 20.7876 15.8144C20.6623 15.9134 20.5752 16.0609 20.4545 16.2019Z" fill="white"/>
<path d="M17.699 24.9801C17.114 24.2742 16.9764 23.4612 17.0697 22.6099C17.1696 21.698 17.661 20.9912 18.4223 20.5071C20.0971 19.4421 22.5414 20.23 23.0003 22.3713C23.3945 24.2105 22.2889 25.7517 20.6009 26.0446C19.484 26.2385 18.4726 25.9077 17.699 24.9801ZM20.9999 22.9808C20.9758 22.607 20.7094 22.2572 20.3584 22.1388C20.0293 22.0277 19.5732 22.1613 19.3292 22.4542C19.0779 22.7559 19.0461 23.1041 19.1966 23.4528C19.383 23.8847 19.863 24.1188 20.3119 23.9926C20.6927 23.8856 21.0682 23.4945 20.9999 22.9808Z" fill="white"/>
<path d="M14.6429 14.4829C14.793 14.9058 14.9907 15.3021 15.046 15.7174C15.1098 16.1964 15.0828 16.6857 14.8867 17.1632C14.4971 18.1122 13.8298 18.7715 12.8452 18.9844C11.3579 19.3058 10.1958 18.8723 9.4021 17.5302C8.80296 16.5171 8.91748 14.9566 9.81433 14.0219C10.801 12.9934 11.9746 12.8261 13.2518 13.2655C13.8423 13.4687 14.3123 13.9002 14.6429 14.4829ZM12.5719 15.2509C12.3876 15.2089 12.2045 15.1391 12.0188 15.1308C11.6287 15.1135 11.3275 15.344 11.1661 15.7414C11.0345 16.0652 11.1347 16.4859 11.4061 16.7492C11.671 17.0063 12.0926 17.0699 12.4228 16.9462C13.0348 16.7168 13.2824 15.7962 12.5719 15.2509Z" fill="white"/>
</g>
<defs>
<clipPath id="clip0_899_1179">
<rect width="32" height="32" fill="white"/>
</clipPath>
</defs>
</svg>
