<svg width="42" height="43" viewBox="0 0 42 43" fill="none" xmlns="http://www.w3.org/2000/svg">
<g clip-path="url(#clip0_899_1233)">
<path d="M32.8946 28.7976C32.8946 28.1824 32.8929 27.6082 32.895 27.0341C32.8977 26.3046 33.4154 25.8442 34.2287 25.8445C35.0004 25.8448 35.5186 26.3203 35.5189 27.0365C35.5204 29.8391 35.5204 32.6417 35.5192 35.4443C35.5187 36.6862 35.0939 37.81 34.399 38.7988C33.434 40.1717 32.1212 41.1004 30.4517 41.4577C30.1244 41.5277 29.7869 41.5885 29.454 41.5889C22.1126 41.5963 14.7711 41.6081 7.42973 41.5828C5.99561 41.5779 4.74988 40.9729 3.65719 40.0466C2.55171 39.1095 1.8536 37.9315 1.53267 36.5274C1.4582 36.2016 1.40056 35.8632 1.40022 35.5306C1.39279 28.2438 1.39761 20.9571 1.39124 13.6703C1.39029 12.5843 1.71364 11.5892 2.2607 10.6846C3.15759 9.2015 4.43368 8.16872 6.1277 7.68849C6.80907 7.49533 7.489 7.67475 7.78261 8.20028C8.16592 8.88636 8.05737 9.94579 7.00088 10.2545C5.93868 10.565 5.11292 11.1896 4.58523 12.1414C4.33293 12.5965 4.12558 13.1485 4.12144 13.6584C4.06464 20.6529 4.04032 27.6478 4.02916 34.6426C4.02797 35.3871 4.13215 36.1385 4.53374 36.8589C5.00756 36.2896 5.45508 35.7555 5.89865 35.2181C6.48966 34.5022 7.07823 33.7841 7.66669 33.0661C8.5029 32.0457 9.3172 31.0064 10.1802 30.0092C10.8892 29.1898 11.4875 28.2552 12.5362 27.7739C14.2457 26.9895 16.4993 27.496 17.5408 29.0764C18.2578 30.1644 18.94 31.2754 19.6405 32.3806C20.2943 31.7651 20.9587 31.1637 21.596 30.5348C23.2288 28.9236 26.2504 29.0842 27.6629 31.04C28.8029 32.6186 30.0238 34.1388 31.2095 35.6843C31.5436 36.1199 31.8802 36.5535 32.2511 37.034C32.6153 36.5566 32.7897 36.0212 32.8026 35.4675C32.8539 33.2584 32.8672 31.0483 32.8946 28.7976ZM10.7051 38.9695C13.9501 38.9695 17.1952 38.9695 20.4907 38.9695C20.4239 38.84 20.3876 38.7559 20.3397 38.6791C19.6295 37.541 18.9177 36.404 18.2063 35.2666C17.2747 33.7772 16.3509 32.2828 15.4088 30.8001C14.7545 29.7703 13.6689 30.0299 13.0612 30.7981C12.602 31.3786 12.1272 31.9468 11.6587 32.52C11.0795 33.2284 10.5015 33.9377 9.91975 34.6439C9.22632 35.4857 8.52911 36.3244 7.83419 37.165C7.4269 37.6577 7.02089 38.1514 6.53974 38.7351C7.22956 38.8235 7.79772 38.9327 8.36984 38.9606C9.11928 38.9971 9.87184 38.9695 10.7051 38.9695ZM24.979 38.9695C26.1802 38.9695 27.3817 38.9851 28.5824 38.9618C29.0645 38.9525 29.5449 38.8576 30.0823 38.7951C29.9974 38.6378 29.9694 38.5634 29.923 38.5032C29.5214 37.9817 29.1109 37.4671 28.7138 36.9423C27.6462 35.5315 26.593 34.1098 25.5156 32.7066C24.9991 32.0339 24.0983 31.9324 23.5362 32.4578C22.8913 33.0607 22.2599 33.678 21.6205 34.2869C21.4558 34.4439 21.2833 34.5927 21.1099 34.7492C21.7794 35.8204 22.5222 36.863 23.1038 37.989C23.5167 38.7882 24.027 39.1383 24.979 38.9695Z" fill="#DB1222"/>
<path d="M23.8711 2.21954C27.4805 2.21954 31.0488 2.20991 34.6171 2.22428C36.0442 2.23002 37.296 2.76936 38.3872 3.66021C39.5457 4.60602 40.3138 5.81445 40.6323 7.28695C40.703 7.61397 40.7625 7.95139 40.7637 8.28424C40.7739 11.1963 40.783 14.1085 40.7642 17.0204C40.7541 18.5978 40.1288 19.9359 39.0796 21.102C38.0328 22.2654 36.7213 22.9162 35.2071 23.2025C35.0615 23.23 34.9078 23.2189 34.7578 23.219C28.7559 23.2196 22.7541 23.2198 16.7522 23.2193C15.6571 23.2192 14.6608 22.8735 13.7387 22.3114C11.9775 21.2378 10.9674 19.6484 10.5917 17.6381C10.5694 17.5188 10.5824 17.3926 10.5824 17.2696C10.582 14.3165 10.5677 11.3633 10.588 8.41038C10.5985 6.88108 11.1929 5.57114 12.19 4.41768C13.2493 3.19242 14.6041 2.53421 16.161 2.23C16.2799 2.20677 16.4064 2.21987 16.5294 2.21985C18.9629 2.21941 21.3965 2.21953 23.8711 2.21954ZM13.2872 16.7256C13.2638 17.4044 13.4453 18.0263 13.7961 18.6051C14.6303 19.9816 15.9077 20.5871 17.4577 20.5857C23.1401 20.5806 28.8225 20.5462 34.5048 20.5082C35.9748 20.4984 37.3731 19.3475 37.8053 18.0555C38.0066 17.4537 38.1263 16.795 38.1289 16.1615C38.1394 13.5964 38.1123 11.0305 38.0438 8.46644C38.03 7.95041 37.8683 7.38748 37.613 6.93818C36.8068 5.51975 35.5165 4.84557 33.9018 4.84962C28.2062 4.86391 22.5105 4.88823 16.8152 4.94529C16.3024 4.95043 15.7341 5.12064 15.292 5.38322C14.0224 6.13722 13.2632 7.24688 13.2489 8.84746C13.2351 8.96889 13.2095 9.09031 13.2094 9.21176C13.207 11.545 13.2063 13.8782 13.2104 16.2114C13.2107 16.3582 13.2532 16.505 13.2872 16.7256Z" fill="#DB1222"/>
<path d="M13.2623 8.81702C13.2792 11.3832 13.2826 13.9799 13.281 16.6142C13.2532 16.505 13.2107 16.3582 13.2104 16.2114C13.2063 13.8782 13.2069 11.545 13.2093 9.21176C13.2094 9.09031 13.2351 8.96889 13.2623 8.81702Z" fill="#BF0040"/>
<path d="M31.337 12.9749C31.2468 13.922 30.8251 14.6665 30.086 15.1772C28.8062 16.0615 27.5019 16.9119 26.1842 17.739C25.1396 18.3946 23.3586 18.2807 22.3805 17.357C21.5646 16.5865 21.2408 15.6606 21.2448 14.5751C21.2498 13.2083 21.2543 11.8413 21.2432 10.4745C21.2355 9.51953 21.4839 8.64769 22.1389 7.95026C22.6313 7.42592 23.2489 7.09323 23.9892 6.96711C25.1021 6.77752 26.002 7.19581 26.8773 7.80132C27.9685 8.55622 29.0992 9.25484 30.1802 10.0237C30.8654 10.5111 31.2469 11.2227 31.3317 12.0684C31.3605 12.3559 31.3372 12.6486 31.337 12.9749ZM24.2261 9.76152C24.1353 9.94546 23.9682 10.1283 23.9655 10.3135C23.9442 11.815 23.9428 13.3171 23.9596 14.8188C23.9655 15.3424 24.4812 15.598 24.9158 15.3148C26.0612 14.5685 27.2019 13.8151 28.3431 13.0625C28.7819 12.7731 28.7884 12.3479 28.3492 12.0548C27.2018 11.2889 26.049 10.5312 24.8987 9.76959C24.6994 9.63761 24.4979 9.56554 24.2261 9.76152Z" fill="#DB1222"/>
</g>
<defs>
<clipPath id="clip0_899_1233">
<rect width="42" height="42" fill="white" transform="translate(0 0.824951)"/>
</clipPath>
</defs>
</svg>
