<svg width="42" height="42" viewBox="0 0 42 42" fill="none" xmlns="http://www.w3.org/2000/svg">
<g clip-path="url(#clip0_899_1414)">
<path d="M1.18684 42.0919C1.12013 42.0245 1.11067 41.9219 1.06069 41.8952C0.548344 41.6216 0.419298 41.1335 0.41773 40.6298C0.404578 36.406 0.406202 32.182 0.413795 27.9581C0.415264 27.1409 0.969675 26.4932 1.88723 26.4981C5.50959 26.5172 9.13212 26.5059 12.7546 26.5059C12.916 26.5059 13.0775 26.5059 13.289 26.5059C13.289 26.3264 13.289 26.181 13.289 26.0356C13.289 24.7917 13.2881 23.5477 13.2894 22.3038C13.2902 21.5903 13.8614 21.0106 14.5682 21.0104C18.9152 21.0093 23.2622 21.0091 27.6091 21.0106C28.2963 21.0108 28.8739 21.5891 28.8742 22.2767C28.8759 25.3387 28.875 28.4007 28.875 31.4627C28.875 31.6246 28.875 31.7864 28.875 32.002C29.0642 32.002 29.2228 32.002 29.3814 32.002C33.0176 32.002 36.6537 32.0115 40.2898 31.9953C41.192 31.9913 41.7422 32.6197 41.7477 33.4263C41.7642 35.8457 41.7564 38.2653 41.7517 40.6849C41.7505 41.2871 41.4195 41.7118 40.9871 42.0734C27.7522 42.0919 14.4887 42.0919 1.18684 42.0919ZM24.3222 39.3028C24.9037 39.3028 25.4851 39.3028 26.0607 39.3028C26.0607 34.1035 26.0607 28.9691 26.0607 23.8313C22.7234 23.8313 19.4113 23.8313 16.1032 23.8313C16.1032 28.9982 16.1032 34.1326 16.1032 39.3028C18.8322 39.3028 21.5362 39.3028 24.3222 39.3028ZM8.2441 39.3028C9.91891 39.3028 11.5937 39.3028 13.2639 39.3028C13.2639 35.9355 13.2639 32.6331 13.2639 29.3274C9.92655 29.3274 6.61447 29.3274 3.30641 29.3274C3.30641 32.6623 3.30641 35.9647 3.30641 39.3028C4.94155 39.3028 6.55181 39.3028 8.2441 39.3028ZM33.0175 34.7911C31.6435 34.7911 30.2695 34.7911 28.9001 34.7911C28.9001 36.3264 28.9001 37.7969 28.9001 39.2704C32.2374 39.2704 35.5495 39.2704 38.8576 39.2704C38.8576 37.7674 38.8576 36.297 38.8576 34.7911C36.9216 34.7911 35.0106 34.7911 33.0175 34.7911Z" fill="#DB1222"/>
<path d="M21.2898 0.0917969C21.3359 0.141141 21.3278 0.222298 21.3536 0.235076C21.7649 0.438804 21.908 0.838997 22.0912 1.21338C22.7062 2.47065 23.3171 3.73009 23.9537 4.97639C24.0346 5.13482 24.2458 5.29965 24.418 5.32708C25.9292 5.56775 27.444 5.78707 28.9604 5.99242C29.5428 6.07128 29.9259 6.36733 30.111 6.91223C30.3054 7.48439 30.199 8.00321 29.7614 8.43185C28.7198 9.45203 27.6956 10.4918 26.6169 11.4713C26.2284 11.824 26.2555 12.1713 26.3329 12.5899C26.5791 13.9211 26.8358 15.2506 27.056 16.5862C27.1518 17.1671 27.0762 17.7477 26.5361 18.1105C25.9598 18.4978 25.3831 18.4707 24.7598 18.1089C23.8411 17.5755 22.8743 17.1252 21.9297 16.6362C21.7757 16.5564 21.6267 16.4651 21.4821 16.369C20.961 16.0229 20.49 15.9252 19.8809 16.3017C18.8771 16.9222 17.7985 17.4216 16.7504 17.9701C16.5625 18.0685 16.3684 18.1551 16.1792 18.2511C15.6135 18.538 15.0905 18.4054 14.6335 18.0354C14.1608 17.6527 14.1228 17.1017 14.2125 16.5489C14.4425 15.1321 14.6634 13.7128 14.9479 12.3067C15.025 11.9256 14.9004 11.7382 14.6665 11.513C13.626 10.5113 12.5964 9.49828 11.5587 8.49362C11.0975 8.0471 10.9549 7.52734 11.1471 6.91208C11.3315 6.3221 11.7559 6.07072 12.3435 5.99204C13.6754 5.8137 15.0045 5.61385 16.3347 5.42212C16.5209 5.39528 16.7144 5.38808 16.8901 5.32887C17.0291 5.28204 17.2045 5.19881 17.2634 5.0814C17.9207 3.77042 18.5413 2.44078 19.2126 1.13718C19.4031 0.767084 19.7261 0.465165 19.961 0.111888C20.3729 0.0917968 20.8122 0.0917968 21.2898 0.0917969ZM17.5352 14.0915C17.5145 14.1648 17.4938 14.2381 17.4551 14.375C18.3097 13.935 19.1133 13.5332 19.9051 13.1095C20.3982 12.8456 20.8654 12.8467 21.3582 13.1105C22.1481 13.5333 22.9499 13.9339 23.7655 14.3536C23.6325 13.512 23.5526 12.6948 23.3639 11.9035C23.1825 11.1427 23.4178 10.6037 23.9745 10.1071C24.562 9.5829 25.1039 9.00753 25.7351 8.38621C24.9018 8.26317 24.1785 8.13303 23.4495 8.05497C22.6487 7.96921 22.0303 7.7197 21.7124 6.87369C21.4341 6.133 21.0089 5.44748 20.6291 4.69919C20.1899 5.56973 19.7515 6.37609 19.3753 7.21056C19.184 7.63488 18.8406 7.8248 18.4639 7.94383C18.0855 8.06342 17.6722 8.07273 17.2742 8.13097C16.7263 8.21117 16.1784 8.29193 15.5431 8.3853C16.2521 9.09054 16.8822 9.73269 17.5301 10.3564C17.9452 10.7559 18.0232 11.2177 17.9194 11.7624C17.7762 12.5136 17.6717 13.2721 17.5352 14.0915Z" fill="#DB1222"/>
</g>
<defs>
<clipPath id="clip0_899_1414">
<rect width="42" height="42" fill="white" transform="translate(0 0.00976562)"/>
</clipPath>
</defs>
</svg>
