<svg width="43" height="42" viewBox="0 0 43 42" fill="none" xmlns="http://www.w3.org/2000/svg">
<g clip-path="url(#clip0_899_1520)">
<path d="M37.332 0.0820313C38.0173 0.0820311 38.7026 0.0820311 39.4047 0.108331C39.4611 0.169271 39.4952 0.220046 39.5414 0.236218C41.2456 0.833116 42.0842 2.50868 41.6862 4.28339C41.5365 4.95077 41.1375 5.45553 40.7097 5.96356C39.9301 6.88911 39.1922 7.84952 38.4271 8.78744C37.643 9.74874 36.8428 10.6969 36.0593 11.6587C35.8333 11.9362 35.6765 12.2195 35.6776 12.6304C35.6968 19.6418 35.6821 26.6534 35.6984 33.6649C35.7021 35.2435 34.2679 36.8303 32.5118 36.8315C29.5322 36.8334 26.5526 36.832 23.5731 36.832C23.4137 36.832 23.2543 36.832 23.09 36.832C23.09 37.787 23.09 38.6927 23.09 39.6211C23.7896 39.6211 24.4588 39.6411 25.1262 39.6148C25.6683 39.5934 26.0254 39.8354 26.2591 40.2919C26.4862 40.7354 26.4498 41.1682 26.153 41.5727C26.0268 41.7446 25.8949 41.9124 25.7656 42.082C20.9787 42.082 16.1918 42.082 11.3939 42.062C11.3456 42.0039 11.3132 41.9589 11.2702 41.9291C10.7518 41.5696 10.5642 41.0577 10.729 40.4987C10.8732 40.0096 11.3225 39.5719 11.9649 39.6121C12.6137 39.6528 13.267 39.6211 13.9208 39.6211C13.9208 38.6646 13.9208 37.7588 13.9208 36.832C13.7257 36.832 13.5628 36.832 13.3999 36.832C10.5841 36.832 7.76833 36.8347 4.95256 36.8285C4.61633 36.8277 4.2762 36.8022 3.94475 36.7469C2.5768 36.5186 1.40865 35.1837 1.40669 33.8134C1.39705 27.061 1.41015 20.3086 1.39673 13.5562C1.39343 11.8925 2.87326 10.4156 4.53736 10.4165C11.0437 10.4201 17.5501 10.4155 24.0565 10.425C24.3943 10.4254 24.6474 10.3184 24.8916 10.1067C25.4011 9.66508 25.9162 9.22942 26.4401 8.80491C27.3911 8.03424 28.3564 7.28118 29.3041 6.50653C30.2951 5.69654 31.268 4.86453 32.2568 4.05181C33.265 3.22312 34.2695 2.38904 35.3014 1.59051C35.9222 1.11002 36.5932 0.69435 37.238 0.244376C37.2845 0.211951 37.3014 0.137136 37.332 0.0820313ZM18.4238 29.9414C23.324 29.9414 28.2241 29.9414 33.1239 29.9414C33.1239 25.0381 33.1239 20.1967 33.1239 15.2899C32.7215 15.7735 32.3659 16.2105 31.9999 16.6386C31.2155 17.5559 30.4503 18.4914 29.6295 19.3751C29.1077 19.9368 28.3983 20.2396 27.6595 20.4171C27.1553 20.5382 26.6311 20.5758 26.1329 20.6483C26.1471 20.806 26.1803 20.9664 26.1727 21.1248C26.1054 22.5312 25.7346 23.808 24.7367 24.8757C23.9707 25.6953 23.0542 26.2295 21.9758 26.3934C20.9989 26.5419 19.9971 26.5442 19.0052 26.5723C17.9697 26.6016 17.0209 26.8717 16.1604 27.4495C15.5576 27.8544 14.9929 27.8182 14.5155 27.3458C14.0202 26.8557 13.9846 26.3032 14.4031 25.6715C14.9758 24.8072 15.2612 23.8587 15.2697 22.8188C15.2755 22.1129 15.323 21.4075 15.3465 20.7017C15.395 19.2491 15.941 18.035 17.0295 17.0557C18.2318 15.9739 19.6561 15.6137 21.1343 15.6713C21.3531 14.7639 21.5698 13.8648 21.7864 12.9663C21.8075 12.9717 21.7943 12.9654 21.781 12.9654C16.0952 12.9637 10.4093 12.9633 4.72345 12.9589C4.34726 12.9586 4.09449 13.1633 3.96354 13.4662C3.86671 13.6902 3.86719 13.9671 3.86694 14.2205C3.86199 19.305 3.86324 24.3895 3.86324 29.474C3.86324 29.6191 3.86324 29.7642 3.86324 29.9414C8.72483 29.9414 13.5333 29.9414 18.4238 29.9414ZM25.8886 34.2891C28.0349 34.2891 30.1812 34.29 32.3274 34.2883C32.757 34.288 33.1142 34.0252 33.1405 33.6553C33.1673 33.2789 33.1464 32.899 33.1464 32.5145C23.3625 32.5145 13.6251 32.5145 3.86329 32.5145C3.86329 32.748 3.85511 32.952 3.86473 33.1551C3.90322 33.9682 4.18634 34.3022 5.0138 34.3C11.9447 34.2808 18.8757 34.2891 25.8886 34.2891ZM37.6207 5.73769C37.9286 5.34868 38.2425 4.9642 38.5425 4.56921C38.7763 4.2613 39.0619 3.9671 39.1977 3.61755C39.3312 3.27387 39.1833 2.90856 38.8245 2.71738C38.4501 2.51792 38.1019 2.60437 37.7808 2.87253C37.2128 3.34682 36.6361 3.81064 36.0641 4.28023C35.1068 5.06624 34.1516 5.85483 33.1933 6.63949C32.5176 7.19268 31.837 7.73988 31.1606 8.29211C30.3712 8.93651 29.584 9.58347 28.84 10.1931C29.7818 11.1396 30.7094 12.0718 31.6513 13.0185C31.6959 12.9664 31.767 12.8875 31.8336 12.8051C32.3567 12.1578 32.8766 11.5079 33.4021 10.8626C33.9715 10.1635 34.5454 9.46825 35.118 8.77188C35.9383 7.77439 36.7591 6.77742 37.6207 5.73769ZM17.8085 22.7617C17.8085 23.2016 17.8085 23.6415 17.8085 24.1156C18.0123 24.0913 18.2474 24.0472 18.4838 24.038C19.3665 24.0035 20.2528 24.0184 21.1319 23.945C22.8279 23.8034 23.7036 22.4337 23.6061 21.0094C23.5177 19.719 22.8068 18.7546 21.414 18.3272C19.9657 17.8827 18.1413 18.8697 17.9733 20.3361C17.8843 21.1136 17.8613 21.8986 17.8085 22.7617ZM28.1445 13.2481C27.6876 12.7853 27.2307 12.3226 26.7902 11.8765C26.1093 12.4209 25.4715 12.9151 24.8515 13.4308C24.2 13.9726 23.7833 14.6547 23.8026 15.5261C23.8215 16.3827 24.2158 17.0498 24.9071 17.5632C25.8773 18.2835 27.1066 18.2027 27.8835 17.4912C28.6605 16.7795 29.2902 15.9071 30.0037 15.083C29.3701 14.4579 28.7778 13.8735 28.1445 13.2481ZM19.3256 36.832C18.391 36.832 17.4565 36.832 16.5298 36.832C16.5298 37.7955 16.5298 38.6995 16.5298 39.5988C17.8673 39.5988 19.1708 39.5988 20.4888 39.5988C20.4888 38.6725 20.4888 37.7686 20.4888 36.832C20.1111 36.832 19.7592 36.832 19.3256 36.832Z" fill="#DB1222"/>
</g>
<defs>
<clipPath id="clip0_899_1520">
<rect width="42" height="42" fill="white" transform="translate(0.5)"/>
</clipPath>
</defs>
</svg>
