<svg width="32" height="32" viewBox="0 0 32 32" fill="none" xmlns="http://www.w3.org/2000/svg">
<g clip-path="url(#clip0_899_1155)">
<path d="M0.0625 7.90429C0.103494 7.85556 0.171152 7.84538 0.181586 7.81533C0.453195 7.03312 1.34724 6.42899 2.224 6.41859C3.9552 6.39806 5.3264 7.61392 5.68398 9.2503C5.70137 9.3299 5.68744 9.41642 5.68744 9.49971C5.68752 11.5093 5.6875 13.5189 5.6875 15.5284C5.6875 15.6397 5.6875 15.7509 5.6875 15.815C6.23698 15.6866 6.76466 15.5127 7.30532 15.449C8.12356 15.3526 8.85143 15.6898 9.54323 16.0833C10.4076 16.5748 11.2625 17.0829 12.1182 17.5895C13.0247 18.1262 13.7602 18.8375 14.2851 19.7559C14.8233 20.6977 15.0804 21.7025 15.0704 22.798C15.0461 25.4633 15.0535 28.1291 15.0705 30.7945C15.0737 31.2889 15.0392 31.7278 14.607 32.0442C11.8112 32.0625 8.99739 32.0625 6.17228 32.0442C5.71076 31.7277 5.65182 31.2896 5.68089 30.7937C5.7107 30.2851 5.69576 29.7732 5.685 29.263C5.67566 28.82 5.69229 28.3689 5.61438 27.9363C5.39877 26.7391 4.73133 25.8237 3.74861 25.1241C2.91828 24.5329 2.15363 23.8624 1.57471 23.0209C0.88664 22.0207 0.370776 20.9349 0.182275 19.7169C0.17671 19.681 0.103937 19.6554 0.0625001 19.625C0.0625 15.7279 0.0625 11.8307 0.0625 7.90429ZM10.062 18.6555C9.44147 18.3047 8.80826 17.9743 8.20373 17.5978C7.46825 17.1398 6.54668 17.4797 6.17549 18.1068C6.07253 18.2807 6.09872 18.4309 6.25997 18.5332C6.52233 18.6998 6.79805 18.8452 7.06755 19.0006C7.71971 19.3765 8.37592 19.7457 9.02211 20.1317C9.5397 20.4408 9.55258 21.1346 9.30368 21.5119C9.03496 21.9193 8.52599 22.0858 8.07117 21.8357C7.01563 21.2553 5.9719 20.6477 4.9623 19.9913C4.22735 19.5134 3.81585 18.7937 3.81417 17.8902C3.8094 15.3184 3.81918 12.7465 3.8084 10.1747C3.80519 9.4102 3.5756 8.73522 2.77557 8.45503C2.26106 8.27483 1.92508 8.24395 1.93242 8.96379C1.96498 12.1552 1.97043 15.3469 2.00957 18.5382C2.01533 19.0083 2.10428 19.4895 2.23207 19.9437C2.67652 21.5238 3.68184 22.6964 5.00206 23.6251C5.6762 24.0993 6.25469 24.6733 6.68205 25.376C7.28174 26.3619 7.61705 27.4289 7.56634 28.602C7.54364 29.1272 7.5625 29.6541 7.5625 30.1674C9.46207 30.1674 11.3202 30.1674 13.1875 30.1674C13.1875 30.1064 13.1878 30.0655 13.1874 30.0246C13.1667 27.5308 13.1496 25.0369 13.1231 22.5431C13.1129 21.5797 12.727 20.7678 12.0915 20.0558C11.537 19.4345 10.7973 19.0922 10.062 18.6555Z" fill="white"/>
<path d="M17.5294 32.0625C17.4012 31.9324 17.2858 31.8113 17.2081 31.6695C17.1382 31.542 17.0689 31.3921 17.0686 31.2518C17.0608 28.2108 17.0392 25.1694 17.076 22.1287C17.088 21.1366 17.5103 20.2387 18.057 19.4128C18.6529 18.5124 19.4659 17.8659 20.4108 17.3579C21.3749 16.8396 22.3067 16.2604 23.2774 15.7555C24.1319 15.311 25.0306 15.3417 25.9212 15.6866C26.0872 15.7509 26.2496 15.8243 26.4376 15.9037C26.4376 15.8017 26.4376 15.6937 26.4376 15.5857C26.4376 13.5964 26.4221 11.6071 26.444 9.61809C26.4554 8.57782 26.9559 7.76369 27.7596 7.1236C28.5032 6.53139 29.3638 6.3449 30.2828 6.44616C30.8335 6.50684 31.2892 6.80111 31.6216 7.25118C31.7741 7.45757 31.8904 7.69065 32.0428 7.89332C32.0626 11.7722 32.0626 15.6693 32.0407 19.577C31.9918 19.6393 31.9562 19.6882 31.9391 19.7429C31.7547 20.3346 31.6151 20.9442 31.383 21.5163C30.7101 23.1754 29.4703 24.3529 28.0518 25.386C27.4992 25.7885 27.0825 26.3334 26.8051 26.9831C26.5054 27.685 26.4554 28.418 26.4405 29.1595C26.4269 29.836 26.4482 30.5132 26.4302 31.1895C26.4257 31.3595 26.3477 31.5356 26.2707 31.693C26.2048 31.828 26.0921 31.9402 26.0001 32.0625C23.1863 32.0625 20.3725 32.0625 17.5294 32.0625ZM28.3126 16.0313C28.3126 16.5937 28.2982 17.1566 28.3157 17.7184C28.3487 18.7789 27.8641 19.5674 27.0062 20.1161C26.1526 20.6621 25.263 21.1531 24.3768 21.6461C24.1298 21.7835 23.8428 21.9072 23.5678 21.9223C23.1577 21.9448 22.777 21.6077 22.6914 21.2562C22.5823 20.8085 22.7378 20.3582 23.1211 20.1287C24.0002 19.6025 24.8857 19.0867 25.7766 18.5807C25.9851 18.4623 26.0776 18.3272 25.9547 18.1166C25.5835 17.4803 24.6742 17.1417 23.9303 17.5913C23.1742 18.0484 22.3918 18.4617 21.6285 18.9072C21.2206 19.1452 20.799 19.3743 20.4352 19.6707C19.3664 20.5414 18.9481 21.7242 18.9409 23.0651C18.9289 25.3356 18.9376 27.6062 18.9376 29.8767C18.9376 29.9764 18.9376 30.0761 18.9376 30.1688C20.8335 30.1688 22.692 30.1688 24.5626 30.1688C24.5626 29.5577 24.5763 28.9648 24.5594 28.3728C24.5341 27.4892 24.7792 26.6697 25.1522 25.8895C25.6607 24.8258 26.4985 24.0481 27.4438 23.3739C28.3542 22.7245 29.0577 21.8897 29.5514 20.8931C30.0178 19.9516 30.1748 18.9247 30.1811 17.8875C30.1995 14.8984 30.1884 11.9092 30.185 8.91995C30.1848 8.79084 30.163 8.65538 30.1182 8.53522C30.0933 8.46862 30.006 8.3932 29.9362 8.38059C29.41 8.2855 28.7258 8.68274 28.5722 9.11097C28.4482 9.45663 28.3285 9.82734 28.324 10.1884C28.2999 12.1149 28.3126 14.0419 28.3126 16.0313Z" fill="white"/>
<path d="M16.9705 0.0625C17.0196 0.103417 17.033 0.17493 17.0604 0.18079C17.8045 0.340079 18.4006 0.745483 18.8939 1.30469C19.4512 1.93631 19.7672 2.67227 19.8154 3.5237C19.8604 4.3162 19.7279 5.06221 19.3112 5.74533C19.1851 5.95214 19.0425 6.14887 18.9323 6.31315C19.3853 6.67217 19.892 6.99843 20.3054 7.41687C21.1906 8.31278 21.796 9.37883 21.9302 10.6547C21.9939 11.2592 21.9922 11.8719 21.9946 12.481C21.996 12.8266 21.5773 13.1855 21.2123 13.1867C20.4103 13.1893 19.6083 13.1875 18.8063 13.1875C16.2025 13.1875 13.5987 13.1876 10.9948 13.1874C10.4654 13.1874 10.1276 12.8453 10.1243 12.3136C10.1185 11.4027 10.1013 10.4976 10.43 9.61741C10.9276 8.28508 11.7668 7.24835 12.9726 6.50273C13.0574 6.45026 13.1458 6.40353 13.2466 6.34614C12.4213 5.45212 12.1434 4.35453 12.3342 3.20803C12.5941 1.64604 13.5311 0.596336 15.0984 0.171246C15.1237 0.164381 15.1409 0.127435 15.1433 0.0835131C15.7302 0.0625 16.3357 0.0625 16.9705 0.0625ZM13.4384 8.59202C12.6233 9.31111 12.1383 10.1941 12.056 11.2978C14.7466 11.2978 17.3977 11.2978 20.0858 11.2978C20.0546 11.13 20.0259 10.9833 20.0002 10.8361C19.8176 9.7885 19.2366 8.99799 18.4062 8.3698C17.618 7.77346 16.7271 7.55309 15.7469 7.62167C14.8793 7.68238 14.1244 7.99348 13.4384 8.59202ZM17.06 5.34754C17.7527 4.88651 18.0129 4.12013 17.8279 3.35919C17.625 2.52438 16.8843 1.9465 15.9653 1.99375C14.7929 2.05403 14.0243 3.07627 14.2752 4.22092C14.5607 5.52312 15.9683 5.97959 17.06 5.34754Z" fill="white"/>
</g>
<defs>
<clipPath id="clip0_899_1155">
<rect width="32" height="32" fill="white"/>
</clipPath>
</defs>
</svg>
