<svg width="32" height="32" viewBox="0 0 32 32" fill="none" xmlns="http://www.w3.org/2000/svg">
<g clip-path="url(#clip0_899_1204)">
<path d="M10.5625 19.6875C10.5625 22.4878 10.5625 25.2569 10.5625 28.0442C11.2255 28.0442 11.8759 28.0442 12.5625 28.0442C12.5625 27.9394 12.5625 27.8292 12.5625 27.7189C12.5625 24.1049 12.5579 20.4909 12.5656 16.8769C12.5677 15.9119 13.4102 15.0784 14.3657 15.0659C15.48 15.0513 16.5945 15.0656 17.7089 15.0615C18.693 15.0579 19.5649 15.9306 19.5639 16.9202C19.5604 20.5133 19.5625 24.1065 19.5625 27.6997C19.5625 27.812 19.5625 27.9243 19.5625 28.049C20.2353 28.049 20.8856 28.049 21.5625 28.049C21.5625 27.9285 21.5625 27.817 21.5625 27.7054C21.5625 25.435 21.5594 23.1645 21.564 20.894C21.5659 19.9168 22.4195 19.0719 23.3798 19.0645C24.5046 19.0559 25.6296 19.0525 26.7542 19.0656C27.7141 19.0767 28.5548 19.9113 28.5591 20.8718C28.5696 23.2558 28.5625 25.6398 28.5625 28.0625C28.7239 28.0625 28.8757 28.0625 29.0275 28.0625C29.7249 28.0625 30.0626 28.3974 30.0625 29.0887C30.0625 29.5637 29.8903 29.8319 29.4558 30.009C29.3658 30.0457 29.2608 30.0604 29.1626 30.0604C20.4245 30.0627 11.6863 30.0626 2.94813 30.0621C2.45514 30.0621 2.06482 29.6653 2.06253 29.1681C2.05977 28.5656 2.22028 28.248 2.68881 28.1076C2.94785 28.03 3.2399 28.0625 3.56254 28.0426C3.56254 27.9498 3.56254 27.8406 3.56254 27.7314C3.56254 23.1176 3.56046 18.5037 3.56421 13.8899C3.565 12.9174 4.41924 12.0709 5.38397 12.0643C6.49832 12.0566 7.61277 12.0606 8.72716 12.0631C9.70038 12.0652 10.5627 12.9253 10.5626 13.9072C10.5624 15.8235 10.5625 17.7399 10.5625 19.6875ZM5.56254 17.0937C5.56254 20.7453 5.56254 24.3969 5.56254 28.0446C6.58168 28.0446 7.56532 28.0446 8.54483 28.0446C8.54483 23.3767 8.54483 18.7267 8.54483 14.0804C7.54339 14.0804 6.55975 14.0804 5.56254 14.0804C5.56254 15.0759 5.56254 16.0536 5.56254 17.0937ZM16.9048 17.0625C16.1281 17.0625 15.3513 17.0625 14.581 17.0625C14.581 20.7496 14.581 24.3997 14.581 28.0439C15.5832 28.0439 16.5668 28.0439 17.544 28.0439C17.544 24.3751 17.544 20.725 17.544 17.0625C17.3393 17.0625 17.153 17.0625 16.9048 17.0625ZM26.5625 23.4687C26.5625 22.6711 26.5625 21.8734 26.5625 21.0805C25.543 21.0805 24.5594 21.0805 23.5805 21.0805C23.5805 23.4154 23.5805 25.7321 23.5805 28.0445C24.5821 28.0445 25.5657 28.0445 26.5625 28.0445C26.5625 26.5281 26.5625 25.0296 26.5625 23.4687Z" fill="white"/>
<path d="M22.328 8.95313C22.4835 8.79757 22.622 8.65626 22.7634 8.51795C23.2337 8.05805 23.8959 8.05518 24.3625 8.51992C25.4986 9.65158 26.6306 10.7874 27.765 11.9208C27.8414 11.9971 27.9237 12.0674 28.0624 12.1949C28.0624 11.6102 28.081 11.1053 28.0578 10.6023C28.0275 9.94439 28.8261 9.51706 29.3865 9.73295C29.822 9.90075 30.0823 10.2207 30.072 10.7203C30.0441 12.0735 30.0628 13.4276 30.0622 14.7813C30.0619 15.292 29.6331 15.7448 29.1208 15.7475C27.7463 15.7548 26.3716 15.757 24.9972 15.7467C24.4081 15.7423 24.065 15.2561 24.0556 14.5309C24.0506 14.1453 24.5721 13.6553 25.0364 13.6818C25.4926 13.7079 25.9515 13.6875 26.4719 13.6875C26.4093 13.5748 26.3814 13.4819 26.3209 13.4221C25.4135 12.5254 24.5017 11.6331 23.5592 10.7086C23.1696 11.1027 22.7923 11.4858 22.4135 11.8672C22.0907 12.1923 21.7671 12.5168 21.4419 12.8394C20.8823 13.3946 20.2389 13.3943 19.6785 12.8344C17.7484 10.9062 15.8199 8.97643 13.8907 7.04722C13.5462 6.70268 13.5161 6.70255 13.1734 7.04523C12.2898 7.92875 11.4084 8.81455 10.5208 9.69404C10.3246 9.88844 10.1226 10.0848 9.89462 10.2376C9.49834 10.503 8.93988 10.4037 8.54009 10.005C6.46073 7.93161 4.38684 5.85271 2.30919 3.77758C1.93483 3.40367 1.95469 2.67774 2.33914 2.31074C2.71341 1.95346 3.42429 1.94716 3.80904 2.33438C5.57052 4.1072 7.34081 5.87125 9.10673 7.63966C9.18716 7.7202 9.25589 7.81243 9.34304 7.9144C9.43823 7.82916 9.50831 7.77212 9.57192 7.70859C10.6181 6.66367 11.6767 5.63059 12.7033 4.56677C13.1809 4.07187 13.9383 4.07623 14.4249 4.56966C16.4426 6.61605 18.4826 8.64051 20.5612 10.7198C21.1477 10.1334 21.7301 9.55106 22.328 8.95313Z" fill="white"/>
</g>
<defs>
<clipPath id="clip0_899_1204">
<rect width="32" height="32" fill="white"/>
</clipPath>
</defs>
</svg>
