<svg width="42" height="42" viewBox="0 0 42 42" fill="none" xmlns="http://www.w3.org/2000/svg">
<g clip-path="url(#clip0_899_1467)">
<path d="M16.1986 42.0918C16.117 42.0368 16.0852 41.9545 16.0289 41.931C14.7599 41.402 14.0274 40.3131 14.0274 38.9431C14.0273 31.729 14.0273 24.5148 14.0274 17.3007C14.0274 15.3838 15.3661 14.0372 17.2725 14.0372C24.5003 14.037 31.7281 14.0362 38.9559 14.0379C40.2494 14.0382 41.4928 14.7698 41.928 16.0936C41.9432 16.1397 41.9949 16.1738 42.0558 16.1917C42.0821 24.1013 42.0821 32.0327 42.056 39.9805C42.0087 40.0136 41.976 40.026 41.9676 40.0478C41.6163 40.957 41.0221 41.6218 40.0804 41.9452C40.0507 41.9554 40.0471 42.0412 40.0313 42.0918C32.0999 42.0918 24.1685 42.0918 16.1986 42.0918ZM23.7066 34.4214C22.05 36.0779 20.3934 37.7343 18.692 39.4357C24.9936 39.4357 31.211 39.4357 37.3888 39.4357C34.2781 36.325 31.1631 33.2101 28.0366 30.0838C26.6249 31.498 25.1862 32.9392 23.7066 34.4214ZM31.0899 29.1719C33.8554 31.9374 36.621 34.703 39.4186 37.5006C39.4186 31.2039 39.4186 24.9883 39.4186 18.7579C36.28 21.8957 33.1683 25.0068 30.03 28.1444C30.3619 28.4657 30.7054 28.7983 31.0899 29.1719ZM20.4669 22.4042C19.2468 21.1841 18.0266 19.964 16.7699 18.7072C16.7699 25.0061 16.7699 31.2238 16.7699 37.4516C19.9044 34.3171 23.016 31.2055 26.1427 28.0788C24.2752 26.2118 22.3916 24.3285 20.4669 22.4042ZM34.4121 16.7442C29.199 16.7442 23.9859 16.7442 18.7997 16.7442C21.9215 19.866 25.0362 22.9807 28.0534 25.9979C31.1124 22.9389 34.2302 19.8211 37.3072 16.7442C36.4334 16.7442 35.4638 16.7442 34.4121 16.7442Z" fill="#DB1222"/>
<path d="M25.9655 0.091797C26.0472 0.146747 26.0793 0.231286 26.1353 0.252309C27.4452 0.744404 28.1188 1.92537 28.1334 3.24196C28.1487 4.62147 28.1379 6.00129 28.1365 7.38097C28.135 8.93486 27.2733 10.1485 25.7374 10.5599C25.5832 10.6012 25.4131 10.5906 25.2503 10.5906C17.8465 10.592 10.4426 10.58 3.03881 10.6034C1.79213 10.6073 0.625749 9.68853 0.243526 8.65673C0.221778 8.59802 0.17132 8.54995 0.108168 8.51897C0.082113 6.43383 0.082113 4.32665 0.108138 2.20318C0.155551 2.17007 0.188159 2.15764 0.19671 2.13579C0.551207 1.23004 1.15291 0.57276 2.08349 0.238486C2.11364 0.227658 2.11703 0.142373 2.13289 0.0917969C10.0643 0.0917969 17.9957 0.0917969 25.9655 0.091797ZM24.7798 7.96658C25.3774 7.8661 25.4293 7.80665 25.4296 7.21147C25.4301 6.00842 25.4298 4.80536 25.4298 3.60231C25.4297 2.81241 25.3342 2.71688 24.5405 2.71687C17.5546 2.71675 10.5687 2.71675 3.58281 2.71687C2.90286 2.71688 2.70909 2.90499 2.70777 3.57766C2.70548 4.75336 2.70552 5.92908 2.70776 7.10479C2.70903 7.77663 2.90437 7.96671 3.58231 7.96672C10.6229 7.96683 17.6635 7.96677 24.7798 7.96658Z" fill="#DB1222"/>
<path d="M0.0820316 35.5678C0.134967 35.4956 0.223381 35.4715 0.235621 35.4267C0.504733 34.4406 0.994957 33.5764 1.76675 32.9131C2.69281 32.1173 3.75209 31.6299 5.01501 31.5792C6.38641 31.5241 7.58846 31.8834 8.66641 32.7273C9.6421 33.4912 10.2433 34.4948 10.4889 35.6803C10.9839 38.0693 9.95435 40.4774 7.73743 41.5387C7.3675 41.7158 6.98612 41.8689 6.62728 42.0625C5.79516 42.0918 4.94579 42.0918 4.07516 42.0624C3.98612 41.9979 3.92181 41.9516 3.85005 41.9293C3.04566 41.6792 2.31771 41.2899 1.70122 40.714C0.977785 40.0382 0.500926 39.2098 0.235634 38.2564C0.223168 38.2116 0.134964 38.1879 0.0820315 38.1543C0.0820311 37.305 0.0820311 36.4556 0.0820316 35.5678ZM3.48548 38.6457C4.04608 39.1558 4.68294 39.4203 5.46326 39.393C7.21605 39.3318 8.41606 37.5099 7.68194 35.8221C7.21343 34.7449 6.33125 34.2462 5.12986 34.2917C3.92884 34.3372 2.82588 35.4358 2.78005 36.6316C2.75104 37.3885 2.95936 38.0344 3.48548 38.6457Z" fill="#DB1222"/>
<path d="M0.0820312 19.8177C0.134968 19.7455 0.223381 19.7215 0.235625 19.6766C0.504803 18.6904 0.995212 17.826 1.76711 17.1628C2.69332 16.3669 3.75285 15.8799 5.01597 15.8291C6.38784 15.7739 7.58943 16.1349 8.66772 16.9781C9.63226 17.7324 10.2373 18.7236 10.4838 19.8919C10.9873 22.2788 9.97525 24.6728 7.74052 25.8006C5.63418 26.8636 2.91154 26.3892 1.34918 24.6101C0.82424 24.0124 0.446204 23.3137 0.241865 22.5329C0.226367 22.4737 0.175217 22.4238 0.111336 22.3869C0.0820313 21.5549 0.0820313 20.7056 0.0820312 19.8177ZM7.3388 22.6506C7.76556 22.2009 7.86159 21.6514 7.88354 21.0523C7.9203 20.0489 7.22221 19.0316 6.24581 18.6939C5.24432 18.3476 4.29388 18.5042 3.51661 19.2654C2.75874 20.0075 2.59435 20.9525 2.89832 21.9177C3.19079 22.8465 3.89209 23.4668 4.86887 23.6154C5.8191 23.76 6.6908 23.5317 7.3388 22.6506Z" fill="#DB1222"/>
<path d="M42.082 9.89728C42.029 9.95884 41.9559 9.9672 41.926 10.0076C41.3556 10.7772 40.4228 10.8568 39.7508 10.1872C39.2382 9.67657 38.7215 9.16984 38.2193 8.64916C38.0429 8.46621 37.8905 8.4318 37.6482 8.53571C35.9919 9.246 33.9862 8.84191 32.7484 7.52847C31.5053 6.2094 31.2395 4.30676 31.91 2.72045C32.4572 1.42578 33.4314 0.612909 34.7661 0.211879C34.7873 0.205513 34.8001 0.171088 34.799 0.120792C35.5485 0.0918276 36.3159 0.0918276 37.1016 0.119288C37.2356 0.20777 37.3532 0.265433 37.4666 0.330393C37.9632 0.614948 38.5171 0.833536 38.9437 1.20008C40.3093 2.3735 40.7489 4.46918 40.0304 6.1388C39.92 6.39527 39.9612 6.55804 40.1541 6.74372C40.6846 7.25456 41.1985 7.78265 41.7218 8.30115C41.836 8.41435 41.9616 8.51607 42.082 8.62308C42.082 9.03505 42.082 9.44701 42.082 9.89728ZM34.7821 5.71196C35.2788 6.13827 35.8363 6.2923 36.4701 6.07769C37.1258 5.85566 37.6304 5.21185 37.6522 4.58041C37.6785 3.81472 37.3141 3.20144 36.6656 2.92016C35.9805 2.62304 35.2466 2.78094 34.7132 3.31414C34.1853 3.84182 34.0669 4.94119 34.7821 5.71196Z" fill="#DB1222"/>
</g>
<defs>
<clipPath id="clip0_899_1467">
<rect width="42" height="42" fill="white" transform="translate(0 0.00976562)"/>
</clipPath>
</defs>
</svg>
