<svg width="58" height="58" viewBox="0 0 58 58" fill="none" xmlns="http://www.w3.org/2000/svg">
<g clip-path="url(#clip0_899_659)">
<path d="M0.111573 42.1187C0.183587 42.0197 0.309446 41.9825 0.319812 41.9247C0.657518 40.041 1.74556 38.5079 2.66252 36.8963C3.59216 35.2624 4.53236 33.6344 5.47089 32.0056C6.35422 30.4726 7.23998 28.9409 8.12728 27.4102C9.17105 25.6095 10.2201 23.8119 11.2622 22.0103C12.1569 20.4636 13.0427 18.9117 13.9367 17.3645C14.9775 15.5633 16.0154 13.7604 17.0685 11.9664C18.1025 10.2047 19.0577 8.38626 20.2219 6.71405C21.7266 4.55249 23.9221 3.34156 26.4825 2.79165C28.279 2.40584 30.0661 2.50104 31.8165 3.02212C33.1744 3.42635 34.3997 4.0975 35.5208 4.98643C37.1071 6.24413 37.993 7.9946 38.9784 9.68099C40.5998 12.456 42.2212 15.2311 43.8295 18.0137C45.0264 20.0847 46.1939 22.1727 47.3902 24.2441C48.8319 26.7403 50.2978 29.2226 51.739 31.7191C52.9253 33.7741 54.07 35.8533 55.2729 37.8985C56.0442 39.2099 56.7579 40.5355 57.075 42.0399C57.0808 42.0675 57.13 42.086 57.2003 42.0875C57.2416 43.4449 57.2416 44.8234 57.1993 46.2339C57.1186 46.3043 57.0619 46.336 57.0444 46.3824C56.6549 47.4154 56.3654 48.4993 55.8633 49.4737C54.9071 51.3289 53.4074 52.7157 51.5602 53.6501C49.3908 54.7475 47.0749 55.0669 44.6698 54.564C42.0982 54.0261 39.9692 52.758 38.3978 50.6472C37.7806 49.818 37.2989 48.8863 36.7736 47.9907C35.4722 45.7721 34.1748 43.5512 32.8882 41.3241C31.682 39.2362 30.4937 37.1381 29.2924 35.0474C29.1093 34.7287 28.8986 34.4259 28.6622 34.0556C27.9627 35.2535 27.3114 36.3507 26.6779 37.458C25.7624 39.0583 24.8692 40.6714 23.9492 42.2691C22.774 44.3098 21.5607 46.3288 20.4029 48.3792C19.3765 50.197 18.2338 51.9005 16.4196 53.0373C13.8309 54.6593 11.0544 55.1989 8.06544 54.464C5.93277 53.9397 4.1358 52.8723 2.69527 51.1904C1.69366 50.021 0.964885 48.7227 0.521949 47.2516C0.433883 46.9591 0.250826 46.6952 0.111573 46.4181C0.111572 45.0024 0.111572 43.5867 0.111573 42.1187ZM50.6601 49.7122C51.2604 49.0723 51.9512 48.4944 52.4419 47.7794C53.4306 46.3389 53.6196 44.7081 53.3625 42.9885C53.1826 41.7855 52.5353 40.8071 51.9703 39.7962C50.6706 37.471 49.3008 35.185 47.9711 32.8764C46.6227 30.5353 45.3003 28.1792 43.9446 25.8424C42.2881 22.9874 40.6308 20.1324 38.9331 17.3019C37.2719 14.5324 35.61 11.761 33.8515 9.05326C32.7085 7.29319 30.9155 6.45321 28.861 6.38362C26.5367 6.30489 24.6641 7.36001 23.3262 9.22546C21.7541 11.4175 21.5258 13.8493 22.8532 16.2388C23.5711 17.5311 24.3158 18.8087 25.0525 20.0906C26.2627 22.1964 27.4747 24.3012 28.6889 26.4047C29.7116 28.1766 30.7403 29.9449 31.7629 31.7168C32.8211 33.5503 33.8754 35.3861 34.9309 37.2212C35.9774 39.0408 37.021 40.862 38.07 42.6802C39.0284 44.3412 39.9579 46.0202 40.9621 47.6532C42.3405 49.8947 44.3825 51.0295 47.0186 50.9807C48.3209 50.9566 49.531 50.5404 50.6601 49.7122ZM23.1061 36.0027C23.4399 35.4365 23.7756 34.8715 24.1069 34.3038C24.843 33.0427 25.5875 31.7861 26.2979 30.5106C26.3834 30.3571 26.3431 30.0642 26.2524 29.8937C25.8246 29.0891 25.3601 28.3041 24.9067 27.5132C23.8632 25.6932 22.8152 23.876 21.7755 22.0539C20.7503 20.2573 19.7331 18.4562 18.7306 16.6891C15.4872 22.3092 12.1924 28.0181 8.87706 33.7627C14.3713 33.3642 18.2629 35.517 20.5096 40.5187C21.3657 39.0459 22.2266 37.5647 23.1061 36.0027ZM4.13798 46.2097C4.63586 47.6297 5.44686 48.8263 6.68263 49.7042C8.16389 50.7564 9.78933 51.1837 11.6128 50.8923C13.45 50.5987 14.8869 49.6951 15.997 48.2319C16.9933 46.9188 17.3775 45.4309 17.3014 43.7934C17.2312 42.2836 16.6706 40.9684 15.6889 39.8661C14.0542 38.0306 12.0155 37.1999 9.52862 37.5981C7.49611 37.9235 5.96991 39.0048 4.88351 40.7027C3.81218 42.377 3.62911 44.208 4.13798 46.2097Z" fill="#DB1222"/>
</g>
<defs>
<clipPath id="clip0_899_659">
<rect width="57.13" height="57.13" fill="white"/>
</clipPath>
</defs>
</svg>
