<svg width="42" height="42" viewBox="0 0 42 42" fill="none" xmlns="http://www.w3.org/2000/svg">
<g clip-path="url(#clip0_899_1149)">
<path d="M41.0532 27.9789C40.8198 28.1059 40.6099 28.2971 40.3996 28.2976C33.7426 28.3129 27.0856 28.3097 20.4286 28.3086C20.3885 28.3086 20.3484 28.2989 20.427 28.309C20.5091 27.2823 20.6796 26.2624 20.6522 25.2479C20.6037 23.4503 19.9591 21.8366 18.8191 20.4373C18.5307 20.0832 18.3404 19.7407 18.3609 19.2461C18.4061 18.1544 18.374 17.0596 18.3754 15.966C18.376 15.4819 18.6546 15.1917 19.1431 15.1877C20.0179 15.1805 20.8938 15.2116 21.7673 15.1766C22.3712 15.1525 22.7106 15.4097 22.7187 16.1357C22.7321 17.3384 22.7225 18.5414 22.7225 19.7444C22.7225 21.9725 22.7225 24.2006 22.7225 26.4287C22.7225 26.5757 22.7225 26.7226 22.7225 26.8926C23.9036 26.8926 25.0457 26.8926 26.2499 26.8926C26.2499 26.7351 26.2499 26.5775 26.2499 26.4198C26.2499 21.4852 26.2498 16.5505 26.25 11.6159C26.2501 10.9447 26.4423 10.7561 27.1246 10.7559C27.9858 10.7557 28.847 10.7551 29.7081 10.7561C30.303 10.7568 30.5152 10.9675 30.5153 11.5604C30.5158 16.495 30.5156 21.4297 30.5156 26.3643C30.5156 26.5272 30.5156 26.6901 30.5156 26.8843C31.7169 26.8843 32.8961 26.8843 34.1249 26.8843C34.1249 26.7071 34.1249 26.5341 34.1249 26.3611C34.1249 20.1142 34.1249 13.8673 34.125 7.62037C34.125 6.92276 34.3113 6.73766 35.0181 6.73659C35.852 6.73533 36.6858 6.73517 37.5196 6.73669C38.1109 6.73777 38.3905 7.01413 38.3905 7.59373C38.3906 13.8543 38.3906 20.1149 38.3906 26.3755C38.3906 26.5374 38.3906 26.6994 38.3906 26.916C38.9885 26.916 39.5587 26.9414 40.1256 26.9096C40.8296 26.8701 41.2321 27.1055 41.0532 27.9789Z" fill="#DB1222"/>
<path d="M5.51845 29.0196C4.8944 27.7506 4.63849 26.4294 4.76728 25.0625C5.05767 21.9803 7.14976 19.384 10.3024 18.5887C12.6592 17.9942 14.8694 18.4801 16.7589 20.0313C18.2244 21.2345 19.1169 22.796 19.3706 24.7175C19.6168 26.5819 19.2504 28.2988 18.1935 29.8281C16.952 31.6245 15.2523 32.7234 13.0361 32.9984C11.4978 33.1893 10.0559 32.9474 8.69516 32.2417C7.30411 31.5203 6.25119 30.4447 5.51845 29.0196ZM14.0507 29.3695C15.0263 28.7365 15.2792 27.6954 14.895 26.7813C14.5875 26.0497 13.9798 25.5964 13.234 25.3621C12.6096 25.1659 11.9591 25.0521 11.3358 24.8529C10.5306 24.5954 10.3418 23.6903 10.9751 23.1264C11.6899 22.4899 13.1065 22.5587 13.6984 23.6999C13.8806 24.0512 14.1778 24.1947 14.465 24.064C14.8216 23.9016 14.9574 23.5603 14.7725 23.1902C14.6477 22.9404 14.5124 22.662 14.3031 22.4951C13.8195 22.1095 13.288 21.7839 12.7138 21.3914C12.7138 21.3696 12.7289 21.2311 12.7108 21.097C12.6641 20.7499 12.454 20.5286 12.1156 20.4734C11.8437 20.4291 11.4651 20.7756 11.499 21.0957C11.5477 21.5561 11.2951 21.6478 10.9436 21.7578C9.9018 22.0838 9.0403 23.356 9.50241 24.5985C9.85286 25.5408 10.6127 25.92 11.4895 26.1784C12.1021 26.359 12.7177 26.5323 13.3214 26.7397C13.7129 26.8743 13.7853 27.2699 13.811 27.6027C13.8357 27.9217 13.6885 28.2251 13.3561 28.3969C12.7428 28.7137 12.1002 28.7986 11.4443 28.6115C10.8727 28.4485 10.4897 28.0735 10.3186 27.4747C10.2301 27.1649 9.83421 27.0084 9.55306 27.1003C9.25005 27.1994 9.08933 27.5054 9.19062 27.8712C9.41989 28.699 9.93419 29.2856 10.729 29.6253C11.1032 29.7853 11.6009 29.7852 11.5184 30.4543C11.4853 30.7227 11.7715 30.9735 12.1493 30.9393C12.5199 30.9056 12.6512 30.6607 12.7093 30.3519C12.7362 30.2086 12.7138 30.0561 12.7138 29.9774C13.1755 29.7618 13.5833 29.5713 14.0507 29.3695Z" fill="#DB1222"/>
<path d="M21.656 41.5175C19.2976 41.5925 17.052 41.2115 14.8642 40.4588C12.6211 39.6871 10.5651 38.5785 8.72233 37.0778C6.68042 35.4149 4.97376 33.4757 3.67986 31.1683C2.49141 29.0489 1.70643 26.8065 1.29521 24.4108C1.00951 22.7463 0.986497 21.0726 1.09281 19.4126C1.23568 17.1817 1.79688 15.0264 2.69986 12.9631C3.38846 11.3897 4.20256 9.87936 5.29936 8.57538C6.3329 7.34659 7.51803 6.23628 8.70348 5.14677C9.92949 4.02 11.3848 3.21356 12.8879 2.51132C14.5593 1.73047 16.3123 1.21651 18.1346 0.898501C19.7707 0.612963 21.4181 0.588251 23.0519 0.696587C24.3809 0.784713 25.7026 1.09564 27.0074 1.3951C27.8871 1.59698 28.7318 1.95083 29.5185 2.21221C29.5362 1.91509 29.5093 1.56183 29.5895 1.23486C29.6813 0.860846 30.0529 0.855225 30.3301 0.931516C30.5264 0.985534 30.7629 1.18749 30.8266 1.37581C31.0492 2.03332 31.2082 2.71267 31.3844 3.3855C31.5475 4.00799 31.3218 4.36529 30.7047 4.52295C30.0311 4.69502 29.3625 4.88634 28.6919 5.07004C28.3451 5.16504 27.8939 4.92672 27.8156 4.6058C27.7091 4.1692 27.9153 3.80445 28.3203 3.69848C28.4709 3.65907 28.6164 3.59999 28.7698 3.46405C28.1592 3.24731 27.5605 2.98398 26.9354 2.82439C25.9115 2.56301 24.8795 2.2603 23.8344 2.17375C22.4737 2.06105 21.0934 2.08114 19.7283 2.16099C18.7437 2.21859 17.7597 2.42081 16.794 2.64035C15.0943 3.02678 13.5166 3.72468 12.0009 4.59101C10.4171 5.4963 8.99255 6.5944 7.73756 7.9071C6.00865 9.71553 4.63564 11.7718 3.78462 14.1291C3.31368 15.4336 2.87526 16.7782 2.66872 18.142C2.44846 19.5965 2.40659 21.1013 2.48943 22.5727C2.60593 24.6419 3.11825 26.654 3.95164 28.5597C4.58284 30.0032 5.34443 31.3856 6.33263 32.6209C6.92361 33.3596 7.53485 34.0933 8.21638 34.7464C10.5161 36.9502 13.175 38.5449 16.2666 39.4019C17.3982 39.7156 18.5341 39.9452 19.7029 40.0462C21.6158 40.2115 23.5046 40.1309 25.3925 39.7376C28.0138 39.1915 30.4009 38.1346 32.5685 36.5868C33.9012 35.6352 35.1354 34.562 36.1255 33.239C36.6817 32.4958 37.2352 31.7505 37.7828 31.001C38.0202 30.676 38.3859 30.5796 38.7263 30.7744C39.0441 30.9562 39.1793 31.395 38.9646 31.7326C38.5403 32.3998 38.1298 33.0857 37.6248 33.6896C36.9118 34.542 36.145 35.3542 35.3525 36.1342C34.2569 37.2125 33.0327 38.1443 31.6602 38.8373C30.4055 39.4708 29.1236 40.0683 27.8073 40.557C26.4375 41.0657 24.9965 41.3485 23.5281 41.4344C22.9182 41.47 22.3074 41.4902 21.656 41.5175Z" fill="#DB1222"/>
</g>
<defs>
<clipPath id="clip0_899_1149">
<rect width="42" height="42" fill="white" transform="translate(0 0.00976562)"/>
</clipPath>
</defs>
</svg>
