<svg width="42" height="42" viewBox="0 0 42 42" fill="none" xmlns="http://www.w3.org/2000/svg">
<g clip-path="url(#clip0_899_1376)">
<path d="M0.0820313 35.4857C0.207124 35.2249 0.357351 35.0129 0.453148 34.7785C0.992864 33.4584 1.96015 32.5947 3.26978 32.0786C4.08037 31.7592 4.88472 31.424 5.74905 31.0726C5.59721 30.8751 5.45933 30.7075 5.33399 30.531C4.49969 29.3558 4.34593 28.0514 4.49073 26.6453C4.61334 25.4548 5.07428 24.4678 5.92828 23.6656C6.71801 22.9238 7.67714 22.5556 8.76368 22.4813C10.1268 22.388 11.2974 22.8439 12.2721 23.7485C13.0153 24.4382 13.5186 25.338 13.5869 26.3506C13.6545 27.3526 13.8014 28.3978 13.3689 29.3657C13.1036 29.9595 12.7562 30.5166 12.4363 31.1076C13.0516 31.3526 13.7828 31.5973 14.4702 31.932C15.0272 32.2033 15.4785 32.1967 16.0116 31.8541C16.442 31.5775 16.971 31.4552 17.4541 31.2592C17.5747 31.2103 17.6872 31.1412 17.7575 31.1051C17.4353 30.5461 17.0594 30.0463 16.8443 29.4849C16.5207 28.6403 16.4526 27.7537 16.5398 26.8302C16.6165 26.0168 16.8066 25.282 17.2299 24.5907C17.8846 23.5216 18.8487 22.8674 20.0389 22.5851C21.1594 22.3194 22.288 22.4323 23.3029 22.9903C24.4533 23.6227 25.2825 24.5826 25.5599 25.8898C25.9012 27.498 25.8492 29.0792 24.8607 30.4991C24.723 30.697 24.5539 30.8731 24.3874 31.0736C25.01 31.3296 25.657 31.5284 26.2335 31.8527C26.7413 32.1384 27.1628 32.1952 27.6978 31.9316C28.3533 31.6087 29.0568 31.3833 29.7776 31.1008C29.24 30.4368 28.7851 29.7575 28.6224 28.9394C28.2228 26.9303 28.4093 25.0565 30.0341 23.5904C31.7564 22.0363 34.6481 22.0978 36.2771 23.7669C37.1925 24.7048 37.6521 25.79 37.6621 27.103C37.6696 28.1014 37.6348 29.0818 37.1447 29.9768C36.9333 30.363 36.6481 30.7088 36.4027 31.0638C37.3356 31.4459 38.2984 31.8093 39.2349 32.2312C40.5503 32.8239 41.4219 33.8356 41.8813 35.2037C41.914 35.3011 41.9762 35.3886 42.0533 35.464C42.082 37.6607 42.082 39.8741 42.082 42.0873C28.082 42.0871 14.082 42.0871 0.0820313 42.0871C0.0820313 39.8963 0.0820312 37.7102 0.0820313 35.4857ZM15.5038 37.7033C15.5038 37.4301 15.4904 37.1561 15.5062 36.8839C15.5694 35.795 14.9086 34.8357 13.845 34.4125C12.3156 33.8039 10.7832 33.2026 9.24853 32.6073C9.14139 32.5657 8.99068 32.5626 8.88439 32.6039C7.34863 33.1999 5.81606 33.8042 4.28477 34.4117C3.42865 34.7513 2.77569 35.3467 2.65764 36.2624C2.51622 37.3594 2.5474 38.4787 2.50317 39.6051C6.88226 39.6051 11.1758 39.6051 15.5038 39.6051C15.5038 38.9816 15.5038 38.3834 15.5038 37.7033ZM35.6045 33.5226C34.8701 33.2342 34.1427 32.9251 33.3968 32.6704C33.1803 32.5964 32.8871 32.6162 32.6692 32.6988C31.2279 33.2458 29.7937 33.8122 28.365 34.3916C27.522 34.7335 26.8713 35.2958 26.739 36.2414C26.6494 36.8826 26.6762 37.5407 26.6622 38.1914C26.652 38.6637 26.6602 39.1363 26.6602 39.6085C31.0079 39.6085 35.2938 39.6085 39.6589 39.6085C39.6168 38.4868 39.6255 37.3844 39.5158 36.2939C39.4479 35.6193 39.0593 35.0199 38.4366 34.7169C37.5359 34.2786 36.5886 33.9364 35.6045 33.5226ZM17.362 34.1426C17.8137 35.0146 18.1099 35.9181 18.0544 36.924C18.0153 37.6318 18.0468 38.3436 18.0468 39.0535C18.0468 39.2383 18.0468 39.4231 18.0468 39.6099C20.097 39.6099 22.085 39.6099 24.1172 39.6099C24.1172 38.5833 24.0959 37.5763 24.127 36.571C24.1406 36.1332 24.2249 35.6885 24.3442 35.2658C24.4656 34.8355 24.6695 34.4285 24.8371 34.0118C24.2619 33.7899 23.699 33.5771 23.1395 33.3557C22.5665 33.129 22.0029 32.8768 21.4223 32.6726C21.2404 32.6086 21.0001 32.6134 20.8153 32.6741C20.3202 32.8369 19.8384 33.0411 19.3557 33.2396C18.6796 33.5176 18.0075 33.8053 17.362 34.1426ZM22.3459 29.464C22.8315 29.039 23.1245 28.5395 23.167 27.8625C23.2201 27.0153 23.1822 26.2363 22.5215 25.5957C21.9382 25.0303 21.261 24.8744 20.5157 25.1132C19.7398 25.3618 19.2302 25.9081 19.1231 26.7337C19.0653 27.179 19.0939 27.6389 19.1173 28.0904C19.1535 28.7867 19.5631 29.2604 20.131 29.5961C20.8643 30.0296 21.5945 29.9224 22.3459 29.464ZM32.7295 25.0303C31.8028 25.2513 31.2066 25.8091 31.0479 26.7604C30.9858 27.1328 30.9786 27.525 31.0165 27.9011C31.0901 28.6299 31.4169 29.2189 32.0816 29.594C32.7985 29.9986 33.5003 29.9616 34.1751 29.5258C35.0247 28.977 35.3862 27.6981 35.0667 26.5797C34.8127 25.6903 34.014 24.9167 32.7295 25.0303ZM7.1342 28.501C7.32251 28.7754 7.47201 29.0897 7.70579 29.3174C8.76678 30.3512 10.2888 29.8086 10.834 28.8059C11.1205 28.2792 11.0368 27.7325 11.0806 27.1853C11.1365 26.4881 10.8584 25.9621 10.3638 25.5045C9.57794 24.7776 8.17776 24.9037 7.52818 25.724C6.86209 26.5652 6.86193 27.4729 7.1342 28.501Z" fill="#DB1222"/>
<path d="M26.5397 0.091797C26.612 0.144723 26.6363 0.233425 26.6812 0.245435C28.7545 0.800623 30.0202 2.16426 30.6337 4.1822C30.6879 4.36041 30.7757 4.55482 30.7487 4.72605C30.6826 5.14531 30.9396 5.2083 31.2408 5.35045C31.8182 5.62296 32.3722 5.95554 32.9018 6.31364C33.1049 6.45097 33.2101 6.45282 33.3698 6.30362C34.2823 5.45107 35.3663 5.06724 36.6125 5.09306C38.7656 5.13767 40.4985 6.53001 40.9919 8.56695C41.4258 10.3583 41.0457 12.0686 39.8042 13.4569C38.6729 14.7218 37.4233 15.8817 36.2113 17.0731C35.2023 18.0649 34.1722 19.0351 33.117 20.048C32.4927 19.4493 31.8632 18.8539 31.243 18.2489C29.896 16.935 28.5597 15.6099 27.2054 14.3035C26.8309 13.9422 26.4087 13.6303 25.9713 13.2646C24.4392 14.7469 22.7701 16.3619 21.082 17.9952C19.3996 16.3676 17.7293 14.7517 16.1074 13.1827C13.7443 15.4905 11.4065 17.7737 9.03461 20.0901C8.28301 19.3342 7.57858 18.6134 6.86044 17.9064C5.85057 16.9123 4.85371 15.9031 3.80669 14.9493C3.10451 14.3097 2.40548 13.6784 1.90447 12.8638C1.41165 12.0625 1.13538 11.1973 1.05425 10.2485C0.969008 9.25147 1.1263 8.32706 1.61173 7.45869C2.29484 6.23668 3.32733 5.4581 4.69474 5.18692C6.24002 4.88046 7.63643 5.22183 8.81016 6.31838C8.95706 6.45562 9.07219 6.47995 9.24816 6.32212C9.80327 5.82423 10.4388 5.46078 11.1616 5.2492C11.262 5.21981 11.3839 5.06071 11.3931 4.95292C11.5761 2.79981 13.3002 0.779002 15.4158 0.253901C15.4881 0.235956 15.5524 0.185866 15.6032 0.121278C16.408 0.0917969 17.23 0.0917969 18.0735 0.121374C18.1628 0.185914 18.2302 0.222135 18.2988 0.255644C18.9087 0.553347 19.5386 0.817022 20.1217 1.16025C20.484 1.37351 20.7755 1.70708 21.1103 1.99666C21.9053 1.11816 22.8191 0.481497 23.9734 0.239607C24.003 0.233401 24.015 0.142956 24.0352 0.0917969C24.8572 0.0917969 25.6792 0.0917969 26.5397 0.091797ZM15.958 6.65682C16.6209 7.4714 17.0611 8.38634 17.0517 9.45C17.0455 10.1494 17.0971 10.7073 17.7532 11.2023C18.5634 11.8136 19.2151 12.633 19.9483 13.3491C20.3134 13.7057 20.7075 14.0325 21.0871 14.3716C21.5345 13.9624 21.9752 13.5804 22.3918 13.1736C23.0763 12.5054 23.6866 11.7446 24.4394 11.1681C25.0273 10.718 25.1466 10.2295 25.1106 9.56991C25.0677 8.78522 25.3245 8.06824 25.7125 7.38496C26.2329 6.46853 26.9765 5.82219 27.9465 5.43615C28.2044 5.3335 28.2827 5.18716 28.1865 4.94313C28.069 4.64516 27.9608 4.34059 27.811 4.05889C27.2042 2.91814 25.6804 2.33056 24.468 2.7463C23.1315 3.20464 22.4606 4.1572 22.3607 5.56619C21.5102 5.56619 20.6569 5.56619 19.7844 5.56619C19.7788 5.48303 19.7729 5.41776 19.7701 5.35236C19.7149 4.05808 18.8149 3.03277 17.6292 2.72556C15.9487 2.29016 14.399 3.25537 13.9671 4.96827C13.9076 5.20433 13.964 5.34421 14.2052 5.43087C14.8787 5.67291 15.433 6.09438 15.958 6.65682ZM29.8184 13.2988C30.9141 14.3568 32.0098 15.4147 33.0949 16.4624C33.7295 15.8686 34.3754 15.2858 34.9965 14.6777C35.9477 13.7464 36.891 12.8065 37.8199 11.853C38.4003 11.2572 38.9179 9.71317 38.3497 8.75469C38.0077 8.17764 37.1947 7.53961 36.2298 7.63804C35.6199 7.70026 34.664 8.31951 34.5263 9.05926C34.4813 9.3009 34.3873 9.53341 34.3238 9.74324C33.4737 9.74324 32.6597 9.74324 31.9342 9.74324C31.7777 9.34312 31.6762 8.97969 31.5015 8.65573C30.8029 7.36022 28.8889 7.31538 28.0175 8.50026C27.4657 9.25065 27.5461 10.6905 28.0654 11.3587C28.587 12.0298 29.2028 12.6278 29.8184 13.2988ZM8.98277 9.77148C8.60184 9.77148 8.22091 9.77148 7.82868 9.77148C7.69487 9.17124 7.56155 8.61089 7.08203 8.1846C6.49536 7.66305 5.59318 7.47733 4.86525 7.7943C3.92454 8.20391 3.54235 9.02063 3.54699 9.75488C3.55304 10.7122 3.96417 11.5483 4.6576 12.221C5.67218 13.2053 6.70235 14.1735 7.7158 15.1589C8.16593 15.5966 8.59147 16.0595 9.0316 16.5145C10.5285 15.0511 11.9879 13.6199 13.4526 12.1942C14.1867 11.4796 14.5707 10.634 14.5245 9.59306C14.4899 8.81416 14.0947 8.25655 13.4581 7.90004C12.8047 7.53417 12.0964 7.50501 11.4224 7.90334C10.7263 8.3147 10.3778 8.94903 10.3028 9.77148C9.88007 9.77148 9.47227 9.77148 8.98277 9.77148Z" fill="#DB1222"/>
</g>
<defs>
<clipPath id="clip0_899_1376">
<rect width="42" height="42" fill="white" transform="translate(0 0.00976562)"/>
</clipPath>
</defs>
</svg>
