<svg width="32" height="32" viewBox="0 0 32 32" fill="none" xmlns="http://www.w3.org/2000/svg">
<g clip-path="url(#clip0_899_1188)">
<path d="M15.5917 32.0625C15.4705 31.9402 15.3579 31.828 15.2919 31.693C15.215 31.5357 15.145 31.3609 15.1322 31.1892C15.1075 30.8579 15.1382 30.5226 15.1161 30.1909C15.1102 30.1032 15.0087 29.9664 14.9285 29.9472C13.4544 29.5962 12.4316 28.691 11.7788 27.3581C11.5218 26.8333 11.3707 26.2641 11.3732 25.6644C11.3788 24.2902 11.3781 22.9159 11.3735 21.5417C11.3716 20.9611 11.3108 20.3986 11.033 19.8621C10.7527 19.3206 10.3007 18.9683 9.83221 18.6304C8.74881 17.8488 7.8932 16.8637 7.20683 15.729C6.63767 14.788 6.19895 13.786 5.98543 12.7027C5.87375 12.1361 5.79144 11.5589 5.75712 10.9828C5.68126 9.70933 5.79319 8.45069 6.18747 7.22828C6.6127 5.9099 7.27294 4.7282 8.16851 3.66436C9.15735 2.48973 10.3512 1.59647 11.7287 0.948111C12.5577 0.557911 13.4328 0.290925 14.3499 0.183753C14.394 0.178601 14.4334 0.133704 14.4563 0.0849082C15.5013 0.0625002 16.5651 0.0625002 17.6582 0.0625C17.7179 0.1039 17.744 0.177278 17.7794 0.182065C18.9203 0.336386 19.9925 0.710623 20.9816 1.28223C21.6344 1.65952 22.2548 2.10489 22.8452 2.57555C24.0528 3.53815 24.8915 4.79253 25.5248 6.18546C25.8789 6.96435 26.1681 7.77507 26.2422 8.63255C26.3193 9.52508 26.4023 10.4266 26.3569 11.3177C26.3046 12.3438 26.0326 13.3382 25.6335 14.2978C25.2274 15.2744 24.6994 16.173 24.0347 16.9876C23.4634 17.6878 22.7804 18.2737 22.0573 18.8185C21.3574 19.3458 20.84 20.0147 20.817 20.9372C20.7794 22.4419 20.7328 23.948 20.7592 25.4524C20.7955 27.5263 19.2097 29.5109 17.2153 29.9356C17.041 29.9727 16.9878 30.0592 16.9963 30.2319C17.01 30.5124 16.9726 30.7975 17.0063 31.0746C17.0592 31.5111 16.8248 31.779 16.5445 32.0442C16.2486 32.0625 15.9347 32.0625 15.5917 32.0625ZM8.74946 6.2196C8.14684 7.24265 7.77972 8.35505 7.70569 9.52933C7.65355 10.3563 7.71562 11.2015 7.82739 12.0249C7.95674 12.9776 8.36287 13.8562 8.84658 14.6814C9.51406 15.82 10.4752 16.692 11.5164 17.4843C12.5456 18.2674 13.0949 19.3274 13.2766 20.6109C15.1254 20.6109 16.9861 20.6109 18.8628 20.6109C19.0185 19.4471 19.5342 18.4587 20.3836 17.6575C20.7367 17.3245 21.1613 17.0686 21.5266 16.7472C22.504 15.8876 23.2848 14.8722 23.7882 13.6678C24.1551 12.79 24.4277 11.878 24.4331 10.9142C24.4363 10.3467 24.4374 9.77347 24.3631 9.21294C24.291 8.66826 24.1621 8.12267 23.9857 7.60206C23.6737 6.68166 23.2052 5.83948 22.5718 5.09211C21.9921 4.40804 21.3565 3.79083 20.5961 3.30799C19.7328 2.75979 18.8126 2.34224 17.8044 2.15759C17.2249 2.05147 16.6354 1.97787 16.0475 1.94873C15.6757 1.9303 15.2991 2.02765 14.9236 2.06101C14.0916 2.13494 13.3078 2.37952 12.5542 2.72672C11.825 3.06268 11.1702 3.50748 10.5537 4.02718C9.82515 4.64136 9.25278 5.36778 8.74946 6.2196ZM18.4641 24.375C18.5957 24.375 18.7273 24.375 18.8584 24.375C18.8584 23.7542 18.8584 23.1664 18.8584 22.5791C16.9833 22.5791 15.1248 22.5791 13.2667 22.5791C13.2667 23.1836 13.2667 23.7714 13.2667 24.375C14.9897 24.375 16.6961 24.375 18.4641 24.375ZM13.8767 27.0825C14.4673 27.7585 15.1769 28.1221 16.1085 28.1409C17.1694 28.1624 18.3516 27.3129 18.6547 26.325C16.9263 26.325 15.1969 26.325 13.4126 26.325C13.5804 26.5846 13.7265 26.8107 13.8767 27.0825Z" fill="white"/>
<path d="M1.47065 0.0625C1.56467 0.125158 1.61904 0.208609 1.69594 0.247351C2.82662 0.817009 3.952 1.39828 5.09651 1.93897C5.7398 2.24287 5.8641 3.02971 5.50367 3.49235C5.29608 3.7588 4.73737 3.96034 4.39455 3.79208C3.07819 3.14601 1.77293 2.47712 0.469698 1.80477C0.325801 1.73053 0.22154 1.57947 0.0806105 1.48202C0.0623248 1.18612 0.0623248 0.872238 0.0805972 0.547154C0.232521 0.378134 0.366173 0.220317 0.499825 0.0625C0.813706 0.0625 1.12759 0.0625 1.47065 0.0625Z" fill="white"/>
<path d="M32.0624 1.47077C31.9483 1.5855 31.8431 1.68748 31.7188 1.7538C31.1253 2.07056 30.5286 2.38173 29.9291 2.68708C29.2488 3.03355 28.568 3.3794 27.8802 3.71056C27.488 3.89941 27.0879 3.8891 26.731 3.62024C26.3156 3.30733 26.2901 2.38677 26.7643 2.12969C27.6471 1.65122 28.5497 1.20952 29.442 0.74863C29.8508 0.537473 30.2549 0.317125 30.643 0.081698C30.9387 0.0624511 31.2526 0.0624511 31.5777 0.0807238C31.7467 0.232648 31.9045 0.366299 32.0624 0.499951C32.0624 0.813832 32.0624 1.12771 32.0624 1.47077Z" fill="white"/>
<path d="M0.0625 19.3417C0.176656 19.2269 0.281902 19.1244 0.406462 19.0584C1.05481 18.7148 1.7067 18.3777 2.36003 18.0437C2.99585 17.7185 3.63231 17.3945 4.2734 17.0799C4.73243 16.8547 5.27377 16.9826 5.5213 17.3581C5.86701 17.8824 5.74009 18.5245 5.18449 18.8085C3.93072 19.4492 2.66807 20.0728 1.40385 20.6928C0.992708 20.8945 0.487073 20.7445 0.216701 20.3773C0.186897 20.3368 0.138781 20.3098 0.0808286 20.2946C0.0625001 19.9987 0.0625001 19.6848 0.0625 19.3417Z" fill="white"/>
<path d="M32.0624 20.2833C31.9401 20.4045 31.8149 20.4928 31.6961 20.5892C31.3773 20.8477 31.0023 20.8291 30.6831 20.6765C29.44 20.0821 28.2265 19.4253 26.9793 18.84C26.2631 18.5038 26.2448 17.425 26.8865 17.0858C27.1816 16.9299 27.5025 16.9144 27.8036 17.0636C29.0475 17.6798 30.2893 18.3003 31.524 18.9346C31.7124 19.0314 31.8596 19.2085 32.0441 19.3304C32.0624 19.6263 32.0624 19.9402 32.0624 20.2833Z" fill="white"/>
<path d="M0.0625 9.96664C0.148583 9.86245 0.223238 9.76145 0.323014 9.71757C0.567231 9.61018 0.820987 9.45862 1.0746 9.4512C1.7444 9.43163 2.41714 9.46368 3.0868 9.50558C3.50896 9.53199 3.7944 9.9049 3.81721 10.3312C3.83842 10.7276 3.757 11.0619 3.38669 11.2623C3.27595 11.3222 3.14226 11.3675 3.01808 11.37C2.45586 11.3813 1.89205 11.3519 1.33121 11.3819C0.83535 11.4084 0.39732 11.3517 0.0808287 10.9195C0.0625 10.6236 0.0625 10.3097 0.0625 9.96664Z" fill="white"/>
<path d="M32.0623 10.9083C31.9322 11.0364 31.8111 11.1518 31.6693 11.2295C31.5418 11.2994 31.3924 11.3658 31.2515 11.3686C30.5435 11.3825 29.835 11.3762 29.1268 11.3745C28.6799 11.3734 28.345 11.0104 28.3063 10.5709C28.2346 9.75739 28.7683 9.46049 29.437 9.43978C29.8428 9.4272 30.2496 9.44672 30.6555 9.43517C31.192 9.41991 31.6872 9.49264 32.044 9.95545C32.0623 10.2513 32.0623 10.5652 32.0623 10.9083Z" fill="white"/>
<path d="M14.4778 12.6331C14.8874 12.5921 15.2206 12.6591 15.5085 12.9629C15.7128 13.1784 16.2634 13.1849 16.4909 13.042C16.8532 12.8144 17.0317 12.4448 16.931 12.0241C16.8443 11.6618 16.6026 11.4335 16.217 11.3729C15.8803 11.3201 15.5402 11.2739 15.2119 11.1863C14.1236 10.896 13.5284 10.1187 13.2643 9.07897C12.9475 7.83193 13.7545 6.33588 14.9376 5.86917C15.0195 5.83685 15.1102 5.71114 15.1164 5.62323C15.1381 5.31241 15.141 4.99812 15.1213 4.68704C15.0861 4.13246 15.5724 3.76028 16.0696 3.76819C16.6045 3.7767 17.0442 4.17476 17.005 4.70217C16.9781 5.06409 16.9999 5.42962 16.9999 5.72215C17.3651 5.97319 17.7234 6.15788 18.003 6.42493C18.5302 6.92842 18.4554 7.42721 18.0789 7.87238C17.8013 8.20063 17.1057 8.25054 16.6737 7.84908C16.2615 7.46605 15.8789 7.50699 15.4586 7.83114C15.1272 8.0867 15.0738 8.72193 15.3423 9.0568C15.5842 9.3585 15.9475 9.41287 16.3014 9.43369C17.4162 9.49926 18.1812 10.0844 18.6417 11.0572C19.1443 12.1189 18.9258 13.4986 18.0299 14.3035C17.7852 14.5234 17.502 14.721 17.2029 14.8523C17.025 14.9304 16.9968 15.0082 16.9987 15.1623C17.0026 15.4641 17.0001 15.7661 16.9998 16.068C16.9993 16.6298 16.6566 16.9376 16.0322 16.9375C15.4662 16.9374 15.1254 16.6117 15.1249 16.0701C15.1246 15.7682 15.1218 15.4662 15.1261 15.1644C15.1284 15.0103 15.1032 14.9316 14.923 14.8546C14.5262 14.6851 14.1503 14.4629 13.9072 14.0698C13.5742 13.5312 13.8293 12.8338 14.4778 12.6331Z" fill="white"/>
</g>
<defs>
<clipPath id="clip0_899_1188">
<rect width="32" height="32" fill="white"/>
</clipPath>
</defs>
</svg>
