<svg width="42" height="42" viewBox="0 0 42 42" fill="none" xmlns="http://www.w3.org/2000/svg">
<g clip-path="url(#clip0_899_1132)">
<path d="M42 17.3741C42 19.4266 42 21.4791 41.98 23.5424C41.6019 24.0633 41.118 24.2601 40.4971 24.1894C40.1646 24.1515 39.8243 24.1827 39.457 24.1827C39.457 24.3976 39.457 24.5591 39.457 24.7207C39.457 30.2296 39.4595 35.7385 39.448 41.2474C39.4476 41.4712 39.3389 41.7062 39.2373 41.915C39.1519 42.0905 39.0034 42.2352 38.8828 42.3936C36.8303 42.3936 34.7778 42.3936 32.7146 42.3737C32.1688 41.9896 32.0164 41.4827 32.064 40.8513C32.1108 40.2313 32.0742 39.6051 32.0742 38.9752C24.6677 38.9752 17.3129 38.9752 9.92578 38.9752C9.92578 39.7642 9.9385 40.5271 9.9172 41.2891C9.9116 41.4898 9.82635 41.7009 9.73133 41.883C9.63446 42.0687 9.48052 42.2246 9.35156 42.3936C7.29907 42.3936 5.24657 42.3936 3.18336 42.3737C2.57424 41.9623 2.53045 41.3815 2.53268 40.7279C2.55095 35.383 2.54297 30.038 2.54297 24.693C2.54297 24.534 2.54297 24.375 2.54297 24.1826C2.01591 24.1826 1.53306 24.2317 1.06693 24.1646C0.778758 24.1231 0.514893 23.9071 0.242526 23.7648C0.157629 23.7204 0.0806197 23.661 0 23.6084C0 21.5559 -1.22236e-09 19.5035 0.0200331 17.4401C0.468872 16.7555 1.13727 16.7371 1.8064 16.8094C1.8064 16.056 1.76103 15.3318 1.82568 14.6176C1.85766 14.2642 2.06708 13.94 1.77353 13.5977C1.70178 13.5141 1.72475 13.3389 1.7245 13.2058C1.72165 11.6338 1.71886 10.0618 1.72547 8.48985C1.72703 8.11897 1.64044 7.73151 1.93441 7.40129C1.99545 7.33271 1.94887 7.13955 1.91114 7.01627C1.51595 5.72499 1.62341 4.50181 2.47259 3.42065C3.13219 2.58087 3.99752 2.04256 5.099 2.03891C8.80336 2.02662 12.5078 2.03378 16.2122 2.03469C16.8471 2.03484 17.3074 2.49134 17.308 3.12174C17.3097 4.72105 17.3115 6.32038 17.3063 7.91968C17.3052 8.278 17.3826 8.65 17.0986 8.96748C17.0369 9.03654 17.0804 9.22971 17.1179 9.35278C17.3807 10.2156 17.4118 11.073 17.1239 11.9388C17.0784 12.0756 17.1091 12.2474 17.1375 12.3967C17.1789 12.6148 17.2972 12.8264 17.3006 13.0421C17.3179 14.1353 17.3086 15.229 17.3086 16.3226C17.3086 16.4686 17.3086 16.6147 17.3086 16.7696C18.1516 16.7696 18.948 16.7696 19.8066 16.7696C19.4448 13.6068 20.6338 11.2712 23.4731 9.83823C21.7958 7.18543 22.8182 4.39853 24.3697 3.13592C26.0181 1.79445 28.3576 1.59095 30.302 2.7949C31.2178 3.36194 31.8844 4.20973 32.2214 5.23792C32.7472 6.84235 32.5996 8.3983 31.6207 9.82814C34.5238 11.286 35.6704 13.6455 35.3232 16.7999C35.5547 16.7999 35.7023 16.7999 35.8499 16.7999C37.5312 16.7999 39.2126 16.7937 40.8938 16.8081C41.0937 16.8098 41.306 16.8985 41.4883 16.9934C41.6744 17.0904 41.8307 17.2448 42 17.3741ZM11.9355 36.4873C19.0845 36.4874 26.2334 36.4893 33.3823 36.4827C33.8157 36.4823 34.1409 36.6401 34.3464 37.0044C34.4465 37.182 34.5215 37.399 34.5268 37.6004C34.5474 38.372 34.5351 39.1446 34.5351 39.9059C35.3905 39.9059 36.1773 39.9059 36.9632 39.9059C36.9632 34.6537 36.9632 29.4283 36.9632 24.206C26.3014 24.206 15.6723 24.206 5.03336 24.206C5.03336 29.4548 5.03336 34.6801 5.03336 39.9106C5.8497 39.9106 6.6364 39.9106 7.46486 39.9106C7.46486 39.1138 7.46297 38.3384 7.46547 37.563C7.46742 36.9566 7.92945 36.4897 8.53192 36.4882C9.63911 36.4854 10.7463 36.4874 11.9355 36.4873ZM15.1348 19.2608C10.9171 19.2608 6.69952 19.2608 2.48609 19.2608C2.48609 20.1127 2.48609 20.8996 2.48609 21.6893C14.8468 21.6893 27.1823 21.6893 39.5139 21.6893C39.5139 20.8698 39.5139 20.0829 39.5139 19.2608C31.3981 19.2608 23.3075 19.2608 15.1348 19.2608ZM23.1704 13.1934C22.263 14.2303 22.1923 15.4764 22.2432 16.7709C25.8078 16.7709 29.3372 16.7709 32.9691 16.7709C32.8709 15.9854 32.8845 15.2066 32.6631 14.5016C32.1404 12.8375 30.8376 11.9299 28.9107 11.8871C27.851 11.8636 26.7895 11.9433 25.7285 11.956C24.7004 11.9682 23.9007 12.4365 23.1704 13.1934ZM8.4082 16.7999C10.5454 16.7999 12.6826 16.7999 14.8128 16.7999C14.8128 15.9459 14.8128 15.1501 14.8128 14.3389C14.6147 14.3389 14.4513 14.3389 14.2879 14.3389C11.5578 14.3389 8.8276 14.3361 6.09747 14.3426C5.77533 14.3434 5.44118 14.35 5.1336 14.4323C4.33213 14.6469 4.03088 15.4969 4.40491 16.1544C4.70164 16.676 5.21264 16.7841 5.74628 16.7951C6.60591 16.8128 7.46618 16.7998 8.4082 16.7999ZM14.1781 9.61264C13.8511 9.54744 13.5245 9.42735 13.1972 9.42564C10.3422 9.41075 7.48704 9.41704 4.63192 9.41704C4.48874 9.41704 4.34556 9.41704 4.20895 9.41704C4.20895 10.2703 4.20895 11.0568 4.20895 11.878C4.39493 11.878 4.55595 11.878 4.71697 11.878C7.44914 11.878 10.1813 11.8803 12.9135 11.8745C13.1947 11.8739 13.4776 11.8365 13.7566 11.795C14.2483 11.7217 14.6886 11.3404 14.7623 10.9445C14.8641 10.3976 14.6813 9.96115 14.1781 9.61264ZM13.33 4.49516C10.9002 4.49516 8.47033 4.49213 6.04051 4.49894C5.73202 4.49981 5.41038 4.50582 5.11783 4.58968C4.33211 4.81492 4.02325 5.66544 4.4153 6.32253C4.72188 6.83637 5.22729 6.95071 5.76222 6.9522C8.66981 6.96034 11.5774 6.95637 14.485 6.95491C14.6014 6.95485 14.7177 6.93797 14.8217 6.92989C14.8217 6.1008 14.8217 5.31473 14.8217 4.49516C14.3348 4.49516 13.8734 4.49516 13.33 4.49516ZM29.1145 5.10721C28.9997 5.03943 28.8837 4.97352 28.7702 4.90358C27.9549 4.40108 27.1005 4.41786 26.3211 4.89714C24.7538 5.86089 24.7647 8.00295 26.31 8.99616C27.3129 9.64076 28.6475 9.41242 29.3804 8.52636C30.26 7.46282 30.1471 6.13564 29.1145 5.10721Z" fill="#DB1222"/>
<path d="M37.7781 0.0917969C37.9459 0.261685 38.0822 0.426818 38.2035 0.602342C38.5843 1.15344 38.459 1.98395 37.8961 2.34286C37.1499 2.81862 36.4011 3.3054 35.6027 3.67909C34.9985 3.96188 34.2863 3.86448 33.8942 3.16497C33.5989 2.63813 33.7894 1.83084 34.3324 1.49126C35.0141 1.06494 35.7164 0.671631 36.4083 0.26161C36.4643 0.228455 36.509 0.17627 36.5314 0.112362C36.9159 0.0917965 37.3279 0.0917965 37.7781 0.0917969Z" fill="#DB1222"/>
<path d="M38.8544 5.90388C39.6431 6.44806 39.818 7.18561 39.2823 7.86851C39.116 8.08047 38.7818 8.26216 38.5153 8.27576C37.5627 8.32434 36.6061 8.29809 35.651 8.29348C35.1084 8.29087 34.6503 7.80819 34.6114 7.27103C34.5702 6.702 34.6976 6.2313 35.2251 5.93953C35.3269 5.88322 35.4514 5.8395 35.5658 5.8387C36.6026 5.8314 37.6396 5.83416 38.6766 5.83769C38.7254 5.83786 38.7742 5.87307 38.8544 5.90388Z" fill="#DB1222"/>
<path d="M22.0492 33.6436C20.5695 33.9368 19.0695 33.5839 18.0608 32.2335C16.9904 30.8006 17.1735 28.4913 18.53 27.298C19.2276 26.6844 20.018 26.3428 20.9813 26.326C22.0962 26.3065 23.0263 26.6594 23.7794 27.4503C24.4307 28.1343 24.7694 28.9464 24.7893 29.9253C24.8125 31.0724 24.4512 32.0392 23.6052 32.7721C23.172 33.1473 22.5959 33.3576 22.0492 33.6436ZM19.9526 30.4137C20.2165 30.9099 20.5716 31.2418 21.1916 31.187C21.6074 31.1503 22.0867 30.8085 22.2141 30.4009C22.3418 29.9925 22.1658 29.3836 21.8502 29.1423C21.4726 28.8534 20.8602 28.7896 20.5219 28.9968C20.0092 29.3109 19.8604 29.7791 19.9526 30.4137Z" fill="#DB1222"/>
</g>
<defs>
<clipPath id="clip0_899_1132">
<rect width="42" height="42" fill="white" transform="translate(0 0.00976562)"/>
</clipPath>
</defs>
</svg>
