<svg width="32" height="32" viewBox="0 0 32 32" fill="none" xmlns="http://www.w3.org/2000/svg">
<g clip-path="url(#clip0_899_1174)">
<path d="M15.3125 28.0625C11.8444 28.0625 8.40744 28.0696 4.97057 28.0586C3.80072 28.0548 2.96152 27.4633 2.38912 26.4715C2.14689 26.0517 2.0559 25.5968 2.05665 25.1042C2.06571 19.074 2.06788 13.0437 2.05768 7.01352C2.05582 5.9119 2.5506 5.10309 3.4252 4.50804C3.87021 4.20526 4.37797 4.05376 4.93606 4.05757C6.83149 4.07049 8.72711 4.07159 10.6225 4.05807C11.39 4.05259 12.0378 4.32113 12.6302 4.78362C13.7257 5.63874 14.828 6.48505 15.9273 7.33522C16.1118 7.47787 16.3014 7.61455 16.4781 7.7663C16.7589 8.00746 17.0953 8.0603 17.4434 8.06083C19.6305 8.06414 21.8177 8.05663 24.0048 8.06532C24.9089 8.06892 26.002 8.84976 26.3918 9.69911C26.6326 10.2237 26.7002 10.7425 26.6899 11.2976C26.6792 11.8778 26.6875 12.4583 26.6875 13.0041C27.1484 13.0677 27.5927 13.0797 28.0079 13.1956C29.2018 13.5291 30.0763 14.7568 30.0757 16.0025C30.0753 16.8938 29.7177 17.6748 29.4674 18.4877C28.8571 20.4695 28.2067 22.4389 27.5693 24.4123C27.3418 25.1165 27.1912 25.8628 26.8523 26.5096C26.3483 27.4714 25.5132 28.0576 24.3732 28.0602C21.3634 28.067 18.3536 28.0625 15.3125 28.0625ZM9.71879 26.0625C12.2596 26.0625 14.8003 26.0625 17.3411 26.0625C19.5382 26.0625 21.7354 26.0725 23.9324 26.0572C24.7131 26.0517 25.0251 25.8316 25.251 25.1067C25.7249 23.5864 26.2073 22.0687 26.6868 20.5502C27.1243 19.165 27.5626 17.78 28.0005 16.395C28.1278 15.992 27.9583 15.5582 27.6217 15.3073C27.3304 15.0902 27.0012 15.0669 26.6702 15.066C24.1815 15.0596 21.6928 15.0625 19.2041 15.0625C15.8199 15.0625 12.4357 15.0597 9.05152 15.065C8.42305 15.066 7.8874 15.2683 7.74305 16.0219C7.70002 16.2465 7.60704 16.4617 7.53669 16.6811C6.96491 18.4645 6.39071 20.2472 5.82203 22.0316C5.41817 23.2988 5.02173 24.5685 4.60154 25.9019C4.9261 25.9579 5.22894 26.0518 5.53286 26.0554C6.90717 26.0717 8.28179 26.0625 9.71879 26.0625ZM6.15634 6.0625C5.87521 6.0625 5.5938 6.05453 5.31298 6.06396C4.38227 6.09521 4.0742 6.54774 4.07119 7.27325C4.05357 11.5215 4.0624 15.7698 4.0642 20.0181C4.06423 20.076 4.08893 20.1338 4.10211 20.1916C4.53989 18.9672 4.9217 17.7462 5.31421 16.5286C5.57442 15.7214 5.71282 14.8559 6.25803 14.1727C6.79186 13.5038 7.49427 13.0695 8.37292 13.0678C13.6729 13.0572 18.9728 13.0625 24.2728 13.0625C24.3839 13.0625 24.4949 13.0625 24.625 13.0625C24.625 12.3788 24.6397 11.7245 24.6197 11.0713C24.6068 10.6512 24.4341 10.2996 23.9989 10.16C23.8188 10.1023 23.623 10.0671 23.4342 10.0665C21.2684 10.0602 19.1026 10.0597 16.9368 10.0642C16.2918 10.0656 15.7374 9.82999 15.2346 9.45156C14.7085 9.0555 14.1872 8.65278 13.6681 8.24746C13.0514 7.76593 12.4277 7.29236 11.8286 6.78959C11.2756 6.32546 10.6997 6.02106 9.93561 6.04992C8.69829 6.09666 7.45791 6.0625 6.15634 6.0625Z" fill="white"/>
</g>
<defs>
<clipPath id="clip0_899_1174">
<rect width="32" height="32" fill="white"/>
</clipPath>
</defs>
</svg>
