<svg width="50" height="50" viewBox="0 0 50 50" fill="none" xmlns="http://www.w3.org/2000/svg">
<g clip-path="url(#clip0_899_1125)">
<path d="M2.14845 14.8535C2.14846 13.9421 2.12598 13.0789 2.15283 12.2172C2.2238 9.93902 2.95715 7.90207 4.38736 6.11254C5.43227 4.8051 6.69675 3.78613 8.21126 3.08385C9.45813 2.50567 10.776 2.16643 12.1507 2.16446C20.7759 2.15206 29.4012 2.13893 38.0263 2.17124C40.2861 2.17971 42.3095 2.97318 44.087 4.39153C45.3962 5.43624 46.4156 6.70463 47.1167 8.21773C47.6865 9.44733 48.0375 10.7509 48.0397 12.1096C48.0538 20.7022 48.0564 29.2949 48.0405 37.8875C48.0362 40.1855 47.2773 42.243 45.8524 44.0495C44.1827 46.1663 42.0107 47.4542 39.3669 47.9454C38.9577 48.0215 38.5344 48.0518 38.1176 48.0521C29.5412 48.0581 20.9649 48.0613 12.3885 48.0535C10.0852 48.0514 8.01867 47.3148 6.20412 45.9041C4.04867 44.2283 2.73553 42.0308 2.25963 39.3428C2.18138 38.9008 2.15333 38.4447 2.15296 37.995C2.1467 30.2974 2.14846 22.5999 2.14845 14.8535ZM25.0489 43.8574C29.3869 43.8248 33.7251 43.8006 38.063 43.7551C39.5259 43.7398 40.7456 43.0929 41.8032 42.1349C43.2926 40.7856 43.8395 39.0298 43.8434 37.0821C43.8552 31.1924 43.8477 25.3027 43.8477 19.413C43.8477 19.2404 43.8477 19.0677 43.8477 18.8929C31.3155 18.8929 18.8473 18.8929 6.34768 18.8929C6.34768 19.1215 6.34768 19.3147 6.34768 19.5078C6.34768 25.2186 6.34063 30.9293 6.35344 36.64C6.3561 37.8259 6.41424 39.0151 6.93761 40.119C7.61435 41.5464 8.65011 42.6113 10.097 43.271C11.1919 43.7702 12.3561 43.8516 13.5297 43.8542C17.3369 43.8627 21.144 43.8574 25.0489 43.8574ZM30.9082 6.35737C25.0494 6.35737 19.1906 6.35471 13.3319 6.36174C12.7843 6.3624 12.2254 6.36486 11.6913 6.468C9.27281 6.93506 7.54675 8.28158 6.75477 10.646C6.49515 11.4211 6.44852 12.2738 6.35802 13.0969C6.30225 13.6042 6.34769 14.1226 6.34769 14.6295C18.884 14.6295 31.3433 14.6295 43.8798 14.6295C43.8335 13.6163 43.8878 12.618 43.7236 11.657C43.3578 9.5158 42.1408 7.94973 40.1961 6.97351C39.2598 6.50346 38.2303 6.38539 37.2063 6.36789C35.14 6.3326 33.0727 6.35737 30.9082 6.35737Z" fill="#DB1222"/>
<path d="M13.9589 25.1628C15.0708 24.8755 15.8952 25.2754 16.6386 26.0579C17.7925 27.2726 19.0023 28.4341 20.186 29.6205C21.2798 30.7168 21.2801 31.9972 20.1871 33.0922C18.8882 34.3935 17.5976 35.7035 16.2818 36.9875C15.6319 37.6217 14.844 37.8607 13.9557 37.5472C13.0304 37.2208 12.5721 36.4915 12.5232 35.5686C12.4901 34.9436 12.7609 34.3536 13.233 33.8909C14.069 33.0713 14.8996 32.2462 15.7763 31.3802C15.1848 30.7818 14.6184 30.2096 14.0528 29.6365C13.699 29.2781 13.2981 28.954 13.0024 28.5525C12.0918 27.3163 12.5766 25.6486 13.9589 25.1628Z" fill="#DB1222"/>
<path d="M37.1831 34.2118C37.7402 34.8795 37.7369 35.6323 37.48 36.3346C37.1832 37.1457 36.5433 37.6097 35.6285 37.6086C32.765 37.6054 29.9016 37.6085 27.0382 37.6069C25.9375 37.6063 25.1715 36.7534 25.0798 35.6515C24.9628 34.2449 26.1785 33.3693 27.3487 33.3915C30.0973 33.4437 32.8475 33.4032 35.597 33.4121C36.2323 33.4141 36.7689 33.6622 37.1831 34.2118Z" fill="#DB1222"/>
</g>
<defs>
<clipPath id="clip0_899_1125">
<rect width="50" height="50" fill="white" transform="translate(0 0.00976562)"/>
</clipPath>
</defs>
</svg>
