<svg width="72" height="73" viewBox="0 0 72 73" fill="none" xmlns="http://www.w3.org/2000/svg">
<path d="M18 22.7V27.5C18 28.35 17.712 29.063 17.136 29.639C16.56 30.215 15.848 30.502 15 30.5C14.152 30.498 13.44 30.21 12.864 29.636C12.288 29.062 12 28.35 12 27.5V15.5C12 14.65 12.288 13.938 12.864 13.364C13.44 12.79 14.152 12.502 15 12.5H27C27.85 12.5 28.563 12.788 29.139 13.364C29.715 13.94 30.002 14.652 30 15.5C29.998 16.348 29.71 17.061 29.136 17.639C28.562 18.217 27.85 18.504 27 18.5H22.2L37.275 33.575C37.825 34.125 38.25 34.763 38.55 35.489C38.85 36.215 39 36.977 39 37.775V57.5C39 58.35 38.713 59.063 38.139 59.639C37.565 60.215 36.852 60.502 36 60.5C35.148 60.498 34.436 60.21 33.864 59.636C33.292 59.062 33.004 58.35 33 57.5V37.7L18 22.7ZM54 22.7L46.65 30.125C46.05 30.725 45.338 31.025 44.514 31.025C43.69 31.025 42.977 30.725 42.375 30.125C41.773 29.525 41.473 28.8 41.475 27.95C41.477 27.1 41.777 26.375 42.375 25.775L49.8 18.5H45C44.15 18.5 43.438 18.212 42.864 17.636C42.29 17.06 42.002 16.348 42 15.5C41.998 14.652 42.286 13.94 42.864 13.364C43.442 12.788 44.154 12.5 45 12.5H57C57.85 12.5 58.563 12.788 59.139 13.364C59.715 13.94 60.002 14.652 60 15.5V27.5C60 28.35 59.712 29.063 59.136 29.639C58.56 30.215 57.848 30.502 57 30.5C56.152 30.498 55.44 30.21 54.864 29.636C54.288 29.062 54 28.35 54 27.5V22.7Z" fill="#DB1222"/>
</svg>
