<svg width="65" height="65" viewBox="0 0 65 65" fill="none" xmlns="http://www.w3.org/2000/svg">
<path d="M45.5384 37.8333C46.2457 37.8333 46.9239 37.5524 47.424 37.0523C47.9241 36.5522 48.2051 35.8739 48.2051 35.1667C48.2051 34.4594 47.9241 33.7811 47.424 33.281C46.9239 32.781 46.2457 32.5 45.5384 32.5C44.8312 32.5 44.1529 32.781 43.6528 33.281C43.1527 33.7811 42.8717 34.4594 42.8717 35.1667C42.8717 35.8739 43.1527 36.5522 43.6528 37.0523C44.1529 37.5524 44.8312 37.8333 45.5384 37.8333ZM45.5384 48.5C46.2457 48.5 46.9239 48.2191 47.424 47.719C47.9241 47.2189 48.2051 46.5406 48.2051 45.8333C48.2051 45.1261 47.9241 44.4478 47.424 43.9477C46.9239 43.4476 46.2457 43.1667 45.5384 43.1667C44.8312 43.1667 44.1529 43.4476 43.6528 43.9477C43.1527 44.4478 42.8717 45.1261 42.8717 45.8333C42.8717 46.5406 43.1527 47.2189 43.6528 47.719C44.1529 48.2191 44.8312 48.5 45.5384 48.5ZM34.8717 35.1667C34.8717 35.8739 34.5908 36.5522 34.0907 37.0523C33.5906 37.5524 32.9123 37.8333 32.2051 37.8333C31.4978 37.8333 30.8196 37.5524 30.3195 37.0523C29.8194 36.5522 29.5384 35.8739 29.5384 35.1667C29.5384 34.4594 29.8194 33.7811 30.3195 33.281C30.8196 32.781 31.4978 32.5 32.2051 32.5C32.9123 32.5 33.5906 32.781 34.0907 33.281C34.5908 33.7811 34.8717 34.4594 34.8717 35.1667ZM34.8717 45.8333C34.8717 46.5406 34.5908 47.2189 34.0907 47.719C33.5906 48.2191 32.9123 48.5 32.2051 48.5C31.4978 48.5 30.8196 48.2191 30.3195 47.719C29.8194 47.2189 29.5384 46.5406 29.5384 45.8333C29.5384 45.1261 29.8194 44.4478 30.3195 43.9477C30.8196 43.4476 31.4978 43.1667 32.2051 43.1667C32.9123 43.1667 33.5906 43.4476 34.0907 43.9477C34.5908 44.4478 34.8717 45.1261 34.8717 45.8333ZM18.8717 37.8333C19.579 37.8333 20.2573 37.5524 20.7574 37.0523C21.2575 36.5522 21.5384 35.8739 21.5384 35.1667C21.5384 34.4594 21.2575 33.7811 20.7574 33.281C20.2573 32.781 19.579 32.5 18.8717 32.5C18.1645 32.5 17.4862 32.781 16.9861 33.281C16.486 33.7811 16.2051 34.4594 16.2051 35.1667C16.2051 35.8739 16.486 36.5522 16.9861 37.0523C17.4862 37.5524 18.1645 37.8333 18.8717 37.8333ZM18.8717 48.5C19.579 48.5 20.2573 48.2191 20.7574 47.719C21.2575 47.2189 21.5384 46.5406 21.5384 45.8333C21.5384 45.1261 21.2575 44.4478 20.7574 43.9477C20.2573 43.4476 19.579 43.1667 18.8717 43.1667C18.1645 43.1667 17.4862 43.4476 16.9861 43.9477C16.486 44.4478 16.2051 45.1261 16.2051 45.8333C16.2051 46.5406 16.486 47.2189 16.9861 47.719C17.4862 48.2191 18.1645 48.5 18.8717 48.5Z" fill="#DB1222"/>
<path fill-rule="evenodd" clip-rule="evenodd" d="M18.8717 5.1665C19.4021 5.1665 19.9108 5.37722 20.2859 5.75229C20.661 6.12736 20.8717 6.63607 20.8717 7.1665V9.20117C22.637 9.1665 24.581 9.1665 26.7197 9.1665H37.6877C39.829 9.1665 41.773 9.1665 43.5383 9.20117V7.1665C43.5383 6.63607 43.7491 6.12736 44.1241 5.75229C44.4992 5.37722 45.0079 5.1665 45.5383 5.1665C46.0688 5.1665 46.5775 5.37722 46.9526 5.75229C47.3276 6.12736 47.5384 6.63607 47.5384 7.1665V9.37184C48.2317 9.42517 48.8886 9.49273 49.509 9.5745C52.6343 9.99584 55.165 10.8812 57.1623 12.8758C59.157 14.8732 60.0424 17.4038 60.4637 20.5292C60.8717 23.5692 60.8717 27.4492 60.8717 32.3505V37.9825C60.8717 42.8838 60.8717 46.7665 60.4637 49.8038C60.0424 52.9292 59.157 55.4598 57.1623 57.4572C55.165 59.4518 52.6343 60.3372 49.509 60.7585C46.469 61.1665 42.589 61.1665 37.6877 61.1665H26.725C21.8237 61.1665 17.941 61.1665 14.9037 60.7585C11.7783 60.3372 9.24768 59.4518 7.25035 57.4572C5.25568 55.4598 4.37035 52.9292 3.94902 49.8038C3.54102 46.7638 3.54102 42.8838 3.54102 37.9825V32.3505C3.54102 27.4492 3.54102 23.5665 3.94902 20.5292C4.37035 17.4038 5.25568 14.8732 7.25035 12.8758C9.24768 10.8812 11.7783 9.99584 14.9037 9.5745C15.5259 9.49273 16.1828 9.42517 16.8743 9.37184V7.1665C16.8743 6.63653 17.0847 6.12823 17.4592 5.75323C17.8337 5.37824 18.3417 5.16721 18.8717 5.1665ZM15.4317 13.5398C12.7517 13.8998 11.205 14.5772 10.077 15.7052C8.94901 16.8332 8.27168 18.3798 7.91168 21.0598C7.85124 21.5132 7.79968 21.9923 7.75702 22.4972H56.653C56.6103 21.9923 56.5588 21.5123 56.4984 21.0572C56.1384 18.3772 55.461 16.8305 54.333 15.7025C53.205 14.5745 51.6584 13.8972 48.9757 13.5372C46.237 13.1692 42.6237 13.1638 37.5383 13.1638H26.8717C21.7863 13.1638 18.1757 13.1718 15.4317 13.5398ZM7.53835 32.4998C7.53835 30.2225 7.53835 28.2412 7.57302 26.4998H56.837C56.8717 28.2412 56.8717 30.2225 56.8717 32.4998V37.8332C56.8717 42.9185 56.8664 46.5318 56.4984 49.2732C56.1384 51.9532 55.461 53.4998 54.333 54.6278C53.205 55.7558 51.6584 56.4332 48.9757 56.7932C46.237 57.1612 42.6237 57.1665 37.5383 57.1665H26.8717C21.7863 57.1665 18.1757 57.1612 15.4317 56.7932C12.7517 56.4332 11.205 55.7558 10.077 54.6278C8.94901 53.4998 8.27168 51.9532 7.91168 49.2705C7.54368 46.5318 7.53835 42.9185 7.53835 37.8332V32.4998Z" fill="#DB1222"/>
</svg>
