<svg width="66" height="66" viewBox="0 0 66 66" fill="none" xmlns="http://www.w3.org/2000/svg">
<path d="M6.35779 30C3.67737 34.1003 2.48973 38.9981 2.99441 43.8707C3.49908 48.7433 5.66531 53.2937 9.12918 56.7576C12.5931 60.2215 17.1435 62.3877 22.0161 62.8924C26.8887 63.3971 31.7865 62.2094 35.8868 59.529M38.8868 51C45.252 51 51.3565 48.4714 55.8574 43.9706C60.3582 39.4697 62.8868 33.3652 62.8868 27C62.8868 20.6348 60.3582 14.5303 55.8574 10.0294C51.3565 5.52856 45.252 3 38.8868 3C32.5216 3 26.4171 5.52856 21.9162 10.0294C17.4154 14.5303 14.8868 20.6348 14.8868 27C14.8868 33.3652 17.4154 39.4697 21.9162 43.9706C26.4171 48.4714 32.5216 51 38.8868 51Z" stroke="#DB1222" stroke-width="5" stroke-linecap="round" stroke-linejoin="round"/>
<path d="M44.1996 21.615C43.5516 18.879 40.2516 16.41 36.2886 18.255C32.3256 20.103 31.6956 26.049 37.6896 26.679C40.3986 26.964 42.1656 26.349 43.7796 28.092C45.3996 29.835 45.6996 34.686 41.5656 35.994C37.4316 37.302 33.3396 35.259 32.8926 32.358M38.8446 15.012V17.622M38.8446 36.396V39.012" stroke="#DB1222" stroke-width="5" stroke-linecap="round" stroke-linejoin="round"/>
</svg>
