<svg width="72" height="73" viewBox="0 0 72 73" fill="none" xmlns="http://www.w3.org/2000/svg">
<path d="M48 48.5C48 45.185 38.598 42.5 27 42.5M48 48.5C48 51.815 38.598 54.5 27 54.5C15.402 54.5 6 51.815 6 48.5M48 48.5V63.311C48 66.728 38.598 69.5 27 69.5C15.402 69.5 6 66.731 6 63.311V48.5M48 48.5C59.472 48.5 69 45.539 69 42.5V12.5M27 42.5C15.402 42.5 6 45.185 6 48.5M27 42.5C13.746 42.5 3 39.539 3 36.5V21.5M27 15.5C13.746 15.5 3 18.185 3 21.5M3 21.5C3 24.815 13.746 27.5 27 27.5C27 30.539 36.759 33.5 48.231 33.5C59.703 33.5 69 30.539 69 27.5M69 12.5C69 9.185 59.7 6.5 48.231 6.5C36.762 6.5 27.462 9.185 27.462 12.5M69 12.5C69 15.815 59.7 18.5 48.231 18.5C36.762 18.5 27.462 15.815 27.462 12.5M27.462 12.5V42.998" stroke="#DB1222" stroke-width="4"/>
</svg>
