<svg width="62" height="64" viewBox="0 0 62 64" fill="none" xmlns="http://www.w3.org/2000/svg">
<path d="M4.66969 2.28564L57.2411 26.1942M57.2411 26.1942L47.4125 29.8971M57.2411 26.1942L53.584 16.3199M4.7154 27.4285H11.5725C12.1788 27.4285 12.7601 27.6693 13.1888 28.098C13.6174 28.5266 13.8583 29.108 13.8583 29.7142V61.7142H2.42969V29.7142C2.42969 29.108 2.6705 28.5266 3.09916 28.098C3.52781 27.6693 4.10919 27.4285 4.7154 27.4285ZM27.5725 34.2856H34.4297C35.0359 34.2856 35.6173 34.5265 36.0459 34.9551C36.4746 35.3838 36.7154 35.9651 36.7154 36.5714V61.7142H25.2868V36.5714C25.2868 35.9651 25.5276 35.3838 25.9563 34.9551C26.385 34.5265 26.9663 34.2856 27.5725 34.2856ZM50.4297 41.1428H57.2868C57.893 41.1428 58.4744 41.3836 58.9031 41.8123C59.3317 42.2409 59.5725 42.8223 59.5725 43.4285V61.7142H48.144V43.4285C48.144 42.8223 48.3848 42.2409 48.8134 41.8123C49.2421 41.3836 49.8235 41.1428 50.4297 41.1428Z" stroke="#DB1222" stroke-width="4" stroke-linecap="round" stroke-linejoin="round"/>
</svg>
