<svg width="54" height="33" viewBox="0 0 54 33" fill="none" xmlns="http://www.w3.org/2000/svg">
<path d="M53.4538 1.65333C53.1832 1.00173 52.6654 0.483933 52.0138 0.213333C51.6932 0.0766905 51.349 0.0042133 51.0005 0H37.6672C36.9599 0 36.2816 0.280952 35.7815 0.781049C35.2814 1.28115 35.0005 1.95942 35.0005 2.66667C35.0005 3.37391 35.2814 4.05219 35.7815 4.55228C36.2816 5.05238 36.9599 5.33333 37.6672 5.33333H44.5738L29.6672 20.24L20.8938 11.44C20.6459 11.1901 20.351 10.9917 20.026 10.8563C19.7011 10.7209 19.3525 10.6512 19.0005 10.6512C18.6485 10.6512 18.2999 10.7209 17.975 10.8563C17.65 10.9917 17.3551 11.1901 17.1072 11.44L1.10715 27.44C0.857212 27.6879 0.658828 27.9828 0.523445 28.3078C0.388061 28.6328 0.318359 28.9813 0.318359 29.3333C0.318359 29.6854 0.388061 30.0339 0.523445 30.3589C0.658828 30.6838 0.857212 30.9788 1.10715 31.2267C1.35506 31.4766 1.64999 31.675 1.97495 31.8104C2.29991 31.9458 2.64846 32.0155 3.00049 32.0155C3.35252 32.0155 3.70107 31.9458 4.02603 31.8104C4.35098 31.675 4.64592 31.4766 4.89382 31.2267L19.0005 17.0933L27.7738 25.8933C28.0217 26.1433 28.3167 26.3417 28.6416 26.477C28.9666 26.6124 29.3151 26.6821 29.6672 26.6821C30.0192 26.6821 30.3677 26.6124 30.6927 26.477C31.0177 26.3417 31.3126 26.1433 31.5605 25.8933L48.3338 9.09333V16C48.3338 16.7072 48.6148 17.3855 49.1149 17.8856C49.615 18.3857 50.2932 18.6667 51.0005 18.6667C51.7077 18.6667 52.386 18.3857 52.8861 17.8856C53.3862 17.3855 53.6672 16.7072 53.6672 16V2.66667C53.6629 2.31819 53.5905 1.97393 53.4538 1.65333Z" fill="#DB1222"/>
</svg>
