<svg width="42" height="58" viewBox="0 0 42 58" fill="none" xmlns="http://www.w3.org/2000/svg">
<path d="M10.3335 39.3786L8.70154 36.0239C8.45532 35.5151 8.05377 35.0977 7.55487 34.8319L2.22154 32.0053C1.67268 31.7134 1.24304 31.2389 1.00688 30.6639C0.77073 30.0888 0.742901 29.4493 0.928207 28.8559L2.82154 22.7946C2.98308 22.2771 2.98308 21.7227 2.82154 21.2053L0.928207 15.1439C0.742419 14.5499 0.770286 13.9095 1.00698 13.3339C1.24368 12.7582 1.67429 12.2835 2.22421 11.9919L7.55487 9.16526C8.05336 8.9002 8.45486 8.48376 8.70154 7.97593L11.3815 2.46393C11.6659 1.87937 12.154 1.41883 12.7541 1.16888C13.3542 0.918923 14.0249 0.896774 14.6402 1.10659L20.1389 2.98126C20.6973 3.17184 21.3031 3.17184 21.8615 2.98126L27.3602 1.10659C27.9758 0.896969 28.6468 0.919508 29.2469 1.16997C29.847 1.42043 30.3349 1.88156 30.6189 2.46659L33.2989 7.97593C33.5451 8.48475 33.9466 8.90217 34.4455 9.16793L39.7789 11.9946C40.3277 12.2865 40.7574 12.761 40.9935 13.336C41.2297 13.9111 41.2575 14.5505 41.0722 15.1439L39.1789 21.2053C39.0173 21.7227 39.0173 22.2771 39.1789 22.7946L41.0722 28.8559C41.258 29.45 41.2301 30.0903 40.9934 30.666C40.7567 31.2416 40.3261 31.7164 39.7762 32.0079L34.4455 34.8346C33.9471 35.0997 33.5456 35.5161 33.2989 36.0239L31.6669 39.3786V57.7226L21.0002 54.1013L10.3335 57.7226V39.3786ZM15.6669 42.5439V50.2773L21.0002 48.4666L26.3335 50.2799V42.5439L21.8615 41.0186C21.3031 40.828 20.6973 40.828 20.1389 41.0186L15.6669 42.5439ZM28.5015 33.6906C29.2432 32.1649 30.4507 30.9145 31.9495 30.1199L35.3202 28.3333L34.0882 24.3866C33.6025 22.8326 33.6025 21.1673 34.0882 19.6133L35.3202 15.6666L31.9495 13.8799C30.4503 13.0847 29.2428 11.8333 28.5015 10.3066L26.8509 6.91459L23.5815 8.02926C21.9079 8.59979 20.0925 8.59979 18.4189 8.02926L15.1495 6.91459L13.4989 10.3093C12.7572 11.835 11.5497 13.0854 10.0509 13.8799L6.68021 15.6666L7.91221 19.6133C8.39795 21.1673 8.39795 22.8326 7.91221 24.3866L6.68021 28.3333L10.0509 30.1199C11.5501 30.9152 12.7577 32.1666 13.4989 33.6933L15.1495 37.0853L18.4189 35.9706C20.0925 35.4001 21.9079 35.4001 23.5815 35.9706L26.8509 37.0853L28.5015 33.6906ZM21.0002 13.9999C21.7075 13.9999 22.3857 14.2809 22.8858 14.781C23.3859 15.2811 23.6669 15.9594 23.6669 16.6666V27.3333C23.6669 28.0405 23.3859 28.7188 22.8858 29.2189C22.3857 29.719 21.7075 29.9999 21.0002 29.9999C20.293 29.9999 19.6147 29.719 19.1146 29.2189C18.6145 28.7188 18.3335 28.0405 18.3335 27.3333V16.6666C18.3335 15.9594 18.6145 15.2811 19.1146 14.781C19.6147 14.2809 20.293 13.9999 21.0002 13.9999Z" fill="#DB1222"/>
</svg>
