<svg width="53" height="48" viewBox="0 0 53 48" fill="none" xmlns="http://www.w3.org/2000/svg">
<path d="M2.96389 48C2.14404 48 1.4573 47.7222 0.903663 47.1666C0.350025 46.6111 0.0722416 45.9243 0.0703125 45.1064V42.2128C0.0703125 41.393 0.348096 40.7062 0.903663 40.1526C1.45923 39.599 2.14597 39.3212 2.96389 39.3193C3.78181 39.3173 4.46951 39.5951 5.02701 40.1526C5.58451 40.7101 5.86132 41.3968 5.85747 42.2128V45.1064C5.85747 45.9263 5.57968 46.614 5.02412 47.1695C4.46855 47.7251 3.78181 48.0019 2.96389 48ZM14.5382 48C13.7184 48 13.0316 47.7222 12.478 47.1666C11.9243 46.6111 11.6466 45.9243 11.6446 45.1064V29.1917C11.6446 28.3719 11.9224 27.6852 12.478 27.1315C13.0335 26.5779 13.7203 26.3001 14.5382 26.2982C15.3561 26.2962 16.0438 26.574 16.6013 27.1315C17.1588 27.689 17.4356 28.3758 17.4318 29.1917V45.1064C17.4318 45.9263 17.154 46.614 16.5984 47.1695C16.0429 47.7251 15.3561 48.0019 14.5382 48ZM26.1125 48C25.2927 48 24.6059 47.7222 24.0523 47.1666C23.4986 46.6111 23.2209 45.9243 23.2189 45.1064V34.9789C23.2189 34.159 23.4967 33.4723 24.0523 32.9187C24.6078 32.365 25.2946 32.0872 26.1125 32.0853C26.9304 32.0834 27.6181 32.3612 28.1756 32.9187C28.7331 33.4762 29.0099 34.1629 29.0061 34.9789V45.1064C29.0061 45.9263 28.7283 46.614 28.1727 47.1695C27.6172 47.7251 26.9304 48.0019 26.1125 48ZM37.6868 48C36.867 48 36.1802 47.7222 35.6266 47.1666C35.0729 46.6111 34.7952 45.9243 34.7932 45.1064V30.6385C34.7932 29.8187 35.071 29.1319 35.6266 28.5783C36.1822 28.0247 36.8689 27.7469 37.6868 27.745C38.5047 27.743 39.1924 28.0208 39.7499 28.5783C40.3074 29.1358 40.5843 29.8225 40.5804 30.6385V45.1064C40.5804 45.9263 40.3026 46.614 39.747 47.1695C39.1915 47.7251 38.5047 48.0019 37.6868 48ZM49.2611 48C48.4413 48 47.7545 47.7222 47.2009 47.1666C46.6473 46.6111 46.3695 45.9243 46.3675 45.1064V19.0642C46.3675 18.2444 46.6453 17.5576 47.2009 17.004C47.7565 16.4504 48.4432 16.1726 49.2611 16.1706C50.079 16.1687 50.7667 16.4465 51.3242 17.004C51.8817 17.5615 52.1586 18.2482 52.1547 19.0642V45.1064C52.1547 45.9263 51.8769 46.614 51.3214 47.1695C50.7658 47.7251 50.079 48.0019 49.2611 48ZM31.8997 21.8855C31.128 21.8855 30.3921 21.7408 29.6919 21.4514C28.9916 21.1621 28.3531 20.7521 27.7763 20.2217L20.3254 12.7707L4.98939 28.1066C4.41068 28.6854 3.72394 28.9631 2.92917 28.94C2.1344 28.9168 1.44669 28.615 0.866046 28.0343C0.335557 27.4556 0.0828514 26.7689 0.107929 25.9741C0.133007 25.1793 0.409825 24.5157 0.938385 23.9833L16.202 8.71968C16.7807 8.14097 17.4202 7.71947 18.1204 7.45519C18.8207 7.19091 19.5557 7.0578 20.3254 7.05588C21.095 7.05395 21.8426 7.18705 22.5679 7.45519C23.2932 7.72333 23.9201 8.14483 24.4487 8.71968L31.8997 16.1706L47.2356 0.834685C47.8143 0.255969 48.502 -0.0218131 49.2987 0.0013355C50.0954 0.0244841 50.7822 0.32638 51.359 0.907024C51.8895 1.48574 52.1431 2.17345 52.12 2.97015C52.0968 3.76684 51.819 4.42947 51.2866 4.95803L36.023 20.2217C35.4925 20.7521 34.8656 21.1621 34.1422 21.4514C33.4188 21.7408 32.6713 21.8855 31.8997 21.8855Z" fill="#DB1222"/>
</svg>
