<svg width="73" height="53" viewBox="0 0 73 53" fill="none" xmlns="http://www.w3.org/2000/svg">
<path d="M72.2905 18.406L65.1102 4.06224C64.7812 3.40029 64.325 2.80967 63.7676 2.32414C63.2103 1.83862 62.5626 1.46771 61.8618 1.23263C61.161 0.997543 60.4208 0.902893 59.6833 0.954088C58.9459 1.00528 58.2258 1.20132 57.5642 1.53099L51.0449 4.79068L37.9274 0.538176C37.2505 0.321584 36.523 0.321584 35.8461 0.538176L22.7286 4.79068L16.2092 1.53099C15.5476 1.20132 14.8275 1.00528 14.0901 0.954088C13.3527 0.902893 12.6124 0.997543 11.9116 1.23263C11.2108 1.46771 10.5632 1.83862 10.0058 2.32414C9.44848 2.80967 8.99227 3.40029 8.6633 4.06224L1.48299 18.406C1.15332 19.0676 0.957281 19.7877 0.906086 20.5251C0.85489 21.2625 0.94954 22.0028 1.18462 22.7036C1.41971 23.4044 1.79061 24.052 2.27614 24.6094C2.76166 25.1667 3.35229 25.623 4.01424 25.9519L11.5152 29.7038L25.9095 40.2254C26.2507 40.4745 26.635 40.6586 27.043 40.7682L44.4805 45.2682C44.7563 45.3384 45.0397 45.3743 45.3242 45.375C46.219 45.3743 47.0769 45.0182 47.7092 44.385L62.5086 29.5857L69.7733 25.9519C71.1077 25.285 72.1226 24.1154 72.5946 22.7003C73.0667 21.2851 72.9573 19.7404 72.2905 18.406ZM55.9442 26.6044L48.2042 19.2919C47.5644 18.6866 46.7132 18.3554 45.8325 18.3691C44.9518 18.3827 44.1113 18.7402 43.4905 19.365C40.7736 22.1044 36.4424 24.0929 32.0127 22.051L42.7536 11.6447H49.1436L56.4027 26.1657L55.9442 26.6044ZM14.1955 8.07286L17.9277 9.93755L11.7402 22.2844L8.00799 20.4197L14.1955 8.07286ZM44.2892 38.251L29.3577 34.4063L17.5452 25.7832L24.8408 11.2032L36.8867 7.29661L37.362 7.4513L26.1992 18.2851L26.1627 18.3188C25.5678 18.9143 25.1142 19.6357 24.8352 20.4299C24.5562 21.224 24.459 22.0707 24.5508 22.9074C24.6426 23.7441 24.921 24.5496 25.3654 25.2644C25.8099 25.9792 26.4091 26.5851 27.1189 27.0376C33.0111 30.8035 40.0564 30.4322 45.7742 26.2697L51.1742 31.3744L44.2892 38.251ZM62.008 22.2844L55.8205 9.93755L59.5527 8.07286L65.7261 20.4197L62.008 22.2844ZM34.2289 49.5938C34.1182 50.023 33.9239 50.4262 33.6573 50.7803C33.3907 51.1344 33.057 51.4326 32.6751 51.6577C32.2933 51.8828 31.8709 52.0305 31.432 52.0924C30.993 52.1542 30.5462 52.129 30.117 52.0182L22.6358 50.086C22.2224 49.9793 21.833 49.7951 21.4883 49.5432L14.6455 44.5313C13.9456 43.9948 13.4835 43.2058 13.358 42.3329C13.2325 41.4601 13.4536 40.5728 13.974 39.8609C14.4945 39.149 15.2728 38.6691 16.1426 38.5238C17.0124 38.3785 17.9045 38.5794 18.628 39.0835L24.9477 43.7016L31.8045 45.4707C32.235 45.5814 32.6393 45.776 32.9943 46.0433C33.3493 46.3107 33.648 46.6455 33.8732 47.0286C34.0985 47.4117 34.2459 47.8355 34.3069 48.2757C34.3679 48.7159 34.3414 49.1639 34.2289 49.5938Z" fill="#DB1222"/>
</svg>
