<svg width="61" height="42" viewBox="0 0 61 42" fill="none" xmlns="http://www.w3.org/2000/svg">
<path d="M6.88672 42C5.23672 42 3.82472 41.413 2.65072 40.239C1.47672 39.065 0.888719 37.652 0.886719 36V6C0.886719 4.35 1.47472 2.938 2.65072 1.764C3.82672 0.589999 5.23872 0.002 6.88672 0H54.8867C56.5367 0 57.9497 0.587999 59.1257 1.764C60.3017 2.94 60.8887 4.352 60.8867 6V36C60.8867 37.65 60.2997 39.063 59.1257 40.239C57.9517 41.415 56.5387 42.002 54.8867 42H6.88672ZM6.88672 36H54.8867V6H6.88672V36ZM21.8867 33H39.8867C40.7367 33 41.4497 32.712 42.0257 32.136C42.6017 31.56 42.8887 30.848 42.8867 30C42.8847 29.152 42.5967 28.44 42.0227 27.864C41.4487 27.288 40.7367 27 39.8867 27H21.8867C21.0367 27 20.3247 27.288 19.7507 27.864C19.1767 28.44 18.8887 29.152 18.8867 30C18.8847 30.848 19.1727 31.561 19.7507 32.139C20.3287 32.717 21.0407 33.004 21.8867 33ZM12.8867 15C13.7367 15 14.4497 14.712 15.0257 14.136C15.6017 13.56 15.8887 12.848 15.8867 12C15.8847 11.152 15.5967 10.44 15.0227 9.864C14.4487 9.288 13.7367 9 12.8867 9C12.0367 9 11.3247 9.288 10.7507 9.864C10.1767 10.44 9.88872 11.152 9.88672 12C9.88472 12.848 10.1727 13.561 10.7507 14.139C11.3287 14.717 12.0407 15.004 12.8867 15ZM21.8867 15C22.7367 15 23.4497 14.712 24.0257 14.136C24.6017 13.56 24.8887 12.848 24.8867 12C24.8847 11.152 24.5967 10.44 24.0227 9.864C23.4487 9.288 22.7367 9 21.8867 9C21.0367 9 20.3247 9.288 19.7507 9.864C19.1767 10.44 18.8887 11.152 18.8867 12C18.8847 12.848 19.1727 13.561 19.7507 14.139C20.3287 14.717 21.0407 15.004 21.8867 15ZM30.8867 15C31.7367 15 32.4497 14.712 33.0257 14.136C33.6017 13.56 33.8887 12.848 33.8867 12C33.8847 11.152 33.5967 10.44 33.0227 9.864C32.4487 9.288 31.7367 9 30.8867 9C30.0367 9 29.3247 9.288 28.7507 9.864C28.1767 10.44 27.8887 11.152 27.8867 12C27.8847 12.848 28.1727 13.561 28.7507 14.139C29.3287 14.717 30.0407 15.004 30.8867 15ZM39.8867 15C40.7367 15 41.4497 14.712 42.0257 14.136C42.6017 13.56 42.8887 12.848 42.8867 12C42.8847 11.152 42.5967 10.44 42.0227 9.864C41.4487 9.288 40.7367 9 39.8867 9C39.0367 9 38.3247 9.288 37.7507 9.864C37.1767 10.44 36.8887 11.152 36.8867 12C36.8847 12.848 37.1727 13.561 37.7507 14.139C38.3287 14.717 39.0407 15.004 39.8867 15ZM48.8867 15C49.7367 15 50.4497 14.712 51.0257 14.136C51.6017 13.56 51.8887 12.848 51.8867 12C51.8847 11.152 51.5967 10.44 51.0227 9.864C50.4487 9.288 49.7367 9 48.8867 9C48.0367 9 47.3247 9.288 46.7507 9.864C46.1767 10.44 45.8887 11.152 45.8867 12C45.8847 12.848 46.1727 13.561 46.7507 14.139C47.3287 14.717 48.0407 15.004 48.8867 15ZM12.8867 24C13.7367 24 14.4497 23.712 15.0257 23.136C15.6017 22.56 15.8887 21.848 15.8867 21C15.8847 20.152 15.5967 19.44 15.0227 18.864C14.4487 18.288 13.7367 18 12.8867 18C12.0367 18 11.3247 18.288 10.7507 18.864C10.1767 19.44 9.88872 20.152 9.88672 21C9.88472 21.848 10.1727 22.561 10.7507 23.139C11.3287 23.717 12.0407 24.004 12.8867 24ZM21.8867 24C22.7367 24 23.4497 23.712 24.0257 23.136C24.6017 22.56 24.8887 21.848 24.8867 21C24.8847 20.152 24.5967 19.44 24.0227 18.864C23.4487 18.288 22.7367 18 21.8867 18C21.0367 18 20.3247 18.288 19.7507 18.864C19.1767 19.44 18.8887 20.152 18.8867 21C18.8847 21.848 19.1727 22.561 19.7507 23.139C20.3287 23.717 21.0407 24.004 21.8867 24ZM30.8867 24C31.7367 24 32.4497 23.712 33.0257 23.136C33.6017 22.56 33.8887 21.848 33.8867 21C33.8847 20.152 33.5967 19.44 33.0227 18.864C32.4487 18.288 31.7367 18 30.8867 18C30.0367 18 29.3247 18.288 28.7507 18.864C28.1767 19.44 27.8887 20.152 27.8867 21C27.8847 21.848 28.1727 22.561 28.7507 23.139C29.3287 23.717 30.0407 24.004 30.8867 24ZM39.8867 24C40.7367 24 41.4497 23.712 42.0257 23.136C42.6017 22.56 42.8887 21.848 42.8867 21C42.8847 20.152 42.5967 19.44 42.0227 18.864C41.4487 18.288 40.7367 18 39.8867 18C39.0367 18 38.3247 18.288 37.7507 18.864C37.1767 19.44 36.8887 20.152 36.8867 21C36.8847 21.848 37.1727 22.561 37.7507 23.139C38.3287 23.717 39.0407 24.004 39.8867 24ZM48.8867 24C49.7367 24 50.4497 23.712 51.0257 23.136C51.6017 22.56 51.8887 21.848 51.8867 21C51.8847 20.152 51.5967 19.44 51.0227 18.864C50.4487 18.288 49.7367 18 48.8867 18C48.0367 18 47.3247 18.288 46.7507 18.864C46.1767 19.44 45.8887 20.152 45.8867 21C45.8847 21.848 46.1727 22.561 46.7507 23.139C47.3287 23.717 48.0407 24.004 48.8867 24Z" fill="#DB1222"/>
</svg>
