<svg width="86" height="86" viewBox="0 0 86 86" fill="none" xmlns="http://www.w3.org/2000/svg">
<rect width="86" height="86" rx="8" fill="#DB1222"/>
<path d="M33 39L37.586 43.586C37.9611 43.9609 38.4697 44.1716 39 44.1716C39.5303 44.1716 40.0389 43.9609 40.414 43.586L43.586 40.414C43.9611 40.0391 44.4697 39.8284 45 39.8284C45.5303 39.8284 46.0389 40.0391 46.414 40.414L53 47M53 47V42M53 47H48" stroke="white" stroke-width="4" stroke-linecap="round" stroke-linejoin="round"/>
<path d="M63 43C63 52.428 63 57.142 60.07 60.07C57.144 63 52.428 63 43 63C33.572 63 28.858 63 25.928 60.07C23 57.144 23 52.428 23 43C23 33.572 23 28.858 25.928 25.928C28.86 23 33.572 23 43 23C52.428 23 57.142 23 60.07 25.928C62.018 27.876 62.67 30.614 62.89 35" stroke="white" stroke-width="4" stroke-linecap="round"/>
</svg>
