<svg width="61" height="60" viewBox="0 0 61 60" fill="none" xmlns="http://www.w3.org/2000/svg">
<path d="M30.8867 15C29.2954 15 27.7693 14.3679 26.6441 13.2426C25.5189 12.1174 24.8867 10.5913 24.8867 9C24.8867 7.4087 25.5189 5.88258 26.6441 4.75736C27.7693 3.63214 29.2954 3 30.8867 3C32.478 3 34.0041 3.63214 35.1294 4.75736C36.2546 5.88258 36.8867 7.4087 36.8867 9C36.8867 10.5913 36.2546 12.1174 35.1294 13.2426C34.0041 14.3679 32.478 15 30.8867 15ZM30.8867 15V27M30.8867 27C33.2737 27 35.5629 27.9482 37.2507 29.636C38.9385 31.3239 39.8867 33.6131 39.8867 36C39.8867 38.3869 38.9385 40.6761 37.2507 42.364C35.5629 44.0518 33.2737 45 30.8867 45C28.4998 45 26.2106 44.0518 24.5228 42.364C22.8349 40.6761 21.8867 38.3869 21.8867 36C21.8867 33.6131 22.8349 31.3239 24.5228 29.636C26.2106 27.9482 28.4998 27 30.8867 27ZM14.9867 47.4L23.3867 41.4M46.7867 47.4L38.3867 41.4M3.88672 51C3.88672 52.5913 4.51886 54.1174 5.64408 55.2426C6.7693 56.3679 8.29542 57 9.88672 57C11.478 57 13.0041 56.3679 14.1294 55.2426C15.2546 54.1174 15.8867 52.5913 15.8867 51C15.8867 49.4087 15.2546 47.8826 14.1294 46.7574C13.0041 45.6321 11.478 45 9.88672 45C8.29542 45 6.7693 45.6321 5.64408 46.7574C4.51886 47.8826 3.88672 49.4087 3.88672 51ZM45.8867 51C45.8867 52.5913 46.5189 54.1174 47.6441 55.2426C48.7693 56.3679 50.2954 57 51.8867 57C53.478 57 55.0041 56.3679 56.1294 55.2426C57.2546 54.1174 57.8867 52.5913 57.8867 51C57.8867 49.4087 57.2546 47.8826 56.1294 46.7574C55.0041 45.6321 53.478 45 51.8867 45C50.2954 45 48.7693 45.6321 47.6441 46.7574C46.5189 47.8826 45.8867 49.4087 45.8867 51Z" stroke="#DB1222" stroke-width="6" stroke-linecap="round" stroke-linejoin="round"/>
</svg>
