<svg width="50" height="50" viewBox="0 0 50 50" fill="none" xmlns="http://www.w3.org/2000/svg">
<path d="M25 0C25.9383 0 26.8633 0.0508336 27.775 0.1525C28.1013 0.188614 28.4174 0.28865 28.705 0.446897C28.9927 0.605145 29.2464 0.818504 29.4516 1.07479C29.6568 1.33108 29.8096 1.62528 29.9011 1.9406C29.9926 2.25591 30.0211 2.58616 29.985 2.9125C29.9489 3.23883 29.8489 3.55486 29.6906 3.84254C29.5324 4.13021 29.319 4.3839 29.0627 4.58911C28.8064 4.79433 28.5122 4.94706 28.1969 5.03858C27.8816 5.1301 27.5513 5.15861 27.225 5.1225C23.1051 4.66161 18.9438 5.49235 15.3167 7.49981C11.6896 9.50727 8.77589 12.5922 6.97867 16.328C5.18144 20.0638 4.58951 24.2657 5.28473 28.3526C5.97995 32.4394 7.92798 36.2093 10.8593 39.1406C13.7907 42.072 17.5606 44.0201 21.6474 44.7153C25.7343 45.4105 29.9362 44.8186 33.672 43.0213C37.4078 41.2241 40.4927 38.3104 42.5002 34.6833C44.5076 31.0562 45.3384 26.8949 44.8775 22.775C44.8414 22.4487 44.8699 22.1184 44.9614 21.8031C45.0529 21.4878 45.2057 21.1936 45.4109 20.9373C45.8253 20.4197 46.4284 20.0879 47.0875 20.015C47.7466 19.9421 48.4076 20.1339 48.9252 20.5484C49.1815 20.7536 49.3949 21.0073 49.5531 21.295C49.7113 21.5826 49.8114 21.8987 49.8475 22.225C49.9475 23.1367 49.9983 24.0617 50 25C50 38.8075 38.8075 50 25 50C11.1925 50 0 38.8075 0 25C0 11.1925 11.1925 0 25 0ZM24.92 14.6925C25.0848 15.3343 24.988 16.0153 24.6509 16.5858C24.3139 17.1563 23.7641 17.5696 23.1225 17.735C21.3597 18.1968 19.8251 19.2842 18.8051 20.7943C17.7851 22.3044 17.3494 24.134 17.5793 25.9417C17.8091 27.7495 18.6889 29.4118 20.0543 30.6186C21.4198 31.8254 23.1777 32.4941 25 32.5C26.6633 32.5007 28.2796 31.9485 29.5947 30.9302C30.9098 29.912 31.8492 28.4854 32.265 26.875C32.4422 26.2459 32.8587 25.7112 33.4254 25.3854C33.992 25.0597 34.6637 24.9688 35.2965 25.1322C35.9293 25.2957 36.473 25.7004 36.811 26.2598C37.1491 26.8192 37.2546 27.4888 37.105 28.125C36.3381 31.0648 34.5271 33.6249 32.0104 35.3269C29.4937 37.029 26.4434 37.7566 23.4294 37.3738C20.4154 36.991 17.6438 35.524 15.6325 33.2468C13.6212 30.9697 12.5077 28.0382 12.5 25C12.4996 22.2285 13.4203 19.5354 15.1173 17.3442C16.8143 15.153 19.1915 13.5879 21.875 12.895C22.193 12.813 22.524 12.7945 22.8491 12.8405C23.1742 12.8865 23.4871 12.9961 23.7698 13.163C24.0526 13.3299 24.2997 13.5509 24.4971 13.8133C24.6944 14.0758 24.8381 14.3745 24.92 14.6925ZM41.26 0.3175C41.7163 0.506698 42.1064 0.826843 42.3809 1.23752C42.6554 1.6482 42.8021 2.13101 42.8025 2.625V7.2H47.375C47.8694 7.20011 48.3526 7.34679 48.7636 7.6215C49.1747 7.89621 49.495 8.28661 49.6842 8.74336C49.8734 9.20011 49.9229 9.7027 49.8265 10.1876C49.73 10.6725 49.492 11.1179 49.1425 11.4675L40.3 20.3C39.8313 20.7689 39.1955 21.0324 38.5325 21.0325H32.5L27.93 25.605C27.4609 26.0741 26.8247 26.3376 26.1613 26.3376C25.4978 26.3376 24.8616 26.0741 24.3925 25.605C23.9234 25.1359 23.6599 24.4997 23.6599 23.8363C23.6599 23.1728 23.9234 22.5366 24.3925 22.0675L28.965 17.5V11.465C28.9651 10.802 29.2286 10.1662 29.6975 9.6975L38.535 0.8575C38.8846 0.507668 39.3301 0.269396 39.8152 0.172828C40.3003 0.076261 40.8031 0.125738 41.26 0.315M37.8025 8.6575L33.965 12.5V16.035H37.5L41.34 12.1975H40.3025C39.6395 12.1975 39.0036 11.9341 38.5347 11.4653C38.0659 10.9964 37.8025 10.3605 37.8025 9.6975V8.6575Z" fill="#DB1222"/>
</svg>
