<svg width="66" height="66" viewBox="0 0 66 66" fill="none" xmlns="http://www.w3.org/2000/svg">
<path fill-rule="evenodd" clip-rule="evenodd" d="M32.8867 6.102C32.7147 6.402 32.5157 6.756 32.2897 7.164L31.9957 7.692L31.9267 7.812C31.6927 8.244 31.3027 8.958 30.6517 9.453C29.9887 9.957 29.1877 10.131 28.7227 10.233L28.5907 10.26L28.0207 10.389C27.4927 10.509 27.0637 10.605 26.7007 10.698C26.9377 10.989 27.2467 11.355 27.6487 11.826L28.0387 12.282L28.1287 12.384C28.4527 12.759 28.9747 13.359 29.2177 14.139C29.4577 14.907 29.3737 15.699 29.3227 16.197L29.3077 16.338L29.2477 16.947L29.1217 18.327C29.4367 18.189 29.7907 18.027 30.2137 17.832L30.7507 17.586L30.8707 17.526C31.3027 17.325 32.0497 16.971 32.8867 16.971C33.7237 16.971 34.4707 17.325 34.9027 17.529L35.0227 17.586L35.5597 17.832C35.9777 18.028 36.3417 18.193 36.6517 18.327L36.5257 16.947L36.4657 16.338L36.4507 16.197C36.3997 15.696 36.3157 14.907 36.5557 14.139C36.7957 13.359 37.3207 12.759 37.6447 12.384L37.7347 12.282L38.1247 11.826C38.5267 11.355 38.8357 10.989 39.0727 10.698C38.7097 10.608 38.2807 10.509 37.7527 10.389L37.1827 10.26L37.0507 10.23C36.5857 10.131 35.7847 9.957 35.1217 9.45C34.4707 8.958 34.0807 8.244 33.8467 7.815L33.7777 7.692L33.4837 7.164C33.2597 6.756 33.0607 6.402 32.8867 6.102ZM29.9287 2.4C30.4447 1.725 31.3807 0.75 32.8867 0.75C34.3927 0.75 35.3287 1.725 35.8447 2.4C36.3397 3.042 36.8347 3.933 37.3447 4.848L37.4137 4.971L37.7077 5.502L37.8787 5.802L38.1757 5.871L38.7457 6L38.8897 6.03C39.8707 6.255 40.8487 6.474 41.5987 6.771C42.4267 7.098 43.5487 7.731 43.9837 9.126C44.4097 10.491 43.8727 11.649 43.4047 12.396C42.9697 13.086 42.3097 13.854 41.6347 14.643L41.5447 14.748L41.1547 15.207L40.9087 15.498C40.9147 15.606 40.9297 15.732 40.9447 15.903L41.0047 16.512L41.0167 16.65C41.1187 17.706 41.2177 18.726 41.1817 19.542C41.1457 20.4 40.9417 21.696 39.7777 22.575C38.5777 23.487 37.2577 23.289 36.4177 23.046C35.6437 22.827 34.7287 22.404 33.8077 21.981L33.6787 21.921L33.1387 21.672L32.8867 21.555L32.6317 21.675L32.0947 21.921L31.9627 21.981C31.0447 22.404 30.1327 22.827 29.3557 23.046C28.5157 23.286 27.1957 23.487 25.9957 22.575C24.8347 21.696 24.6277 20.4 24.5917 19.545C24.5557 18.726 24.6517 17.706 24.7567 16.65L24.7687 16.512L24.8287 15.903L24.8677 15.498L24.6187 15.207L24.2287 14.748L24.1387 14.643C23.4637 13.854 22.8037 13.083 22.3687 12.393C21.9007 11.649 21.3637 10.491 21.7897 9.123C22.2217 7.734 23.3467 7.098 24.1747 6.771C24.9247 6.474 25.9027 6.255 26.8837 6.033L27.0247 6.003L27.5977 5.871L27.8977 5.802L28.0657 5.502L28.3597 4.971L28.4287 4.848C28.9387 3.933 29.4337 3.042 29.9287 2.4ZM29.7397 24.75H36.0337C38.0287 24.75 39.7477 24.75 41.1247 24.936C42.6007 25.134 44.0137 25.581 45.1597 26.727C46.3057 27.873 46.7527 29.286 46.9507 30.762C47.1367 32.139 47.1367 33.858 47.1367 35.853V43.251C47.6287 43.101 48.1357 43.005 48.6487 42.936C50.0257 42.75 51.7447 42.75 53.7397 42.75H54.0337C56.0287 42.75 57.7477 42.75 59.1247 42.936C60.6007 43.134 62.0137 43.581 63.1597 44.727C64.3057 45.873 64.7527 47.286 64.9507 48.762C65.1367 50.139 65.1367 51.858 65.1367 53.853V63C65.1367 63.5967 64.8997 64.169 64.4777 64.591C64.0558 65.0129 63.4835 65.25 62.8867 65.25C62.29 65.25 61.7177 65.0129 61.2957 64.591C60.8738 64.169 60.6367 63.5967 60.6367 63V54C60.6367 51.816 60.6307 50.4 60.4927 49.362C60.3607 48.387 60.1477 48.081 59.9767 47.91C59.8057 47.739 59.4997 47.526 58.5247 47.394C57.4837 47.256 56.0707 47.25 53.8867 47.25C51.7027 47.25 50.2867 47.256 49.2487 47.394C48.2737 47.526 47.9677 47.739 47.7967 47.91C47.6257 48.081 47.4127 48.387 47.2807 49.362C47.1427 50.403 47.1367 51.816 47.1367 54V63C47.1367 63.5967 46.8997 64.169 46.4777 64.591C46.0558 65.0129 45.4835 65.25 44.8867 65.25C44.29 65.25 43.7177 65.0129 43.2957 64.591C42.8738 64.169 42.6367 63.5967 42.6367 63V36C42.6367 33.816 42.6307 32.4 42.4927 31.362C42.3607 30.387 42.1477 30.081 41.9767 29.91C41.8057 29.739 41.4997 29.526 40.5247 29.394C39.4837 29.256 38.0707 29.25 35.8867 29.25H29.8867C27.7027 29.25 26.2867 29.256 25.2487 29.394C24.2737 29.526 23.9677 29.739 23.7967 29.91C23.6257 30.081 23.4127 30.387 23.2807 31.362C23.1427 32.403 23.1367 33.816 23.1367 36V63C23.1367 63.5967 22.8997 64.169 22.4777 64.591C22.0558 65.0129 21.4835 65.25 20.8867 65.25C20.29 65.25 19.7177 65.0129 19.2957 64.591C18.8738 64.169 18.6367 63.5967 18.6367 63C18.6367 60.816 18.6307 59.4 18.4927 58.362C18.3607 57.387 18.1477 57.081 17.9767 56.91C17.8057 56.739 17.4997 56.526 16.5247 56.394C15.4837 56.256 14.0707 56.25 11.8867 56.25C9.70272 56.25 8.28672 56.256 7.24872 56.394C6.27372 56.526 5.96772 56.739 5.79672 56.91C5.62572 57.081 5.41272 57.387 5.28072 58.362C5.14272 59.403 5.13672 60.816 5.13672 63C5.13672 63.5967 4.89967 64.169 4.47771 64.591C4.05575 65.0129 3.48346 65.25 2.88672 65.25C2.28998 65.25 1.71769 65.0129 1.29573 64.591C0.873772 64.169 0.636719 63.5967 0.636719 63V62.85C0.636719 60.858 0.636719 59.139 0.822719 57.762C1.02072 56.286 1.46772 54.873 2.61372 53.727C3.75972 52.581 5.17572 52.134 6.64872 51.936C8.02572 51.75 9.74472 51.75 11.7397 51.75H12.0337C14.0287 51.75 15.7477 51.75 17.1247 51.936C17.6387 52.002 18.1427 52.107 18.6367 52.251V35.853C18.6367 33.858 18.6367 32.139 18.8227 30.762C19.0207 29.286 19.4677 27.873 20.6137 26.727C21.7597 25.581 23.1757 25.134 24.6487 24.936C26.0257 24.75 27.7447 24.75 29.7397 24.75Z" fill="#DB1222"/>
</svg>
