<svg width="73" height="54" viewBox="0 0 73 54" fill="none" xmlns="http://www.w3.org/2000/svg">
<path d="M12.8867 6V36H27.8867V24C27.8867 22.4087 28.5189 20.8826 29.6441 19.7574C30.7693 18.6321 32.2954 18 33.8867 18H48.8867C50.478 18 52.0041 18.6321 53.1294 19.7574C54.2546 20.8826 54.8867 22.4087 54.8867 24V36H60.8867V6H12.8867ZM0.886719 48V42H12.8867C11.2954 42 9.7693 41.3679 8.64408 40.2426C7.51886 39.1174 6.88672 37.5913 6.88672 36V6C6.88672 4.4087 7.51886 2.88258 8.64408 1.75736C9.7693 0.632141 11.2954 0 12.8867 0H60.8867C62.478 0 64.0041 0.632141 65.1294 1.75736C66.2546 2.88258 66.8867 4.4087 66.8867 6V36C66.8867 37.5913 66.2546 39.1174 65.1294 40.2426C64.0041 41.3679 62.478 42 60.8867 42H72.8867V48H54.8867C54.8867 49.5913 54.2546 51.1174 53.1294 52.2426C52.0041 53.3679 50.478 54 48.8867 54H33.8867C32.2954 54 30.7693 53.3679 29.6441 52.2426C28.5189 51.1174 27.8867 49.5913 27.8867 48H0.886719ZM35.3867 48C34.9889 48 34.6074 48.158 34.3261 48.4393C34.0448 48.7206 33.8867 49.1022 33.8867 49.5C33.8867 49.8978 34.0448 50.2794 34.3261 50.5607C34.6074 50.842 34.9889 51 35.3867 51C35.7845 51 36.1661 50.842 36.4474 50.5607C36.7287 50.2794 36.8867 49.8978 36.8867 49.5C36.8867 49.1022 36.7287 48.7206 36.4474 48.4393C36.1661 48.158 35.7845 48 35.3867 48ZM47.3867 48C46.9889 48 46.6074 48.158 46.3261 48.4393C46.0448 48.7206 45.8867 49.1022 45.8867 49.5C45.8867 49.8978 46.0448 50.2794 46.3261 50.5607C46.6074 50.842 46.9889 51 47.3867 51C47.7845 51 48.1661 50.842 48.4474 50.5607C48.7287 50.2794 48.8867 49.8978 48.8867 49.5C48.8867 49.1022 48.7287 48.7206 48.4474 48.4393C48.1661 48.158 47.7845 48 47.3867 48ZM39.8867 48V51H42.8867V48H39.8867ZM33.8867 24V45H48.8867V24H33.8867Z" fill="#DB1222"/>
</svg>
