<svg width="185" height="185" viewBox="0 0 185 185" fill="none" xmlns="http://www.w3.org/2000/svg">
<path d="M127.477 173.438H57.5234C38.5031 173.438 23.125 158.059 23.125 139.039V69.5484C23.125 50.2969 38.7344 34.6875 57.9859 34.6875H127.072C146.266 34.6875 161.875 50.2969 161.875 69.5484V139.097C161.875 158.059 146.497 173.438 127.477 173.438Z" fill="url(#paint0_radial_3746_8202)"/>
<path d="M23.125 69.375C23.125 50.2176 38.6551 34.6875 57.8125 34.6875H69.375V173.438H57.8125C38.6551 173.438 23.125 157.907 23.125 138.75V69.375Z" fill="url(#paint1_linear_3746_8202)"/>
<path d="M23.125 138.75H161.875C161.875 157.907 146.345 173.438 127.188 173.438H57.8125C38.6551 173.438 23.125 157.907 23.125 138.75Z" fill="url(#paint2_linear_3746_8202)"/>
<path d="M115.625 34.6875H127.188C146.345 34.6875 161.875 50.2176 161.875 69.375V138.75C161.875 157.907 146.345 173.438 127.188 173.438H115.625V34.6875Z" fill="url(#paint3_radial_3746_8202)"/>
<path d="M20.2344 22.8357V75.4454" stroke="url(#paint4_linear_3746_8202)" stroke-miterlimit="10"/>
<path d="M23.125 69.375V132.969C16.7656 132.969 11.5625 127.77 11.5625 121.417V80.9271C11.5625 74.5735 16.7656 69.375 23.125 69.375Z" fill="url(#paint5_linear_3746_8202)"/>
<path d="M131.538 106.953H53.4614C39.9357 106.953 28.9062 95.9167 28.9062 82.3828C28.9062 68.8489 39.9357 57.8125 53.4614 57.8125H131.538C145.064 57.8125 156.094 68.8489 156.094 82.3828C156.094 95.8589 145.006 106.953 131.538 106.953Z" fill="url(#paint6_linear_3746_8202)"/>
<path d="M107.116 150.312H77.8838C73.1952 150.312 69.375 146.419 69.375 141.641C69.375 136.862 73.1952 132.969 77.8838 132.969H107.116C111.805 132.969 115.625 136.862 115.625 141.641C115.625 146.419 111.805 150.312 107.116 150.312Z" fill="url(#paint7_linear_3746_8202)"/>
<path d="M20.2344 28.9062C25.0237 28.9062 28.9062 25.0237 28.9062 20.2344C28.9062 15.445 25.0237 11.5625 20.2344 11.5625C15.445 11.5625 11.5625 15.445 11.5625 20.2344C11.5625 25.0237 15.445 28.9062 20.2344 28.9062Z" fill="url(#paint8_radial_3746_8202)"/>
<path d="M164.766 23.125V75.6766" stroke="url(#paint9_linear_3746_8202)" stroke-miterlimit="10"/>
<path d="M164.766 29.4844C169.715 29.4844 173.727 25.4724 173.727 20.5234C173.727 15.5745 169.715 11.5625 164.766 11.5625C159.817 11.5625 155.805 15.5745 155.805 20.5234C155.805 25.4724 159.817 29.4844 164.766 29.4844Z" fill="url(#paint10_radial_3746_8202)"/>
<path d="M54.9219 69.375H52.0312C45.6455 69.375 40.4688 74.5517 40.4688 80.9375V92.5C40.4688 98.8858 45.6455 104.062 52.0312 104.062H54.9219C61.3077 104.062 66.4844 98.8858 66.4844 92.5V80.9375C66.4844 74.5517 61.3077 69.375 54.9219 69.375Z" fill="url(#paint11_radial_3746_8202)"/>
<path d="M121.406 69.375H118.516C112.13 69.375 106.953 74.5517 106.953 80.9375V92.5C106.953 98.8858 112.13 104.062 118.516 104.062H121.406C127.792 104.062 132.969 98.8858 132.969 92.5V80.9375C132.969 74.5517 127.792 69.375 121.406 69.375Z" fill="url(#paint12_radial_3746_8202)"/>
<path d="M112.734 17.3438H72.2656C67.4763 17.3438 63.5938 21.2263 63.5938 26.0156C63.5938 30.805 67.4763 34.6875 72.2656 34.6875H112.734C117.524 34.6875 121.406 30.805 121.406 26.0156C121.406 21.2263 117.524 17.3438 112.734 17.3438Z" fill="url(#paint13_linear_3746_8202)"/>
<path d="M112.734 17.3438H72.2656C67.4763 17.3438 63.5938 21.2263 63.5938 26.0156C63.5938 30.805 67.4763 34.6875 72.2656 34.6875H112.734C117.524 34.6875 121.406 30.805 121.406 26.0156C121.406 21.2263 117.524 17.3438 112.734 17.3438Z" fill="url(#paint14_radial_3746_8202)"/>
<path d="M161.875 132.623V68.9709C168.234 68.9709 173.438 74.1741 173.438 80.5334V121.06C173.438 127.419 168.234 132.623 161.875 132.623Z" fill="url(#paint15_linear_3746_8202)"/>
<path d="M66.4844 76.6016C66.4844 72.6104 63.2489 69.375 59.2578 69.375C55.2667 69.375 52.0312 72.6104 52.0312 76.6016V91.0547C52.0312 95.0458 55.2667 98.2812 59.2578 98.2812C63.2489 98.2812 66.4844 95.0458 66.4844 91.0547V76.6016Z" fill="url(#paint16_linear_3746_8202)"/>
<path d="M66.4844 76.6016C66.4844 72.6104 63.2489 69.375 59.2578 69.375C55.2667 69.375 52.0312 72.6104 52.0312 76.6016V91.0547C52.0312 95.0458 55.2667 98.2812 59.2578 98.2812C63.2489 98.2812 66.4844 95.0458 66.4844 91.0547V76.6016Z" fill="url(#paint17_radial_3746_8202)"/>
<path d="M132.969 76.6016C132.969 72.6104 129.733 69.375 125.742 69.375C121.751 69.375 118.516 72.6104 118.516 76.6016V91.0547C118.516 95.0458 121.751 98.2812 125.742 98.2812C129.733 98.2812 132.969 95.0458 132.969 91.0547V76.6016Z" fill="url(#paint18_linear_3746_8202)"/>
<path d="M132.969 76.6016C132.969 72.6104 129.733 69.375 125.742 69.375C121.751 69.375 118.516 72.6104 118.516 76.6016V91.0547C118.516 95.0458 121.751 98.2812 125.742 98.2812C129.733 98.2812 132.969 95.0458 132.969 91.0547V76.6016Z" fill="url(#paint19_radial_3746_8202)"/>
<path d="M20.957 28.9062V63.5938" stroke="url(#paint20_linear_3746_8202)" stroke-width="0.25"/>
<path d="M165.488 28.9062V63.5938" stroke="url(#paint21_linear_3746_8202)" stroke-width="0.25"/>
<path d="M167.656 86.7188C170.849 86.7188 173.438 82.8362 173.438 78.0469C173.438 73.2575 170.849 69.375 167.656 69.375C164.463 69.375 161.875 73.2575 161.875 78.0469C161.875 82.8362 164.463 86.7188 167.656 86.7188Z" fill="url(#paint22_radial_3746_8202)"/>
<path d="M167.656 121.406C170.849 121.406 173.438 109.759 173.438 95.3906C173.438 81.0226 170.849 69.375 167.656 69.375C164.463 69.375 161.875 81.0226 161.875 95.3906C161.875 109.759 164.463 121.406 167.656 121.406Z" fill="url(#paint23_radial_3746_8202)"/>
<path fill-rule="evenodd" clip-rule="evenodd" d="M114.328 17.4897C117.84 18.142 120.608 20.9103 121.26 24.422C120.671 26.9904 118.372 28.9062 115.625 28.9062C112.432 28.9062 109.844 26.3178 109.844 23.1249C109.844 20.378 111.76 18.0785 114.328 17.4897Z" fill="url(#paint24_radial_3746_8202)"/>
<defs>
<radialGradient id="paint0_radial_3746_8202" cx="0" cy="0" r="1" gradientUnits="userSpaceOnUse" gradientTransform="translate(144.531 66.4844) rotate(141.911) scale(135.89)">
<stop stop-color="#EEEBF0"/>
<stop offset="0.493469" stop-color="#D1BEE3"/>
<stop offset="1" stop-color="#D0BCE2"/>
</radialGradient>
<linearGradient id="paint1_linear_3746_8202" x1="69.375" y1="104.062" x2="23.125" y2="104.062" gradientUnits="userSpaceOnUse">
<stop stop-color="#D5B2C0" stop-opacity="0"/>
<stop offset="1" stop-color="#B4878D"/>
</linearGradient>
<linearGradient id="paint2_linear_3746_8202" x1="92.5" y1="156.094" x2="92.5" y2="179.219" gradientUnits="userSpaceOnUse">
<stop stop-color="#B17EDB" stop-opacity="0"/>
<stop offset="1" stop-color="#A56BD6"/>
</linearGradient>
<radialGradient id="paint3_radial_3746_8202" cx="0" cy="0" r="1" gradientUnits="userSpaceOnUse" gradientTransform="translate(144.531 78.0469) rotate(-5.71059) scale(29.0504 111.037)">
<stop stop-color="#F0EAF6"/>
<stop offset="1" stop-color="#E7E0EF" stop-opacity="0"/>
</radialGradient>
<linearGradient id="paint4_linear_3746_8202" x1="-nan" y1="-nan" x2="-nan" y2="-nan" gradientUnits="userSpaceOnUse">
<stop stop-color="#EA248A"/>
<stop offset="1" stop-color="#DF2232"/>
</linearGradient>
<linearGradient id="paint5_linear_3746_8202" x1="17.3437" y1="69.375" x2="17.3437" y2="132.969" gradientUnits="userSpaceOnUse">
<stop stop-color="#E93273"/>
<stop offset="1" stop-color="#D21844"/>
</linearGradient>
<linearGradient id="paint6_linear_3746_8202" x1="92.4896" y1="102.332" x2="92.4896" y2="65.8531" gradientUnits="userSpaceOnUse">
<stop offset="0.00558659" stop-color="#443E75"/>
<stop offset="1" stop-color="#2F1A3B"/>
</linearGradient>
<linearGradient id="paint7_linear_3746_8202" x1="92.4896" y1="148.497" x2="92.4896" y2="132.329" gradientUnits="userSpaceOnUse">
<stop offset="0.00558659" stop-color="#39325E"/>
<stop offset="1" stop-color="#2B1831"/>
</linearGradient>
<radialGradient id="paint8_radial_3746_8202" cx="0" cy="0" r="1" gradientUnits="userSpaceOnUse" gradientTransform="translate(23.125 17.3438) rotate(104.036) scale(11.9183)">
<stop stop-color="#FF6C82"/>
<stop offset="0.441384" stop-color="#FF2455"/>
<stop offset="1" stop-color="#D9206C"/>
</radialGradient>
<linearGradient id="paint9_linear_3746_8202" x1="-nan" y1="-nan" x2="-nan" y2="-nan" gradientUnits="userSpaceOnUse">
<stop stop-color="#EA248A"/>
<stop offset="1" stop-color="#DF2232"/>
</linearGradient>
<radialGradient id="paint10_radial_3746_8202" cx="0" cy="0" r="1" gradientUnits="userSpaceOnUse" gradientTransform="translate(167.753 17.5364) rotate(104.036) scale(12.3156 12.3156)">
<stop stop-color="#FF6C82"/>
<stop offset="0.441384" stop-color="#FF2455"/>
<stop offset="1" stop-color="#D9206C"/>
</radialGradient>
<radialGradient id="paint11_radial_3746_8202" cx="0" cy="0" r="1" gradientUnits="userSpaceOnUse" gradientTransform="translate(54.9219 86.7187) rotate(168.69) scale(14.7394 20.1715)">
<stop stop-color="#322649"/>
<stop offset="1" stop-color="#342950" stop-opacity="0"/>
</radialGradient>
<radialGradient id="paint12_radial_3746_8202" cx="0" cy="0" r="1" gradientUnits="userSpaceOnUse" gradientTransform="translate(121.406 86.7187) rotate(168.69) scale(14.7394 20.1715)">
<stop stop-color="#322649"/>
<stop offset="1" stop-color="#342950" stop-opacity="0"/>
</radialGradient>
<linearGradient id="paint13_linear_3746_8202" x1="92.5" y1="17.3438" x2="83.8281" y2="37.5781" gradientUnits="userSpaceOnUse">
<stop stop-color="#FFCE2B"/>
<stop offset="1" stop-color="#D9862D"/>
</linearGradient>
<radialGradient id="paint14_radial_3746_8202" cx="0" cy="0" r="1" gradientUnits="userSpaceOnUse" gradientTransform="translate(92.5 23.125) rotate(90) scale(17.3438 57.8125)">
<stop offset="0.430882" stop-color="#CA7E29" stop-opacity="0"/>
<stop offset="1" stop-color="#673F13"/>
</radialGradient>
<linearGradient id="paint15_linear_3746_8202" x1="167.656" y1="68.9709" x2="167.656" y2="132.623" gradientUnits="userSpaceOnUse">
<stop stop-color="#FF30AA"/>
<stop offset="1" stop-color="#FF2353"/>
</linearGradient>
<linearGradient id="paint16_linear_3746_8202" x1="66.4844" y1="80.9375" x2="52.0312" y2="80.9375" gradientUnits="userSpaceOnUse">
<stop stop-color="#29B6FE"/>
<stop offset="1" stop-color="#1769A8"/>
</linearGradient>
<radialGradient id="paint17_radial_3746_8202" cx="0" cy="0" r="1" gradientUnits="userSpaceOnUse" gradientTransform="translate(63.5938 78.0469) rotate(90) scale(14.4531 6.61335)">
<stop stop-color="#54C8FF"/>
<stop offset="1" stop-color="#54C8FF" stop-opacity="0"/>
</radialGradient>
<linearGradient id="paint18_linear_3746_8202" x1="132.969" y1="80.9375" x2="118.516" y2="80.9375" gradientUnits="userSpaceOnUse">
<stop stop-color="#29B6FE"/>
<stop offset="1" stop-color="#1769A8"/>
</linearGradient>
<radialGradient id="paint19_radial_3746_8202" cx="0" cy="0" r="1" gradientUnits="userSpaceOnUse" gradientTransform="translate(130.078 78.0469) rotate(90) scale(14.4531 6.61335)">
<stop stop-color="#54C8FF"/>
<stop offset="1" stop-color="#54C8FF" stop-opacity="0"/>
</radialGradient>
<linearGradient id="paint20_linear_3746_8202" x1="-nan" y1="-nan" x2="-nan" y2="-nan" gradientUnits="userSpaceOnUse">
<stop stop-color="#FF96CB"/>
<stop offset="1" stop-color="#FF6DB7" stop-opacity="0"/>
</linearGradient>
<linearGradient id="paint21_linear_3746_8202" x1="-nan" y1="-nan" x2="-nan" y2="-nan" gradientUnits="userSpaceOnUse">
<stop stop-color="#FF96CB"/>
<stop offset="1" stop-color="#FF6DB7" stop-opacity="0"/>
</linearGradient>
<radialGradient id="paint22_radial_3746_8202" cx="0" cy="0" r="1" gradientUnits="userSpaceOnUse" gradientTransform="translate(167.656 78.0469) rotate(90) scale(8.67188 5.78125)">
<stop stop-color="#FF72C1"/>
<stop offset="1" stop-color="#FF6EBF" stop-opacity="0"/>
</radialGradient>
<radialGradient id="paint23_radial_3746_8202" cx="0" cy="0" r="1" gradientUnits="userSpaceOnUse" gradientTransform="translate(167.656 95.3906) rotate(90) scale(26.0156 3.23426)">
<stop stop-color="#FF4B9C"/>
<stop offset="1" stop-color="#FF73C1" stop-opacity="0"/>
</radialGradient>
<radialGradient id="paint24_radial_3746_8202" cx="0" cy="0" r="1" gradientUnits="userSpaceOnUse" gradientTransform="translate(115.625 23.1249) rotate(90) scale(5.78125 5.78125)">
<stop stop-color="#FFEA60"/>
<stop offset="1" stop-color="#FFEF66" stop-opacity="0"/>
</radialGradient>
</defs>
</svg>
