<svg width="60" height="53" viewBox="0 0 60 53" fill="none" xmlns="http://www.w3.org/2000/svg">
<path d="M19.3337 3.9768e-07C14.383 4.71452e-07 9.63501 1.96666 6.13433 5.46734C2.63365 8.96802 0.666992 13.716 0.666992 18.6667C0.666992 23.6174 2.63365 28.3653 6.13433 31.866C9.63501 35.3667 14.383 37.3333 19.3337 37.3333H22.187C21.9317 35.5647 21.9317 33.7686 22.187 32H19.3337C15.7974 32 12.4061 30.5952 9.90557 28.0948C7.40508 25.5943 6.00032 22.2029 6.00032 18.6667C6.00032 15.1304 7.40508 11.7391 9.90557 9.23858C12.4061 6.73809 15.7974 5.33333 19.3337 5.33333H40.667C42.6444 5.33293 44.5971 5.77235 46.3837 6.61975C48.1703 7.46715 49.746 8.70133 50.9968 10.2329C52.2476 11.7644 53.142 13.555 53.6154 15.4749C54.0887 17.3948 54.1291 19.3959 53.7337 21.3333C55.3057 22.8731 56.593 24.6787 57.5363 26.6667C58.8861 23.8212 59.4939 20.6804 59.3033 17.5368C59.1126 14.3931 58.1297 11.3488 56.446 8.68729C54.7623 6.02573 52.4326 3.83344 49.6737 2.3145C46.9148 0.795555 43.8164 -0.000649617 40.667 3.9768e-07H19.3337ZM40.667 26.6667C38.5453 26.6667 36.5104 27.5095 35.0101 29.0098C33.5098 30.5101 32.667 32.5449 32.667 34.6667C32.667 36.7884 33.5098 38.8232 35.0101 40.3235C36.5104 41.8238 38.5453 42.6667 40.667 42.6667C42.7887 42.6667 44.8236 41.8238 46.3238 40.3235C47.8241 38.8232 48.667 36.7884 48.667 34.6667C48.667 32.5449 47.8241 30.5101 46.3238 29.0098C44.8236 27.5095 42.7887 26.6667 40.667 26.6667ZM27.3337 34.6667C27.3342 32.5878 27.8208 30.5378 28.7546 28.6804C29.6885 26.8231 31.0437 25.2098 32.7121 23.9695C34.3805 22.7292 36.3158 21.8962 38.3634 21.537C40.411 21.1779 42.5143 21.3025 44.5052 21.9009C46.4961 22.4994 48.3195 23.5551 49.8297 24.9837C51.34 26.4123 52.4952 28.1743 53.2032 30.1289C53.9113 32.0836 54.1524 34.1767 53.9074 36.2411C53.6624 38.3055 52.9381 40.284 51.7923 42.0187L58.5523 48.7813L54.7817 52.552L48.019 45.792C46.0093 47.1203 43.6772 47.8794 41.2707 47.9884C38.8641 48.0975 36.473 47.5526 34.3513 46.4115C32.2297 45.2704 30.4569 43.5758 29.2212 41.5078C27.9856 39.4398 27.3333 37.0757 27.3337 34.6667Z" fill="#DB1222"/>
</svg>
