<svg width="64" height="64" viewBox="0 0 64 64" fill="none" xmlns="http://www.w3.org/2000/svg">
<path d="M25.5859 10.5067C25.8259 9.06133 27.0792 8 28.5459 8H35.4605C36.9272 8 38.1805 9.06133 38.4205 10.5067L38.9885 13.9227C39.1565 14.92 39.8232 15.752 40.7085 16.2427C40.9059 16.3493 41.1005 16.464 41.2952 16.5813C42.1619 17.104 43.2152 17.2667 44.1619 16.912L47.4072 15.696C48.0722 15.4459 48.8045 15.4399 49.4735 15.6792C50.1426 15.9185 50.7049 16.3875 51.0605 17.0027L54.5165 22.9947C54.8713 23.6099 54.9964 24.331 54.8694 25.0298C54.7425 25.7285 54.3717 26.3596 53.8232 26.8107L51.1485 29.016C50.3672 29.6587 49.9805 30.6507 50.0019 31.6613C50.0056 31.888 50.0056 32.1147 50.0019 32.3413C49.9805 33.3493 50.3672 34.3413 51.1485 34.984L53.8259 37.1893C54.9565 38.1227 55.2499 39.736 54.5192 41.0027L51.0579 46.9947C50.7028 47.6097 50.141 48.0788 49.4726 48.3186C48.8041 48.5583 48.0722 48.5532 47.4072 48.304L44.1619 47.088C43.2152 46.7333 42.1619 46.896 41.2925 47.4187C41.0992 47.5363 40.9036 47.6501 40.7059 47.76C39.8232 48.248 39.1565 49.08 38.9885 50.0773L38.4205 53.4933C38.1805 54.9413 36.9272 56 35.4605 56H28.5432C27.0765 56 25.8259 54.9387 25.5832 53.4933L25.0152 50.0773C24.8499 49.08 24.1832 48.248 23.2979 47.7573C23.1001 47.6483 22.9045 47.5354 22.7112 47.4187C21.8445 46.896 20.7912 46.7333 19.8419 47.088L16.5965 48.304C15.9318 48.5534 15.2002 48.559 14.5317 48.3197C13.8633 48.0805 13.3013 47.6119 12.9459 46.9973L9.48718 41.0053C9.13237 40.3901 9.00731 39.669 9.13427 38.9702C9.26123 38.2715 9.63196 37.6404 10.1805 37.1893L12.8579 34.984C13.6365 34.344 14.0232 33.3493 14.0045 32.3413C14.0003 32.1147 14.0003 31.888 14.0045 31.6613C14.0232 30.648 13.6365 29.6587 12.8579 29.016L10.1805 26.8107C9.63262 26.3597 9.26232 25.7292 9.13538 25.031C9.00844 24.3328 9.13309 23.6123 9.48718 22.9973L12.9459 17.0053C13.301 16.3897 13.8632 15.9202 14.5323 15.6804C15.2014 15.4406 15.9338 15.4461 16.5992 15.696L19.8419 16.912C20.7912 17.2667 21.8445 17.104 22.7112 16.5813C22.9032 16.464 23.1005 16.352 23.2979 16.24C24.1832 15.752 24.8499 14.92 25.0152 13.9227L25.5859 10.5067Z" stroke="#DB1222" stroke-width="4" stroke-linecap="round" stroke-linejoin="round"/>
<path d="M40 32C40 34.1217 39.1571 36.1566 37.6569 37.6569C36.1566 39.1571 34.1217 40 32 40C29.8783 40 27.8434 39.1571 26.3431 37.6569C24.8429 36.1566 24 34.1217 24 32C24 29.8783 24.8429 27.8434 26.3431 26.3431C27.8434 24.8429 29.8783 24 32 24C34.1217 24 36.1566 24.8429 37.6569 26.3431C39.1571 27.8434 40 29.8783 40 32Z" stroke="#DB1222" stroke-width="4" stroke-linecap="round" stroke-linejoin="round"/>
</svg>
