<svg width="54" height="58" viewBox="0 0 54 58" fill="none" xmlns="http://www.w3.org/2000/svg">
<path fill-rule="evenodd" clip-rule="evenodd" d="M23.9962 6.5H29.9999C30.1988 6.5 30.3896 6.57902 30.5302 6.71967C30.6709 6.86032 30.7499 7.05109 30.7499 7.25C30.7499 14.03 38.0924 18.2712 43.9649 14.8775C44.1363 14.7806 44.339 14.755 44.5291 14.8062C44.7193 14.8574 44.8816 14.9813 44.9812 15.1513L47.9887 20.3563C48.0868 20.528 48.113 20.7316 48.0618 20.9226C48.0105 21.1136 47.8858 21.2767 47.7149 21.3762C41.8424 24.7662 41.8424 33.2413 47.7149 36.635C47.8848 36.7345 48.0088 36.8969 48.06 37.087C48.1112 37.2772 48.0856 37.4798 47.9887 37.6512L44.9812 42.8562C44.8816 43.0261 44.7193 43.1501 44.5291 43.2013C44.339 43.2525 44.1363 43.2269 43.9649 43.13C38.0924 39.7362 30.7499 43.9738 30.7499 50.75C30.7499 50.9483 30.6714 51.1385 30.5316 51.279C30.3917 51.4196 30.2019 51.499 30.0037 51.5H23.9999C23.801 51.5 23.6102 51.421 23.4696 51.2803C23.3289 51.1397 23.2499 50.9489 23.2499 50.75C23.2499 43.97 15.9074 39.7325 10.0349 43.1225C9.86315 43.2206 9.6596 43.2469 9.46856 43.1956C9.27752 43.1443 9.11448 43.0197 9.01491 42.8488L6.01491 37.6438C5.91768 37.4728 5.89149 37.2705 5.94199 37.0804C5.9925 36.8903 6.11565 36.7277 6.28491 36.6275C12.1574 33.2338 12.1574 24.7588 6.28491 21.365C6.11601 21.2655 5.99278 21.1038 5.94162 20.9146C5.89045 20.7253 5.91542 20.5236 6.01116 20.3525L9.01491 15.1437C9.1151 14.9735 9.27842 14.8496 9.46941 14.7991C9.66039 14.7485 9.86361 14.7753 10.0349 14.8737C15.9074 18.2675 23.2499 14.0262 23.2499 7.24625C23.2499 6.83375 23.5837 6.5 23.9962 6.5ZM17.6249 7.25C17.6249 3.725 20.4749 0.875 23.9962 0.875H29.9999C33.5249 0.875 36.3749 3.725 36.3749 7.25C36.376 7.80862 36.5239 8.35713 36.8038 8.84058C37.0837 9.32404 37.4857 9.72545 37.9695 10.0046C38.4534 10.2838 39.0021 10.4308 39.5608 10.4311C40.1194 10.4314 40.6683 10.2849 41.1524 10.0062C42.6158 9.16346 44.3538 8.93573 45.9849 9.37303C47.616 9.81034 49.0069 10.8769 49.8524 12.3387L52.8599 17.5438C54.6187 20.5925 53.5724 24.485 50.5274 26.2437C50.0431 26.5236 49.6409 26.9259 49.3613 27.4104C49.0817 27.8949 48.9345 28.4444 48.9345 29.0038C48.9345 29.5631 49.0817 30.1126 49.3613 30.5971C49.6409 31.0816 50.0431 31.4839 50.5274 31.7638C51.9892 32.6093 53.0558 34.0002 53.4931 35.6313C53.9304 37.2624 53.7027 39.0004 52.8599 40.4637L49.8524 45.6687C49.0069 47.1306 47.616 48.1972 45.9849 48.6345C44.3538 49.0718 42.6158 48.844 41.1524 48.0013C40.6683 47.7226 40.1194 47.5761 39.5608 47.5764C39.0021 47.5767 38.4534 47.7237 37.9695 48.0029C37.4857 48.282 37.0837 48.6835 36.8038 49.1669C36.5239 49.6504 36.376 50.1989 36.3749 50.7575C36.3749 54.2788 33.5249 57.1325 30.0037 57.1325H23.9999C22.3098 57.1315 20.6893 56.4594 19.4945 55.264C18.2998 54.0685 17.6287 52.4476 17.6287 50.7575C17.6275 50.1989 17.4796 49.6504 17.1998 49.1669C16.9199 48.6835 16.5179 48.282 16.034 48.0029C15.5502 47.7237 15.0014 47.5767 14.4428 47.5764C13.8842 47.5761 13.3353 47.7226 12.8512 48.0013C11.3878 48.844 9.64982 49.0718 8.01872 48.6345C6.38762 48.1972 4.99666 47.1306 4.15116 45.6687L1.14366 40.4637C0.300875 39.0004 0.0731407 37.2624 0.510445 35.6313C0.947749 34.0002 2.01436 32.6093 3.47616 31.7638C3.95963 31.4837 4.36099 31.0814 4.64 30.5974C4.91901 30.1133 5.06588 29.5644 5.06588 29.0056C5.06588 28.4469 4.91901 27.898 4.64 27.4139C4.36099 26.9298 3.95963 26.5276 3.47616 26.2475C2.01436 25.402 0.947749 24.011 0.510445 22.3799C0.0731407 20.7488 0.300875 19.0109 1.14366 17.5475L4.14741 12.3387C4.99291 10.8769 6.38387 9.81034 8.01497 9.37303C9.64607 8.93573 11.384 9.16346 12.8474 10.0062C13.3316 10.2849 13.8805 10.4314 14.4391 10.4311C14.9977 10.4308 15.5464 10.2838 16.0303 10.0046C16.5141 9.72545 16.9162 9.32404 17.196 8.84058C17.4759 8.35713 17.6238 7.80862 17.6249 7.25ZM32.6249 29C32.6249 30.4918 32.0323 31.9226 30.9774 32.9775C29.9225 34.0324 28.4918 34.625 26.9999 34.625C25.5081 34.625 24.0773 34.0324 23.0224 32.9775C21.9675 31.9226 21.3749 30.4918 21.3749 29C21.3749 27.5082 21.9675 26.0774 23.0224 25.0225C24.0773 23.9676 25.5081 23.375 26.9999 23.375C28.4918 23.375 29.9225 23.9676 30.9774 25.0225C32.0323 26.0774 32.6249 27.5082 32.6249 29ZM38.2499 29C38.2499 31.9837 37.0646 34.8452 34.9549 36.955C32.8451 39.0647 29.9836 40.25 26.9999 40.25C24.0162 40.25 21.1547 39.0647 19.045 36.955C16.9352 34.8452 15.7499 31.9837 15.7499 29C15.7499 26.0163 16.9352 23.1548 19.045 21.045C21.1547 18.9353 24.0162 17.75 26.9999 17.75C29.9836 17.75 32.8451 18.9353 34.9549 21.045C37.0646 23.1548 38.2499 26.0163 38.2499 29Z" fill="#DB1222"/>
</svg>
