<svg width="53" height="51" viewBox="0 0 53 51" fill="none" xmlns="http://www.w3.org/2000/svg">
<path d="M51.9258 41.3L49.2508 39.25C49.3008 38.825 49.3508 38.425 49.3508 38C49.3508 37.575 49.3258 37.175 49.2508 36.75L51.9008 34.7C52.0132 34.6037 52.0893 34.4719 52.1165 34.3264C52.1438 34.1809 52.1206 34.0305 52.0508 33.9L49.5508 29.575C49.4008 29.25 49.0758 29.25 48.7508 29.25L45.6758 30.5C45.0008 30.05 44.3258 29.625 43.5508 29.325L43.0758 26.025C43.0601 25.8826 42.993 25.7508 42.8872 25.6542C42.7814 25.5576 42.6441 25.5028 42.5008 25.5H37.5008C37.348 25.4972 37.1992 25.5482 37.0803 25.6442C36.9614 25.7402 36.8802 25.875 36.8508 26.025L36.3758 29.325C35.6258 29.65 34.9008 30.05 34.2508 30.5L31.1508 29.25C30.8758 29.25 30.5508 29.25 30.3758 29.575L27.8758 33.9C27.7258 34.175 27.7758 34.5 28.0258 34.7L30.6758 36.75C30.5763 37.5804 30.5763 38.4196 30.6758 39.25L28.0258 41.3C27.9135 41.3963 27.8374 41.5281 27.8101 41.6736C27.7828 41.8191 27.806 41.9695 27.8758 42.1L30.3758 46.425C30.5258 46.75 30.8508 46.75 31.1508 46.75L34.2508 45.5C34.9008 45.95 35.6008 46.375 36.3758 46.675L36.8508 49.975C36.9008 50.275 37.1508 50.5 37.5008 50.5H42.5008C42.7758 50.5 43.0508 50.275 43.1008 49.975L43.5758 46.675C44.3258 46.35 45.0008 45.95 45.6758 45.5L48.7508 46.75C49.0758 46.75 49.4008 46.75 49.5758 46.425L52.0758 42.1C52.1456 41.9695 52.1688 41.8191 52.1415 41.6736C52.1143 41.5281 52.0382 41.3963 51.9258 41.3ZM40.0008 41.75C37.9008 41.75 36.2508 40.075 36.2508 38C36.2508 35.925 37.9258 34.25 40.0008 34.25C42.0758 34.25 43.7508 35.925 43.7508 38C43.7508 40.075 42.0758 41.75 40.0008 41.75ZM39.0508 1.05C38.5758 0.7 38.0508 0.5 37.5008 0.5H2.50082C1.95082 0.5 1.42582 0.7 0.950817 1.05C0.431904 1.45887 0.095921 2.0565 0.0162857 2.71232C-0.0633496 3.36814 0.119837 4.02883 0.525817 4.55L12.5008 19.875V32.675C12.4008 33.4 12.6508 34.175 13.2258 34.75L23.2508 44.775C23.5008 45.025 23.7508 45.2 24.1258 45.325C23.0508 43 22.5008 40.5 22.5008 38C22.5008 33.425 24.3008 29.025 27.5008 25.75V19.875L39.4758 4.55C39.8818 4.02883 40.065 3.36814 39.9853 2.71232C39.9057 2.0565 39.5697 1.45887 39.0508 1.05ZM22.5008 18.125V36.95L17.5008 31.95V18.15L7.60082 5.5H32.4008L22.5008 18.125Z" fill="#DB1222"/>
</svg>
