<svg width="54" height="59" viewBox="0 0 54 59" fill="none" xmlns="http://www.w3.org/2000/svg">
<path d="M19.2856 9.52816C20.8803 4.8615 27.3283 4.72016 29.2189 9.10416L29.3789 9.53083L31.5309 15.8242C32.0241 17.2675 32.8211 18.5882 33.8681 19.6973C34.9151 20.8064 36.1878 21.6781 37.6003 22.2535L38.1789 22.4695L44.4723 24.6188C49.1389 26.2135 49.2803 32.6615 44.8989 34.5522L44.4723 34.7122L38.1789 36.8642C36.7352 37.357 35.4139 38.1538 34.3043 39.2009C33.1947 40.2479 32.3227 41.5207 31.7469 42.9335L31.5309 43.5095L29.3816 49.8055C27.7869 54.4722 21.3389 54.6135 19.4509 50.2322L19.2856 49.8055L17.1363 43.5122C16.6434 42.0684 15.8466 40.7471 14.7996 39.6375C13.7526 38.528 12.4797 37.6559 11.0669 37.0802L10.4909 36.8642L4.19761 34.7148C-0.471722 33.1202 -0.613055 26.6722 3.77095 24.7842L4.19761 24.6188L10.4909 22.4695C11.9342 21.9763 13.255 21.1793 14.3641 20.1324C15.4732 19.0854 16.3448 17.8127 16.9203 16.4002L17.1363 15.8242L19.2856 9.52816ZM24.3336 11.2508L22.1843 17.5442C21.4333 19.745 20.2117 21.7556 18.6044 23.4362C16.9971 25.1167 15.0428 26.4266 12.8776 27.2748L12.2109 27.5175L5.91761 29.6668L12.2109 31.8162C14.4118 32.5671 16.4224 33.7888 18.1029 35.3961C19.7834 37.0034 21.0934 38.9576 21.9416 41.1228L22.1843 41.7895L24.3336 48.0828L26.4829 41.7895C27.2339 39.5887 28.4556 37.578 30.0629 35.8975C31.6701 34.217 33.6244 32.907 35.7896 32.0588L36.4563 31.8188L42.7496 29.6668L36.4563 27.5175C34.2555 26.7665 32.2448 25.5449 30.5643 23.9376C28.8838 22.3303 27.5738 20.376 26.7256 18.2108L26.4856 17.5442L24.3336 11.2508ZM45.6669 0.333497C46.1658 0.333495 46.6547 0.473438 47.078 0.73742C47.5013 1.0014 47.8421 1.37884 48.0616 1.82683L48.1896 2.13883L49.1229 4.87483L51.8616 5.80816C52.3616 5.97802 52.7998 6.29247 53.1209 6.71167C53.4419 7.13087 53.6313 7.63594 53.665 8.16289C53.6987 8.68983 53.5752 9.21491 53.3102 9.6716C53.0452 10.1283 52.6505 10.496 52.1763 10.7282L51.8616 10.8562L49.1256 11.7895L48.1923 14.5282C48.0221 15.028 47.7074 15.466 47.2881 15.7868C46.8687 16.1076 46.3636 16.2967 45.8367 16.3301C45.3097 16.3635 44.7848 16.2397 44.3282 15.9745C43.8717 15.7093 43.5042 15.3145 43.2723 14.8402L43.1443 14.5282L42.2109 11.7922L39.4723 10.8588C38.9723 10.689 38.5341 10.3745 38.213 9.95532C37.892 9.53612 37.7026 9.03105 37.6689 8.50411C37.6352 7.97717 37.7587 7.45208 38.0237 6.9954C38.2887 6.53871 38.6834 6.17099 39.1576 5.93883L39.4723 5.81083L42.2083 4.8775L43.1416 2.13883C43.3214 1.61196 43.6616 1.15459 44.1145 0.830826C44.5674 0.507067 45.1102 0.333162 45.6669 0.333497Z" fill="#DB1222"/>
</svg>
