<svg width="70" height="72" viewBox="0 0 70 72" fill="none" xmlns="http://www.w3.org/2000/svg">
<path d="M5.78202 34.1821V59.9473H16.69L17.2408 60.0121C27.3676 62.3737 34.078 64.0765 37.4224 65.1313C41.8648 66.5317 43.5208 66.8737 46.534 67.0753C48.7876 67.2301 51.3472 66.3625 52.5136 65.1745C53.158 64.5193 53.6404 63.1729 53.8312 61.0849C53.8704 60.6469 54.0268 60.2276 54.2839 59.8709C54.5411 59.5143 54.8896 59.2335 55.2928 59.0581C56.1892 58.6693 56.9344 58.0357 57.5572 57.1141C58.1332 56.2717 58.5076 54.7021 58.576 52.4305C58.5874 52.0127 58.7055 51.6048 58.9191 51.2456C59.1327 50.8864 59.4348 50.5879 59.7964 50.3785C61.8916 49.1653 62.9284 47.7973 63.1444 46.1917C63.382 44.4169 62.806 42.4189 61.2976 40.1437C60.9437 39.6101 60.8119 38.9595 60.9302 38.3302C61.0485 37.7009 61.4077 37.1427 61.9312 36.7741C63.3748 35.7589 64.1668 34.3477 64.3648 32.3461C64.6816 29.1565 62.6476 26.7985 58.0432 26.3269C53.9424 25.9197 49.8016 26.2649 45.8248 27.3457C45.3737 27.4636 44.8982 27.4502 44.4545 27.307C44.0107 27.1639 43.617 26.897 43.3197 26.5377C43.0225 26.1785 42.834 25.7418 42.7766 25.279C42.7191 24.8163 42.7949 24.3468 42.9952 23.9257C44.7952 20.1169 45.796 16.9741 46.03 14.5405C46.336 11.3113 45.5908 8.97126 43.8484 7.04167C42.5272 5.58007 40.414 4.74487 39.622 4.91767C38.578 5.14087 37.8976 5.74567 37.012 7.86246C36.49 9.11526 36.238 10.1809 35.806 12.6685C35.392 15.0301 35.1652 16.0957 34.6936 17.4925C33.2716 21.7261 29.7832 26.1145 25.0996 29.1421C21.8145 31.2566 18.2576 32.9157 14.5264 34.0741C14.2929 34.1447 14.0504 34.1811 13.8064 34.1821H5.78202ZM5.63082 64.8541C4.46802 64.8865 3.42402 64.6273 2.54922 64.0153C1.43322 63.2341 0.907624 62.0029 0.896824 60.5845L0.907624 34.2217C0.785224 32.8177 1.19922 31.5289 2.17842 30.5713C3.09642 29.6713 4.29522 29.2465 5.56242 29.2753H13.4284C16.6104 28.2616 19.644 26.8308 22.45 25.0201C26.2228 22.5793 29.002 19.0801 30.064 15.9265C30.4276 14.8393 30.622 13.9393 30.9892 11.8225C31.486 8.98207 31.7956 7.66087 32.5084 5.96167C33.9844 2.42647 35.9212 0.698466 38.5924 0.118866C41.2204 -0.449934 45.0472 1.06567 47.4664 3.74407C50.1484 6.71046 51.3328 10.4221 50.8936 15.0085C50.704 16.9765 50.1592 19.1893 49.2592 21.6469C52.3328 21.1986 55.4499 21.1309 58.54 21.4453C65.7652 22.1833 69.8224 26.8885 69.232 32.8357C68.9728 35.3989 68.044 37.5769 66.4636 39.2869C67.792 41.8465 68.3212 44.3773 67.99 46.8469C67.6084 49.6909 66.0244 52.0597 63.3892 53.8993C63.184 56.3941 62.6116 58.3849 61.5964 59.8753C60.7941 61.0773 59.7508 62.0997 58.5328 62.8777C58.144 65.3401 57.3268 67.2661 55.9912 68.6197C53.7772 70.8733 49.8208 72.2161 46.2064 71.9713C42.7756 71.7409 40.7452 71.3233 35.9572 69.8113C32.8 68.8141 26.2624 67.1581 16.4092 64.8541H5.63082ZM11.7544 33.0625C11.7535 32.7404 11.8161 32.4213 11.9387 32.1234C12.0613 31.8256 12.2415 31.5549 12.4689 31.3268C12.6963 31.0987 12.9665 30.9178 13.2639 30.7943C13.5614 30.6708 13.8803 30.6073 14.2024 30.6073C14.5239 30.6082 14.842 30.6725 15.1387 30.7964C15.4353 30.9203 15.7047 31.1014 15.9313 31.3293C16.158 31.5573 16.3375 31.8277 16.4596 32.1251C16.5818 32.4225 16.6442 32.741 16.6432 33.0625V60.7033C16.6437 61.0247 16.5808 61.3432 16.4583 61.6403C16.3357 61.9375 16.1558 62.2077 15.9288 62.4353C15.7018 62.663 15.4322 62.8437 15.1354 62.9671C14.8385 63.0906 14.5203 63.1544 14.1988 63.1549C13.8773 63.1544 13.5591 63.0906 13.2623 62.9671C12.9655 62.8437 12.6959 62.663 12.4689 62.4353C12.2419 62.2077 12.062 61.9375 11.9394 61.6403C11.8168 61.3432 11.754 61.0247 11.7544 60.7033V33.0625Z" fill="#DB1222"/>
</svg>
