<svg width="59" height="51" viewBox="0 0 59 51" fill="none" xmlns="http://www.w3.org/2000/svg">
<path d="M22.8727 5.66671C21.8221 5.66671 20.7819 5.87363 19.8113 6.27567C18.8407 6.67771 17.9587 7.26698 17.2159 8.00985C16.473 8.75272 15.8837 9.63463 15.4817 10.6052C15.0796 11.5758 14.8727 12.6161 14.8727 13.6667C14.8727 14.7173 15.0796 15.7576 15.4817 16.7282C15.8837 17.6988 16.473 18.5807 17.2159 19.3236C17.9587 20.0664 18.8407 20.6557 19.8113 21.0577C20.7819 21.4598 21.8221 21.6667 22.8727 21.6667C24.9945 21.6667 27.0293 20.8239 28.5296 19.3236C30.0299 17.8233 30.8727 15.7884 30.8727 13.6667C30.8727 11.545 30.0299 9.51014 28.5296 8.00985C27.0293 6.50956 24.9945 5.66671 22.8727 5.66671ZM9.53939 13.6667C9.53939 10.1305 10.9441 6.7391 13.4446 4.23862C15.9451 1.73813 19.3365 0.333374 22.8727 0.333374C26.4089 0.333374 29.8003 1.73813 32.3008 4.23862C34.8013 6.7391 36.2061 10.1305 36.2061 13.6667C36.2061 17.2029 34.8013 20.5943 32.3008 23.0948C29.8003 25.5953 26.4089 27 22.8727 27C19.3365 27 15.9451 25.5953 13.4446 23.0948C10.9441 20.5943 9.53939 17.2029 9.53939 13.6667ZM55.0674 10.0614L56.3927 12.3734C58.0179 15.2036 58.8727 18.4104 58.8717 21.6741C58.8708 24.9377 58.0142 28.1441 56.3874 30.9734L55.0567 33.2854L50.4354 30.6267L51.7634 28.3147C52.9256 26.294 53.5376 24.0039 53.5386 21.6728C53.5395 19.3417 52.9293 17.051 51.7687 15.0294L50.4407 12.7174L55.0674 10.0614ZM46.9741 14.7067L48.2994 17.0214C49.1121 18.4361 49.5398 20.0391 49.5398 21.6707C49.5398 23.3023 49.1121 24.9053 48.2994 26.32L46.9661 28.632L42.3447 25.9734L43.6727 23.6614C44.0213 23.0549 44.2048 22.3676 44.2048 21.668C44.2048 20.9685 44.0213 20.2812 43.6727 19.6747L42.3474 17.3627L46.9741 14.7067ZM0.206055 45.6667C0.206055 42.1305 1.61081 38.7391 4.1113 36.2386C6.61178 33.7381 10.0032 32.3334 13.5394 32.3334H32.2061C35.7423 32.3334 39.1337 33.7381 41.6341 36.2386C44.1346 38.7391 45.5394 42.1305 45.5394 45.6667V51H40.2061V45.6667C40.2061 43.545 39.3632 41.5101 37.8629 40.0099C36.3626 38.5096 34.3278 37.6667 32.2061 37.6667H13.5394C11.4177 37.6667 9.38282 38.5096 7.88253 40.0099C6.38224 41.5101 5.53939 43.545 5.53939 45.6667V51H0.206055V45.6667Z" fill="#DB1222"/>
</svg>
