<svg width="54" height="43" viewBox="0 0 54 43" fill="none" xmlns="http://www.w3.org/2000/svg">
<path d="M29.8815 40.1667V36.8334C29.8815 31.3107 24.7642 26.8334 18.4522 26.8334H14.6442C8.33218 26.8334 3.21484 31.3107 3.21484 36.8334V40.1667M35.9775 26.8334H39.7855C46.0975 26.8334 51.2148 31.3107 51.2148 36.8334V40.1667M35.2148 3.2867C36.4213 2.86162 37.712 2.73203 38.9789 2.90878C40.2457 3.08553 41.4517 3.56348 42.4957 4.30254C43.5397 5.0416 44.3913 6.02023 44.979 7.15633C45.5667 8.29244 45.8734 9.55291 45.8734 10.832C45.8734 12.1111 45.5667 13.3716 44.979 14.5077C44.3913 15.6438 43.5397 16.6225 42.4957 17.3615C41.4517 18.1006 40.2457 18.5785 38.9789 18.7553C37.712 18.932 36.4213 18.8024 35.2148 18.3774M24.5482 10.8334C24.5482 12.9551 23.7053 14.9899 22.205 16.4902C20.7047 17.9905 18.6699 18.8334 16.5482 18.8334C14.4264 18.8334 12.3916 17.9905 10.8913 16.4902C9.39103 14.9899 8.54818 12.9551 8.54818 10.8334C8.54818 8.71163 9.39103 6.6768 10.8913 5.17651C12.3916 3.67622 14.4264 2.83337 16.5482 2.83337C18.6699 2.83337 20.7047 3.67622 22.205 5.17651C23.7053 6.6768 24.5482 8.71163 24.5482 10.8334Z" stroke="#DB1222" stroke-width="5" stroke-linecap="round" stroke-linejoin="round"/>
</svg>
