<svg width="54" height="33" viewBox="0 0 54 33" fill="none" xmlns="http://www.w3.org/2000/svg">
<path d="M53.4519 1.65333C53.1813 1.00173 52.6635 0.483933 52.0119 0.213333C51.6913 0.0766905 51.347 0.0042133 50.9985 0H37.6652C36.958 0 36.2797 0.280952 35.7796 0.781049C35.2795 1.28115 34.9985 1.95942 34.9985 2.66667C34.9985 3.37391 35.2795 4.05219 35.7796 4.55228C36.2797 5.05238 36.958 5.33333 37.6652 5.33333H44.5719L29.6652 20.24L20.8919 11.44C20.644 11.1901 20.349 10.9917 20.0241 10.8563C19.6991 10.7209 19.3506 10.6512 18.9985 10.6512C18.6465 10.6512 18.298 10.7209 17.973 10.8563C17.648 10.9917 17.3531 11.1901 17.1052 11.44L1.1052 27.44C0.855259 27.6879 0.656875 27.9828 0.521491 28.3078C0.386108 28.6328 0.316406 28.9813 0.316406 29.3333C0.316406 29.6854 0.386108 30.0339 0.521491 30.3589C0.656875 30.6838 0.855259 30.9788 1.1052 31.2267C1.3531 31.4766 1.64804 31.675 1.973 31.8104C2.29796 31.9458 2.6465 32.0155 2.99854 32.0155C3.35057 32.0155 3.69911 31.9458 4.02407 31.8104C4.34903 31.675 4.64397 31.4766 4.89187 31.2267L18.9985 17.0933L27.7719 25.8933C28.0198 26.1433 28.3147 26.3417 28.6397 26.477C28.9646 26.6124 29.3132 26.6821 29.6652 26.6821C30.0172 26.6821 30.3658 26.6124 30.6907 26.477C31.0157 26.3417 31.3106 26.1433 31.5585 25.8933L48.3319 9.09333V16C48.3319 16.7072 48.6128 17.3855 49.1129 17.8856C49.613 18.3857 50.2913 18.6667 50.9985 18.6667C51.7058 18.6667 52.3841 18.3857 52.8842 17.8856C53.3843 17.3855 53.6652 16.7072 53.6652 16V2.66667C53.661 2.31819 53.5885 1.97393 53.4519 1.65333Z" fill="#DB1222"/>
</svg>
