<svg width="64" height="61" viewBox="0 0 64 61" fill="none" xmlns="http://www.w3.org/2000/svg">
<path d="M42.668 39.6668C42.668 36.7202 34.3106 34.3335 24.0013 34.3335M42.668 39.6668C42.668 42.6135 34.3106 45.0002 24.0013 45.0002C13.692 45.0002 5.33464 42.6135 5.33464 39.6668M42.668 39.6668V52.8322C42.668 55.8695 34.3106 58.3335 24.0013 58.3335C13.692 58.3335 5.33464 55.8722 5.33464 52.8322V39.6668M42.668 39.6668C52.8653 39.6668 61.3346 37.0348 61.3346 34.3335V7.66683M24.0013 34.3335C13.692 34.3335 5.33464 36.7202 5.33464 39.6668M24.0013 34.3335C12.22 34.3335 2.66797 31.7015 2.66797 29.0002V15.6668M24.0013 10.3335C12.22 10.3335 2.66797 12.7202 2.66797 15.6668M2.66797 15.6668C2.66797 18.6135 12.22 21.0002 24.0013 21.0002C24.0013 23.7015 32.676 26.3335 42.8733 26.3335C53.0706 26.3335 61.3346 23.7015 61.3346 21.0002M61.3346 7.66683C61.3346 4.72016 53.068 2.3335 42.8733 2.3335C32.6786 2.3335 24.412 4.72016 24.412 7.66683M61.3346 7.66683C61.3346 10.6135 53.068 13.0002 42.8733 13.0002C32.6786 13.0002 24.412 10.6135 24.412 7.66683M24.412 7.66683V34.7762" stroke="#DB1222" stroke-width="4"/>
</svg>
