<svg width="1440" height="535" viewBox="0 0 1440 535" fill="none" xmlns="http://www.w3.org/2000/svg">
<g opacity="0.1">
<path d="M1134.32 404.875H981.47L904.13 270.931L981.47 136.986H1122.94C1124.7 136.986 1126.13 138.417 1126.13 140.181C1126.13 141.937 1124.7 143.368 1122.94 143.368H985.158L911.493 270.931L985.158 398.5H1134.32C1136.09 398.5 1137.51 399.931 1137.51 401.687C1137.51 403.451 1136.09 404.875 1134.32 404.875Z" fill="#DB1222"/>
<path d="M1122.33 152.167C1128.96 152.167 1134.32 146.799 1134.32 140.181C1134.32 133.556 1128.96 128.188 1122.33 128.188C1115.72 128.188 1110.35 133.556 1110.35 140.181C1110.35 146.799 1115.72 152.167 1122.33 152.167Z" fill="#DB1222"/>
<path d="M304.107 272.368H453.724L528.535 142.82L453.724 13.2709H304.107L229.302 142.82L304.107 272.368ZM455.12 274.778H302.718L226.51 142.82L302.718 10.8542H455.12L531.321 142.82L455.12 274.778Z" fill="#DB1222"/>
<path d="M757.292 272.368H906.909L981.72 142.82L906.909 13.2709H757.292L682.487 142.82L757.292 272.368ZM908.305 274.778H755.896L679.695 142.82L755.896 10.8542H908.305L984.506 142.82L908.305 274.778Z" fill="#DB1222"/>
<path d="M229.747 407.521H76.8936C75.1364 407.521 73.7056 406.09 73.7056 404.333C73.7056 402.569 75.1364 401.146 76.8936 401.146H226.066L299.731 273.576L226.066 146.007H88.2845C86.5273 146.007 85.0964 144.576 85.0964 142.819C85.0964 141.055 86.5273 139.632 88.2845 139.632H229.747L307.094 273.576L229.747 407.521Z" fill="#DB1222"/>
<path d="M88.8882 130.826C82.269 130.826 76.8931 136.201 76.8931 142.819C76.8931 149.438 82.269 154.806 88.8882 154.806C95.5074 154.806 100.876 149.438 100.876 142.819C100.876 136.201 95.5074 130.826 88.8882 130.826Z" fill="#DB1222"/>
<path d="M77.5969 403.125H227.213L302.018 273.576L227.213 144.028H77.5969L2.78521 273.576L77.5969 403.125ZM228.609 405.535H76.2008L0 273.576L76.2008 141.611H228.609L304.81 273.576L228.609 405.535Z" fill="#DB1222"/>
<path d="M530.807 403.125H680.417L755.228 273.576L680.417 144.028H530.807L455.995 273.576L530.807 403.125ZM681.813 405.535H529.411L453.203 273.576L529.411 141.611H681.813L758.013 273.576L681.813 405.535Z" fill="#DB1222"/>
<path d="M1210.5 269.722H1360.12L1434.92 140.174L1360.12 10.6251H1210.5L1135.69 140.174L1210.5 269.722ZM1361.52 272.139H1209.11L1132.91 140.174L1209.11 8.21533H1361.52L1437.72 140.174L1361.52 272.139Z" fill="#DB1222"/>
<path d="M984.011 400.479H1133.63L1208.43 270.93L1133.63 141.389H984.011L909.206 270.93L984.011 400.479ZM1135.02 402.896H982.622L906.414 270.93L982.622 138.972H1135.02L1211.22 270.93L1135.02 402.896Z" fill="#DB1222"/>
<path d="M669.726 407.521H528.263L450.917 273.577L528.263 139.632H681.117C682.874 139.632 684.305 141.056 684.305 142.82C684.305 144.577 682.874 146.007 681.117 146.007H531.945L458.279 273.577L531.945 401.146H669.726C671.49 401.146 672.914 402.57 672.914 404.333C672.914 406.09 671.49 407.521 669.726 407.521Z" fill="#DB1222"/>
<path d="M669.123 416.319C675.75 416.319 681.119 410.951 681.119 404.333C681.119 397.708 675.75 392.34 669.123 392.34C662.511 392.34 657.135 397.708 657.135 404.333C657.135 410.951 662.511 416.319 669.123 416.319Z" fill="#DB1222"/>
<path d="M456.239 276.764H303.386C301.629 276.764 300.198 275.333 300.198 273.576C300.198 271.812 301.629 270.389 303.386 270.389H452.558L526.223 142.819L452.558 15.25H314.777C313.012 15.25 311.589 13.8194 311.589 12.0625C311.589 10.3056 313.012 8.875 314.777 8.875H456.239L533.586 142.819L456.239 276.764Z" fill="#DB1222"/>
<mask id="mask0_790_160" style="mask-type:luminance" maskUnits="userSpaceOnUse" x="302" y="0" width="27" height="25">
<path d="M302.328 0H328.999V24.3472H302.328V0Z" fill="white"/>
</mask>
<g mask="url(#mask0_790_160)">
<path d="M315.371 0.0695801C308.752 0.0695801 303.383 5.44458 303.383 12.0626C303.383 18.6807 308.752 24.0487 315.371 24.0487C321.99 24.0487 327.359 18.6807 327.359 12.0626C327.359 5.44458 321.99 0.0695801 315.371 0.0695801Z" fill="#DB1222"/>
</g>
<path d="M1366.29 525.917C1365.74 525.917 1365.2 525.778 1364.69 525.486C1363.17 524.604 1362.65 522.653 1363.54 521.132L1432.64 401.958L1359.2 274.257L1211.88 273.986L1137.06 403.014C1136.17 404.535 1134.22 405.056 1132.7 404.174C1131.18 403.292 1130.65 401.34 1131.54 399.82L1208.2 267.604L1362.9 267.882L1440 401.965L1369.05 524.326C1368.46 525.347 1367.39 525.917 1366.29 525.917Z" fill="#DB1222"/>
<path d="M1376.97 528.222C1373.64 533.951 1366.31 535.903 1360.58 532.583C1354.85 529.264 1352.89 521.924 1356.21 516.201C1359.54 510.472 1366.88 508.521 1372.61 511.84C1378.33 515.16 1380.28 522.493 1376.97 528.222Z" fill="#DB1222"/>
</g>
</svg>
